<svg xmlns="http://www.w3.org/2000/svg" viewBox="0 0 16 16">
<path d="m8.63 8.662-2.837 5.072a.329.329 0 0 0 .287.488h3.15a.335.335 0 0 0 .288-.165l1.669-2.816a.327.327 0 0 0 0-.33L9.785 8.648a.67.67 0 0 0-1.149.02l-.007-.006zm-.72-2.738L3.074 14.05a.335.335 0 0 1-.286.165H.325a.333.333 0 0 1-.325-.33c0-.057.015-.114.045-.164L6.053 3.563l.774-1.32a.965.965 0 0 1 1.616-.06l.8 1.136a.327.327 0 0 1 .008.349L7.93 5.905l-.013.02h-.008zm5.874 5.667-1.269 2.13a.326.326 0 0 0-.044.165c0 .178.145.325.325.33h2.543a.667.667 0 0 0 .661-.66.651.651 0 0 0-.093-.337l-.968-1.629a.67.67 0 0 0-1.149 0h-.006zm-3.492-5.805-.547.99a.327.327 0 0 0 0 .329l1.408 2.27a.67.67 0 0 0 1.142-.014l.554-.924a.327.327 0 0 0 0-.33l-1.402-2.335a.67.67 0 0 0-1.155.02v-.007z" fill="#000000"/>
</svg>