<svg viewBox="0 0 260 260" xmlns="http://www.w3.org/2000/svg">
<path d="M140.34 140.96l-46.25 82.97a5.35 5.35 0 004.7 7.97h51.15c1.9 0 3.67-1 4.64-2.65l27.23-46.15c1-1.7.98-3.83-.05-5.52 0 0-14.8-24.1-22.71-37.01a10.84 10.84 0 00-18.71.39zm-11.7-44.94l-78.6 133.23a5.4 5.4 0 01-4.65 2.65h-40a5.39 5.39 0 01-4.65-8.08L98.35 57.38l.02-.03L111 35.8a15.6 15.6 0 0126.29-1l12.9 18.54a5.35 5.35 0 01.2 5.77L128.84 95.7l-.2.33zm95.4 92.88l-20.65 34.9a5.35 5.35 0 004.64 8.1h41.11c3.9 0 7.5-2.08 9.43-5.45a10.79 10.79 0 00-.07-10.86l-15.79-26.7a10.84 10.84 0 00-18.67 0zm-56.68-95.04l-8.97 16.06a5.35 5.35 0 00.11 5.41l22.84 37.22a10.83 10.83 0 0018.58-.15l8.91-15.1c1-1.69.99-3.78 0-5.46l-22.67-38.22a10.84 10.84 0 00-18.8.24z" fill="#000000"/>
</svg>