<?xml version="1.0" standalone="no"?>
<!DOCTYPE svg PUBLIC "-//W3C//DTD SVG 20010904//EN"
 "http://www.w3.org/TR/2001/REC-SVG-20010904/DTD/svg10.dtd">
<svg version="1.0" xmlns="http://www.w3.org/2000/svg"
 width="700.000000pt" height="700.000000pt" viewBox="0 0 700.000000 700.000000"
 preserveAspectRatio="xMidYMid meet">
<metadata>
Created by potrace 1.14, written by Peter Selinger 2001-2017
</metadata>
<g transform="translate(0.000000,700.000000) scale(0.100000,-0.100000)"
fill="#000000" stroke="none">
<path d="M3338 6245 c-2 -2 -23 -5 -48 -8 -95 -12 -183 -59 -251 -134 -19 -21
-77 -110 -128 -198 -51 -88 -98 -169 -104 -180 -10 -16 -46 -77 -94 -160 -6
-11 -124 -211 -261 -445 -250 -425 -780 -1328 -812 -1385 -10 -16 -221 -376
-470 -800 -249 -423 -460 -783 -470 -800 -9 -16 -102 -174 -205 -350 -104
-176 -198 -338 -210 -361 -12 -22 -45 -77 -74 -123 -28 -45 -51 -84 -51 -86 0
-2 -34 -61 -77 -131 -79 -134 -92 -176 -71 -234 13 -38 57 -77 98 -87 26 -6
981 -10 1143 -4 30 1 94 59 119 107 13 27 797 1356 879 1493 22 34 39 65 39
66 0 2 40 70 88 152 122 204 316 532 336 568 9 17 25 44 36 60 11 17 23 37 27
45 4 8 60 104 125 213 65 110 118 203 118 208 0 5 5 9 10 9 6 0 10 5 10 12 0
7 11 28 24 47 13 20 205 344 426 721 221 377 413 702 426 722 13 21 24 42 24
48 0 5 5 10 10 10 6 0 10 4 10 9 0 6 22 47 50 93 56 93 67 132 51 180 -10 31
-304 463 -383 563 -33 43 -94 92 -143 117 -42 21 -186 53 -197 43z"/>
<path d="M4670 4609 c-19 -6 -57 -28 -85 -48 -53 -41 -52 -38 -282 -451 -65
-117 -69 -160 -23 -233 17 -26 30 -49 30 -51 0 -2 26 -46 59 -98 32 -51 163
-264 291 -473 128 -209 246 -395 263 -413 110 -115 303 -114 414 1 23 23 100
143 172 267 166 283 165 257 31 480 -51 85 -101 169 -110 185 -9 17 -44 75
-77 130 -33 55 -126 211 -207 348 -81 136 -160 262 -175 280 -62 70 -203 105
-301 76z"/>
<path d="M3982 3348 c-59 -10 -138 -55 -171 -97 -15 -20 -59 -92 -97 -161 -38
-68 -74 -133 -81 -145 -7 -11 -16 -27 -20 -35 -4 -8 -23 -44 -43 -80 -21 -36
-50 -87 -65 -115 -15 -27 -38 -68 -50 -90 -12 -22 -111 -200 -220 -395 -109
-195 -208 -374 -221 -397 -35 -63 -61 -109 -239 -428 -89 -159 -179 -321 -200
-360 -21 -38 -41 -75 -46 -80 -25 -33 -11 -126 25 -161 49 -49 27 -48 776 -48
388 -1 722 3 742 8 21 4 49 19 62 33 13 13 104 160 201 326 98 166 185 313
194 327 8 14 21 34 27 45 13 24 160 274 173 295 12 19 126 211 157 265 46 80
39 116 -52 262 -52 84 -236 384 -249 405 -5 10 -73 120 -150 245 -77 125 -142
231 -144 236 -14 37 -79 94 -136 122 -55 27 -108 35 -173 23z"/>
<path d="M6193 2041 c-58 -20 -112 -57 -142 -99 -21 -30 -435 -726 -522 -879
-10 -17 -30 -51 -45 -74 -34 -55 -36 -113 -4 -163 44 -72 19 -70 660 -69 316
0 594 3 617 6 122 18 224 125 240 252 10 85 -10 135 -153 379 -75 127 -147
247 -159 266 -12 19 -54 90 -94 157 -78 133 -124 186 -188 215 -60 27 -147 30
-210 9z"/>
</g>
</svg>
