<svg xmlns="http://www.w3.org/2000/svg" viewBox="0 0 1024 1024">
   <circle cx="512" cy="512" r="512" fill="#396aff"/>
   <path d="M512.04 192 236.35 360.12c-.14 4.98-.26 9.96-.26 14.98 0 198.32 111.86 370.47 275.91 456.91 164.05-86.44 275.91-258.59 275.91-456.91 0-5.01-.12-10-.26-14.98zm-.01 64.73 219.86 134.11c.11 3.97.21 7.95.21 11.939 0 158.2-89.239 295.54-220.11 364.5l.005.002h-.01l.004-.002c-130.87-68.951-220.1-206.29-220.1-364.5 0-4 .1-7.97.21-11.939zm-47.42 78.889-122.4 80.621v9.53c0 123.48 69.46 230.62 171.6 284.19 102.15-54.02 171.6-161.16 171.6-284.19v-9.53l-124.18-80.117-48.799 90.617 56.26 102.59-56.289 88.709-56.28-88.709 56.261-102.59-47.77-91.121zm96.62.504.001-.004h-.01z" fill="#fff"/>
</svg>
