<svg xmlns="http://www.w3.org/2000/svg" viewBox="0 0 1024 1024">
   <circle cx="512" cy="512" r="512" style="fill:#0369b9"/>
   <path d="m389.59 488-16.33 40.7h22.6l-6.19-40.87-.07.17Zm-86.53 93.4 67-137.93h50.64L449 581.4h-44.51l-3.27-18.4h-43.15l-9.93 18.38Zm167 0 19.41-137.93h44.81L514.83 581.4Zm298-93.6-16.4 40.87h22.6L768 487.8Zm-86.6 93.6 67-137.93h50.64l28.23 137.93h-44.47l-3.27-18.4h-43.15l-9.93 18.38Zm-151.28-.4 50.4-64.23h58L588.21 581Zm20.93-138.12h54.16l37.11 64.22h-54.17l-37.11-64.22Zm89.1 76.8L677 580.62h-56.16l-12.37-20.49Zm4.81-14.1-23.41-40.52 17-21.41h58l-50.4 63.45h-.35Zm-340.63-57.17L300.08 489c-16.52-22.78-54.79-7.06-57.8 21.32-3.82 36 33 44.43 53.07 23.21L291 574.16a96.59 96.59 0 0 1-17.61 6.77 71.89 71.89 0 0 1-17.21 2.48 66.81 66.81 0 0 1-19.55-2.25 47.73 47.73 0 0 1-15.86-7.68 56.35 56.35 0 0 1-19.63-25.27q-6-15.41-4-34.82a85.39 85.39 0 0 1 7.91-28.51 82.63 82.63 0 0 1 17.19-23.51A73.13 73.13 0 0 1 244.86 446a71.3 71.3 0 0 1 26.52-5.46 65.48 65.48 0 0 1 16.76 1.77 75.14 75.14 0 0 1 16.25 6.06Z" style="fill:#fff;fill-rule:evenodd"/>
</svg>
