<svg xmlns="http://www.w3.org/2000/svg" viewBox="0 0 1024 1024">
   <circle cx="512" cy="512" r="512" style="fill:#2699fb"/>
   <path d="M768 512.61c0 122-85.36 224.09-199.66 249.74-.34-18.66.34-34.48 3-51.28q1.18-7.36 2.94-15.6a151.88 151.88 0 0 1 3.23-16.17q2.09-8 7.35-41.46 6.5-28.84 14.14-57.36c8.81-33.61 18.06-68.49 24.1-93.81a13.79 13.79 0 0 0 1.79-5.31 37.72 37.72 0 0 0 1.76-5.59 8 8 0 0 1 1.18-3.23q12.33-54.11 15.86-65.27t6.48-22.35q3-10.17 5-20.59a147.18 147.18 0 0 1 5.59-20.61 106.42 106.42 0 0 1 12.94-27l1-1.73A255.47 255.47 0 0 1 768 512.61M571.07 372.55c-2.15 13.73-3.83 23.13-5 28.22l-17.66 83.53-5.89 1.18a35.54 35.54 0 0 1-10 1.76 28.68 28.68 0 0 0-10 1.76 106.09 106.09 0 0 0-11.76.61q-5.91.67-11.76 1.76a92.93 92.93 0 0 1-17 1.76 27.79 27.79 0 0 1-6.46-.58q3.5-10 7.06-20.59t6.4-21.19c1.58-5.46 4-11 4.42-16.1 3.16-9.66 4.94-18.19 7.35-26.84.79-2.34 1.76-5.09 2.94-8.24a28 28 0 0 0 1.76-10c.19-2.11 0-3 .09-5.45-.93-6.53-1.88-8.9-5.08-11.91-3.73-2.94-6.77-4.81-9.11-5.6a66.8 66.8 0 0 0-18.83-3.52q-10.6-.59-18.82-.61c-2.76 0-6.17.11-10.3.29a43 43 0 0 0-11.42 2.12 25.21 25.21 0 0 0-9.11 5.28c-2.55 2.37-4.57 5.28-4.57 9.59a89.82 89.82 0 0 1-.58 10c-.39 3.52-.24 7.3-1 10.43q-1.18 5.87-2.36 11.47-1.14 5.39-1.76 10.87-1.77 13-3.52 25.57t-14.2 63.25q-12.36 50.58-17.9 68.22-5.64 17.8-10.29 35.89-1.2 4.15-2.65 8.22-1.53 4.35-2.65 8.82-1.22 4.84-2.34 9.71a44.63 44.63 0 0 0-1.18 10.3c0 3.52 1 7.85 2.94 12.94a55.35 55.35 0 0 0 8.53 14.71A45.16 45.16 0 0 0 383.72 692a42 42 0 0 0 20 4.7q11.18 0 15-7.64a65.89 65.89 0 0 0 5.59-16.49 87.19 87.19 0 0 0 1.47-9.69 30.87 30.87 0 0 1 1.18-6.77c.58-1.94 1.26-4.12 2-6.46s2-5.49 3.54-9.43a256.31 256.31 0 0 0 13.82-46.45q4.41-23 14.13-31.48t30.59-9.41a252.43 252.43 0 0 0 42.64-5.59q-6.38 27.16-12.37 54.41-5.86 26.78-15.88 79.71c-1.55 6.67-2.84 13.21-3.81 19.7s-2.8 12.81-3.86 19.39c-1.79 11-.42 14.33 1.74 21.18a57.69 57.69 0 0 0 9.4 18.22 47.16 47.16 0 0 0 7.88 8c-2.89.11-5.81.16-8.72.16C366.73 768 256 654 256 512.61s114.61-256 256-256c32.19 0 62.07 3.54 90.43 14.39-2.71 5.46-4.27 9.48-6.63 15.38-3.52 7.07-5.46 14.42-7.61 22.06s-5.54 15-7.09 20.89c-3.54 14.92-7.87 29.52-10 43.23m47.82-52 5.83-9.49.47.26-4.9 27.89a111.39 111.39 0 0 0 7.38-12c2.31-4.1 4.7-8.16 7.05-12.25l.44.26c-.54 3.56-1.07 7.12-1.66 11.09 14.31-11.13 23.85-28.64 19.21-40.74-1.54 10.73-8.59 22.36-15.65 25.76l1.11-8.73-10.87 19.09-.46-.22c1.22-7.06 2.45-14.12 3.81-22l-5 8.11c-3.41-11.61-3.32-22.1 5.39-32-13.71 7.36-19.14 28.17-12.15 44.85m40-98a10.05 10.05 0 1 0 3.92-.8 10.07 10.07 0 0 0-3.95.86Zm-50.81 55.15 10.07-24.86 14.31-9.7c8.43-35.45 40.72-65.07 54.48-70.9 5.83 13.76 8.41 57.51-10.2 88.83l3.53 16.92-10.11 24.92-13.61-19.93c-8.7 3.69-8.7 3.69-14.94 1.16s-6.24-2.53-9.92-11.23l-23.64 4.84" style="fill:#fff;fill-rule:evenodd"/>
</svg>
