<svg xmlns="http://www.w3.org/2000/svg" viewBox="0 0 1024 1024">
   <circle cx="512" cy="512" r="512" fill="#da291c"/>
   <path fill="#fff" d="M422.02 263.23c-1.913.015-3.77.035-5.627.05a2335 2335 0 0 0-18.883.016q-6.745.036-13.49.045c-9.373.008-18.744.016-28.117.053-12.198.054-24.396.105-36.594.113-9.52.008-19.042.015-28.562.037-4.535.015-9.069.02-13.604.036q-9.807.01-19.613.052c-2.029.008-4 .022-5.969.03-2.866.002-2.864.001-5.674.005-1.754.015-3.459.022-5.162.038v.01c-9.867.038-14.418 3.528-21.844 10.07-8.731 9.445-8.73 9.447-8.724 30.415l.123 7.348c.034 7.811.072 15.623.174 23.434a2870 2870 0 0 1 .185 20.361c.085 14.615.224 29.228.406 43.842 27.25.131 54.5.236 81.75.295 13.26.03 26.517.06 39.775.127 11.637.058 23.273.103 34.91.125 4.94 0 9.878.015 14.816.023 7.093.044 14.185.092 21.277.096l6.553-.002c16.264.171 31.331-.385 44.988-10.135l3.912-3.88 4.416-4.165a249 249 0 0 1 8.25-7.47l3.865-3.061c24.185-12.081 24.185-12.081 51.68-11.996q4.469 0 8.936-.024 12.209-.087 24.416-.109a6867 6867 0 0 0 25.914-.096q24.48-.135 48.961-.2c18.72-.053 37.44-.13 56.16-.218q58.064-.275 116.13-.449c1.637-.008 3.225-.011 4.814-.015.174-11.381-1.782-17.886-7.836-27.43-7.614-9.018-15.633-14.943-27.562-16.418-2.208-.008-4.352-.012-6.496-.016-3.835-.029-7.67-.06-11.506-.045a1087 1087 0 0 1-8.412-.002 3335 3335 0 0 0-18.17-.066q-14.592.012-29.186-.053c-18.9-.086-37.8-.133-56.7-.162-24.317-.042-48.634-.103-72.95-.2-9.79-.042-19.579-.076-29.369-.08-6.189-.007-12.379-.015-18.568-.037-2.878-.007-5.755-.021-8.633-.029q-4.082.011-8.166.016a2533 2533 0 0 1-7.482-.037c-6.44-.01-11.426-.234-17.547-2.237-9.608-4.664-15.708-10-20.182-19.578-3.262-7.13-7.231-12.76-12.23-18.773-9.177-8.055-17.775-9.58-29.553-9.654m97.035 123.95-3.842.006c-18.375-.015-30.455 10.569-43.453 23.012-13.046 13.115-28.529 17.259-46.623 17.51-3.2-.014-3.2-.014-6.338-.03-7.147.064-14.293.12-21.44.124q-7.639-.001-15.276.043c-13.365.093-26.728.161-40.094.191-13.842.03-27.684.092-41.525.17-28.622.163-57.24.277-85.863.351-1.209.002-2.383.008-3.556.01q-.068 57.675-.1 115.35c-.01 18.688-.019 37.378-.04 56.066q-.032 24.627-.042 49.254-.001 12.999-.018 25.998c-.012 8.299-.024 16.598-.023 24.896v9.15c-.01 4.267-.022 8.533-.018 12.8l.006 3.841c-.01 12.167 1.937 16.748 10.033 25.94 9.01 7.902 15.873 8.76 27.713 8.884 2.177-.014 4.29-.035 6.403-.05 7.245.038 14.49.065 21.736.042 6.684-.027 13.368-.02 20.053.002q19.654.057 39.307.024c10.753-.018 21.507-.03 32.26-.024l4.625.006 9.308.008c29.096.022 58.19.007 87.285-.037 25.044-.038 50.09-.045 75.133-.008 29.192.04 58.386.065 87.578.043l9.346-.008 4.646-.004q16.148-.008 32.295.016c13.246.026 26.491.033 39.736-.004 6.77-.022 13.538-.045 20.307-.03 6.265.024 12.528.03 18.793.009 2.339-.015 4.608-.022 6.877-.038 15.885.133 29.78-.278 41.717-11.943 8.121-9.603 8.12-9.604 7.78-41.418a955 955 0 0 1-.059-10.027 3120 3120 0 0 0-.074-27.365c-.07-9.685-.1-19.373-.115-29.059a13308 13308 0 0 0-.182-54.887c-.112-20.989-.18-41.978-.232-62.967-.106-45.203-.28-90.405-.508-135.61q-57.675-.067-115.35-.1c-18.688-.014-37.378-.022-56.066-.044q-24.627-.034-49.254-.043c-8.666 0-17.332 0-25.998-.016q-12.449-.023-24.896-.023l-9.15.002c-4.267-.008-8.533-.02-12.8-.016zm39.639 107c20.239-.862 37.195 1.533 53.654 14.105 11.384 10.576 17.495 24.004 18.467 39.324.956 37.229-15.611 58.719-40.434 85.148a432 432 0 0 0-12.322 13.785c-10.29 11.834-21.435 22.637-33.371 32.797a300 300 0 0 0-10.41 9.658l-3.154 3.018a449 449 0 0 0-6.166 6.023c-7.156 6.804-7.154 6.804-12.47 6.756-3.914-2.077-6.832-4.193-10.11-7.185l-4.118-3.745-5.066-4.707-6.66-6.115c-44.927-41.44-44.926-41.438-61.918-62.46l-4.393-5.42c-18.602-23.787-26.098-42.517-23.627-72.685 1.29-9.207 5.035-16.33 10.385-23.785l3.307-5.386c12.995-12.643 25.806-17.216 43.52-18.553 18.85-.896 35.409 3.312 50.285 15.367q5.365 5.228 10.654 10.533l4.408-6.123c10.542-11.982 23.562-18.995 39.54-20.352z"/>
</svg>
