<svg xmlns="http://www.w3.org/2000/svg" viewBox="0 0 1024 1024">
   <circle cx="512" cy="512" r="512" style="fill:#68bc71"/>
   <path d="M511.885 270.002a476 476 0 0 1 262.076 77.691 476 476 0 0 1-63.856 265.801c-48.158 84.077-117.868 147.668-197.688 187.844l-.532.798-.532-.798a476 476 0 0 1-197.688-187.577c-48.69-84.343-68.91-176.669-63.855-266.068 75.031-48.956 164.961-77.691 262.075-77.691M594.632 462.9c-7.982-8.78-21.285-8.78-29.267 0l-60.664 67.315-37.249-41.773c-8.248-9.046-21.285-8.78-29.267 0a24.745 24.745 0 0 0 0 32.727l38.58 42.57c21.817 25.543 35.12 25.543 56.405 0l61.195-68.379c7.983-8.78 7.983-23.413 0-32.46z" style="fill:#fff"/>
</svg>
