<svg xmlns="http://www.w3.org/2000/svg" viewBox="0 0 1024 1024">
   <circle cx="512" cy="512" r="512" style="fill:#007377"/>
   <path d="M522.38 893.44c6.12-2.94 10.5-7.93 12.37-14.11 1.39-4.59 1.43-6.43 1.24-61.77l-.19-57.04-23.54-16.27c-12.95-8.95-23.78-16.27-24.08-16.27-.91 0-.66 144.21.26 148.55 1.1 5.19 3.01 8.7 6.78 12.47 7.29 7.29 17.68 8.99 27.16 4.45Zm62.3-77.34c25.65-10.95 46.37-27.7 54.79-44.3 3.58-7.05 4.77-12.39 4.78-21.35.01-9.53-1.19-14.33-5.79-23.19-5.96-11.49-20.72-27.3-34.21-36.66-3.9-2.7-37.99-26.25-75.76-52.34l-68.67-47.43v-38.77c0-22.33-.27-38.93-.64-39.16-1.16-.72-15.2 4.6-26.11 9.89-27.83 13.5-44.98 29.7-51.43 48.57-2.7 7.91-2.87 18.86-.41 26.76 4.53 14.5 17.4 31.24 32.96 42.87 2.93 2.19 37.99 26.54 77.92 54.11l72.6 50.13v78.31l6.96-2.42c3.83-1.33 9.69-3.59 13.02-5.01Zm-48.53-256.33v-47.63l-23.3-16.05c-12.81-8.83-23.73-16.16-24.26-16.29-.8-.19-.93 7.74-.78 47.44l.18 47.67 23.54 16.24c12.95 8.93 23.78 16.24 24.08 16.24s.53-21.43.53-47.63Zm37.25 12.24c10.29-3.59 27.35-12.05 36.4-18.06 8.56-5.68 18.99-15.21 24.26-22.16 9.28-12.25 12.65-27.29 9.15-40.95-3.58-13.99-15.77-30.64-31.78-43.37-4.27-3.4-46.83-32.94-131.45-91.25l-20.15-13.88v-39.06c-.02-38.43-.05-39.06-1.43-39.06-2.19 0-14.45 4.73-23.92 9.23-44.42 21.11-63.3 50.55-51.7 80.62 4.68 12.13 18.27 28.55 32.15 38.85 3.77 2.79 38.99 27.23 78.27 54.31l71.42 49.23.04 39.06c.02 23.96.3 39.06.71 39.06.37 0 3.98-1.15 8.03-2.57Zm-37.24-291.52v-78.61l4.89-5.05c8.03-8.28 11.72-17.3 11.68-28.58-.06-17.04-10.57-31.95-26.92-38.18-3.11-1.19-6.32-1.72-11.77-1.97-12.97-.58-21.47 2.72-30.74 11.92-8.18 8.12-12.07 17.33-12.07 28.56s3.78 20.03 11.48 28.05l4.93 5.13v124.37l23.72 16.44c13.05 9.04 23.96 16.46 24.26 16.48.29.02.54-35.33.54-78.56Zm41.54 35.86c36.67-9.38 54.49-19.85 57.61-33.86.97-4.36-.47-10.66-3.54-15.41-4.31-6.68-24.58-24.98-31.6-28.53-2.27-1.15-5.96-2.47-8.21-2.93-4.64-.97-16.77-.55-23.17.8l-4.1.87v40.93c0 35.56.14 40.93 1.05 40.93.58 0 5.96-1.26 11.95-2.79Z" style="fill:#fff"/>
</svg>
