<svg xmlns="http://www.w3.org/2000/svg" viewBox="0 0 1024 1024">
   <circle cx="512" cy="512" r="512" style="fill:#007377"/>
   <path d="M521.256 852.151c5.458-2.622 9.364-7.072 11.031-12.583 1.24-4.093 1.276-5.734 1.106-55.084l-.169-50.865-20.992-14.509c-11.548-7.981-21.206-14.509-21.474-14.509-.811 0-.588 128.6.232 132.47.981 4.628 2.684 7.759 6.046 11.12 6.501 6.501 15.766 8.017 24.22 3.969zm55.557-68.969c22.873-9.764 41.35-24.701 48.859-39.504 3.192-6.287 4.254-11.049 4.263-19.039.008-8.499-1.062-12.779-5.164-20.68-5.315-10.246-18.477-24.345-30.507-32.692a274910 274910 0 0 0-67.559-46.674l-61.237-42.296v-34.574c0-19.912-.241-34.716-.571-34.921-1.034-.642-13.554 4.102-23.283 8.82-24.818 12.038-40.112 26.485-45.863 43.312-2.408 7.054-2.56 16.819-.366 23.864 4.04 12.93 15.517 27.858 29.392 38.229 2.613 1.953 33.878 23.667 69.486 48.253l64.741 44.704v69.833l6.207-2.158c3.415-1.186 8.641-3.201 11.611-4.468zm-43.277-228.583v-42.474l-20.778-14.313c-11.424-7.874-21.161-14.411-21.634-14.527-.714-.169-.829 6.902-.696 42.305l.161 42.51 20.992 14.482c11.548 7.964 21.206 14.482 21.473 14.482.268 0 .473-19.11.473-42.474zm33.218 10.915c9.176-3.201 24.389-10.746 32.46-16.105 7.633-5.065 16.934-13.564 21.634-19.761 8.275-10.924 11.28-24.336 8.159-36.518-3.192-12.475-14.063-27.323-28.34-38.675-3.808-3.032-41.761-29.375-117.221-81.373l-17.969-12.377v-34.832c-.018-34.271-.045-34.832-1.275-34.832-1.953 0-12.886 4.218-21.331 8.231-39.612 18.825-56.448 45.078-46.104 71.893 4.174 10.817 16.293 25.459 28.67 34.645 3.362 2.488 34.77 24.282 69.798 48.431l63.689 43.901.036 34.832c.018 21.366.267 34.832.633 34.832.33 0 3.549-1.026 7.161-2.292M533.545 305.55v-70.101l4.36-4.504c7.161-7.383 10.452-15.427 10.416-25.486-.053-15.196-9.426-28.492-24.006-34.047-2.773-1.061-5.636-1.534-10.496-1.757-11.566-.517-19.146 2.426-27.412 10.63-7.295 7.241-10.764 15.454-10.764 25.468 0 10.015 3.371 17.862 10.237 25.014l4.397 4.575v110.907l21.152 14.661c11.638 8.061 21.367 14.678 21.634 14.696.259.018.482-31.506.482-70.056m37.043 31.978c32.701-8.365 48.592-17.701 51.374-30.195.865-3.888-.419-9.506-3.157-13.742-3.843-5.957-21.919-22.276-28.179-25.442-2.024-1.025-5.315-2.202-7.321-2.613-4.138-.865-14.955-.49-20.662.714l-3.657.776v36.499c0 31.711.125 36.5.937 36.5.517 0 5.315-1.124 10.656-2.488z" style="fill:#fff"/>
</svg>
