<svg id="Layer_1" xmlns="http://www.w3.org/2000/svg" version="1.1" viewBox="0 0 1024 1024">
   <defs>
      <style>
         .st1,.st2{fill:#fff}.st2{fill-rule:evenodd}
      </style>
   </defs>
   <circle id="Background__x28_CHANGE_THE_COLOR_x29_" cx="512" cy="512" r="512" style="fill:#0c2a50"/>
   <path class="st2" d="M180.55 752.09h-17.96l-2.05 4.88c-.77 1.54-1.03 3.08-1.03 4.11 0 1.54.51 2.57 1.8 3.08.77.51 2.31.77 4.88 1.03v1.28h-16.94v-1.28c1.8-.26 3.34-1.03 4.62-2.31s2.57-3.85 4.36-7.7l18.22-40.55h.77l18.48 41.83c1.8 3.85 3.08 6.42 4.36 7.44.77.77 2.05 1.28 3.59 1.28v1.28h-24.64v-1.28h1.03c2.05 0 3.34-.26 4.11-.77.51-.51.77-1.03.77-1.8 0-.51 0-1.03-.26-1.28 0-.26-.51-1.28-1.03-2.82l-3.08-6.42Zm-1.29-2.82-7.7-17.45-7.7 17.45h15.4Z"/>
   <path class="st1" d="M234.44 731.56v27.46c0 2.57.26 4.36.77 5.13.51.77 1.54 1.03 3.08 1.28v1.28h-14.37v-4.62c-1.8 2.05-3.34 3.59-5.13 4.36-1.8 1.03-3.59 1.28-5.65 1.28s-3.85-.51-5.39-1.8-2.57-2.57-3.08-4.36c-.51-1.54-.77-4.36-.77-8.47v-13.86c0-2.57-.26-4.36-.77-4.88-.51-.77-1.54-1.03-3.08-1.28v-1.54h14.37v24.12c0 2.57 0 4.11.26 4.88.26.77.51 1.28 1.03 1.54s1.03.51 1.8.51c1.03 0 1.8-.26 2.57-.77 1.03-.77 2.31-2.05 3.59-3.85v-18.73c0-2.57-.26-4.36-.77-4.88-.51-.77-1.54-1.03-3.08-1.28v-1.54h14.63Zm28.49-1.03.51 12.06h-1.28c-1.54-3.59-3.08-5.9-4.88-7.19-1.54-1.28-3.34-2.05-4.88-2.05-1.03 0-1.8.26-2.57 1.03-.77.77-1.03 1.54-1.03 2.31s.26 1.28.77 2.05c.77 1.03 3.08 2.82 6.67 5.39s6.16 4.62 7.19 6.42c1.28 1.8 1.8 3.59 1.8 5.9 0 2.05-.51 3.85-1.54 5.65s-2.31 3.34-4.11 4.36-3.85 1.54-5.9 1.54c-1.8 0-3.85-.51-6.67-1.54-.77-.26-1.28-.51-1.54-.51-.77 0-1.54.51-2.05 1.8h-1.28l-.51-12.58h1.28c1.03 3.34 2.57 5.9 4.62 7.44 2.05 1.54 3.85 2.57 5.65 2.57 1.28 0 2.05-.26 2.82-1.03s1.28-1.54 1.28-2.82-.26-2.31-1.03-3.08-2.31-2.31-5.13-4.11c-3.85-2.57-6.42-4.62-7.44-6.16-1.54-2.05-2.57-4.36-2.57-6.67 0-2.82 1.03-5.13 2.82-7.44s4.62-3.34 8.21-3.34c1.8 0 3.85.51 5.65 1.28.77.26 1.28.51 1.54.51.51 0 .77 0 1.03-.26s.77-.77 1.28-1.54h1.28Zm18.48-12.06v12.83h8.21v3.59h-8.21v21.56c0 2.05 0 3.34.26 3.85s.51 1.03 1.03 1.54c.51.26 1.03.51 1.28.51 1.54 0 3.08-1.28 4.62-3.59l1.03.77c-2.05 4.88-5.39 7.19-9.75 7.19-2.31 0-4.11-.51-5.65-1.8s-2.57-2.57-2.82-4.11c-.26-.77-.26-3.08-.26-6.93v-18.99h-4.62v-1.28c3.08-2.31 5.9-4.62 7.96-6.93 2.31-2.57 4.11-5.13 5.9-8.21h1.03Zm25.66 13.09v7.96c2.31-3.59 4.36-6.16 6.16-7.19 1.8-1.28 3.34-1.8 5.13-1.8 1.28 0 2.57.51 3.34 1.28s1.28 2.05 1.28 3.59c0 1.8-.51 3.08-1.28 3.85-.77 1.03-1.8 1.28-2.82 1.28-1.28 0-2.57-.51-3.34-1.28-1.03-.77-1.54-1.28-1.8-1.54s-.51-.26-.77-.26c-.77 0-1.54.26-2.05.77-1.03.77-1.8 2.05-2.31 3.59-.77 2.31-1.28 5.13-1.28 7.96v10.01c0 1.54 0 2.31.26 2.82.26.77.77 1.28 1.28 1.54s1.54.51 3.08.51v1.28h-18.99v-1.28c1.54 0 2.57-.51 3.08-1.28s.77-2.57.77-5.65v-19.5c0-2.05 0-3.34-.26-3.85-.26-.77-.51-1.28-1.03-1.54-.51-.26-1.28-.51-2.57-.77v-.51h14.12Z"/>
   <path class="st2" d="M342.23 761.33c-4.36 3.85-8.21 5.65-11.55 5.65-2.05 0-3.59-.77-4.88-2.05s-2.05-3.08-2.05-4.88c0-2.57 1.03-5.13 3.34-7.19s7.44-5.13 15.14-8.47v-3.59c0-2.57-.26-4.36-.51-4.88-.26-.77-.77-1.28-1.54-1.8-.77-.51-1.8-.77-2.82-.77-1.54 0-3.08.26-4.11 1.03-.77.51-1.03 1.03-1.03 1.54s.26 1.28 1.03 2.05c1.03 1.03 1.54 2.05 1.54 3.08 0 1.28-.51 2.31-1.28 3.08-1.03.77-2.05 1.28-3.59 1.28s-2.82-.51-4.11-1.54c-1.03-1.03-1.54-2.05-1.54-3.34 0-1.8.77-3.59 2.05-5.13 1.54-1.54 3.34-2.82 5.9-3.85 2.57-.77 5.13-1.28 7.96-1.28 3.34 0 5.9.77 7.96 2.05 2.05 1.28 3.34 2.82 3.85 4.62.26 1.03.51 3.59.51 7.19v13.6c0 1.54 0 2.57.26 3.08 0 .51.26.77.51 1.03.26.26.51.26.77.26.77 0 1.28-.51 2.05-1.28l1.03 1.03c-1.28 1.8-2.57 3.08-3.85 4.11a8.844 8.844 0 0 1-4.62 1.28c-2.05 0-3.59-.51-4.62-1.28-1.03-1.28-1.54-2.57-1.8-4.62Zm0-2.57v-11.81c-3.08 1.8-5.39 3.59-6.67 5.65-1.03 1.28-1.54 2.82-1.54 4.11 0 1.03.51 2.05 1.28 3.08.51.77 1.54 1.03 2.57 1.03s2.57-.77 4.36-2.05Z"/>
   <path class="st1" d="M372.77 715.65v43.63c0 2.57.26 4.11.77 4.88.51.77 1.8 1.03 3.34 1.28v1.28h-18.99v-1.28c1.54 0 2.82-.51 3.34-1.28.51-.51.77-2.05.77-4.62V723.1c0-2.57-.26-4.11-.77-4.62-.51-.77-1.8-1.03-3.34-1.28v-1.28h14.89v-.26Z"/>
   <path class="st2" d="M388.68 714.36c1.54 0 3.08.51 4.11 1.8 1.03 1.03 1.8 2.57 1.8 4.11s-.51 3.08-1.8 4.11c-1.03 1.03-2.57 1.8-4.11 1.8s-3.08-.51-4.11-1.8c-1.03-1.03-1.8-2.57-1.8-4.11s.51-3.08 1.8-4.11c1.28-1.28 2.57-1.8 4.11-1.8Zm5.39 17.2v27.72c0 2.57.26 4.11.77 4.88.51.77 1.8 1.03 3.34 1.28v1.28h-18.99v-1.28c1.54 0 2.82-.51 3.34-1.28.51-.51.77-2.05.77-4.62v-20.53c0-2.57-.26-4.11-.77-4.62-.51-.77-1.8-1.03-3.34-1.28v-1.54h14.89Zm24.64 29.77c-4.36 3.85-8.21 5.65-11.55 5.65-2.05 0-3.59-.77-4.88-2.05s-2.05-3.08-2.05-4.88c0-2.57 1.03-5.13 3.34-7.19 2.31-2.05 7.44-5.13 15.14-8.47v-3.59c0-2.57-.26-4.36-.51-4.88-.26-.77-.77-1.28-1.54-1.8s-1.8-.77-2.82-.77c-1.54 0-3.08.26-4.11 1.03-.77.51-1.03 1.03-1.03 1.54s.26 1.28 1.03 2.05c1.03 1.03 1.54 2.05 1.54 3.08 0 1.28-.51 2.31-1.28 3.08-1.03.77-2.05 1.28-3.59 1.28s-2.82-.51-4.11-1.54c-1.03-1.03-1.54-2.05-1.54-3.34 0-1.8.77-3.59 2.05-5.13 1.54-1.54 3.34-2.82 5.9-3.85 2.57-.77 5.13-1.28 7.96-1.28 3.34 0 5.9.77 7.96 2.05s3.34 2.82 3.85 4.62c.26 1.03.51 3.59.51 7.19v13.6c0 1.54 0 2.57.26 3.08 0 .51.26.77.51 1.03s.51.26.77.26c.77 0 1.28-.51 2.05-1.28l1.03 1.03c-1.28 1.8-2.57 3.08-3.85 4.11a8.844 8.844 0 0 1-4.62 1.28c-2.05 0-3.59-.51-4.62-1.28-.77-1.28-1.54-2.57-1.8-4.62Zm0-2.57v-11.81c-3.08 1.8-5.39 3.59-6.67 5.65-1.03 1.28-1.54 2.82-1.54 4.11 0 1.03.51 2.05 1.28 3.08.51.77 1.54 1.03 2.57 1.03 1.28 0 2.82-.77 4.36-2.05Z"/>
   <path class="st1" d="M448.99 731.56v4.62c1.8-2.05 3.59-3.34 5.13-4.36s3.34-1.28 5.39-1.28c2.31 0 4.11.51 5.65 1.8 1.54 1.28 2.57 2.82 3.08 4.62.51 1.54.51 4.11.51 8.21v13.6c0 2.82.26 4.36.77 5.13s1.54 1.03 3.08 1.28v1.28h-17.71v-1.28c1.28-.26 2.31-.77 2.82-1.54.51-.51.51-2.05.51-4.62v-15.66c0-2.82 0-4.62-.26-5.39s-.51-1.28-1.28-1.8c-.51-.51-1.03-.51-1.8-.51-2.05 0-4.11 1.54-5.9 4.62v18.73c0 2.57.26 4.36.77 4.88.51.77 1.54 1.03 2.82 1.28v1.28h-17.71v-1.28c1.54-.26 2.57-.51 3.08-1.54.51-.51.51-2.05.51-4.88v-19.76c0-2.57-.26-4.36-.77-4.88-.51-.77-1.54-1.03-3.08-1.28v-1.28h14.37Zm92.91-17.2v17.96h-1.28c-1.8-4.88-4.11-8.73-7.44-11.29-3.34-2.57-6.93-3.85-11.04-3.85-3.85 0-6.93 1.03-9.5 3.34-2.57 2.05-4.36 5.13-5.39 8.98-1.03 3.85-1.54 7.7-1.54 11.81 0 4.88.51 9.24 1.8 12.83s3.08 6.42 5.65 8.21 5.65 2.57 9.24 2.57c1.28 0 2.57 0 3.85-.26s2.57-.77 4.11-1.28v-10.52c0-2.05-.26-3.34-.51-3.85-.26-.51-.77-1.03-1.8-1.54-.77-.51-1.8-.77-3.08-.77h-1.8v-1.28h24.64v1.28c-1.8 0-3.08.51-3.85.77s-1.28 1.03-1.8 1.8c-.26.51-.26 1.54-.26 3.59v10.52c-3.34 1.54-6.67 2.57-10.27 3.34s-7.19 1.03-11.04 1.03c-4.88 0-8.73-.77-12.06-2.05-3.08-1.28-5.9-3.08-8.47-5.13-2.31-2.05-4.36-4.62-5.65-7.19-1.8-3.34-2.57-7.44-2.57-11.55 0-7.7 2.57-14.12 7.96-19.5s12.06-7.96 20.27-7.96c2.57 0 4.88.26 6.93.51 1.03.26 2.82.77 5.39 1.8s3.85 1.28 4.36 1.28c.77 0 1.28-.26 2.05-.77.51-.51 1.03-1.54 1.54-2.82h1.54Z"/>
   <path class="st2" d="M566.28 730.27c3.08 0 5.9.77 8.47 2.31 2.57 1.54 4.62 3.85 5.9 6.67s2.05 6.16 2.05 9.5c0 4.88-1.28 9.24-3.85 12.58-3.08 4.11-7.19 6.16-12.58 6.16s-9.24-1.8-12.32-5.65c-2.82-3.59-4.36-7.96-4.36-12.83 0-5.13 1.54-9.5 4.36-13.09 3.08-3.59 7.19-5.65 12.32-5.65Zm0 2.83c-1.28 0-2.31.51-3.34 1.54s-1.54 2.82-1.8 5.65c-.26 2.82-.51 6.67-.51 11.81 0 2.57.26 5.13.51 7.44.26 1.8.77 3.08 1.8 4.11 1.03 1.03 2.05 1.28 3.08 1.28s2.05-.26 2.82-1.03c1.03-.77 1.54-2.05 2.05-3.59.51-2.31.77-7.19.77-14.37 0-4.36-.26-7.19-.77-8.73s-1.28-2.82-2.05-3.59c-.51-.26-1.54-.51-2.57-.51Z"/>
   <path class="st1" d="m599.39 767.49-11.81-27.2c-1.54-3.34-2.57-5.39-3.34-6.16-.51-.77-1.54-1.03-2.57-1.28v-1.28h18.73v1.28c-1.28 0-2.05.26-2.31.51-.51.51-1.03 1.28-1.03 2.05 0 1.03.51 2.57 1.54 5.13l5.9 13.09 4.62-11.29c1.28-3.34 2.05-5.65 2.05-6.93 0-.77-.26-1.28-.77-1.8s-1.54-.77-3.08-.77v-1.28h11.55v1.28c-1.03.26-2.05.51-2.82 1.28s-1.8 2.57-3.08 5.9l-11.81 27.46h-1.8Z"/>
   <path class="st2" d="M646.35 747.73H627.1c.26 4.62 1.54 8.21 3.59 11.04 1.8 2.05 3.85 3.08 6.16 3.08 1.54 0 2.82-.51 4.11-1.28s2.57-2.31 3.85-4.62l1.28.77c-1.8 3.85-4.11 6.67-6.42 8.21-2.31 1.54-4.88 2.31-7.96 2.31-5.13 0-9.24-2.05-11.81-5.9-2.05-3.34-3.34-7.19-3.34-12.06 0-5.9 1.54-10.52 4.62-13.86 3.08-3.59 6.93-5.13 11.04-5.13 3.59 0 6.67 1.54 9.24 4.36 3.34 3.08 4.62 7.44 4.88 13.09Zm-9.24-2.57c0-4.11-.26-6.67-.77-8.21-.51-1.54-1.03-2.57-2.05-3.34-.51-.51-1.28-.77-2.05-.77-1.28 0-2.31.51-3.08 1.8-1.54 2.31-2.31 5.39-2.31 9.24v1.28h10.27Z"/>
   <path class="st1" d="M663.03 731.56v7.96c2.31-3.59 4.36-6.16 6.16-7.19 1.8-1.28 3.34-1.8 5.13-1.8 1.28 0 2.57.51 3.34 1.28s1.28 2.05 1.28 3.59c0 1.8-.51 3.08-1.28 3.85-.77 1.03-1.8 1.28-2.82 1.28-1.28 0-2.57-.51-3.34-1.28-1.03-.77-1.54-1.28-1.8-1.54s-.51-.26-.77-.26c-.77 0-1.54.26-2.05.77-1.03.77-1.8 2.05-2.31 3.59-.77 2.31-1.28 5.13-1.28 7.96v10.01c0 1.54 0 2.31.26 2.82.26.77.77 1.28 1.28 1.54s1.54.51 3.08.51v1.28h-18.99v-1.28c1.54 0 2.57-.51 3.08-1.28s.77-2.57.77-5.65v-19.5c0-2.05 0-3.34-.26-3.85-.26-.77-.51-1.28-1.03-1.54s-1.28-.51-2.57-.77v-.51h14.12Zm32.34 0v4.62c1.8-2.05 3.59-3.34 5.13-4.36s3.34-1.28 5.39-1.28c2.31 0 4.11.51 5.65 1.8 1.54 1.28 2.57 2.82 3.08 4.62.51 1.54.51 4.11.51 8.21v13.6c0 2.82.26 4.36.77 5.13s1.54 1.03 3.08 1.28v1.28h-17.71v-1.28c1.28-.26 2.31-.77 2.82-1.54.51-.51.51-2.05.51-4.62v-15.66c0-2.82 0-4.62-.26-5.39s-.51-1.28-1.28-1.8c-.51-.51-1.03-.51-1.8-.51-2.05 0-4.11 1.54-5.9 4.62v18.73c0 2.57.26 4.36.77 4.88.51.77 1.54 1.03 2.82 1.28v1.28h-17.71v-1.28c1.54-.26 2.57-.51 3.08-1.54.51-.51.51-2.05.51-4.88v-19.76c0-2.57-.26-4.36-.77-4.88-.51-.77-1.54-1.03-3.08-1.28v-1.28h14.37Zm40.81 0v4.62c2.05-2.05 3.59-3.59 5.39-4.36a11.94 11.94 0 0 1 5.39-1.28c2.31 0 4.11.51 5.65 1.54s2.82 2.57 3.59 4.88c2.05-2.31 3.85-3.85 5.65-4.88s3.85-1.54 5.9-1.54c2.31 0 4.36.51 5.9 1.8 1.54 1.03 2.57 2.57 3.08 4.36s.77 4.36.77 8.21v14.37c0 2.82.26 4.36.77 5.13.51.77 1.54 1.03 3.08 1.28v1.28h-18.22v-1.28c1.54 0 2.57-.77 3.08-1.54s.77-2.31.77-4.62v-15.14c0-3.08 0-5.13-.26-5.9s-.77-1.54-1.28-1.8c-.51-.51-1.03-.51-1.8-.51-1.03 0-2.05.51-3.34 1.28-1.03.77-2.31 2.05-3.34 3.59v18.73c0 2.57.26 4.11.51 4.88.51 1.03 1.8 1.54 3.34 1.54v1.28h-18.22v-1.28c1.03 0 1.8-.26 2.31-.77s1.03-1.03 1.03-1.54c.26-.51.26-2.05.26-4.11v-15.14c0-3.08 0-5.13-.26-5.9s-.77-1.54-1.28-1.8c-.51-.51-1.28-.77-1.8-.77-1.03 0-1.8.26-2.82.77-1.28.77-2.31 2.05-3.85 4.11v18.73c0 2.57.26 4.11.77 4.88.51.77 1.54 1.28 3.08 1.28v1.28h-18.22v-1.28c1.54-.26 2.57-.51 3.08-1.54.51-.51.51-2.05.51-4.88v-19.76c0-2.57-.26-4.36-.77-4.88-.51-.77-1.54-1.03-3.08-1.28v-2.05h14.63Z"/>
   <path class="st2" d="M812.14 747.73h-19.25c.26 4.62 1.54 8.21 3.59 11.04 1.8 2.05 3.85 3.08 6.16 3.08 1.54 0 2.82-.51 4.11-1.28s2.57-2.31 3.85-4.62l1.28.77c-1.8 3.85-4.11 6.67-6.42 8.21-2.31 1.54-4.88 2.31-7.96 2.31-5.13 0-9.24-2.05-11.81-5.9-2.05-3.34-3.34-7.19-3.34-12.06 0-5.9 1.54-10.52 4.62-13.86 3.08-3.59 6.93-5.13 11.04-5.13 3.59 0 6.67 1.54 9.24 4.36 3.34 3.08 4.88 7.44 4.88 13.09Zm-9.24-2.57c0-4.11-.26-6.67-.77-8.21-.51-1.54-1.03-2.57-2.05-3.34-.51-.51-1.28-.77-2.05-.77-1.28 0-2.31.51-3.08 1.8-1.54 2.31-2.31 5.39-2.31 9.24v1.28h10.27Z"/>
   <path class="st1" d="M827.8 731.56v4.62c1.8-2.05 3.59-3.34 5.13-4.36s3.34-1.28 5.39-1.28c2.31 0 4.11.51 5.65 1.8s2.57 2.82 3.08 4.62c.51 1.54.51 4.11.51 8.21v13.6c0 2.82.26 4.36.77 5.13.51.77 1.54 1.03 3.08 1.28v1.28H833.7v-1.28c1.28-.26 2.31-.77 2.82-1.54.51-.51.51-2.05.51-4.62v-15.66c0-2.82 0-4.62-.26-5.39s-.51-1.28-1.28-1.8c-.51-.51-1.03-.51-1.8-.51-2.05 0-4.11 1.54-5.9 4.62v18.73c0 2.57.26 4.36.77 4.88.51.77 1.54 1.03 2.82 1.28v1.28h-17.71v-1.28c1.54-.26 2.57-.51 3.08-1.54.51-.51.51-2.05.51-4.88v-19.76c0-2.57-.26-4.36-.77-4.88-.51-.77-1.54-1.03-3.08-1.28v-1.28h14.37Zm38.75-13.09v12.83h8.21v3.59h-8.21v21.56c0 2.05 0 3.34.26 3.85s.51 1.03 1.03 1.54c.51.26 1.03.51 1.28.51 1.54 0 3.08-1.28 4.62-3.59l1.03.77c-2.05 4.88-5.39 7.19-9.75 7.19-2.31 0-4.11-.51-5.65-1.8s-2.57-2.57-2.82-4.11c-.26-.77-.26-3.08-.26-6.93v-18.99h-4.62v-1.28c3.08-2.31 5.9-4.62 7.96-6.93 2.31-2.57 4.11-5.13 5.9-8.21h1.03ZM427.18 552.42c-.26.51-.77 1.03-1.28 1.28m13.34-93.67c1.28 0 2.57-1.03 2.57-2.57 0-1.28-1.03-2.57-2.57-2.57-1.28 0-2.57 1.03-2.57 2.57s1.03 2.57 2.57 2.57ZM553.7 355.58h-89.05v71.86c0 6.93 2.82 13.09 6.93 14.89l34.13 20.53c.77.77 1.8 1.28 3.08 1.28 1.03 0 2.05-.51 2.82-1.03l34.65-20.79c4.11-1.8 6.93-7.96 6.93-14.89l.51-71.86Zm-59.54 20.78h-7.7v-18.48h7.7v18.48Zm-5.64 6.42 1.03-1.03-.77-1.28 1.54.26.77-1.54.77 1.54 1.54-.26-.77 1.28 1.03 1.03-1.28.26v1.54l-1.28-1.03-1.28 1.03v-1.54l-1.28-.26Zm-21.56 23.1v-17.45h9.24v17.45h-9.24Zm1.54-25.41 1.54.26.77-1.54.77 1.54 1.54-.26-.77 1.28 1.03 1.03-1.28.26v1.54l-1.28-1.03-1.28 1.03v-1.54l-1.28-.26 1.03-1.03-.77-1.28Zm10.78 17.71 1.54.26.77-1.54.77 1.54 1.54-.26-.77 1.28 1.03 1.03-1.28.26v1.54l-1.28-1.03-1.28 1.03v-1.54l-1.28-.26 1.03-1.03-.77-1.28Zm6.16-14.12c0-.51-.77-.51-1.03-.51-.77 0-1.28 1.28-1.8 1.54-.51 0-.77 0-.77-.51s1.03-.77 1.54-1.28c-5.65 0-5.9 2.57-6.67 2.57-1.54 0 1.28-2.82 2.05-3.59-1.28-.26-1.8-1.54-3.08-2.31.51-.77 1.03-.51 1.8 0 0-.51.51-1.28 1.8-1.28 2.57 0 1.8 2.57 2.31 2.57s0-2.57 1.8-2.57c2.57 0 5.65 6.67 2.82 6.67-1.8 0-.77-1.03-.77-1.28Zm-6.68-19.24 1.03-1.03-.77-1.28 1.54.26.77-1.54.77 1.54 1.54-.26-.77 1.28 1.03 1.03-1.28.26v1.54l-1.28-1.03-1.28 1.03v-1.54l-1.28-.26Zm-2.3-6.68v18.48h-9.24v-18.48h9.24Zm17.7 94.96-21.3-12.83c-3.59-2.31-5.39-6.67-5.9-11.81v-20.27h27.2v44.91Zm-7.7-47.22v-17.45h7.7v17.45h-7.7Zm35.16 48.5-9.75 5.9h-.26c-.77.51-1.54 1.03-2.57 1.03s-1.8-.26-2.57-1.03l-9.75-5.9v-46.2h24.89v46.2Zm0-48.5h-24.89v-47.74h24.89v47.74Zm29.52 22.58c-.51 5.13-2.31 9.5-5.9 11.81l-21.3 12.83v-44.91h27.2v20.27Zm0-22.58h-27.2v-47.74h27.2v47.74Z"/>
   <path class="st1" d="M492.62 424.61c-.26-.26-3.34 1.03-2.57 1.03 0-1.03 1.8-2.82 2.82-3.59-.26-1.03-1.54 0-3.08.77 5.13-7.19 1.8-4.36-1.03-3.85 4.62-4.88 3.34-4.88 0-3.34 2.57-2.05 3.08-4.62 2.82-5.39-2.57 3.34-4.62 2.82-4.62 5.9 0 2.05-.77 5.39-1.8 6.42-1.28 1.54-.26-5.39-3.85-5.39-1.03 0-3.85 0-4.62 1.28.77 0 1.8 1.8 1.8 2.57s.77 2.57-.51 2.57-2.57-2.57-2.57-3.59v-2.57c0-2.82-4.62-6.93-6.67-6.93 0 2.05 2.57 2.57 2.57 5.13-1.03 0-2.57-2.05-2.57-.77s1.54 1.54 1.54 2.57-1.8-.51-1.8.77c0 1.03 1.03.77 1.28 1.8-.77-.26-1.54 0-1.54.26s.26.77.77 1.03c-.26.26-.51.77-.51 2.57 0 5.65 3.59 8.21 6.16 8.21 1.8 0 1.54-1.28 1.8-1.8 0 1.03 1.03-.51 1.03 1.28s-1.8 1.03-1.8 2.57c0 2.05 2.82 0 2.82 2.05 0 2.82-.26 2.57-.26 3.59 0 .77 3.08-1.03 2.82-1.28.77.26.77 2.31 2.05 2.31.77 0 1.03-2.05 1.8-2.31-.51 0 2.82 2.05 2.82 1.03 0-2.57-1.03-1.54-1.03-3.34s3.59-1.28 3.08-2.31c-.51-.77-.77-.26-1.28-1.54 0 .26-2.82-4.11.51-1.8 3.34 2.57 3.85-5.39 3.59-5.9Zm94.96 18.74c1.54 0 2.82-1.28 2.82-2.57s-1.28-2.57-2.82-2.57-2.82 1.03-2.82 2.57 1.28 2.57 2.82 2.57Zm-11.8 7.18c1.54 0 2.82-1.28 2.82-2.57 0-1.54-1.28-2.57-2.82-2.57s-2.82 1.28-2.82 2.57 1.28 2.57 2.82 2.57ZM435.14 466.7c1.54 0 2.82-1.28 2.82-2.57 0-1.54-1.28-2.57-2.82-2.57s-2.82 1.28-2.82 2.57c0 1.54 1.28 2.57 2.82 2.57Zm9.23.77c1.54 0 2.82-1.28 2.82-2.57 0-1.54-1.28-2.57-2.82-2.57s-2.82 1.28-2.82 2.57c-.26 1.54 1.03 2.57 2.82 2.57ZM697.68 344.8c4.36 5.13 5.39 13.35 2.05 19.5-1.8-.26-1.28-2.31-1.8-3.59-3.08-5.9-5.65-13.09-2.82-19.76 2.05.26 1.28 2.82 2.57 3.85Zm-371.87 6.93c-1.03 3.85-1.03 8.98 0 12.32-.77.77-.51-.77-1.28-.51-6.16-4.36-3.34-13.09-4.88-18.99.26-.51 1.03-.51 1.54-.26 2.82 1.8 4.11 4.36 4.62 7.44Zm385.22.51c1.03 1.8-.77 3.34-2.05 4.11-1.28.26-2.82-.51-3.85-1.8-.51-1.8.51-3.34 1.8-4.11 1.54 0 3.08.51 4.11 1.8Zm-394.72 6.93c-.26 1.28-.77 2.82-2.05 3.34-1.03 0-2.31 0-2.82-.77-1.03-.77-1.03-2.31-.51-3.34.51-1.03 1.8-1.28 3.08-1.28.77.51 2.05.77 2.31 2.05Zm400.62 2.57c.26 1.03.26 1.54 0 2.57-1.03 1.28-2.57 2.05-4.11 1.28-1.03-.51-1.28-1.8-1.8-2.57.26-1.28 1.54-2.31 2.57-2.82 1.54 0 2.57.77 3.34 1.54Zm-8.73.25c1.28.51.26 2.31.26 3.08-.77.77-1.8 2.05-3.34 1.54-.77-.77-1.8-.77-2.05-1.8 0-1.54.51-3.08 2.05-3.59 1.28-.26 2.05.26 3.08.77Zm-11.29 2.31c0 1.8.26 3.85-1.8 4.11-1.8.51-3.08-1.03-3.59-2.31-.26-1.54.77-3.08 2.31-3.85 1.03.26 2.31 1.03 3.08 2.05Zm-363.66.77c.51 1.54-1.03 2.57-2.05 3.34-1.03.26-2.57-.51-3.08-1.8-1.03-1.03.26-2.05.51-3.08 1.8-1.28 4.11-.26 4.62 1.54Zm-9.24.52c0 1.28-.51 2.57-1.8 3.08s-2.57-.51-3.08-1.54c-.77-1.54.26-3.08 1.28-3.59 1.8-.77 3.08 1.03 3.59 2.05Zm335.17.51c1.54 3.34 2.82 7.19 3.08 11.29-.51 3.08.51 6.93-1.8 8.98-2.05-.77-2.31-3.34-3.85-4.88-2.82-5.39-.26-11.81.51-17.19 1.54-.51 1.54 1.03 2.05 1.8Zm-342.36 2.05c.51 1.8-1.03 2.82-2.05 3.85-1.8.51-3.08-1.03-3.85-2.31-.26-1.54.77-3.08 2.05-3.85 1.28 0 3.08.77 3.85 2.31Zm367 4.37c2.05 4.62 2.05 10.01.77 15.14l-1.03.77c-2.05-4.11-5.39-8.21-6.42-12.58 0-3.34.51-6.16 1.8-8.98 1.03-.77 1.8.26 2.05 1.03.51 1.8 1.28 3.85 2.82 4.62Zm19.51-2.83c-.26 1.54-.77 3.34-2.31 3.85-1.54.26-3.08-.26-3.59-1.8-.51-1.54.51-3.08 1.8-3.85 1.54-1.03 3.34.51 4.11 1.8Zm-379.06 4.88c0 1.28-1.03 2.57-2.31 3.08-1.28 1.03-2.05-.51-3.34-1.03-.51-1.28-.77-2.31 0-3.59.51-1.03 1.54-1.03 2.57-1.28 1.28.77 2.57 1.28 3.08 2.82Zm6.67-.77c.51 1.54-1.03 2.31-1.8 3.08-1.8.51-2.82-.77-3.59-1.8-.26-1.54.51-2.57 1.8-3.34 2.05-.51 2.82.77 3.59 2.05Zm376.75-.51c-.26 2.05-3.34 4.11-3.59 6.16-1.8 4.11-5.39 7.44-9.5 8.73-1.03.77-2.05 1.8-3.59 2.05-.26-3.08 2.57-5.9 4.11-8.73 3.34-4.11 7.7-6.93 12.58-8.21Zm-386.5 6.67c2.31 2.57 3.59 4.88 6.42 7.44.26.51-.26 1.54-1.03 1.54-7.7-.51-12.83-8.21-16.43-13.86.51-1.8 2.57-.26 3.59-.51 2.31 2.05 5.39 2.82 7.44 5.39Zm388.55 2.05c-.26 6.67-3.59 13.6-9.75 16.94-1.8.51-3.59 2.31-5.39 1.28 3.34-6.67 8.21-12.32 13.6-18.22h1.54Zm-29.77 4.62c.51 2.31-.77 3.85-2.57 4.62-1.8.26-2.82-1.28-3.59-2.57-.26-1.54.77-3.08 2.05-3.34.51-.51 1.28-.51 1.8-.51 1.03.26 1.54 1.03 2.31 1.8Zm-367.51 1.54c3.08 2.05 5.65 4.88 8.47 7.44-2.05 1.28-4.62.26-6.93.26-5.39-1.8-8.73-6.42-14.37-7.96.26-1.8 2.05-1.03 3.34-1.54 3.59-.77 6.42 1.03 9.5 1.8Z"/>
   <path class="st1" d="M478.76 341.72c-8.73-3.34-14.37 5.65-23.35 4.62-1.03.51-.77 1.8-1.28 2.57-.51.51-1.28.26-1.8-.26-.51-3.85-1.8-7.19-2.05-10.78-1.03-1.54-.51-3.85-1.28-5.39-4.88-13.6 12.06-3.34 15.4-11.29 3.08-6.93-5.65-7.7-8.47-12.58v-2.05c-2.57-2.57-5.13-3.34-6.67-6.67 1.03-3.85 1.54-8.21.51-12.06-.26-1.03-.77-2.31-2.05-1.8-3.08 4.11-5.13 7.44-7.96 11.29-2.82-2.31-5.65-4.88-9.24-6.93-2.31-.26-4.62-2.57-7.19-1.8-.51 1.03 0 1.8.51 2.31.26 6.16 3.34 11.04 7.7 15.4l.51 2.31c-2.82 6.42-2.05 13.86-2.82 20.53-6.93 17.71-18.22 34.9-33.62 47.48-8.73 10.01-19.5 19.76-20.79 33.36-.51 2.31.26 4.88-1.28 6.42-5.13-1.8-10.27-4.36-14.37-7.7-7.19-5.13-17.45-4.36-22.07-13.35-1.8-3.59.51-7.19 2.05-9.75 5.39-4.88 4.62-13.86 1.8-20.02-.51-.26-.77.51-1.28.77-.51 9.24-7.7 15.66-4.88 25.92.51 3.08 2.05 4.88 3.08 7.7-1.03-.26-2.57-.26-3.59-.77-3.34-.51-6.93-1.8-10.52-1.28-7.19 3.34-16.94-.77-22.58 5.9-1.03.26-2.05.26-1.8 1.8 3.34 0 6.67 1.03 10.01.77 5.39 1.03 8.98-3.59 12.83-5.65h1.03c1.54-1.54 4.11-.51 6.16-1.03 9.75 1.03 17.45 5.9 25.41 10.52v.51c-3.08 1.28-6.67 2.31-9.75 4.11-3.59 2.57-7.7 6.16-8.73 10.52-2.57 3.85.77 7.44 2.31 10.52.26 1.54.26 3.34 1.8 4.11 4.88-5.39.26-11.81 1.03-17.96 1.28-4.62 5.65-6.93 10.01-8.21 8.73-3.85 15.14 3.34 22.33 7.44-.26 7.19.77 14.12-.77 21.04-2.05.77-4.88 1.28-7.19 1.03-12.32 1.03-21.81 7.7-32.85 11.29-4.88 1.8-10.78 1.54-15.91 3.34 3.85 1.03 7.96-.26 12.06-.51 15.14-2.31 26.95-13.86 43.37-11.81l.26.51c-1.8 3.85-4.36 7.19-7.19 10.27-.51-1.8-.51-3.08-2.05-4.11-1.28-.51-2.57 0-3.59 1.28-.51.77-.51 1.8 0 2.31.77 1.28 2.05 1.8 3.34 2.31-.26 1.28-2.05 2.05-2.82 3.34-4.36 7.44-13.09 4.36-18.22 9.5-.77 1.03-3.59 1.8-2.31 3.34 5.9.51 11.55-1.03 15.91-4.11 5.65-6.42 11.81-12.58 17.45-18.48 1.03 5.13-.51 10.27-3.34 14.12-1.28-.77-2.57-1.8-4.11-2.31-1.54.26-2.57 1.8-2.82 3.08.51 1.03 1.28 2.31 2.31 3.08-5.39 3.85-12.06 4.11-17.96 5.9-11.29 1.28-22.33 2.31-33.88 2.57-5.39-.26-11.55 1.54-16.68 0-5.9 1.03-12.32-.77-17.19 2.57-.51.77.26 1.54.26 2.31 7.19 4.62 16.94 1.03 24.89 2.31h61.08c4.62-.26 8.98-.26 12.58-2.31 7.96-4.62 12.32-12.58 16.43-20.53 1.54-2.82 2.57-6.16 3.34-9.5 1.54-5.39 6.42-8.98 11.55-9.5.77 8.21-.77 16.17-2.57 23.87-1.03 5.13-4.11 9.75-2.05 15.14.51 2.57 3.08 2.57 5.13 2.82 18.73-.26 37.47-1.03 57.49.26 3.59.51 6.67 1.8 10.52 1.54.26-.51 1.28-.51 1.03-1.54-.51-1.8-1.8-3.85-3.85-4.36-.26-1.03-1.8-.51-2.05-1.28-10.01-5.65-21.81-2.57-33.62-2.57-6.16.51-12.06 1.8-17.19-1.8-2.31-2.82-.51-11.81-.51-11.81 0-3.59 8.47-28.23 9.75-30.28.26-2.31 1.28-4.62 1.03-7.19 1.28-3.08 1.03-7.19 1.03-10.52.51-5.13 3.08-9.75 4.88-14.63 1.03-2.31 1.8-4.88 2.57-7.19 1.03-3.08 1.28-5.9 3.08-8.21 5.13 3.34 10.01 3.08 12.58 8.98l2.05 13.09c0 .77.51 2.31 1.8 1.54 4.11-2.57 2.82-8.73 2.82-12.58 1.03-4.88-2.57-7.19-3.85-11.29-1.03-.77-2.82-4.62-2.82-4.62-.51-3.34-8.21-5.9-6.42-10.01 1.03-3.59 1.8-6.93 5.39-8.98.51.26.77.77.77 1.03l1.8-1.28.26-13.09c5.13 0 12.58.51 17.71.51 1.28.51 2.57 1.54 4.11 1.8l1.28-1.8 12.58-2.57c-7.19 1.28-10.52-4.88-15.65-4.88Z"/>
   <path class="st1" d="M492.37 347.36c.26 0 .77 0 1.28-.26l-1.28.26Zm-135.25 43.63c.26 1.8-1.03 3.08-2.31 3.59-1.28-.51-2.05-.51-2.82-1.8-.51-1.8 1.03-3.08 2.05-3.59 1.28 0 2.82.26 3.08 1.8Zm-10.01 0c1.03 1.03 1.03 2.57.51 3.59-1.03 1.03-2.82 1.8-3.85.51-1.03-1.03-1.8-2.05-1.03-3.34 1.28-1.28 3.08-2.05 4.36-.77Zm216.09 1.54c0 .26.26.26 0 0m118.31 2.83c.51 1.8-.77 3.08-2.05 3.59-1.54-.51-3.59-.77-3.59-2.82.26-1.28 1.28-2.05 2.31-2.31 1.54-.51 2.82.51 3.34 1.54Zm8.21-.52c.51.77 1.54 2.05.26 2.82-.51.51-1.03.51-1.54 1.28-1.8.26-3.34-.26-3.85-1.8-.26-1.8 1.03-2.57 2.31-3.34 1.28-.26 2.05.51 2.82 1.03ZM308.1 396.9c-.51 1.8-2.05 2.57-4.11 2.05-.51-.51-1.03-1.28-1.28-2.05.26-1.03.51-2.31 1.8-2.57 1.8 0 3.08.77 3.59 2.57Zm52.35 2.56c-.26 1.28-1.54 2.31-2.57 3.08-1.54.26-2.57-1.03-3.34-2.31 0-1.28.51-2.82 1.8-3.08 1.54-.77 3.59.51 4.11 2.31Zm-9.24-1.02c.51.51 1.03 1.8.51 2.57-1.03.77-2.31 2.31-3.85 1.28-1.03-.77-2.05-1.28-1.8-3.08.51-.51 1.28-1.54 2.31-1.8 1.28-.51 2.05.26 2.82 1.03Zm362.38 1.79c0 1.28-1.28 2.57-2.05 3.08-1.28.51-2.57.26-3.34-.77-1.03-.26-.51-1.54-.51-2.31.77-1.03 1.8-1.8 2.82-2.05 1.28.26 2.31 1.03 3.08 2.05Zm10.01 1.54c-.51 1.28-1.54 2.57-2.82 2.82-1.03-.26-2.57-.51-2.31-1.8 0-1.03.51-2.31 1.28-2.57 1.54-1.03 3.34-.26 3.85 1.54Zm-397.79 2.06c.26 1.8-.26 3.08-1.8 3.85-1.03.51-2.05-.26-2.82-.77-.77-.77-1.28-2.05-.77-3.08.26-1.28 1.8-1.03 2.57-1.8 1.28 0 2.05.77 2.82 1.8Zm7.7 1.54c.51 1.28-1.03 1.8-1.28 2.57-.77.51-1.8 1.03-2.82.26-1.03-1.03-2.31-2.31-1.28-3.85 1.28-2.31 4.62-1.03 5.39 1.03Zm370.84-.77c.26 1.54-1.28 2.57-2.05 3.59-1.28.26-2.82-.51-3.08-1.8-.26-1.28.51-2.31 1.8-3.08 1.28-.26 2.57 0 3.34 1.28Zm12.83 2.31c-.26 1.28-.26 3.08-1.8 3.85-1.28.26-2.82.26-3.85-.51-1.03-.77-1.03-2.31-.51-3.34.77-1.28 2.05-2.31 3.85-1.8 1.03.51 1.28 1.28 2.31 1.8Zm-397.28 3.33c.51 1.28-.77 1.54-1.28 2.31-1.03.51-2.05.26-3.08-.26-1.03-.51-.51-2.31-.51-3.08 1.54-2.82 4.36-.77 4.88 1.03Zm387.53 3.08c.51.26.26 1.03.26 1.28-3.85 1.8-9.24 2.31-12.58-.51-1.8-1.54-4.11-2.31-6.16-3.34.77-2.05 3.59-1.8 5.65-2.31 4.11.51 7.7 4.62 12.83 4.88Zm-380.08-1.54c.26 1.28-.51 1.8-1.03 2.57-.51 1.03-1.8.51-2.57.26-1.28-1.03-2.05-2.57-1.03-3.85 1.8-1.54 3.85-.77 4.62 1.03Zm13.86 1.03c.51 1.28-.26 2.57-1.54 3.34-1.03.51-2.05-.26-3.08-.51-.77-1.03-2.05-2.31-.77-3.59 1.28-2.31 4.11-1.03 5.39.77Zm179.39 6.67c-.26 3.08-5.39-.51-4.62 3.59.77 3.08 1.28 6.42 3.08 8.73 1.54 2.05.77 5.39.51 7.96-1.28 2.31-3.59 3.85-5.9 5.13-4.36-.51-11.04 2.31-13.09-3.34-.77-2.31-2.57-4.88-2.57-7.44.51-.26 1.03-.26 1.54-.77 0-1.03-1.28-1.54-1.03-2.57 5.13-.77-2.05-5.39 2.31-5.65 3.59 3.59 9.24 2.57 12.32 6.42.77.51 1.28 1.54 2.31 2.05-.51-3.59-2.31-7.44-2.82-11.55-.51-2.05.26-4.11 1.8-5.13 2.57-2.05 4.62.77 6.16 2.57Zm-165.79-1.03c.51 1.54-.77 2.57-1.8 3.34-1.28.51-2.05-1.03-2.82-1.8-.51-1.54.51-2.31 1.54-3.08 1.28 0 2.31.51 3.08 1.54Zm95.72 1.54c1.8 6.16 1.28 12.32-1.8 17.45-.26 1.28.26 3.34-1.28 3.08-4.11-5.9-1.03-13.86.51-20.02.26-1.54 2.05-2.05 2.57-.51Zm132.94 2.83c2.05 4.36 2.31 10.27.26 14.63l-1.28 1.28c-1.8-3.59-3.08-7.19-3.59-11.04.77-2.82 1.8-5.39 1.8-8.21 2.31-.51 2.05 2.31 2.82 3.34Zm-216.6 1.79c-1.03 1.8-3.59 2.31-5.39 3.59-3.59 2.82-9.24 3.34-13.86 2.57 4.11-5.65 10.27-8.98 17.71-7.44.51.77 1.28.51 1.54 1.28Zm-63.9 5.65c5.65 4.11 7.19 9.75 10.78 15.4.51.51 2.05.77 1.28 2.05-1.28 1.03-2.57-1.03-4.11-.51-5.9-2.57-9.75-9.24-9.5-16.17 0-.77 1.03-.77 1.54-.77Zm274.35 4.88c.26 1.54-.26 3.08-1.28 3.59-1.8.51-3.08-.51-3.59-1.8-.51-1.03.51-1.8.77-2.57 1.28-1.28 3.34-.77 4.11.77Z"/>
   <path class="st1" d="M643.02 443.35c0-3.08.77-5.9 1.03-8.73.51-1.03.77-2.05.51-3.34 3.85-5.13 11.29-3.34 17.19-3.08 2.31 1.28 5.39 1.03 7.7 1.8 1.03-.77 2.57-1.03 3.85-.77 4.88-2.57 1.8-8.47 2.05-13.09l-1.8-4.62c-.51-1.03-1.03-2.05-1.28-3.08-1.03-1.03-1.54-3.08-2.57-4.11-2.57-6.93-7.7-10.78-12.06-16.17-7.96-10.27-20.27-16.17-32.85-20.27-12.32-4.11-24.64 1.28-35.67 5.13-3.34-1.03-5.13-3.59-6.16-6.67-.51-5.9.51-11.81 2.82-16.68.51-3.85 3.08-6.93 4.11-10.52 2.82-8.73 5.65-17.45 6.42-26.95.26-5.9-4.11-9.75-8.47-12.32-2.82-.77-6.42-.51-8.47 1.8-2.05 4.11-6.42 6.93-10.01 8.98-.26 2.57 2.82 1.03 4.11 1.8 3.34.51 7.19-.51 10.01 1.8.26 6.16-3.34 11.29-6.42 16.17-5.39 7.7-10.78 15.91-14.12 24.38l-.51-.51.77 38.24c4.88 8.21 11.04 17.71 20.27 20.79 4.88 4.11 11.29 8.98 17.96 5.39 3.59-1.03 3.85 3.85 5.65 5.9 1.8 5.9-2.31 9.75-2.57 15.14l-4.11 8.73c-4.62 8.98-8.73 18.73-15.91 26.43-2.31 0-3.85 2.57-6.16 2.57-1.28 1.8-3.85.51-5.39 1.03-4.88 2.05-11.55.77-14.89 5.39.26.51.77.51 1.28.77 9.5.26 20.02.77 30.03.26 1.28-.51 2.31-1.54 2.57-3.08-1.28-2.57.51-5.13 1.8-6.93.77-3.85 3.34-6.16 4.36-9.75 3.34-6.42 6.93-12.58 10.52-18.99l4.88-7.7c1.03-2.57 2.82-5.9 4.88-8.73 1.28-1.28 1.8-2.57 2.82-4.11.26-1.54-.51-2.31-1.54-3.34 1.03-1.03 2.82-.77 4.11-1.03 3.85 2.31 7.96 6.16 8.73 10.27l1.28 4.11.51 1.8-.26 5.13.51 4.88c.77 7.44-.51 15.14-1.28 22.58-2.57 8.98-13.09 8.21-20.53 10.27-1.8 1.28-5.39.51-5.39 3.85 8.98 1.8 19.5.77 29.26.51 1.54-.51 1.8-2.05 2.57-3.34.26-2.05 2.31-3.85 1.8-5.9-1.8-2.31-.26-5.65-.51-8.73.26-.77.26-1.8 0-3.08 1.28-4.62 1.03-10.01 1.8-14.37l.77-5.9Zm76.22-5.9c-4.88 6.93-10.27 14.89-18.99 17.45-.51 0-1.28.26-1.54-.51 5.39-5.65 7.96-14.37 16.43-16.43 1.28-.51 2.82-1.28 4.11-.51Zm-423.72 7.44c-.77.51-.26 2.05-1.54 2.31-1.28.51-2.57-.26-3.34-1.28-.51-1.54.77-3.08 2.05-3.34 1.28.26 2.31.77 2.82 2.31Zm44.66 2.31c.51 1.28-1.03 1.28-1.8 1.8-6.42 2.31-13.09.26-17.96-4.62 0-.51 0-1.28.51-1.28 6.42 1.54 13.86.26 19.25 4.11Zm-36.19-2.06c.26.51.51 1.8.26 2.31-1.03 1.28-2.31 1.8-3.85 1.28-1.03-.51-1.28-1.03-2.05-2.05.26-1.54 1.28-2.57 2.57-3.08 1.28.51 2.31.77 3.08 1.54Zm145.52.77c.26 1.28-1.03 2.31-1.8 3.08-1.28.26-2.57-.26-3.34-1.28-.51-1.03 0-2.57 1.03-3.08 1.54-.26 3.59 0 4.11 1.28Zm275.63.52c.51 1.54-1.03 2.31-2.05 3.34-1.03.51-2.05 0-3.08-.51-.26-.77-1.03-1.28-.77-2.57.51-1.28 2.05-2.05 3.59-1.8 1.03.77 1.54.77 2.31 1.54Zm10.27-.52c1.03 1.28.26 2.57-.51 3.59-.51 1.03-1.8 1.28-2.82 1.03-1.03-1.03-2.05-1.28-2.31-2.82 0-1.28 1.28-2.31 2.31-2.57 1.54-.77 2.05.77 3.34.77Zm-446.56 4.62c.26 1.03-.77 1.8-1.03 2.57-.77.26-1.54 1.03-2.57.51-1.03-.51-1.8-1.28-2.31-2.57.26-1.28 1.28-2.57 2.82-3.08 1.28.51 2.57 1.03 3.08 2.57Z"/>
   <path class="st1" d="M615.81 450.53c.26.51.26 1.28.26 2.05-1.03 1.28-2.05 2.31-3.85 1.54-1.03-1.03-2.05-1.8-1.54-3.34 1.28-1.8 4.11-2.31 5.13-.26ZM314 452.84c-.26 1.03-.77 2.31-2.05 2.31-1.28.26-1.8-1.03-2.57-1.8 0-1.28-.26-2.82 1.28-3.59 1.54-.51 3.34 1.03 3.34 3.08Zm-14.88.26c.51 1.54-.51 2.57-1.54 3.34-1.8.51-3.34-.77-4.11-2.31.26-1.28 1.28-3.08 2.82-3.59 1.28.26 2.05 1.8 2.82 2.57Zm326.96-.26c.26 1.54-.26 3.08-1.8 3.85-1.8.51-3.34-1.03-4.11-2.31.77-1.28 1.03-3.08 2.82-3.34 1.54 0 2.31.77 3.08 1.8Zm-319.78.52c.51 1.03-.51 1.54-.77 2.31-.77 0-1.28 1.03-2.05.51-.51-.77-1.8-1.03-2.05-2.31-.26-1.54 1.03-2.31 2.05-3.08 1.54.26 2.31 1.28 2.82 2.57Zm410.37 1.28c-.51 1.28-1.28 1.8-2.57 2.57-1.28.26-2.05-.77-2.82-1.28s-.51-2.05-.26-2.82c1.54-2.57 5.65-1.28 5.65 1.54Zm11.81.77c-.51 1.8-2.05 2.57-3.85 2.57-1.28-.51-2.82-1.8-1.8-3.59.51-.51 1.03-1.28 1.8-1.28 2.05-.77 3.34.51 3.85 2.31Zm-73.66 1.03c.77 2.05-1.03 2.57-2.31 3.59-1.03-.26-2.05-.51-3.08-1.28-.26-1.8.51-3.34 2.05-4.11 1.54 0 2.31.77 3.34 1.8Zm-42.86 1.79c.77.26.51 1.28.26 1.8-1.03.51-2.05 2.31-3.59 1.28-1.03-.51-1.8-1.54-1.54-3.08.77-1.54 4.11-1.8 4.88 0Zm8.73 1.03c.26 1.28-.26 1.8-1.28 2.57-1.03 1.03-2.31-.26-3.34-.51-.26-.51-.51-1.54-.26-2.31.51-.51 1.28-1.03 2.05-1.28 1.03.51 2.31.51 2.82 1.54Zm-263.57.26c1.03 1.03-.26 2.05-.26 3.08-.77 1.03-2.57 1.8-3.85.77-1.54-.51-1.28-2.57-1.03-3.85 1.03-.26 1.03-1.28 2.05-1.28 1.54 0 2.31.51 3.08 1.28Zm314.13.51c.26 1.54-1.28 2.31-2.31 2.57-1.8.51-2.82-.77-3.59-2.05 0-1.03 1.03-1.54 1.28-2.31 2.31-.77 3.59.77 4.62 1.8Zm-8.22 0c.51 1.54-1.03 2.31-1.8 3.08-1.03.51-2.57.26-3.34-.51-.77-.51-.77-1.28-.77-2.31 1.03-.77 1.28-1.8 2.57-2.05 1.28 0 2.57.77 3.34 1.8Zm69.81 2.05c.26 2.31-2.57 1.03-3.59 1.8-6.42 3.85-14.89 1.03-21.04-1.28.51-2.05 2.82-1.28 4.11-2.05 6.67-4.11 13.6 1.03 20.27 1.28l.26.26Zm-424.74-2.05-.51 1.03c-5.65 3.34-13.09 5.9-20.02 3.59l-.51-1.03c5.65-4.11 13.35-5.39 20.79-4.11l.26.51Zm379.06 1.28c0 1.28-.51 2.31-1.54 3.08-1.54.51-3.59 0-4.11-1.8-.51-1.28.77-2.57 2.05-3.08 1.03 0 3.08.26 3.59 1.8Zm-351.34.52c-.51 1.28-.26 2.57-1.8 3.08s-3.34-.77-3.85-2.05c-.51-1.8.77-2.31 1.54-3.08 1.8-.77 3.08.77 4.11 2.05Zm-11.04.77c.51 1.03-.51 1.8-.77 2.57-.77 1.03-2.05.77-3.08.51-1.03-1.03-2.05-2.05-1.8-3.85 1.03-.77 1.28-1.28 2.57-1.8 1.28.51 2.82 1.03 3.08 2.57Zm373.16 3.59c-.26 1.28-1.28 2.57-2.57 2.82s-2.31-.77-2.82-1.54c-.51-1.03-.26-2.31.51-3.08.26-.51 1.28-.51 2.05-.77 1.54.26 2.57 1.28 2.82 2.57Zm-384.71-1.54c.51 1.28-.51 1.8-.77 2.57-.51 2.57-2.05 4.36-3.34 6.67-3.08 3.59-7.19 3.59-11.29 4.62l-.51-1.28c4.62-5.9 9.24-10.27 15.66-13.09l.26.51Zm377.01 3.34c.26 1.8-1.28 2.31-2.31 3.08-1.28 0-2.57-.77-3.08-1.8-.51-1.8 1.03-2.31 2.05-3.08 1.54-.51 2.82.51 3.34 1.8Zm-359.04 0c-.26.26.26.51.51.77-.26 1.8-1.28 2.31-2.31 3.08-1.28 0-2.57-.51-3.34-1.54-.51-1.28 0-3.08 1.54-3.59 1.28-.26 3.08-.26 3.59 1.28Zm387.52 4.62c1.54-.26 1.8-2.05 3.59-2.31 1.54-.26 2.82.51 3.85 1.8.51 1.8-.77 2.82-2.05 3.59-1.03.77-3.34-1.03-3.34 1.03 1.03.77 2.05 1.8 2.05 3.08-.26.51-1.28.51-1.8.26-4.62-1.8-9.24-4.88-11.29-9.75-.51-1.28-3.59-2.57-1.8-3.85 4.62-.26 8.47 3.34 10.78 6.16Zm15.15-4.88c.77.77.51 2.31-.26 3.08-.77 1.54-3.08 1.03-4.62.77-.77-.77-1.54-1.54-1.28-2.82.51-1.03 1.28-1.54 2.31-2.05 1.54-.26 2.57.26 3.85 1.03Zm-56.46 8.47c1.28 1.8 2.82 4.36 3.34 6.16-.26.51-1.03.26-1.28.26-5.39-3.08-12.06-6.16-14.12-12.58-.51-.51-1.8-1.28-1.54-2.57 4.11-.77 7.96 2.31 10.78 4.36 1.03 1.8 2.05 2.82 2.82 4.36Zm-354.94-5.9c.51 1.28-.51 2.57-1.28 3.08-1.8.26-2.57-.26-3.59-1.28-1.03-1.8 1.03-3.08 2.05-3.85 1.28 0 2.05 1.28 2.82 2.05Zm374.44 3.59c.26 1.03-1.03 1.54-1.54 2.31-1.28.26-2.57.51-3.59-.51-.26-.77-1.03-2.05-.26-2.82 1.8-2.31 4.11-.51 5.39 1.03Zm38.5 2.31c.51 1.8-1.03 3.08-2.05 3.85-1.54.51-2.82-.51-3.85-1.28-.77-1.03-.26-1.8 0-3.08 1.03-1.03 2.57-1.8 4.11-1.03.51.26 1.28.77 1.8 1.54Zm-107.28 21.56c0 1.8-3.34 1.28-4.88 2.82-4.88 2.57-10.52 2.57-16.43 2.31v-1.03c5.65-4.62 13.6-6.42 21.3-4.11Zm-226.61 6.67c-.26 1.28-1.03 2.31-2.31 2.57-1.03 0-2.05-.51-2.57-1.54-.51-1.8 1.03-2.57 2.05-3.34 1.28 0 2.57 1.28 2.82 2.31Zm223.79 1.8c-.26 1.28-.77 3.08-2.31 3.59-1.28.26-2.31-.51-3.34-1.03-.77-.51-.26-1.8-.51-2.57 1.03-2.82 5.13-2.82 6.16 0Zm31.05.51c-3.85 2.57-8.21 5.39-13.35 5.39l-8.47-.26-.77-.51c5.13-6.16 14.37-6.16 22.58-5.65v1.03Zm-297.45 3.85c0 1.28-.51 2.57-2.05 3.08-1.54.26-2.57-.26-3.34-1.28-.51-1.28 0-2.82 1.28-3.59 1.8-1.54 3.59.51 4.11 1.8Zm7.7 1.54c.51.77-.26 1.28-.51 2.05-1.03.51-2.05.77-2.82 0-1.03-.51-1.28-1.8-1.03-2.57.51-1.03 1.28-.77 1.8-1.28 1.03.26 2.31.51 2.57 1.8Zm-59.28 15.65c-1.54 1.8-4.11-.51-5.65-1.28-5.39-3.08-5.39-9.24-10.78-12.83.51-1.8 2.05.26 3.08-.26 1.03.51 2.05 1.28 3.34 1.8 5.13 3.08 6.42 7.96 10.01 12.58Z"/>
   <path class="st1" d="M759.79 467.22c-2.57-4.62-6.67-6.42-11.55-6.42-4.11.26-6.93 3.08-8.73 6.42-1.03 3.34.26 6.67 2.82 8.73 1.03.51 2.57.26 3.08-.77.77-2.05-1.28-2.05-1.8-3.59-.51-2.31.26-4.11 1.8-5.39 1.54-1.54 4.11-.77 6.16-.77 1.8 1.28 3.85 2.31 4.62 4.62 1.03 2.57 1.03 5.65 0 8.21-1.8 3.85-5.65 6.93-9.5 7.7-12.83 1.8-154.24 1.28-154.24 1.28-16.68 1.54-35.67-3.08-49.79 5.65-6.42 3.08-9.75 10.27-11.55 16.68-4.11 3.85-8.73 8.21-12.06 12.32l-.51-.51c.77-3.85 2.57-6.93 3.34-10.78 2.31-3.08 2.31-7.44 4.11-10.78 5.9-9.5 11.55-19.25 20.53-25.92 3.85-5.13 10.78-4.11 16.68-4.11 6.42 3.08 13.86 3.85 21.56 3.08.26-.26.51-.51.51-1.03-2.05-2.05-5.65-2.82-8.21-4.88-6.16-3.08-12.06 1.03-18.73.51-.26-.26-.51-.51-.51-1.03 5.9-4.36 12.58-7.44 19.25-10.27 5.39-3.08 11.29-4.62 16.94-6.67 2.31 0 4.62-2.05 6.67-.51l8.21-2.31c.26.26.51.51 1.28.51 6.93-2.31 15.91-.26 23.87-.26l1.03 1.03 7.44 1.8c2.82.26 4.11 3.59 6.93 3.85 1.54-2.31-1.8-3.08-2.57-4.62 3.34-.77 7.19.26 10.52 1.54l-1.54 1.8c-1.03 1.8.51 3.08 1.8 3.59 1.03.26 1.8-.51 2.57-.77 2.05-1.28-.26-2.82.51-4.11 11.55 2.05 22.58 4.88 33.11 9.5 2.82 1.03 5.65 3.08 8.98 3.08-3.34-3.08-7.7-4.62-11.81-6.16-2.57-1.54-6.42-1.8-8.47-3.85.51-.77 1.54-.51 2.05-1.03 5.39-.51 9.75-4.62 13.6-8.73.26-1.03 2.05-.51 1.8-1.8-1.28-1.54-3.85.51-5.65.26-6.42 1.28-9.24 8.98-15.91 10.27-7.96-1.8-15.91-3.85-23.87-5.9-3.85-.51-7.96-1.03-11.55-2.57l-8.73-.77h-15.91c-.26-.26-.51-.51-.51-1.03 5.65-1.28 10.52-4.62 15.91-6.16l41.58-18.99c4.36-3.85 8.21-8.21 11.81-12.83.26-1.28-.51-2.57-1.8-3.08-1.03-.51-2.31-.26-3.08.51-1.8 1.28 0 3.08 0 4.88-1.8 2.57-4.88 4.62-7.19 6.16-.51-.26-42.86 19.25-42.86 19.25-6.16 2.57-12.32 5.65-18.99 6.93l-8.98 1.28c-.51 1.8-2.05 3.08-3.85 3.59-2.57.51-4.62 2.05-7.19 2.05-20.27 7.7-41.06 16.17-57.23 32.08 1.03-1.8 1.28-4.11 1.54-6.67-.26-2.31-.26-4.88-1.8-6.93-.26-.77-1.54-3.34-1.03-4.36l-2.31 1.54c-1.28 3.34-2.57 9.75-1.28 13.35.51 2.82 2.82 6.16.51 8.73-7.44 8.98-11.55 20.02-16.68 30.28-1.8-.26-2.82-2.05-3.59-3.85 5.39-6.67 9.5-14.12 11.04-22.84 1.03-.77.26-2.82 1.28-3.85-.26-2.57 1.28-4.88.26-6.93 1.03-3.34-4.62-6.67-1.03-8.73l-2.82 1.28c-6.67 8.73 3.59 21.81-4.11 30.28v.51c-2.05 2.82-3.34 5.65-6.16 7.44-3.85-1.54-5.13-5.9-7.19-8.98-3.34-3.34-3.34-10.01-1.28-14.63 1.28-4.62-1.03-8.47-1.28-12.58l-1.54-1.03c-3.85 4.88-5.13 12.58-2.05 18.22 1.54 2.82 1.8 6.67 4.11 8.98 1.28 4.62 4.11 7.44 6.67 11.55.51 1.54-1.03 1.8-1.8 2.57-1.8-1.03-1.28-3.59-2.82-4.62-5.13-11.04-11.81-19.76-19.76-28.74-.26-1.28-1.8-2.57-1.03-4.11 3.08-2.82 3.59-8.21 2.05-11.81-.26-.77-1.28-1.8-1.03-2.57l-2.31-1.8c.26 5.39-3.34 10.27-1.8 16.17v.26c-15.91-12.06-33.62-22.84-51.58-31.31l-1.54 3.85c4.62 1.03 16.68 8.47 16.68 8.47 5.39 2.05 10.52 5.39 15.4 8.21 21.04 11.81 35.16 31.05 44.66 52.61.26 1.8 1.8 3.59.51 5.39-3.34-5.13-7.96-7.7-11.81-11.81-1.03-7.44-5.39-14.37-11.81-17.45-2.31-3.34-7.19-3.85-11.29-4.88l-56.46-.26c-45.94-.51-87.77 1.28-133.45.51-6.42-.51-14.12-2.82-15.91-9.5-1.28-2.31-1.28-6.42 0-8.73 1.8-3.08 4.88-3.85 7.96-4.11 2.57.26 4.11 2.57 5.39 4.36 0 2.05-1.8 3.85-2.57 5.65.26.51.77 1.8 1.8 1.28 2.05-.77 3.59-3.08 4.11-4.88.26-1.03.51-2.57-.51-3.34-1.03-3.34-4.36-5.65-7.19-6.42-3.85-.26-7.96.77-10.52 3.59-3.85 3.08-3.59 8.73-2.57 13.09 2.57 6.93 9.75 11.55 16.68 12.58l151.16.51c14.63.77 31.31-1.8 46.2 1.28 5.39 1.8 11.29 5.9 12.58 11.81-.26.26-.51.26-1.03.26-12.32-7.96-28.49-11.04-44.14-8.98-6.16-.26-11.81 2.05-17.45 3.59-2.82.51-5.65-.77-7.7-2.57-5.65-5.13-15.4-4.62-22.58-2.82 0 .51-.26 1.03.26 1.03 7.7-.51 12.06 5.9 18.99 6.67 1.54.26 2.82-1.28 4.11-.26-7.19 3.34-13.86 7.44-21.56 9.75-2.31-.51-3.59-2.57-5.39-3.85-2.82-3.34-8.47-1.8-12.32-2.31-1.28.26-2.57-.51-3.59 0 1.28 2.57 4.11 3.85 6.67 5.13 3.85 1.8 8.47-.26 12.06 2.31-1.03 1.03-2.05 1.28-3.34 2.31-7.19 2.82-13.35 9.5-21.3 8.98-8.47 1.03-17.19-1.54-23.1-7.44-2.57-6.16-8.73-9.5-15.66-8.98-.51.26-1.03.26-1.03 1.03 3.34 2.05 6.16 6.16 9.5 8.47 2.05 2.57 6.42 0 8.47 3.08 3.08 2.05 6.67 3.85 10.01 4.36 2.57 1.03 5.39 1.54 7.96 2.31l-1.03.51c-14.12 4.62-30.54 5.13-46.2 4.62-4.62-.26-9.24-1.54-13.86-1.28.77 1.03 2.31 1.8 3.85 2.31-1.28.77-2.57 1.03-4.11 1.28-1.8.51-4.11.51-5.9 1.54-2.57-.26-4.62.77-6.67 1.54-2.57 2.82-5.65 5.9-8.73 7.19 0 .51-.26 1.54.51 1.54 2.82-1.28 6.67-.26 9.75-1.54 5.13-.51 7.96-6.16 12.06-8.47 4.36-3.34 10.52-2.57 15.91-1.8 3.08.77-.26 2.05.51 4.11 1.28 1.03 2.31 2.31 4.11 1.8.26-.26.51-.51 1.03-.77 1.03-1.28.77-2.57.26-3.85 2.05-1.28 5.13.26 7.44-.77 5.9-.26 11.81-1.28 17.45-1.54 1.03-.26 2.05-1.03 2.82-.26-.51 1.28-2.05 1.28-1.28 3.08.26 1.28 1.8 2.05 3.08 2.31 1.54-.51 2.82-1.8 2.31-3.85-.26-1.03-1.54-1.28-2.31-1.8 3.34-1.54 6.93-2.05 10.27-3.59 2.31-.51 4.62-1.28 6.42-2.31 2.05-.26 3.85-2.05 5.65-1.28-.77 2.57-1.8 5.13-3.34 7.44-2.57 8.21-4.36 19.25 0 27.2.51.26.51-.26 1.03-.26-3.34-8.21-1.28-17.71 1.28-25.66 2.05-13.35 15.91-17.19 25.66-22.33l.51.51c-2.57 6.93-6.42 13.35-5.9 21.81.26 1.28-.51 2.82 0 3.85 2.57-1.28 4.36-4.62 5.65-7.19 1.03-6.93-2.82-15.91 4.11-21.04 12.83-4.88 24.64-11.55 39.52-11.81.51.51 1.54-.26 1.8.51-3.08 3.34-7.7 6.67-8.98 11.04-4.88 6.93-4.88 18.73-2.57 26.95 1.28 4.88-2.82 7.44-4.88 11.29-1.03 1.28-1.28 3.59-2.05 5.13l3.08.26c2.57-2.82 5.13-6.16 5.39-10.27.26 1.54 1.8 2.82 2.82 3.08 1.03-1.8-1.03-3.08-1.03-4.62 2.57-1.28 3.59 1.8 5.65 2.31 3.34.77 6.16 2.31 9.5 2.31l1.03-1.03c-3.34-5.39-10.27-6.16-16.17-6.67-3.08-5.13-3.08-11.55-2.82-17.71.51-3.34 1.28-6.67 3.08-9.75.77-2.31 2.82-4.11 4.36-5.9 2.82-2.57 6.42-4.62 9.75-5.39h.51c0 .26.26.51.26.51-4.11 3.34-4.62 7.7-7.19 11.81-2.57 3.85-3.85 9.24-1.28 13.6 1.03 2.05.51 5.13 2.57 6.67 2.05-2.82 2.05-6.42 3.34-9.5-.51-5.13-3.59-10.01-.51-14.89 1.54-3.85 4.88-5.39 8.47-6.93 8.47-.77 15.91 3.59 23.35 6.93 1.54 1.03 4.11 2.05 4.62 4.11-.26 4.11-2.57 8.47-5.65 10.52-4.11 2.57-10.27 2.82-14.12-.26-2.31-2.31-3.34-6.42-2.57-9.5 1.8-1.8 4.11-3.34 6.93-2.57 1.54.77 2.82 2.31 4.88 1.28.77-.51 1.03-1.8.51-2.57-1.8-1.03-2.31-3.34-4.62-3.59-2.82-.51-6.42-.26-8.47 1.8-3.34 2.82-4.62 6.93-3.59 11.04 1.03 4.88 4.88 8.73 9.5 10.01 7.19 1.8 14.63-.51 18.99-6.67 1.8-2.05 2.31-4.11 3.34-6.67 7.44 4.62 13.09 12.58 15.91 20.53 0 2.57.77 5.39.26 7.7l5.39.51c-.51-1.28 0-2.57.51-3.85 2.05-10.27 8.47-18.99 15.91-25.66 2.57-1.54 2.05 2.05 2.57 3.08 2.31 5.9 7.7 10.27 13.6 11.81 6.42 1.03 12.83-.51 16.68-5.39 2.05-3.85 4.62-9.24 1.03-13.09-2.05-2.57-5.13-4.11-8.47-4.11-4.11 0-6.42 2.82-8.47 5.9 0 1.28-.26 2.57 1.03 3.34.51 0 1.8.26 2.31-.77.26-2.31 2.31-3.34 4.11-4.62 1.8-1.03 3.59 0 4.88 1.03 1.8 1.28 2.05 3.85 2.05 6.16-.26 3.08-2.31 6.16-5.13 7.44-4.62 2.31-11.04 1.28-14.89-1.28-1.8-2.05-2.82-4.36-4.36-6.93-.26-2.57-1.28-4.62 0-7.19 6.93-4.11 13.86-6.93 22.33-7.7 3.34.51 6.16 2.82 8.21 5.13 7.19 7.44-1.54 17.71 3.34 25.92 1.8-.26 1.8-2.82 2.57-4.36 2.31-5.65-.51-11.81-2.05-17.19-1.8-3.34-2.82-6.42-5.9-9.24.77-.26 1.03-.26 1.8-.26 3.34 2.31 6.93 4.62 9.5 8.21 4.62 7.44 6.93 16.17 6.16 25.66-1.28 4.62-6.16 6.93-10.01 8.73-1.54 1.28-3.34 3.08-4.11 5.13 1.8 1.03 4.62 0 6.42-.77 2.82-1.03 4.62-4.88 6.67-6.67.26.26.26.51.26 1.03.26 1.8-.77 4.11.77 4.62.77-2.31 1.03-5.39 1.28-7.96 2.05 2.31 2.31 4.88 2.82 7.7 1.28 2.82 3.85 6.67 7.44 6.93 1.03-1.28-.26-2.82-.51-4.11-.51-3.85-3.85-5.9-5.9-8.73-5.39-7.44-2.82-19.25-7.19-27.72-1.54-4.62-4.88-7.7-8.47-11.55l.51-.51c7.7-.26 13.86 2.31 21.04 3.85 8.47 4.11 21.04 3.34 24.89 14.37 1.8 6.16 4.62 12.06 8.73 16.94l.51-.26c1.03-1.54 1.03-4.11 0-5.9-1.03-7.7-7.7-9.75-11.29-16.17l.51-.51c3.85 1.03 7.7 2.05 11.29 3.59 12.32 3.34 21.04 15.66 22.58 28.23 0 10.01-1.8 18.22-5.65 26.69-.51 1.28-2.57 2.57-1.28 3.85 1.8-1.28 2.05-3.34 3.08-4.62 5.13-8.73 7.7-20.53 5.13-31.31-.26-2.05-2.57-3.59-1.28-5.65.77 1.03 1.8 1.03 2.57 1.28 1.03-.51 2.31-.51 3.08-1.8.26-1.03.77-2.05 0-2.82-1.03-1.28-3.08-1.28-4.62-1.03-.77 1.03-1.8 2.31-1.8 3.34-1.54-2.57-3.08-6.16-5.65-8.21l.26-.51c6.93 2.31 13.35 5.9 20.53 7.7 1.54 1.03 3.34 1.8 5.39 1.8 6.16 2.31 12.83 3.34 18.99 4.88 4.62-.51 8.47 1.8 13.09.51v-.26l-.26.26c-1.8-2.31-5.39-.26-7.44-1.8-10.78-1.03-21.04-3.85-30.54-7.7.26-.51.77-.26 1.28-.26 1.54-.77 2.57-2.31 2.57-3.85a4.477 4.477 0 0 0-3.59-1.8c-1.03.51-2.05 1.54-2.31 2.57.26 1.28 1.28 2.57 2.31 3.08-.26.26-1.03.26-1.28.26-4.88-2.31-9.5-4.11-14.12-6.42-1.8-.26-3.08-1.8-4.88-2.05-3.59-1.8-7.19-3.34-10.78-4.88-10.01-5.13-21.04-7.96-31.57-11.81-2.31-.51-4.62-1.28-6.67-1.8-3.85-1.03-7.7-2.05-11.55-3.08-13.09-3.34-30.8-3.59-42.35 3.59-1.8-.51-2.82 2.31-3.85.51 3.34-8.73 12.83-11.29 21.3-11.81 62.36-.51 120.62-1.03 181.96-2.05 7.19 0 14.12-2.57 17.96-8.98 2.57-3.85 3.08-10.27 1.03-14.37ZM512.9 524.96c-.51 1.8-1.8 3.34-1.8 5.39l-.51.26c.51-2.31-1.8-3.85-1.28-6.16-1.28-1.8-1.28-4.11-2.31-6.16-1.28-2.57 1.28-3.59 2.31-5.39 2.05 1.03 2.82 3.08 4.62 4.88.77 2.57-1.03 4.62-1.03 7.19Z"/>
   <path class="st1" d="M681.51 514.95c0 .51 1.03.51.51 1.28-5.39 4.88-13.09 6.16-20.79 6.67-.51.26-1.28.51-2.05.51-.51-.26-.51-.77-.26-1.03 5.65-6.16 14.12-9.24 22.58-7.44Zm-25.15 2.57c.51 2.31-.77 3.34-2.57 4.11-1.8-.26-2.57-1.28-3.34-2.57-.51-1.28.51-1.8 1.03-2.57 1.28-1.03 4.36-1.03 4.88 1.03Zm-295.14.25c.26 1.03.26 2.57-.77 3.34-.51.77-2.05 1.03-2.82.77-1.03-.26-1.8-1.28-2.05-2.31 0-1.28.77-2.31 2.05-3.08 1.28 0 2.82 0 3.59 1.28Zm-27.71 10.27v1.03c-3.85.77-7.19-.26-10.01-2.31-2.05-3.08-4.62-6.16-8.21-7.7 0-.51-1.03-1.03 0-1.28 7.7-.26 12.32 5.9 18.22 10.27Zm371.61-10.27c-3.59 5.39-6.67 11.81-13.09 14.12-1.03 0-2.05 1.54-3.08.51 2.57-5.9 7.7-12.32 13.86-14.89.77 0 1.54-.26 2.31.26Zm-334.91 1.8c.26 1.8-1.03 2.05-2.05 3.08-1.28.26-1.8-.77-2.57-1.8-.51-1.54.77-2.31 1.54-3.08 1.03-.26 2.57.77 3.08 1.8Zm354.42 1.03c-1.28 2.05-.77 5.13-2.05 7.19-3.08 3.59-5.65 7.7-10.78 8.47-.77-1.54 1.03-3.08 1.8-4.62 2.05-4.62 5.39-10.01 10.27-12.06l.77 1.03Zm-439.37 1.28c.51 1.03 1.03 2.31 0 3.34-1.03.77-2.31 1.03-3.59.51-1.28-.77-1.8-2.57-1.28-3.85 1.03-1.03 3.85-1.8 4.88 0Zm-8.73 1.8c.26.77.51 1.28.51 2.31-.51.77-1.28 1.8-2.05 1.8-1.8.26-2.82-.51-3.59-2.05-.26-1.28.26-2.57 1.54-3.34 1.28-.51 2.82.26 3.59 1.28Zm18.22 1.02c.26 1.28.51 3.34-1.28 3.85-2.05 1.03-3.34-.51-4.62-1.8 0-1.28.77-2.57 1.8-3.08 1.8-.26 3.08-.26 4.11 1.03Zm25.41 2.06c-.26 1.03.26 2.57-1.03 3.08-.77.77-2.05.51-2.82.26-.26-1.03-2.05-1.8-1.03-2.82.51-.77 1.28-1.28 2.05-1.8 1.03.51 2.31 0 2.82 1.28Zm419.35 1.02c-.51 1.03-1.03 2.57-2.31 2.57-1.28-.26-2.82-.26-3.59-1.8-.51-1.8.77-2.57 2.05-3.08 1.54 0 3.59.77 3.85 2.31Zm-28.48.77c.26 1.28-1.28 2.31-1.8 2.57-2.05 1.03-4.11-.51-4.88-2.31.26-1.28 1.28-2.31 2.57-2.82 2.05 0 3.34 1.03 4.11 2.57Zm19.24-.25c0 1.03-.51 2.31-1.28 2.57-1.28.51-2.82.26-3.85-.51-1.28-1.28-.26-2.31.51-3.34 1.54-.77 4.11-.51 4.62 1.28Zm-448.86 2.56c.26 1.8-.26 3.34-1.8 3.85-1.28 0-2.82-.77-3.34-2.31-.26-1.28.26-2.82 1.54-3.34 1.28 0 2.57.77 3.59 1.8Zm421.92 1.8c.51 1.8-.51 3.34-2.05 4.11-1.28.26-2.05-.26-2.82-1.03-.51-.77-1.28-2.57-.26-3.34 1.03-2.31 4.11-1.54 5.13.26Zm-338.51 1.8c.51 1.8-1.28 2.05-1.8 3.08-.51.26-1.8.51-2.31-.26-.77-1.03-1.8-1.8-1.28-3.34.77-.51 1.03-1.28 2.05-1.54 1.8-.51 2.31 1.03 3.34 2.05Zm371.87 1.02c.26 1.03-.51 1.54-.77 2.31-1.03.77-2.57 1.03-3.59.51-1.28-.77-1.28-2.05-1.28-3.34 1.03-.51 1.03-1.28 2.05-1.8 1.54.26 3.08.77 3.59 2.31Zm-9.75.52c.51 1.8-1.03 2.82-2.31 3.34-.51.26-1.54-.26-1.8.51 4.11 2.05 6.42 5.39 9.75 8.21v1.28c-5.65-.26-11.29-1.54-15.4-5.9-1.03-.77-2.82-.77-4.11-1.8 2.05-2.05 5.65-1.28 8.47-1.28 2.05-2.31-2.31-3.85.26-5.65 1.03-.26 1.54-1.03 2.82-.77 1.28.26 1.8 1.03 2.31 2.05Zm-63.39.25c.26.77-.51 1.8-.77 2.57-1.03 1.03-2.31 1.03-3.34.51-.77-1.03-2.05-2.05-1.54-3.59 1.28-2.31 5.13-2.05 5.65.51Zm-347.24 5.39c-.51 1.28-1.03 2.31-2.57 2.57-1.28-.26-2.31-.51-2.82-1.8-.26-1.03.51-1.8.77-2.57 1.8-1.54 4.88-.51 4.62 1.8Zm12.58-2.05c0 2.31-2.31 3.34-3.08 5.65-2.31 5.13-6.42 9.75-12.32 10.27-.51-1.28 2.05-3.08 2.57-4.62 2.57-5.39 7.44-8.21 12.06-11.29h.77Zm331.06 2.31c.26 1.8-1.28 3.08-2.57 3.59s-2.57-.51-3.34-1.28c-1.28-1.28-.51-2.57.26-3.85 1.54-1.8 4.36-.26 5.65 1.54Zm9.5 1.03c-.26 1.8-1.28 3.08-2.82 3.34-.26-.51-1.03-.26-1.54-.26-1.03-.51-2.05-1.54-2.05-2.82.77-.77 1.03-2.05 2.05-2.31 1.54 0 3.85 0 4.36 2.05Zm-316.44-.26c.26 1.8-1.03 2.57-2.31 3.34-1.28.26-2.31-.77-2.82-1.8-.26-1.28 1.03-2.31 1.8-3.08 1.8-.77 2.31.77 3.34 1.54Zm10.78.77c-.51 1.28-1.28 2.31-3.08 2.57-1.03-.26-2.31-.51-2.82-1.8-.26-1.54 1.03-2.31 2.05-3.08 1.8-.26 3.59.51 3.85 2.31Zm339.02 10.78c.77.51 2.05 1.28 1.8 2.57-2.57 1.03-4.62-1.8-6.93-2.31-3.85-3.85-6.42-7.7-7.96-12.58 1.28-1.28 2.82.26 4.11.77 3.85 3.08 7.19 7.19 8.98 11.55Zm5.91-10.78c.51 1.03.26 2.31-.26 3.34-1.03 1.54-2.82 1.28-4.36 1.03-.77-1.03-2.05-2.31-1.28-3.59.51-1.28 1.8-1.54 2.82-2.05 1.03-.26 1.8.77 3.08 1.28Zm-330.56 3.85c.26 1.28.51 3.08-1.03 3.85-1.28.26-3.34-.26-3.85-1.8-.77-1.8 1.03-2.31 1.8-3.08 1.28-.26 2.05.26 3.08 1.03Zm290.78 10.26c2.05 3.08 3.59 6.93 4.11 11.04-.51 1.03.77 2.31-.26 3.08h-.51c-6.93-4.88-8.47-12.06-11.29-18.99-.51-.26-.77-1.03-.51-1.54 1.54-1.28 2.57 1.28 4.11 1.8l4.36 4.62Zm-270.76-5.39c-.26.26 0 .26.26.26-6.16 4.36-14.89 6.93-22.07 2.82-.26-.51.26-1.28.77-1.28 4.62-1.28 8.73-3.59 13.6-3.08l7.44 1.28Zm-35.42.77c-5.39 3.34-10.01 9.75-16.68 11.29-1.28.51-2.05 2.31-3.59 1.28 2.82-8.47 12.06-13.09 20.27-13.86v1.28Zm297.19 7.19c.51 1.28 0 3.08-1.28 3.34-.77.77-2.31.77-2.82 0-1.28-.51-1.28-2.05-1.28-3.08.51-1.03 1.54-1.28 2.31-1.8 1.03.26 2.31.26 3.08 1.54Zm-13.08.77c-1.03 2.31-3.59 3.34-5.65 4.11-5.39 1.8-10.01-.51-14.63-1.8.26-1.28 1.8-.77 2.57-1.54 5.13-1.03 10.52-2.31 15.91-.77.26-.51 1.54-.77 1.8 0Zm-284.11 4.62c-.51.51-.51 2.05-1.8 2.57-1.03.51-2.05 0-3.08-.51-.26-1.03-1.28-1.8-.51-2.82.26-1.03 1.54-1.28 2.57-1.8 1.28 0 2.57.77 2.82 2.57Zm9.24 1.28c-.51 1.03-1.03 2.31-2.05 3.08-1.28.26-2.05-.26-3.08-1.03-.51-1.03-1.03-2.05-.51-3.08.26-.77 1.28-1.03 2.05-1.28 1.54-.51 3.08 1.03 3.59 2.31Zm284.87 1.54c.26 1.28-.51 2.05-1.03 3.08-.77 1.03-2.31 1.28-3.34.51-1.03-.26-1.28-1.28-1.8-2.31-1.03-1.28.51-2.05 1.03-3.08 1.54-1.28 4.36-.51 5.13 1.8Zm6.93-.25c.26.77.51 1.54.26 2.31-1.03.77-1.54 2.82-3.34 2.05-1.03.26-1.28-1.03-1.8-1.28-.51-1.54-.26-3.85 1.8-4.11 1.28-.77 2.31.51 3.08 1.03Zm-297.44 4.62c.26 1.8-.26 3.34-1.54 4.11-1.8.26-3.85.26-4.62-1.8-.26-1.54 0-3.59 1.8-4.62 1.8 0 3.59.26 4.36 2.31Zm8.98-.77c-.26 4.36-1.28 9.75-5.65 12.32-2.57.51-4.88 2.82-7.44 1.28v-.77c3.34-4.88 9.24-8.47 13.09-12.83Zm257.15 3.59c.51 1.03-.51 1.8-1.03 2.57-1.03 1.03-2.57.51-3.85.26-1.03-.51-1.28-2.05-.77-3.08.26-1.03 1.28-1.28 2.05-1.8 1.54-.26 2.82 1.03 3.59 2.05Zm-241.75 7.18c2.05 3.59 1.03 8.47 2.05 12.32-2.57.26-3.85-2.57-5.39-4.11-3.34-4.62-2.82-11.04-4.62-16.43.26-.51.77-.51 1.03-.26 2.31 1.54 4.11 4.62 5.9 6.67 0 .77 1.28.77 1.03 1.8Zm249.45-5.9c0 1.28-1.28 1.54-2.05 2.31-1.03-.26-2.05-.51-2.82-1.28-.51-1.54.77-2.05 1.54-2.82 1.28-.77 2.82 0 3.34 1.8Zm18.48 13.86c0 .51-.26 1.28-1.03 1.03h-.51c-4.62-4.11-8.98-8.73-8.47-14.89l1.03-.26c4.36 3.85 8.98 7.7 8.98 14.12Zm-11.55-4.88c.26 1.28-.51 2.31-1.28 3.08-1.8.51-4.36.26-4.62-2.05-.26-1.54 1.54-2.31 2.31-3.08 1.8-.77 3.08.51 3.59 2.05Zm-10.26 3.34c-2.05 5.9-7.96 8.73-12.06 13.09-.77-.51-.51-1.8-.26-2.31 1.54-5.9 6.16-11.81 12.06-14.12 2.31.26-.26 2.05.26 3.34Zm11.55 4.62c0 1.28-1.28 2.05-2.05 2.82-1.28-.26-2.57-.51-3.34-1.8-.26-1.54 1.03-2.05 2.05-2.82 1.54-.26 2.82.51 3.34 1.8ZM532.92 309.89c2.05 0 3.85 1.8 3.85 3.85s-1.8 3.85-3.85 3.85h-45.94c-2.05 0-3.85-1.8-3.85-3.85s1.8-3.85 3.85-3.85h45.94Zm-32.6 6.68c4.62 0 .26-5.39-2.05-5.39h-4.62c-4.62 0-.26 5.39 2.05 5.39h4.62Zm18.99 0c4.62 0 .26-5.39-2.05-5.39h-4.62c-4.62 0-.26 5.39 2.05 5.39h4.62Zm13.86-5.65h-1.8c-4.62 0-.77 5.39 1.8 5.39 3.08.26 3.34-5.39 0-5.39Zm-4.36 51.59 8.73 3.34 8.73-3.34-3.34 12.83 6.93-1.54-2.31 7.96 2.31 7.44-6.16-1.54 2.57 13.86-8.73-3.34-8.73 3.34 3.59-13.86-6.93 2.05 1.8-7.96-1.8-7.44 6.67 1.03-3.34-12.83Zm13.09 23.35c2.05 0 2.05-2.82 2.05-5.13 0-5.39-4.11 0-6.42-5.13-1.54 4.36-5.9.26-5.9 4.88 0 3.08 0 5.13 3.08 5.13h7.19v.26Zm-8.73-4.62c0 2.05 2.82.77 4.88.77s4.88 1.28 4.88-.77c0-2.82-2.82-1.8-4.88-1.8-2.05-.26-4.88-1.28-4.88 1.8Zm-24.89.51v-1.79l-1.28-.26 1.02-1.28-.77-1.29 1.54.26 1.03-1.54.77 1.54 1.54-.26-.77 1.29 1.28 1.28-1.54.26v1.79l-1.28-1.02-1.54 1.02zm-6.67 8.73v-1.54l-1.54-.51 1.02-1.03-.51-1.28h1.54l.77-1.54 1.03 1.54h1.54l-.77 1.28 1.02 1.03-1.28.51v1.54l-1.54-1.03-1.28 1.03zm11.54-1.03v-1.79l-1.53-.26 1.28-1.28-.77-1.29 1.54.26.77-1.54 1.02 1.54 1.54-.26-.77 1.29 1.03 1.28-1.28.26v1.79l-1.54-1.28-1.29 1.28zm1.29 6.42v-.77l-.77-.26.51-.77-.26-.77.77.26.52-1.03.51 1.03 1.03-.26-.52.77.52.77-.77.26v.77l-.77-.51-.77.51zm-10.78 7.44v-2.82l-2.57-.26 2.06-2.05-1.29-2.31 2.57.26 1.54-2.83 1.54 2.83 2.82-.26-1.28 2.31 2.05 2.05-2.56.26v2.82l-2.57-1.79-2.31 1.79zM509.31 256l5.38 13.35 13.86-4.11-7.18 12.83 11.8 8.21-14.11 2.31.77 14.63-10.52-9.75-10.78 9.75.77-14.63-14.12-2.31 11.81-8.21-7.19-12.83 13.86 4.11 5.65-13.35zM459 557.55c-1.54.51-2.31 1.03-1.8 2.82l2.05 8.21c.26 1.54.51 3.85-.51 5.39-1.28 1.8-3.85 2.82-5.65 3.34-1.28.26-4.36.77-6.67 0-1.54-.77-2.57-1.28-3.34-4.11l-2.05-8.73c-.51-2.05-1.28-2.05-3.08-1.8l-.26-.77 10.52-2.57.26.77c-2.05.51-3.08.77-2.31 3.08l2.05 8.73c.26 1.54 1.28 5.13 5.65 3.85 5.39-1.28 4.62-5.39 4.11-6.93l-1.8-7.96c-.26-1.54-1.03-2.31-3.59-1.8l-.26-.77 6.67-1.54v.77Zm15.4 1.54c-1.03-1.8-3.34-4.36-7.19-3.34-1.54.26-3.08 1.54-2.82 3.08.26 1.28 1.03 1.8 3.85 2.31l4.88.77c1.03.26 3.85 1.28 4.36 4.11.51 2.31-.77 5.9-6.42 7.19-2.82.77-4.62 0-5.39.26s-.77.77-.77 1.03l-1.03.26-1.28-6.42.77-.26c1.28 2.57 3.59 5.13 7.44 4.11 3.59-.77 3.34-3.34 3.34-3.85-.26-1.8-2.05-2.05-4.11-2.31l-2.31-.26c-5.65-1.03-6.16-3.08-6.42-4.36-.26-1.54-.26-5.39 5.65-6.67 2.57-.51 4.11 0 5.13-.26.77-.26.77-.51.77-1.03l1.03-.26 1.28 5.65-.77.26Zm20.53 10.27-11.29 1.03v-.77c2.31-.26 3.08-.51 2.82-2.82l-1.28-13.86c-2.31.26-5.39.77-5.65 5.13h-1.03l-.51-5.39 18.99-1.8.51 5.39h-1.03c-1.03-4.11-4.36-4.11-6.42-3.85l1.28 13.86c.26 2.31 1.03 2.31 3.34 2.05l.26 1.03Zm26.44 0h-6.42l-6.42-8.47h-.77v5.13c0 2.05.77 2.31 2.82 2.57v.77l-10.78-.26v-.77c2.05-.26 2.82-.26 2.82-2.31l.26-11.81c0-2.31-1.03-2.31-2.82-2.57v-.77l10.27.26c2.31 0 8.98.51 8.73 4.88 0 3.34-3.34 4.11-5.13 4.36l6.16 7.7c.51.51 1.03.51 1.28.51v.77Zm-13.86-9.24c4.11 0 5.9-.51 5.9-3.85 0-2.57-1.28-3.85-3.85-3.85-1.8 0-1.8.26-2.05 1.03v6.67Z"/>
   <path class="st1" d="m542.16 572.18-10.27-1.28v-.77c2.05 0 2.57.26 2.57-.77 0-.77-.77-2.82-1.03-3.59l-7.19-.77c-1.03 1.8-1.8 2.82-1.8 3.34 0 1.03 1.28 1.28 2.31 1.54v.77l-6.42-.77v-.77c1.8 0 2.31-.77 3.34-2.82l8.73-13.6h.77l5.39 14.63c1.03 3.08 1.54 3.85 3.08 4.11l.51.77Zm-8.73-7.44-2.31-6.93-3.85 6.16 6.16.77Zm27.2 11.04-17.96-3.34v-.77c1.8.26 2.82.26 3.08-1.28l2.31-12.58c.26-1.8-1.03-2.05-2.31-2.31v-.77l10.78 2.05v.77c-2.31-.26-3.08-.51-3.59 1.8l-2.31 12.32c-.26 1.28.51 1.54 2.57 2.05 4.62.77 6.93-1.03 8.73-3.59l1.03.26-2.31 5.39Z"/>
   <path class="st1" d="m572.44 578.6-10.78-2.31.26-.77c1.8.26 2.82.26 3.34-1.28l2.57-12.58c.26-1.8-1.03-2.05-2.57-2.57l.26-.77 10.78 2.31-.26.77c-1.54-.26-3.08-.51-3.34 1.28l-2.57 12.58c-.26 1.54.77 2.05 2.57 2.57l-.26.77Zm22.07 2.82-10.27-1.03v-.77c2.05 0 2.57 0 2.57-.77s-.77-2.82-1.03-3.59l-7.19-.77c-1.03 1.8-1.8 2.82-1.8 3.34 0 1.03 1.28 1.28 2.57 1.28v.77l-6.42-.77v-.77c1.8 0 2.31-.77 3.34-2.82l8.47-13.86h.77l5.65 14.63c1.03 3.08 1.54 3.85 3.08 4.11l.26 1.03Zm-8.98-7.18-2.57-6.67-3.59 6.16 6.16.51Zm-71.86-207.37c0-6.42-3.59-.51-5.65-5.9-1.54 4.62-5.65.77-5.65 5.65 0 1.8.51 3.08 1.28 3.59v2.05c0 .51.51.77.77.77h6.67c.51 0 .77-.51.77-.77v-2.05c1.03-.77 1.8-1.8 1.8-3.34Zm-5.65 1.28c-1.8 0-4.36 1.28-4.36-1.03 0-3.08 2.05-2.31 4.11-2.31 1.8 0 4.88-.77 4.88 2.31-.26 2.31-2.82 1.03-4.62 1.03Zm61.08 76.99c1.54 0 2.82-1.03 2.82-2.57s-1.28-2.57-2.82-2.57-2.82 1.28-2.82 2.57c0 1.54 1.28 2.57 2.82 2.57Zm-13.86-94.44s-1.28 2.31-1.28 2.82c0 .77.51 1.54 1.28 1.54s1.28-.77 1.28-1.54c.26-.26-1.28-2.82-1.28-2.82Zm-93.67 0s-1.28 2.31-1.28 2.82c0 .77.51 1.54 1.28 1.54s1.28-.77 1.28-1.54c.26-.26-1.28-2.82-1.28-2.82Zm23.35 0s-1.28 2.31-1.28 2.82c0 .77.51 1.54 1.28 1.54s1.28-.77 1.28-1.54c.26-.26-1.28-2.82-1.28-2.82Zm23.62 0s-1.28 2.31-1.28 2.82c0 .77.51 1.54 1.28 1.54s1.28-.77 1.28-1.54c0-.26-1.28-2.82-1.28-2.82Zm23.35 0s-1.28 2.31-1.28 2.82c0 .77.51 1.54 1.28 1.54s1.28-.77 1.28-1.54c.26-.26-1.28-2.82-1.28-2.82Zm-70.32 32.08s1.28 2.31 1.28 2.82c0 .77-.51 1.54-1.28 1.54s-1.28-.77-1.28-1.54l1.28-2.82Zm0 31.31s1.28 2.31 1.28 2.82c0 .77-.51 1.54-1.28 1.54s-1.28-.77-1.28-1.54l1.28-2.82Zm3.85 24.9s1.28 2.31 1.28 2.82c0 .77-.51 1.54-1.28 1.54s-1.28-.77-1.28-1.54c-.26-.26 1.28-2.82 1.28-2.82Zm19.5 13.08s1.28 2.31 1.28 2.82c0 .77-.51 1.54-1.28 1.54s-1.28-.77-1.28-1.54l1.28-2.82Zm71.61-69.29s-1.28 2.31-1.28 2.82c0 .77.51 1.54 1.28 1.54s1.28-.77 1.28-1.54c.26 0-1.28-2.82-1.28-2.82Zm0 31.31s-1.28 2.31-1.28 2.82c0 .77.51 1.54 1.28 1.54s1.28-.77 1.28-1.54c.26 0-1.28-2.82-1.28-2.82Zm-3.85 24.9s-1.28 2.31-1.28 2.82c0 .77.51 1.54 1.28 1.54s1.28-.77 1.28-1.54c.26-.26-1.28-2.82-1.28-2.82Zm-19.51 13.08s-1.28 2.31-1.28 2.82c0 .77.51 1.54 1.28 1.54s1.28-.77 1.28-1.54l-1.28-2.82Zm-23.86 13.86s-1.28 2.31-1.28 2.82c0 .77.51 1.54 1.28 1.54s1.28-.77 1.28-1.54l-1.28-2.82Zm37.98-46.45c.26.51 1.03.51 2.05.26l.77-2.57c0-.26-1.03-1.28-1.8-1.03-2.57.51-5.13.77-6.67 3.34 0 1.54 1.28 3.08 2.31 3.85.77-.26 1.03.51 1.54 1.03.26.77-.26 1.28-1.03 1.28-1.8-1.8-4.88.51-6.16-1.54.51-2.31 1.8-4.88-.26-6.93.26-.51.77-.77.51-1.28-.77-2.05-2.82-.51-4.36-.51-2.31-.26-4.11.77-5.39 2.57.26.77.51 1.54 1.28 2.31.51-.26.77 0 1.03.51l-1.54.77c.51.51.51 1.03.51 1.54-1.03.51-2.05-1.03-2.57-1.8 0-1.28.26-3.34-1.54-3.59-.26 0-1.28.51-1.28.51-.26.51-.51 1.28-.51 2.57 0 1.03.51 2.57.51 2.57s4.62 3.34 5.65 5.39c-1.28 2.57-1.28 6.42-4.36 7.96-.77.51-.77 1.54-.77 2.31l.77.51c1.8-1.03 5.65-1.28 5.39-4.62.77-1.28 1.54-2.82 2.82-3.85 1.54-.26 2.82.51 3.34 1.54-.51 2.31-1.8 3.59-4.11 4.36-.26.26-.26.77-.26 1.28.51 1.03 2.31.51 3.08.51 2.57-1.54 3.59-4.62 5.65-5.39.26 1.54-2.82 2.05-.77 3.34 1.28-.26 3.08.26 4.11-1.54-1.03-2.57 3.59-3.59.77-5.9 0-2.31 2.31-3.08 2.31-5.39-.77-2.31-3.59-2.31-4.36-4.62 1.28-.51 2.57-.26 3.34.26ZM439.5 446.43c1.54 0 2.82-1.28 2.82-2.57 0-1.54-1.28-2.57-2.82-2.57s-2.82 1.03-2.82 2.57c0 1.28 1.28 2.57 2.82 2.57Zm-151.93 88.8c1.54 0 2.82-1.28 2.82-2.82s-1.28-2.82-2.82-2.82-2.82 1.28-2.82 2.82 1.28 2.82 2.82 2.82Zm96.75 21.55-.26-.26v.26h-.26v-.26h.26s.26 0 .26.26c0-.26-.26-.26 0 0Zm-.51-.25q.26 0 0 0 .26-.26 0 0 0-.26 0 0Z"/>
   <path class="st1" d="M384.83 556.53q-.26-.26 0 0c-.26-.26-.26 0-.26 0h.26c-.26 0 0 0 0 0q0 .26-.26.26h-.26v-.26s0 .26.26.26 0-.26.26-.26h-.26q-.26-.26.26 0-.26-.26 0 0 0-.26 0 0Z"/>
   <path class="st1" d="m385.6 556.27-.26.51-.26-.26-.26.26-.26-.51h.26v.26-.26h.26v.26l.51-.26Zm0 .51q.26 0 0 0 .26-.26 0 0 .26-.26 0 0v-.26s0-.26.26-.26c0 0 .26 0 .26.26 0 0 0 .26-.51.26Zm.26-.25v-.26.26Zm.51 0q.26 0 .26.26s0 .26-.26.26h-.26q0-.26.26-.51 0 .26.26.26-.26 0-.26-.26l.26-.26-.26.26ZM563.2 347.11H454.9v82.64c0 8.47 3.59 15.91 8.47 17.96l41.58 26.43c1.03 1.03 2.31 1.8 3.85 1.8 1.28 0 2.57-.51 3.34-1.28l42.35-26.69c4.88-2.31 8.47-9.75 8.47-17.96l.26-82.9Zm-3.08 83.66c-.51 6.16-2.57 11.55-6.93 14.37l-40.81 25.92h-.26c-.77.77-2.05 1.03-3.08 1.03-1.28 0-2.31-.51-3.08-1.03l-40.81-25.92c-4.36-2.82-6.42-8.21-6.93-14.37v-80.84h102.14v80.84h-.26Z"/>
   <path class="st1" d="m523.68 467.47 1.28-.51c-.51 0-1.03.26-1.28.51Zm-81.61 113.18-10.27 1.28v-.77c2.05-.26 2.57-.51 2.31-1.28 0-.77-1.28-2.57-1.8-3.34l-7.19.77c-.77 2.05-1.03 3.08-1.03 3.59 0 1.03 1.54 1.03 2.82.77v.77l-6.42.77v-.77c1.8-.51 2.05-1.28 2.82-3.34l5.39-15.4h.77l8.73 13.09c1.8 2.57 2.31 3.59 3.85 3.34v.51Zm-10.27-5.13-3.85-6.16-2.31 6.67 6.16-.51Z"/>
   <path class="st1" d="M621.2 541.9c-1.8-4.88-5.65-8.21-10.52-9.75-4.88-1.03-10.27-.26-13.6 3.34-5.65 4.62-1.8 12.06-1.54 18.22 0 1.28.26 2.31-1.03 2.82-22.58-2.05-43.37-7.7-65.96-10.01-5.13-.77-10.27-.77-15.14-1.8l-6.16-.77c-19.5.51-38.75 1.8-56.97 6.42-3.85 1.28-8.21 1.54-12.06 3.08-2.82-.51-5.13 1.54-7.7.77l-5.13 1.28h-1.8c-2.57-6.42 4.88-10.27 2.57-16.68-2.05-3.59-6.16-6.93-10.78-6.42-5.39-.51-10.01 2.31-12.32 6.42-3.59 7.7 1.03 15.91 2.31 23.61-.26 2.57 2.57 5.39 0 7.44-4.88-3.34-11.55-5.39-17.45-3.59-1.8 1.03-5.39-.26-6.16 1.8 6.67 3.59 15.14 3.08 22.58 2.82 1.03-.26 1.54-.51 2.31.26.51 4.11-.77 9.5 1.8 13.09 2.82 3.85 7.44 4.62 12.06 5.13 14.37-.51 26.95-4.62 40.04-7.96 2.05-.26 3.59-1.28 5.65-1.28 6.93-1.54 14.63-2.82 22.07-3.08-3.34 4.11-5.13 8.98-6.42 14.12-1.8 4.11 3.34 4.88 4.88 7.19-4.88 1.28-8.21 4.62-12.83 6.67-10.01-.26-18.22 3.34-27.72 4.62-.26 2.05 3.34 1.28 3.59 3.34-.51 1.28-1.8 1.54-2.82 2.31-.26 1.03 0 1.03 1.03 1.28 1.03-1.03 2.82-.26 3.85-1.28 3.08 0 5.65-1.03 8.73-1.03 2.57-1.03 5.65-1.28 7.96-3.08 3.34-1.03 5.39-3.08 8.47-4.11 4.62 0 8.73-1.54 13.09-1.8v1.03c-3.59 5.9-7.19 11.81-11.04 17.19-.51 1.03.26 2.31 1.03 2.57 2.05.51 4.36 0 6.16-1.03 3.34-5.65 6.16-11.04 8.73-16.68 1.03-5.39 4.88-8.21 8.73-11.81.51-.26 1.54-1.28 2.05-.26-3.08 3.59-5.13 6.93-7.44 11.04-1.28 4.36-1.54 10.01 2.31 13.6 1.8 1.54 4.62 1.03 7.19 1.28 6.16-3.08 13.86 1.8 18.48-4.11 2.82-.51 3.34 2.82 4.88 4.36 2.57.77 5.39 3.34 7.96 1.54-.26-1.8-2.05-3.34-2.82-4.88-1.8-3.34-4.11-5.9-5.9-8.98-.77-2.31-2.05-3.59-2.57-5.9 2.82 1.03 5.39 2.82 8.47 3.34 2.57 1.03 5.9 1.03 8.47 2.57 2.05 2.57 5.13 4.11 7.7 5.9 3.85 1.8 8.21 2.31 12.32 3.85 1.54.26 3.85 1.28 4.88 0-.51-.77-1.28-1.28-2.31-1.8-.51-2.05 2.82-1.03 3.85-2.57-.26-.77-1.03-1.03-1.8-1.28-2.31-1.28-7.7-1.54-9.24-2.31-1.8-.26-3.59-1.03-5.39-1.8-9.24 0-14.37-8.47-21.81-11.55 1.8-1.54 4.36-2.82 5.39-5.13 1.28-2.31 1.8-5.9.51-8.21-1.28-4.88-7.7-4.11-11.29-6.93l.51-.51c6.16-.26 11.29 1.03 16.68 2.31 14.89 2.05 28.74 7.7 44.14 7.96 8.47 0 19.25.51 23.35-7.7.77-4.88 1.8-9.75 2.57-14.63 2.05-8.21 7.19-15.4 6.42-23.87Zm-167.59 71.09-2.31-2.05c1.03-1.28 3.34-.51 5.13-1.54 4.11-1.28 8.73-2.82 13.09-1.8-4.62 3.85-10.52 4.11-15.91 5.39Zm96.76-2.31c3.59 1.8 11.29 3.34 16.68 3.85-.51 2.05-4.36.26-3.85 3.08-4.88-1.8-10.52-2.82-13.86-6.67.26 0 .51-.51 1.03-.26Zm-145.52-66.47c.51-2.82 1.03-5.9 3.59-7.7 3.85-2.05 8.98-1.54 12.32.51 1.03.51 1.8 1.54 2.57 3.08.77 2.57-.51 5.39-2.31 6.93h-1.54c0-2.57 0-5.13 1.03-6.93-.26-1.8-1.8-2.05-2.82-2.82-2.57-.77-4.88.51-6.93 1.54-1.54 1.8-2.82 4.11-2.05 6.93 1.03 1.8.26 4.11.77 5.9l-.51.51c-2.31-2.31-4.62-4.36-4.11-7.96Zm7.19 4.36c2.31 1.8 5.65 1.03 8.47 1.28.51 1.8.51 3.85-.77 5.39-2.57-.51-6.16-.26-7.44-2.82.26-1.03-.51-2.57-.26-3.85Zm-.52-5.13c.51-1.28 0-3.08 1.8-3.34 1.03-.26 2.82-.26 2.82 1.03-.26 1.8-.26 3.85-.77 5.39-2.05 0-3.08-1.28-3.85-3.08Zm72.89 50.04c-.77-5.39 1.28-10.27 4.88-14.12 2.05-.51 4.62-1.03 6.67.26-4.11 1.03-9.24 2.05-10.01 7.19.26 2.05-.51 3.08.51 4.88 1.8 3.08 5.65 1.8 7.7 4.11 0 .77-.51 1.8-1.28 1.8-2.82-1.28-5.9-2.05-8.47-4.11Zm-5.65 10.78c3.85-1.54 7.7-4.88 11.81-3.34-2.82 2.31-7.7 3.34-11.81 3.34Zm14.89 1.54c-2.05 4.88-4.62 9.75-7.7 14.63-.26.77-1.54 1.03-2.57 1.03 0-2.31 2.05-3.85 3.08-5.9 3.34-4.11 4.11-8.73 7.96-12.83 1.03 1.28-.77 1.8-.77 3.08Zm3.85-8.98v.51h-.26v-.77h.51c-.26 0-.51 0-.51.26h.26Zm-1.54-4.11c-2.57-.26-5.13-1.03-7.44-1.8-1.54-1.54 0-3.34 0-5.13 2.05-3.34 8.47-5.13 11.29-2.05-.26 3.34-1.54 6.42-3.85 8.98Zm3.59 0c.51-2.05 1.28-4.62 2.57-6.67-.26 2.05-1.28 4.88-2.57 6.67Zm1.54-12.83c-2.05-.51-3.08-2.82-5.39-2.82 1.8-.51 3.59-.51 5.9-.26 1.03 1.28-.26 2.31-.51 3.08Zm2.06 4.62-.26-1.8h.26v1.8Zm0 7.19c-.26-.51.26-1.28.51-2.31.77-.77 1.54.51 1.8 1.03-.51 1.03-1.28 1.54-2.31 1.28Zm2.31-9.5c.77-2.31 1.03-4.11 2.31-5.9 1.54 0 2.82 0 4.11.51.26 3.08 4.11 7.44 0 10.01-1.28.51-3.34 2.05-4.88.51-2.05-1.54-2.31-3.08-1.54-5.13Zm11.29-4.36c-.26-1.28 1.28-.26 2.05-1.03l4.88.26c-2.57-.26-5.65 5.65-6.93.77Zm7.95 2.05c-1.8.51-3.34 2.82-5.13 3.34.77-1.8 3.08-3.59 5.13-3.34Zm-6.67 9.5v.51-.51Zm.26 9.75c-.26.26.26.77-.26 1.03l-3.59-2.82c1.8-.26 3.08.51 3.85 1.8Zm-4.11-4.88c.26-.26 1.03-.26 1.28 0h-1.28Zm-2.05-2.56c.51-1.03 1.28-2.31 2.57-2.31 0 .26.26.26.26.51-1.03.77-1.8 1.54-2.82 1.8Zm-3.59-.26h-.77l1.03-1.03c.51.51-.26.77-.26 1.03Zm.51 5.9c2.05-2.31 3.85 1.28 4.62 3.08 2.31 3.34 8.47 6.67 6.16 11.29-3.08 2.57-7.7.26-10.78 2.31-1.8-.26-4.62.26-5.65-1.28 1.54-5.39 3.08-11.04 5.65-15.4Zm-4.36 3.08.77-1.28c-1.28 3.85-3.08 7.7-5.13 11.29-1.03-3.85 2.82-6.67 4.36-10.01Zm6.67 18.74c-2.82.26-7.44 1.8-10.27-.51.26-1.28-1.28-1.8-1.03-3.08 2.57-1.03 4.62 2.05 6.93-.26 3.59.26 7.19-.51 10.78.26 1.8.51 4.36-2.82 4.62.51-1.03 4.88-7.19 1.28-11.04 3.08Zm8.98-22.59v-.51h.26v.51h-.26Zm1.03 9.76c.26 1.54 1.8 2.31.77 3.59-.26-.51-1.28-2.05-.77-3.59Zm4.36 9.49-.77.26c-.77-.51-.51-2.31-.26-3.34.77.77 1.54 1.8 1.03 3.08Zm7.7 3.59c-.26.51-1.03.51-1.28.26-4.62-5.9-6.93-12.32-9.75-18.73l.51-.26c3.85 6.16 6.93 12.83 10.52 18.73Zm5.65-14.37c-.26.26-.26.51-.26.51-4.62.26-7.44-2.57-10.78-4.88l-.26-.77c4.36.51 7.7 3.08 11.29 5.13Zm-3.85-20.79c1.8.51 2.05 2.57 2.05 4.11-.26 3.34-2.05 6.42-5.39 7.7-1.8 1.03-4.36 1.28-6.16.51 3.85-.26 7.7-1.54 9.24-5.39l.26-6.93Zm-3.6-.51c.77 2.31 2.05 4.11 1.28 6.93-1.54 3.08-4.62 3.08-7.44 3.59-1.28.26-2.57-.26-3.59-1.03.26-.51-.26-1.03-.51-1.54.51-2.05-3.59-4.11-.77-5.9 2.57-2.31 8.47-7.7 11.04-2.05Zm79.05-11.55c-1.28 1.54-.26 4.11-1.8 5.39 0 2.82-2.31 4.11-4.36 5.39-18.48 4.11-36.7-2.31-54.41-5.39-24.89-5.39-54.15-6.93-79.56-1.28-12.06 2.31-23.61 4.88-35.16 8.21-7.19 1.03-14.89 2.05-21.81-.26-5.65-2.57-3.34-9.75-4.88-14.89.26-3.85-1.03-6.93-1.28-10.78-.51-1.28-.77-2.82-.51-4.11 2.31.26 4.62 2.05 7.19 2.57 13.09 2.57 24.64-1.8 36.7-3.85 11.55-2.57 23.61-4.62 35.93-5.39 13.86-.26 28.23-1.03 41.58 1.28 4.36.26 7.96 1.28 12.32 1.54 8.73 1.03 16.68 3.34 25.66 4.11 1.28.51 3.08.51 4.62.77 13.86 2.31 29.77 6.16 43.12 0-.26 6.16-2.57 11.29-3.34 16.68Zm-4.36-18.99c.26 2.57-2.05 1.8-3.34 2.82h-3.85c-.77-1.28-.51-3.08-.51-4.36 2.57.51 5.39.51 7.7 1.54Zm-1.8-3.85c1.8-1.8-.51-11.55 4.36-5.13 0 1.28.26 3.08-1.03 4.11-.77.51-2.05 1.8-3.34 1.03Zm12.57-1.54c-1.28 2.82-3.59 4.88-6.67 5.39.26-3.85 3.59-6.42 2.31-10.52-2.05-3.08-6.16-3.85-9.75-3.08-1.28 1.03-.77 2.57-1.28 3.85l-.51 5.13c-3.08 0-3.34-2.82-4.11-4.88.26-3.34 1.54-6.67 4.88-8.21 2.57-1.28 6.42-1.03 8.98.26 2.05.51 4.36 1.28 5.13 3.34 2.05 1.8 1.54 5.9 1.03 8.73Z"/>
</svg>
