<svg xmlns="http://www.w3.org/2000/svg" viewBox="0 0 1024 1024">
   <circle cx="512" cy="512" r="512" fill="#0c2a50"/>
   <path d="m512.09 192-6.1 14.44-15-4.45 7.78 13.88-12.77 8.88 15.27 2.5-.84 15.82 11.66-10.55 11.38 10.55-.84-15.83 15.26-2.5-12.76-8.87 7.77-13.88-15 4.45zm-66.02 32.35q-.26 0-.59.13c-3.33 4.44-5.54 8.04-8.6 12.2-3.05-2.5-6.11-5.27-10-7.49-2.5-.28-5-2.78-7.77-1.95-.55 1.12 0 1.95.55 2.5.28 6.66 3.6 11.94 8.32 16.66l.56 2.5c-3.05 6.94-2.22 14.98-3.05 22.2-7.5 19.15-19.7 37.74-36.36 51.35-9.44 10.82-21.09 21.37-22.48 36.07-.56 2.5.28 5.28-1.39 6.95-5.55-1.95-11.1-4.72-15.54-8.33-7.77-5.55-18.87-4.72-23.87-14.44-1.94-3.88.55-7.77 2.22-10.54 5.83-5.28 5-15 1.95-21.65-.56-.29-.84.55-1.39.83-.55 10-8.33 16.93-5.28 28.03.56 3.33 2.22 5.28 3.34 8.33-1.12-.28-2.78-.28-3.89-.84-3.6-.55-7.5-1.94-11.37-1.38-7.78 3.61-18.32-.83-24.42 6.38-1.12.28-2.22.28-1.95 1.95 3.61 0 7.21 1.11 10.83.83 5.82 1.11 9.7-3.88 13.87-6.1h1.11c1.67-1.67 4.45-.56 6.67-1.12 10.54 1.11 18.87 6.38 27.48 11.37v.56c-3.34 1.38-7.22 2.5-10.55 4.44-3.88 2.78-8.33 6.66-9.44 11.38-2.78 4.16.83 8.04 2.5 11.37.28 1.67.28 3.62 1.94 4.45 5.28-5.83.28-12.77 1.12-19.42 1.38-5 6.1-7.5 10.82-8.88 9.44-4.17 16.38 3.61 24.15 8.04-.28 7.78.84 15.27-.83 22.76a18 18 0 0 1-7.78 1.11c-13.32 1.12-23.58 8.33-35.52 12.21-5.28 1.95-11.66 1.67-17.2 3.61 4.16 1.12 8.6-.28 13.04-.55 16.37-2.5 29.14-14.99 46.9-12.77l.28.55c-1.95 4.16-4.72 7.78-7.78 11.1-.55-1.94-.55-3.32-2.21-4.44-1.39-.55-2.78 0-3.89 1.39-.55.83-.55 1.94 0 2.5.84 1.38 2.22 1.94 3.61 2.5-.28 1.38-2.21 2.21-3.04 3.6-4.72 8.05-14.16 4.72-19.7 10.28-.84 1.11-3.9 1.95-2.5 3.61a26 26 0 0 0 17.2-4.44c6.11-6.95 12.77-13.6 18.87-19.99 1.11 5.55-.55 11.1-3.61 15.27-1.38-.83-2.78-1.94-4.45-2.5-1.66.28-2.78 1.95-3.05 3.34a9.5 9.5 0 0 0 2.5 3.33c-5.83 4.16-13.04 4.44-19.42 6.38-12.21 1.38-24.15 2.5-36.64 2.78-5.45-.27-11.63 1.42-16.95.28 4.43-1.12 8.87-1.12 12.2-5 1.4-2.5 3.06-4.43 3.61-7.21.29-.84 1.39-1.4.84-2.78l-.27-.55c-6.95 3.05-11.94 7.77-16.94 14.15l.55 1.38a14 14 0 0 1-1.08-.27c-6.38 1.11-13.32-.84-18.6 2.78-.54.83.29 1.66.29 2.5 7.78 4.99 18.32 1.1 26.92 2.5h66.05c5-.29 9.72-.29 13.6-2.5 8.62-5 13.33-13.61 17.78-22.21 1.66-3.05 2.78-6.66 3.61-10.27 1.67-5.83 6.94-9.71 12.49-10.28.83 8.88-.83 17.5-2.78 25.82-1.11 5.55-4.44 10.54-2.22 16.37.56 2.78 3.34 2.78 5.55 3.05 20.26-.28 40.52-1.11 62.17.28 3.89.55 7.22 1.95 11.38 1.67.28-.55 1.39-.56 1.12-1.67-.55-1.95-1.95-4.16-4.17-4.71-.28-1.12-1.94-.55-2.21-1.39-10.83-6.1-23.6-2.78-36.36-2.78-6.67.56-13.05 1.95-18.6-1.94-2.5-3.05-.55-12.77-.55-12.77 0-2.05 2.56-10.44 5.17-18.23 5.66 1.95 16.7 8.76 16.7 8.76 5.82 2.22 11.37 5.83 16.65 8.88 22.75 12.77 38.02 33.58 48.3 56.9.28 1.94 1.94 3.88.54 5.83-3.6-5.55-8.6-8.33-12.77-12.78-1.11-8.04-5.83-15.54-12.77-18.87-2.5-3.6-7.77-4.16-12.2-5.27l-61.07-.29c-49.68-.55-94.92 1.39-144.32.56-6.94-.56-15.27-3.05-17.2-10.28-1.39-2.5-1.39-6.94 0-9.44 1.94-3.33 5.27-4.16 8.6-4.44 2.78.28 4.45 2.78 5.84 4.71 0 2.22-1.95 4.17-2.78 6.11.28.55.83 1.95 1.94 1.39 2.22-.84 3.88-3.33 4.45-5.28.28-1.11.55-2.78-.55-3.61-1.12-3.62-4.72-6.11-7.78-6.95-4.16-.28-8.6.84-11.38 3.89-4.16 3.33-3.88 9.44-2.78 14.15 2.78 7.5 10.55 12.5 18.04 13.6l163.47.56c15.82.83 33.86-1.95 49.96 1.38 5.83 1.95 12.21 6.39 13.6 12.78-.27.28-.54.28-1.1.28-13.33-8.61-30.82-11.94-47.74-9.72-6.66-.28-12.77 2.22-18.87 3.89-3.05.55-6.11-.84-8.33-2.78-6.1-5.55-16.65-5-24.42-3.05 0 .55-.28 1.11.28 1.11 8.33-.55 13.05 6.38 20.54 7.22 1.66.28 3.05-1.39 4.44-.29-7.77 3.62-14.98 8.05-23.31 10.55-2.5-.55-3.88-2.78-5.83-4.16-3.05-3.62-9.16-1.95-13.32-2.5-1.39.28-2.78-.55-3.89 0 1.39 2.78 4.45 4.16 7.22 5.55 4.16 1.94 9.16-.29 13.04 2.5-1.11 1.1-2.22 1.38-3.61 2.5-7.78 3.04-14.44 10.27-23.04 9.7-9.16 1.12-18.59-1.66-24.98-8.04-2.78-6.67-9.44-10.28-16.93-9.71-.56.28-1.12.28-1.12 1.1 3.61 2.23 6.66 6.67 10.27 9.17 2.22 2.78 6.95 0 9.17 3.33 3.33 2.22 7.2 4.16 10.82 4.72 2.78 1.1 5.83 1.66 8.6 2.5l-1.1.54c-15.27 5-33.03 5.55-49.97 5-5-.28-10-1.66-14.99-1.38.83 1.11 2.5 1.94 4.17 2.5-1.39.83-2.78 1.11-4.45 1.38-1.95.55-4.44.55-6.38 1.66-2.78-.28-5 .84-7.21 1.67-2.78 3.05-6.11 6.38-9.44 7.78 0 .55-.29 1.66.55 1.66 3.05-1.38 7.21-.28 10.54-1.66 5.55-.56 8.61-6.67 13.04-9.16 4.72-3.62 11.38-2.78 17.21-1.95 3.33.83-.28 2.22.55 4.44 1.39 1.12 2.5 2.5 4.45 1.95a4 4 0 0 1 1.11-.83c1.11-1.39.83-2.78.28-4.17 2.22-1.38 5.55.29 8.05-.83 6.38-.28 12.77-1.38 18.87-1.66 1.11-.28 2.22-1.12 3.05-.28-.55 1.38-2.22 1.38-1.39 3.33.29 1.38 1.95 2.21 3.34 2.5 1.66-.56 3.05-1.95 2.5-4.17-.29-1.11-1.67-1.38-2.5-1.95 3.6-1.66 7.49-2.21 11.1-3.88 2.5-.55 5-1.38 6.94-2.5 2.22-.28 4.17-2.21 6.11-1.38a30 30 0 0 1-3.6 8.05c-2.79 8.87-4.72 20.81 0 29.41.54.28.54-.28 1.1-.28-3.6-8.88-1.38-19.15 1.4-27.75 2.2-14.44 17.2-18.6 27.74-24.15l.55.55c-2.78 7.5-6.94 14.44-6.38 23.59.28 1.38-.55 3.05 0 4.16 2.78-1.38 4.72-5 6.11-7.77 1.12-7.5-3.05-17.2 4.45-22.76 13.87-5.27 26.65-12.49 42.74-12.77.55.55 1.66-.28 1.94.55-3.33 3.62-8.32 7.22-9.7 11.94-5.29 7.5-5.29 20.26-2.79 29.15 1.39 5.27-3.05 8.04-5.28 12.2-1.1 1.4-1.38 3.89-2.21 5.56l3.33.28c2.78-3.05 5.55-6.67 5.83-11.11a4.7 4.7 0 0 0 3.05 3.33c1.11-1.95-1.12-3.33-1.12-5 2.78-1.38 3.89 1.95 6.11 2.5 3.62.84 6.66 2.5 10.28 2.5l1.11-1.11c-3.61-5.83-11.1-6.67-17.49-7.22-3.33-5.54-3.33-12.49-3.05-19.15.56-3.61 1.39-7.21 3.33-10.54.84-2.5 3.05-4.45 4.72-6.38 3.05-2.78 6.94-5 10.54-5.83h.56c0 .28.28.55.28.55-4.45 3.61-5 8.33-7.78 12.77-2.78 4.16-4.16 10-1.38 14.7 1.11 2.23.55 5.56 2.78 7.22 2.21-3.05 2.21-6.94 3.6-10.27-.54-5.55-3.87-10.83-.54-16.1 1.66-4.17 5.27-5.83 9.16-7.5 9.16-.83 17.2 3.88 25.25 7.5 1.67 1.1 4.44 2.21 5 4.44-.28 4.44-2.78 9.16-6.11 11.38-4.45 2.78-11.11 3.05-15.27-.28-2.5-2.5-3.62-6.95-2.78-10.28 1.94-1.94 4.44-3.61 7.49-2.78 1.67.84 3.05 2.5 5.28 1.39.83-.55 1.11-1.95.55-2.78-1.95-1.12-2.5-3.61-5-3.88-3.05-.56-6.94-.29-9.16 1.94-3.6 3.05-5 7.5-3.88 11.94a14.5 14.5 0 0 0 10.27 10.83c7.78 1.94 15.83-.56 20.54-7.22 1.95-2.21 2.5-4.44 3.61-7.21 8.05 5 14.16 13.6 17.2 22.2 0 2.78.84 5.83.3 8.33l5.82.55c-.55-1.38 0-2.78.55-4.16 2.22-11.11 9.16-20.54 17.2-27.75 2.79-1.67 2.22 2.21 2.79 3.33 2.5 6.38 8.32 11.1 14.7 12.77 6.95 1.11 13.88-.55 18.04-5.83 2.22-4.16 5-10 1.12-14.16a11.7 11.7 0 0 0-9.16-4.44c-4.45 0-6.95 3.05-9.16 6.38 0 1.38-.29 2.78 1.11 3.61.55 0 1.95.28 2.5-.83.28-2.5 2.5-3.61 4.44-5 1.95-1.11 3.89 0 5.28 1.12 1.95 1.38 2.22 4.16 2.22 6.66a10 10 0 0 1-5.55 8.04c-5 2.5-11.94 1.39-16.1-1.38-1.95-2.22-3.05-4.72-4.72-7.5-.28-2.77-1.38-5 0-7.77 7.5-4.45 14.99-7.5 24.15-8.33 3.61.55 6.66 3.05 8.88 5.55 7.77 8.05-1.67 19.15 3.61 28.03 1.95-.28 1.95-3.05 2.78-4.71 2.5-6.11-.55-12.78-2.22-18.6-1.94-3.6-3.05-6.94-6.38-9.99a5 5 0 0 1 1.95-.28c3.61 2.5 7.5 5 10.27 8.88 5 8.05 7.5 17.49 6.66 27.75-1.38 5-6.66 7.5-10.82 9.44-1.67 1.39-3.61 3.33-4.45 5.55 1.95 1.11 5 0 6.95-.83 3.05-1.12 5-5.28 7.21-7.21.28.28.28.55.28 1.1.28 1.95-.83 4.45.83 5 .84-2.5 1.12-5.83 1.39-8.6 2.22 2.5 2.5 5.27 3.05 8.32 1.38 3.05 4.16 7.22 8.04 7.5 1.12-1.39-.28-3.05-.55-4.45-.55-4.16-4.16-6.38-6.38-9.44-5.83-8.04-3.05-20.82-7.77-29.98-1.67-5-5.28-8.33-9.16-12.49l.55-.55c8.33-.28 14.99 2.5 22.75 4.16 9.16 4.45 22.76 3.62 26.92 15.55 1.95 6.66 5 13.04 9.44 18.31l.55-.28c1.12-1.66 1.12-4.44 0-6.38-1.11-8.32-8.32-10.54-12.2-17.48l.54-.56c4.17 1.12 8.33 2.22 12.21 3.89 13.33 3.61 22.76 16.93 24.42 30.53 0 10.82-1.94 19.7-6.1 28.86-.56 1.38-2.79 2.78-1.4 4.16 1.96-1.38 2.23-3.6 3.34-5 5.55-9.43 8.33-22.2 5.55-33.85-.28-2.22-2.78-3.88-1.39-6.11.84 1.11 1.95 1.11 2.78 1.38 1.12-.55 2.5-.55 3.33-1.95.29-1.1.84-2.21 0-3.05-1.11-1.38-3.33-1.38-5-1.1-.82 1.1-1.94 2.49-1.94 3.6-1.66-2.78-3.33-6.66-6.1-8.87l.27-.56c7.5 2.5 14.44 6.38 22.2 8.33a10.5 10.5 0 0 0 5.83 1.95c6.67 2.5 13.88 3.6 20.54 5.27 5-.55 9.16 1.95 14.16.56v-.29l-.28.29c-1.95-2.5-5.83-.29-8.05-1.95a118 118 0 0 1-33.03-8.33l.12-.17c-.36.17-1 .17-1.22.17-5.28-2.5-10.27-4.44-15.27-6.94-1.95-.28-3.33-1.95-5.28-2.22-3.88-1.94-7.78-3.61-11.66-5.28-10.82-5.54-22.75-8.6-34.14-12.77-2.5-.55-5-1.38-7.21-1.94l-12.5-3.34c-14.15-3.6-33.3-3.88-45.8 3.89-1.94-.55-3.04 2.5-4.16.55 3.61-9.44 13.88-12.21 23.04-12.77 67.44-.55 130.45-1.12 196.78-2.22 7.77 0 15.27-2.78 19.42-9.71 2.78-4.16 3.33-11.1 1.11-15.54l.02.15c-2.78-5-7.22-6.94-12.5-6.94-4.44.28-7.5 3.33-9.44 6.94a8.7 8.7 0 0 0 3.05 9.44c1.12.55 2.78.28 3.33-.83.84-2.22-1.38-2.22-1.94-3.88a5.6 5.6 0 0 1 1.94-5.83c1.67-1.67 4.45-.84 6.67-.84 1.94 1.39 4.16 2.5 5 5a12.2 12.2 0 0 1 0 8.88c-1.96 4.16-6.12 7.5-10.28 8.33-13.88 1.94-166.8 1.38-166.8 1.38-18.04 1.67-38.58-3.33-53.85 6.11-6.94 3.33-10.54 11.1-12.49 18.04-4.44 4.16-9.44 8.88-13.04 13.32l-.55-.55c.83-4.16 2.78-7.5 3.61-11.66 2.5-3.33 2.5-8.04 4.44-11.66 6.38-10.27 12.5-20.81 22.2-28.03 4.17-5.54 11.66-4.44 18.05-4.44 6.94 3.33 14.98 4.16 23.31 3.33.28-.28.55-.55.55-1.11-2.21-2.22-6.1-3.05-8.88-5.28-6.66-3.33-13.04 1.11-20.25.55-.28-.28-.55-.55-.55-1.11 6.38-4.72 13.6-8.05 20.81-11.11 5.83-3.33 12.21-5 18.32-7.21 2.34 0 4.67-1.94 6.78-.83-4.94 9.64-9.38 20.07-17.07 28.32-2.5 0-4.17 2.78-6.66 2.78-1.39 1.94-4.17.55-5.83 1.11-5.28 2.22-12.5.83-16.1 5.83.27.55.83.55 1.38.83 10.27.28 21.65.83 32.48.28a4.3 4.3 0 0 0 2.77-3.33c-1.38-2.78.56-5.54 1.95-7.5.83-4.15 3.61-6.65 4.72-10.54 3.48-6.7 7.22-13.13 10.96-19.8l.72-.2c.28.28.55.55 1.38.55 7.5-2.5 17.2-.28 25.82-.28l.52.52v.06c.84 8.05-.55 16.37-1.38 24.42-2.78 9.71-14.15 8.88-22.2 11.1-1.95 1.4-5.83.56-5.83 4.17 9.71 1.95 21.09.83 31.64.55 1.67-.55 1.95-2.22 2.78-3.61.28-2.22 2.5-4.16 1.95-6.38-1.95-2.5-.28-6.11-.55-9.44q.42-1.26 0-3.33c1.34-4.84 1.13-10.46 1.87-15.1l.36.1c3.05.28 4.44 3.88 7.49 4.16 1.67-2.5-1.95-3.33-2.78-5 3.61-.83 7.78.29 11.38 1.67l-1.67 1.95c-1.11 1.94.55 3.33 1.95 3.88 1.11.28 1.95-.55 2.78-.83 2.22-1.39-.28-3.05.55-4.45 12.49 2.22 24.42 5.28 35.8 10.28 3.06 1.1 6.12 3.33 9.72 3.33-3.61-3.34-8.33-5-12.77-6.67-2.78-1.66-6.95-1.94-9.16-4.16.55-.83 1.66-.55 2.21-1.11 5.83-.56 10.55-5 14.71-9.45.28-1.11 2.22-.55 1.95-1.94-1.39-1.67-4.17.55-6.11.28-6.95 1.38-10 9.71-17.2 11.1-8.62-1.94-17.21-4.16-25.82-6.38-4.16-.55-8.61-1.1-12.5-2.77l-.09-.01.1-.8v-.02c0-3.33.84-6.38 1.12-9.44a5.3 5.3 0 0 0 .55-3.61l.08-.1 8.2-3.74c3.38-.2 7.06.37 10.31.51 2.5 1.38 5.83 1.11 8.33 1.95a5.5 5.5 0 0 1 4.16-.84c4.9-2.57 2.39-8.25 2.22-13.05 4.72-4.16 8.88-8.88 12.77-13.87a3 3 0 0 0-1.94-3.34 3 3 0 0 0-3.33.56c-1.95 1.38 0 3.33 0 5.27-1.95 2.78-5.28 5-7.78 6.67q-.11-.02-1 .33l-.66-1.72a16 16 0 0 1-1.39-3.33c-1.11-1.12-1.66-3.33-2.78-4.44-2.78-7.5-8.33-11.66-13.04-17.5-8.61-11.1-21.92-17.48-35.53-21.91-13.32-4.45-26.64 1.38-38.57 5.54-3.61-1.11-5.55-3.88-6.66-7.2a35.5 35.5 0 0 1 3.05-18.05c.55-4.16 3.33-7.5 4.44-11.37 3.05-9.45 6.11-18.88 6.94-29.15.28-6.38-4.44-10.54-9.16-13.32-3.05-.84-6.94-.56-9.16 1.94-2.21 4.45-6.94 7.5-10.82 9.72-.28 2.77 3.05 1.1 4.44 1.94 3.61.55 7.78-.55 10.83 1.95.28 6.66-3.61 12.2-6.95 17.49-5.68 8.11-11.36 16.75-14.99 25.67l.03-7.64h-75.26.02-1.88l2.8-.57c-7.78 1.39-11.38-5.28-16.93-5.28l-.1.03c-9.43-3.62-15.53 6.1-25.24 5-1.12.54-.84 1.94-1.39 2.77-.55.55-1.38.28-1.95-.28-.55-4.16-1.94-7.78-2.21-11.66-1.12-1.66-.55-4.16-1.39-5.83-5.28-14.7 13.04-3.61 16.66-12.2 3.33-7.5-6.11-8.33-9.16-13.61v-2.22c-2.78-2.78-5.55-3.61-7.22-7.21 1.12-4.17 1.67-8.88.56-13.04-.24-.94-.67-2.08-1.63-2.08M679.84 488.4l.17-.1-.01-.01zm.16-.11c.3-.14.7 0 1.11 0a4.9 4.9 0 0 0 2.78-4.16 4.8 4.8 0 0 0-3.88-1.95 5 5 0 0 0-2.5 2.78 5.2 5.2 0 0 0 2.49 3.33M487.94 250.28c-2.22 0-4.17 1.95-4.17 4.16s1.95 4.17 4.17 4.17h49.68c2.22 0 4.16-1.95 4.16-4.17s-1.94-4.16-4.16-4.16zm48 1.11h1.95c3.61 0 3.33 6.11 0 5.83-2.78 0-6.94-5.83-1.95-5.83m-40.79.29h5c2.5 0 7.21 5.82 2.22 5.82h-5c-2.5 0-7.21-5.82-2.22-5.82m20.54 0h5c2.5 0 7.21 5.82 2.21 5.82h-5c-2.5 0-7.2-5.82-2.21-5.82m197.34 32.19c-3.06 7.21-.28 14.99 3.05 21.37.56 1.38 0 3.6 1.94 3.88 3.62-6.65 2.5-15.54-2.21-21.09-1.4-1.11-.56-3.88-2.78-4.16m-405.08 3.44c-.4-.02-.8.1-.97.45 1.66 6.38-1.39 15.82 5.27 20.54.84-.28.56 1.38 1.39.55-1.11-3.61-1.11-9.16 0-13.32-.55-3.33-1.95-6.1-5-8.05a2 2 0 0 0-.7-.17m149.5 6.27h20.87c.86.47 1.76.94 2.76 1.1l.79-1.1h85.43v87.43h-.26c-.56 6.66-2.78 12.49-7.5 15.54l-44.13 28.03h-.28c-.84.83-2.22 1.11-3.33 1.11a6 6 0 0 1-3.33-1.11l-44.14-28.03c-4.71-3.05-6.94-8.88-7.5-15.54v-30.6l.92 5.88c0 .84.56 2.5 1.95 1.67 4.45-2.78 3.05-9.44 3.05-13.6 1.11-5.28-2.78-7.78-4.16-12.21a9 9 0 0 1-1.76-2.47V306.6l.37-.26zm268.36.55c-1.4.83-2.5 2.5-1.95 4.45 1.12 1.4 2.78 2.23 4.17 1.94 1.38-.83 3.33-2.5 2.21-4.44h.01a5.5 5.5 0 0 0-4.44-1.95m-265.35.28s-1.38 2.5-1.38 3.05c0 .84.55 1.67 1.38 1.67s1.38-.83 1.38-1.67c.28-.28-1.38-3.05-1.38-3.05m25.25 0s-1.38 2.5-1.38 3.05c0 .84.55 1.67 1.38 1.67s1.39-.83 1.39-1.67c.28-.28-1.39-3.05-1.39-3.05m25.55 0s-1.39 2.5-1.39 3.05c0 .84.55 1.67 1.39 1.67s1.38-.83 1.38-1.67c0-.28-1.38-3.05-1.38-3.05m25.25 0s-1.39 2.5-1.39 3.05c0 .84.55 1.67 1.39 1.67s1.38-.83 1.38-1.67c.28-.28-1.38-3.05-1.38-3.05m25.25 0s-1.38 2.5-1.38 3.05c0 .84.55 1.67 1.38 1.67s1.38-.83 1.38-1.67c.29-.28-1.38-3.05-1.38-3.05m-97.97 5.28v77.72c0 7.49 3.05 14.15 7.5 16.1l36.9 22.2a4.6 4.6 0 0 0 3.34 1.39 6 6 0 0 0 3.05-1.12l37.47-22.48c4.44-1.95 7.5-8.61 7.5-16.1l.55-77.7zm-162.91 1.67c-1.38 0-2.78.27-3.33 1.38-.56 1.12-.56 2.78.55 3.61.55.84 1.94.84 3.05.84 1.38-.57 1.94-2.23 2.22-3.62-.27-1.38-1.66-1.66-2.49-2.21m186.5.82h8.33v19.98h-8.33zm-20.8.28h9.99v19.98h-10zm31.9 0h26.93v51.63h-26.92zm29.43 0h29.42v51.63H527.9zm205.1 2.23c-1.11.55-2.5 1.66-2.78 3.05.57.83.84 2.23 1.95 2.78 1.67.83 3.33 0 4.45-1.39a4.7 4.7 0 0 0 0-2.78 5 5 0 0 0-3.62-1.66m-222.32.83c-1.66 5-6.1.83-6.1 6.11 0 1.95.54 3.33 1.38 3.88v2.22c0 .55.55.83.83.83H514c.56 0 .84-.55.84-.83v-2.22a4.3 4.3 0 0 0 1.94-3.6h.01c0-6.95-3.88-.56-6.1-6.39m213.65.2q-.23.02-.5.07c-1.66.55-2.21 2.22-2.21 3.88.27 1.12 1.38 1.12 2.22 1.95 1.66.55 2.78-.83 3.61-1.67 0-.83 1.1-2.77-.28-3.33-.98-.48-1.73-.97-2.84-.9m-242.52.08.84 1.67 1.66-.28-.83 1.38 1.11 1.11-1.38.29v1.66l-1.39-1.11-1.38 1.11v-1.66l-1.38-.29h-.03l1.12-1.11-.83-1.38 1.66.28zm229.81 1.1c-1.66.84-2.78 2.5-2.5 4.17.56 1.38 1.94 3.05 3.89 2.5 2.23-.29 1.94-2.5 1.94-4.45a6.5 6.5 0 0 0-3.33-2.21m-178.47.29 3.62 13.87-7.22-1.11 1.95 8.04-1.95 8.61 7.5-2.22-3.88 15 9.44-3.62 9.44 3.61-2.78-14.99 6.66 1.67-2.5-8.05 2.5-8.6-7.5 1.66 3.62-13.87-9.44 3.6-9.44-3.6zm-79.92.2v16.5c-2.5-2.28-5.97-4.53-4.65-7.57 1-3.45 1.76-6.69 4.65-8.92m-134.65.28c-.64 0-1.3.19-1.9.62-.28 1.11-1.67 2.22-.56 3.33.55 1.4 2.22 2.23 3.33 1.95 1.1-.84 2.77-1.95 2.22-3.62a3.2 3.2 0 0 0-3.09-2.28m-9.76.43q-.49-.03-1.04.2c-1.1.55-2.21 2.22-1.38 3.88.55 1.12 1.93 2.22 3.33 1.67s1.95-1.95 1.95-3.33h-.01c-.45-.9-1.45-2.35-2.85-2.42m363.66.91q-.24 0-.55.11c-.84 5.82-3.6 12.76-.55 18.6 1.66 1.66 1.94 4.44 4.16 5.27 2.5-2.22 1.4-6.38 1.95-9.71a35 35 0 0 0-3.33-12.21h-.02c-.48-.73-.54-2.1-1.66-2.06m-164.45.58c.71-.03 1.55.08 2.38.08 1.95 0 5.28-.83 5.28 2.5-.28 2.5-3.05 1.11-5 1.11s-4.72 1.39-4.72-1.1c0-2.1.86-2.55 2.06-2.6m-208.28 1.2c-1.39.83-2.5 2.5-2.22 4.16.83 1.38 2.22 3.05 4.17 2.5 1.1-1.12 2.76-2.22 2.21-4.17a4.9 4.9 0 0 0-4.16-2.5m396.56.82q-.36-.02-.78.3a22 22 0 0 0-1.95 9.7c1.11 4.73 4.73 9.16 6.94 13.6l1.12-.83c1.38-5.54 1.38-11.37-.83-16.37h-.01c-1.67-.83-2.5-3.05-3.05-5-.2-.62-.73-1.4-1.44-1.4m22.44 1.03q-.65-.04-1.28.37c-1.4.83-2.5 2.5-1.95 4.16s2.22 2.23 3.89 1.94c1.66-.55 2.21-2.5 2.5-4.16-.62-1.05-1.87-2.24-3.16-2.3m-402.69 4.4q-.35.03-.77.13c-1.4.83-2.23 1.94-1.94 3.61.83 1.11 1.93 2.5 3.88 1.95.83-.84 2.5-1.67 1.94-3.33v-.02c-.72-1.2-1.45-2.42-3.1-2.33m-7.43.14c-1.11.27-2.23.27-2.78 1.38-.83 1.39-.55 2.5 0 3.88 1.4.57 2.23 2.23 3.61 1.12 1.39-.55 2.5-1.95 2.5-3.33-.55-1.67-1.94-2.22-3.33-3.05m417.98 1.66h.01m0 0a26 26 0 0 0-13.6 8.88c-1.66 3.06-4.72 6.11-4.44 9.44 1.67-.27 2.77-1.38 3.88-2.21 4.45-1.4 8.33-5 10.28-9.44.27-2.22 3.6-4.45 3.88-6.66m-428.74.98c-.53 0-.97.23-1.18.96 3.9 6.11 9.44 14.44 17.77 14.99.83 0 1.4-1.12 1.11-1.67-3.06-2.77-4.44-5.26-6.94-8.04h-.01c-2.22-2.78-5.55-3.62-8.05-5.83-.68.17-1.81-.42-2.7-.4m244.72 1.52c2.5 5.55 6.94-.28 6.94 5.55 0 2.5 0 5.55-2.21 5.55v-.27h-7.78c-3.33 0-3.33-2.22-3.33-5.55 0-5 4.72-.56 6.38-5.28m-29.97.27-1.1 1.67-1.68-.28.84 1.4-1.1 1.38 1.38.28v1.93l1.66-1.1 1.39 1.1v-1.93l1.66-.28-1.38-1.39.83-1.4-1.66.29zm-33.02 3.07c2.78 0 1.94 2.78 2.5 2.78.55 0 0-2.78 1.94-2.78 2.78 0 6.11 7.22 3.05 7.22-1.95 0-.83-1.12-.83-1.39v-.02c0-.55-.83-.55-1.12-.55-.83 0-1.38 1.38-1.94 1.66-.56 0-.84 0-.84-.55s1.12-.83 1.67-1.38c-6.11 0-6.38 2.78-7.21 2.78-1.67 0 1.38-3.05 2.21-3.88-1.38-.29-1.94-1.67-3.33-2.5.55-.84 1.12-.55 1.95 0 0-.55.55-1.39 1.95-1.39m60.49.41c-1.24 0-2.21.48-2.21 2.35 0 2.22 3.05.83 5.27.83s5.28 1.39 5.28-.83c0-3.05-3.05-1.94-5.28-1.94-.97-.13-2.1-.4-3.06-.4m-69.65.13.83 1.67 1.67-.28-.84 1.38 1.12 1.12-1.39.28v1.66l-1.38-1.1-1.39 1.1v-1.66l-1.38-.28 1.11-1.12-.83-1.38 1.64.28zm21.93 0 .83 1.67 1.67-.28-.83 1.38 1.1 1.12-1.38.28v1.66l-1.38-1.1-1.38 1.1v-1.66l-1.39-.28h-.02l1.11-1.12-.83-1.38 1.67.28zm234.8 3.05c-5.83 6.39-11.1 12.5-14.71 19.7 1.95 1.12 3.88-.82 5.83-1.38 6.66-3.6 10.26-11.1 10.54-18.32zm-266.72.84-1.38 3.05c0 .83.55 1.66 1.38 1.66s1.38-.83 1.38-1.66c0-.55-1.38-3.05-1.38-3.05m102.7 0s-1.39 2.5-1.39 3.05c0 .83.56 1.66 1.39 1.66s1.38-.83 1.38-1.66h.01l.01-.01c.14-.23-1.4-3.04-1.4-3.04m-45.52.83-.83 1.66-1.67-.28.83 1.4-1.38 1.38 1.65.28v1.94l1.4-1.38 1.67 1.38v-1.94l1.38-.28-1.12-1.38.84-1.4-1.67.28zm-12.5 1.11-.82 1.67h-1.67l.55 1.38-1.1 1.12 1.66.55v1.66l1.39-1.11 1.66 1.11v-1.66l1.39-.55-1.1-1.12.83-1.38h-1.67zm189.02.27c-.56 0-1.4 0-1.95.56-1.38.28-2.5 1.94-2.21 3.6.83 1.4 1.93 3.07 3.88 2.79 1.94-.84 3.33-2.5 2.78-5-.84-.83-1.39-1.67-2.5-1.95m-252.22 1.1c4.27 2.79 8.38 3.26 11.31 6.24v41.24c0 9.16 3.88 17.21 9.16 19.43L481 411.14c-.17 5.43-3.52 10.45-1.96 16.46v.28a319 319 0 0 0-54.71-33.36c1.83-5.28 3.47-9.62 4-10.46.27-2.5 1.38-5 1.1-7.78 1.4-3.33 1.12-7.78 1.12-11.38.55-5.54 3.33-10.54 5.28-15.82 1.11-2.5 1.95-5.28 2.78-7.77 1.11-3.34 1.38-6.38 3.33-8.88m-151.57.38q-.7.03-1.42.19c-1.4.55-3.33-.28-3.61 1.67 6.1 1.66 9.7 6.66 15.54 8.6 2.5 0 5.28 1.1 7.5-.28-3.06-2.77-5.84-5.83-9.17-8.04h.01c-2.91-.73-5.62-2.31-8.85-2.14m279.89 1.17.11 5.7c0 .13.08.2.11.2l.01-.01c5.26 8.83 11.9 18.98 21.8 22.29 5.28 4.44 12.22 9.7 19.43 5.83 3.88-1.12 4.16 4.16 6.11 6.37 1.95 6.39-2.5 10.55-2.78 16.38l-.25.54h-.02l-.03.1-.62 1.3a6.2 6.2 0 0 1-3.52 2.48c-2.77.55-5 2.22-7.77 2.22-21.92 8.33-44.4 17.49-61.9 34.7 1.12-1.96 1.4-4.45 1.67-7.22-.28-2.5-.28-5.28-1.94-7.5-.25-.71-1.31-2.89-1.24-4.18l21.52-13.56c5.28-2.5 9.16-10.55 9.16-19.43zm-103.96 1.25h10v18.87h-10zm21.09 0h8.33v18.87h-8.33zm-143.21.82c-1.1.55-2.77 1.93-2.22 3.88.83 1.4 1.66 1.4 3.05 1.95 1.38-.55 2.78-1.94 2.5-3.88-.28-1.67-1.95-1.95-3.33-1.95m-9.24 1.22c-1.03.03-2.12.68-2.98 1.55-.84 1.4 0 2.5 1.11 3.6 1.11 1.4 3.05.57 4.16-.54a3.4 3.4 0 0 0-.55-3.88v-.01a2.3 2.3 0 0 0-1.74-.72m183.54 2.4-.57 1.1-.83-.28.28.84-.55.83.83.28v.83l.84-.55.83.55v-.83l.83-.28-.56-.83.56-.84-1.11.28zm-10 .82-1.66 3.06-2.78-.28 1.4 2.5-2.23 2.22 2.78.28v3.05l2.5-1.94 2.77 1.94v-3.05l2.77-.28-2.22-2.22 1.39-2.5-3.05.28zm187.14.42q-.43 0-.9.15a3.3 3.3 0 0 0-2.5 2.5c0 2.21 2.22 2.5 3.89 3.04 1.38-.55 2.76-1.93 2.21-3.88h.01c-.45-.9-1.45-1.8-2.7-1.81m9.03.07q-.24 0-.5.05c-1.38.84-2.78 1.67-2.5 3.62.56 1.66 2.22 2.22 4.17 1.94.55-.83 1.11-.83 1.66-1.38 1.39-.83.27-2.22-.28-3.05v-.01c-.73-.5-1.46-1.2-2.55-1.17m-414.04.63c-1.4.28-1.67 1.66-1.95 2.78.27.83.83 1.66 1.38 2.21 2.23.57 3.9-.27 4.45-2.21-.55-1.95-1.94-2.78-3.88-2.78m191.5 2.78.84 1.66 1.66-.28-.83 1.39 1.12 1.1-1.39.29v1.67l-1.38-1.12-1.39 1.12v-1.67l-1.38-.28 1.11-1.11-.83-1.39 1.64.28zm-134.46.02q-.51.02-.98.25c-1.4.28-1.95 1.94-1.95 3.33.83 1.38 1.94 2.78 3.61 2.5 1.11-.83 2.5-1.95 2.78-3.33-.46-1.59-2-2.8-3.46-2.75m-8.65.35q-.43-.02-.94.18c-1.12.28-1.95 1.4-2.5 1.95-.27 1.94.83 2.5 1.95 3.33 1.66 1.11 3.04-.56 4.16-1.39.56-.83 0-2.23-.55-2.78h-.01c-.63-.62-1.25-1.25-2.11-1.29m390.69 1.01a5.8 5.8 0 0 0-3.05 2.22c0 .83-.56 2.22.55 2.5.83 1.11 2.23 1.38 3.61.83.84-.55 2.22-1.95 2.22-3.33a5.6 5.6 0 0 0-3.33-2.22m11.58 1.7a3 3 0 0 0-1.59.5c-.83.29-1.38 1.67-1.38 2.79-.28 1.4 1.38 1.66 2.5 1.94 1.38-.27 2.5-1.66 3.05-3.05-.38-1.34-1.42-2.16-2.58-2.17m-430.67 2.46c-.83.84-2.5.57-2.78 1.95-.55 1.12 0 2.5.84 3.33.83.55 1.93 1.39 3.05.84 1.66-.84 2.23-2.22 1.94-4.17-.83-1.11-1.66-1.95-3.05-1.95m7.8 1.18c-.89 0-1.72.4-2.24 1.33-1.11 1.67.27 3.05 1.39 4.17 1.1.83 2.22.27 3.05-.28.27-.84 1.93-1.4 1.38-2.78h.01a4 4 0 0 0-3.6-2.44m402.06.11q-.52 0-1.03.1c-1.4.83-2.23 1.95-1.95 3.33.28 1.4 1.95 2.23 3.33 1.95.83-1.1 2.5-2.22 2.22-3.89a3 3 0 0 0-2.57-1.49m12.9 1.9c-1.4.02-2.44.97-3.12 2.1-.56 1.1-.56 2.77.55 3.6 1.12.84 2.78.84 4.16.56 1.67-.84 1.67-2.78 1.95-4.17-1.11-.56-1.38-1.4-2.5-1.94a4 4 0 0 0-1.03-.15m-429.32 3.08c-.74.03-1.48.45-2.05 1.5 0 .83-.57 2.78.55 3.33 1.11.56 2.22.83 3.33.28.55-.83 1.93-1.11 1.38-2.5h.02c-.37-1.27-1.81-2.67-3.23-2.61m194.44.39h26.92v49.96l-10.54 6.38h-.28c-.83.55-1.66 1.11-2.78 1.11s-1.94-.28-2.78-1.1l-10.54-6.39zm-32.19 0h29.42v48.58l-23.03-13.88c-3.89-2.5-5.83-7.21-6.39-12.77zm61.63 0h29.41v21.93c-.55 5.55-2.5 10.27-6.38 12.77l-23.03 13.88zm184.56.28c-2.23.55-5.28.28-6.11 2.5 2.21 1.1 4.71 1.94 6.66 3.6 3.61 3.06 9.44 2.5 13.6.56 0-.27.27-1.1-.28-1.38-5.55-.29-9.43-4.73-13.87-5.28m-399.96 1.61c-.72 0-1.5.27-2.22.9-1.1 1.38-.27 3.05 1.11 4.16.83.27 2.23.83 2.78-.28.56-.83 1.4-1.4 1.12-2.78l-.02.01c-.52-1.22-1.58-2-2.77-2m180.4.33c-2.78 3.62-5 3.05-5 6.38 0 2.22-.83 5.83-1.95 6.95-1.38 1.66-.28-5.83-4.16-5.83-1.11 0-4.17 0-5 1.38.83 0 1.95 1.95 1.95 2.78s.83 2.78-.55 2.78-2.78-2.78-2.78-3.88v-2.78c0-3.05-5-7.5-7.22-7.5 0 2.22 2.78 2.79 2.78 5.55-1.11 0-2.78-2.21-2.78-.83s1.67 1.67 1.67 2.78-1.95-.55-1.95.83c0 1.12 1.12.83 1.39 1.95-.83-.28-1.67 0-1.67.28s.28.83.84 1.12c-.29.28-.56.83-.56 2.77 0 6.11 3.89 8.88 6.67 8.88 1.94 0 1.66-1.38 1.94-1.94 0 1.11 1.12-.56 1.12 1.38s-1.95 1.11-1.95 2.78c0 2.22 3.05 0 3.05 2.22 0 3.05-.28 2.78-.28 3.88 0 .83 3.33-1.11 3.05-1.39.83.29.83 2.5 2.22 2.5.81 0 1.1-2.12 1.89-2.47.01.28 3.1 2.11 3.1 1.09 0-2.78-1.11-1.67-1.11-3.61 0-1.95 3.88-1.39 3.33-2.5-.55-.83-.83-.28-1.39-1.67v.01c-.2-.05-2.92-4.36.56-1.95 3.6 2.77 4.16-5.83 3.88-6.39h.03c-.21-.22-2.2.54-2.76.91.2-1.13 1.99-2.9 3.03-3.68-.28-1.12-1.66 0-3.33.83 5.55-7.78 1.95-4.72-1.11-4.16 5-5.28 3.6-5.28 0-3.62 2.78-2.21 3.33-5 3.05-5.83m-166.36.61c-.82.02-1.57.41-2.1 1.35-1.38 1.39 0 2.77.84 3.88 1.12.27 2.22 1.1 3.33.56 1.39-.84 2.22-2.23 1.67-3.62v.01c-.87-1.21-2.39-2.21-3.74-2.18m133.9 3.56-1.38 3.05c0 .83.55 1.66 1.39 1.66s1.38-.83 1.38-1.66c0-.55-1.38-3.05-1.38-3.05m102.7 0s-1.38 2.5-1.38 3.05c0 .83.55 1.66 1.39 1.66s1.38-.83 1.38-1.66h.01l.01-.01c.15-.2-1.4-3.04-1.4-3.04m-20.86.8c-1-.06-2.25.6-3.3.6-2.5-.29-4.44.83-5.82 2.77.28.83.55 1.67 1.38 2.5.55-.28.83 0 1.11.55l-1.66.83c.55.56.55 1.12.55 1.67-1.11.55-2.22-1.11-2.78-1.95 0-1.38.28-3.6-1.66-3.88-.29 0-1.39.55-1.39.55a6 6 0 0 0-.55 2.78c0 1.12.55 2.78.55 2.78s5 3.61 6.11 5.83c-1.38 2.78-1.38 6.94-4.71 8.6-.84.56-.84 1.67-.84 2.5l.84.56c1.94-1.12 6.1-1.39 5.82-5 .84-1.38 1.67-3.05 3.06-4.16a3.4 3.4 0 0 1 3.6 1.66c-.54 2.5-1.94 3.89-4.44 4.72-.28.28-.28.83-.28 1.38.55 1.12 2.5.55 3.33.55 2.78-1.66 3.88-5 6.11-5.82.28 1.66-3.05 2.21-.83 3.6 1.38-.27 3.33.29 4.45-1.66-1.12-2.78 3.88-3.88.83-6.38 0-2.5 2.5-3.33 2.5-5.83-.84-2.5-3.89-2.5-4.72-5a4 4 0 0 1 3.61.29v-.01c.28.55 1.12.55 2.22.28l.83-2.78c0-.28-1.11-1.39-1.94-1.12-2.78.56-5.55.84-7.22 3.62 0 1.66 1.39 3.33 2.5 4.16.83-.28 1.11.55 1.67 1.11.28.84-.29 1.39-1.12 1.39-1.95-1.95-5.28.55-6.66-1.67.55-2.5 1.95-5.28-.28-7.5.28-.54.83-.82.55-1.38-.31-.83-.82-1.11-1.42-1.15m-22.68 1.47a3 3 0 0 0-1.97.78 5.1 5.1 0 0 0-1.95 5.55c.55 4.44 2.5 8.6 3.05 12.49-1.11-.56-1.67-1.67-2.5-2.22-3.33-4.16-9.44-3.06-13.32-6.94-4.72.28 3.05 5.27-2.5 6.1-.27 1.12 1.11 1.67 1.11 2.79-.55.55-1.11.55-1.66.83 0 2.77 1.95 5.55 2.78 8.04 2.22 6.12 9.44 3.06 14.15 3.62 2.5-1.39 5-3.05 6.38-5.55.29-2.78 1.12-6.4-.55-8.61-1.94-2.5-2.5-6.11-3.33-9.44-.83-4.44 4.72-.55 5-3.88-1.25-1.46-2.81-3.54-4.69-3.56m-177.94.78c-1.1.83-2.21 1.66-1.66 3.33.83.83 1.67 2.5 3.05 1.94 1.11-.83 2.5-1.94 1.94-3.6a4 4 0 0 0-3.33-1.67m105.58 2.32c-.66.04-1.35.62-1.5 1.56-1.67 6.66-5 15.27-.55 21.65 1.66.28 1.1-1.95 1.38-3.33 3.33-5.55 3.9-12.21 1.95-18.87-.25-.73-.76-1.04-1.28-1m142.63.4q-.28-.03-.63.06c0 3.05-1.11 5.83-1.94 8.87a37 37 0 0 0 3.88 11.94l1.38-1.38c2.22-4.71 1.94-11.1-.28-15.82h.01c-.75-1.01-.6-3.61-2.42-3.68m45.98 2c4.17 2.5 8.61 6.67 9.45 11.11l.1.36-.39.18c-6.66 2.78-13.32 6.11-20.53 7.5h-.08l.35-.54a47 47 0 0 1 5.28-9.44c1.38-1.38 1.94-2.78 3.04-4.44.29-1.67-.55-2.5-1.66-3.61 1.11-1.12 3.05-.84 4.44-1.12m-283.86 1.82c-6.09.17-11.16 3.48-14.78 8.45 5 .83 11.11.27 15-2.78 1.94-1.39 4.7-1.94 5.82-3.89-.28-.83-1.11-.55-1.66-1.38q-2.26-.46-4.38-.4m-63.07 7.9c-.55 0-1.67 0-1.67.83-.27 7.5 3.9 14.7 10.27 17.48 1.67-.56 3.07 1.67 4.45.56.83-1.39-.83-1.67-1.38-2.22-3.89-6.11-5.55-12.21-11.66-16.66zM583 384.1c-.64.02-1.28.27-1.8.79-.28.83-1.38 1.67-.83 2.78.55 1.4 1.93 2.5 3.88 1.94 1.1-.55 1.67-2.21 1.39-3.88a2.9 2.9 0 0 0-2.64-1.63m63.82 2.66.42 1.48-.28 5.55.08.81h-17.01c-.28-.28-.55-.55-.55-1.11 6.11-1.39 11.38-5 17.2-6.66zm90.94 1.12c-1.04.01-2.13.52-3.08.9-9.16 2.23-11.94 11.66-17.77 17.77.29.83 1.12.55 1.67.55 9.43-2.77 15.26-11.37 20.54-18.87q-.65-.38-1.36-.35m-141.03 1.17c-1.67 0-3.05 1.12-3.05 2.78 0 1.67 1.38 2.78 3.05 2.78 1.66 0 3.05-1.38 3.05-2.78s-1.39-2.78-3.05-2.78m-132.11.85s-1.67 2.77-1.39 3.05c0 .83.56 1.66 1.39 1.66s1.38-.83 1.38-1.66c0-.56-1.38-3.05-1.38-3.05m94.37 0s-1.39 2.5-1.39 3.05c0 .83.55 1.66 1.39 1.66s1.38-.83 1.38-1.66c.28-.28-1.38-3.05-1.38-3.05m17.76 1.09c-1.67 0-3.06 1.38-3.06 2.78 0 1.66 1.39 2.78 3.06 2.78 1.66 0 3.04-1.12 3.04-2.78 0-1.67-1.38-2.78-3.04-2.78m-140.16 1.4c-1.67 0-3.05 1.1-3.05 2.77 0 1.39 1.38 2.78 3.05 2.78s3.04-1.38 3.04-2.78c0-1.66-1.38-2.78-3.04-2.78m-158.77 1.39c-1.39.28-2.77 1.94-2.22 3.61.83 1.1 2.23 1.94 3.61 1.38 1.38-.28.83-1.94 1.67-2.5h-.02c-.55-1.66-1.66-2.21-3.04-2.5m30.54.56c-.55 0-.56.83-.56 1.39 5.27 5.27 12.48 7.49 19.43 5 .83-.57 2.5-.57 1.95-1.96v.02c-5.83-4.17-13.88-2.78-20.82-4.45m-21.64.54a4.3 4.3 0 0 0-2.78 3.33c.83 1.1 1.1 1.67 2.21 2.22 1.67.56 3.05 0 4.17-1.38.27-.56 0-1.95-.28-2.5-.83-.83-1.94-1.12-3.32-1.67m157.57 1.02q-.69 0-1.32.1c-1.12.55-1.67 2.21-1.12 3.33a3.6 3.6 0 0 0 3.62 1.38c.83-.83 2.22-1.95 1.94-3.33-.42-1.04-1.77-1.46-3.12-1.48m298.09.33c-1.45 0-2.78.78-3.26 2-.29 1.39.55 1.94.83 2.77 1.11.55 2.21 1.1 3.33.55 1.1-1.11 2.77-1.94 2.22-3.6-.84-.84-1.39-.84-2.5-1.67q-.32-.06-.62-.05m11.45.09a2 2 0 0 0-.83.23c-1.11.28-2.5 1.4-2.5 2.78.28 1.66 1.39 1.93 2.5 3.05 1.1.27 2.5 0 3.05-1.12.83-1.1 1.67-2.5.55-3.88-1.12 0-1.7-1.1-2.77-1.06m-169.87.5c-1.66 0-3.05 1.38-3.05 2.78s1.39 2.78 3.05 2.78 3.05-1.39 3.05-2.78c0-1.67-1.38-2.78-3.05-2.78m-313.64 2.78a4.6 4.6 0 0 0-3.05 3.33 5 5 0 0 0 2.5 2.78c1.11.56 1.95-.27 2.78-.55.28-.84 1.4-1.67 1.11-2.78-.56-1.67-1.95-2.23-3.34-2.78M625 400.93a4 4 0 0 0-3.28 1.72c-.55 1.66.55 2.5 1.67 3.6 1.94.84 3.05-.27 4.16-1.66 0-.83 0-1.66-.28-2.21v-.01a2.5 2.5 0 0 0-2.27-1.44m-327.1.5q-.33.02-.64.11c-1.67.84-1.39 2.5-1.39 3.89.84.83 1.4 2.22 2.78 1.94 1.39 0 1.94-1.38 2.22-2.5 0-1.94-1.49-3.45-2.98-3.43m-16.18.96c-1.67.55-2.77 2.5-3.05 3.88.83 1.66 2.5 3.05 4.45 2.5 1.1-.84 2.21-1.95 1.66-3.61h-.01c-.83-.83-1.67-2.5-3.05-2.77m7.77.27c-1.1.83-2.5 1.66-2.21 3.33.27 1.38 1.66 1.66 2.21 2.5.84.56 1.39-.56 2.22-.56.28-.83 1.39-1.38.83-2.5-.55-1.39-1.38-2.5-3.05-2.77m345.54.27c-1.93.28-2.21 2.23-3.04 3.61.83 1.38 2.5 3.05 4.44 2.5 1.66-.83 2.23-2.5 1.95-4.17h-.01c-.84-1.11-1.67-1.94-3.34-1.94m97.87.74c-1.03 0-2.04.46-2.67 1.5-.27.83-.55 2.5.29 3.05.83.55 1.66 1.66 3.05 1.38 1.4-.83 2.22-1.4 2.78-2.78-.01-1.9-1.75-3.16-3.45-3.15m-247.18.37-1.39 3.05c0 .83.55 1.67 1.39 1.67s1.38-.84 1.38-1.67c0-.55-1.38-3.05-1.38-3.05m52.18 0s-1.39 2.5-1.39 3.05c0 .83.56 1.67 1.39 1.67s1.38-.84 1.38-1.67zm208.22.88q-.54.02-1.16.25c-.83 0-1.4.83-1.95 1.38-1.1 1.94.56 3.33 1.95 3.88 1.94 0 3.6-.83 4.16-2.77-.45-1.58-1.45-2.79-3-2.74m-80.27 1.9a4.1 4.1 0 0 0-2.22 4.45c1.12.83 2.22 1.1 3.34 1.38 1.38-1.1 3.33-1.67 2.5-3.88-1.12-1.12-1.95-1.95-3.62-1.95m-229.53.27a2.8 2.8 0 0 0-2.78 2.78c0 1.67 1.11 2.78 2.78 2.78a2.8 2.8 0 0 0 2.78-2.78 2.8 2.8 0 0 0-2.78-2.78m184.16 2.26c-1.11.03-2.22.52-2.64 1.35a2.96 2.96 0 0 0 1.67 3.33c1.66 1.12 2.77-.83 3.88-1.38.27-.56.55-1.66-.28-1.95-.4-.97-1.52-1.39-2.63-1.35m9.01.81c-.83.27-1.67.83-2.22 1.39-.27.83 0 1.94.28 2.5 1.12.27 2.5 1.66 3.62.55 1.1-.84 1.66-1.4 1.38-2.78h-.01c-.55-1.1-1.94-1.1-3.05-1.66m54.03.33q-.6 0-1.29.22c-.27.84-1.38 1.39-1.38 2.5.83 1.39 1.93 2.77 3.88 2.22 1.11-.28 2.78-1.11 2.5-2.78v.01c-.9-.9-2-2.17-3.7-2.17m-339.36.22c-1.1 0-1.1 1.1-2.21 1.39-.27 1.38-.55 3.61 1.11 4.16 1.39 1.12 3.33.28 4.17-.83 0-1.11 1.4-2.22.28-3.33h-.01a4.2 4.2 0 0 0-3.34-1.39m330.56 0c-1.39.27-1.66 1.39-2.77 2.22 0 1.11 0 1.95.83 2.5.83.83 2.5 1.1 3.61.55.83-.83 2.5-1.66 1.95-3.33v.01a4.8 4.8 0 0 0-3.62-1.95m63.75.8c-2.3-.1-4.57.31-6.83 1.7-1.4.83-3.9 0-4.44 2.22 6.65 2.5 15.8 5.55 22.75 1.38 1.1-.83 4.17.55 3.88-1.94l-.27-.27c-4.95-.19-10.05-2.88-15.09-3.1m-450.3.06c-6.02.02-11.85 1.63-16.43 4.96l.55 1.12c7.5 2.5 15.54-.27 21.65-3.89l.55-1.11.01-.01-.28-.55a35 35 0 0 0-6.05-.52m412.37.52c-1.38.55-2.77 1.94-2.22 3.33.57 1.95 2.78 2.5 4.45 1.94a4 4 0 0 0 1.67-3.33h-.02c-.55-1.66-2.77-1.94-3.88-1.94m-379.47.07q-.49-.01-1.04.22c-.83.83-2.21 1.38-1.66 3.33.55 1.38 2.5 2.77 4.16 2.22s1.4-1.95 1.95-3.33c-.9-1.13-1.99-2.44-3.4-2.44m-11.86.49c-1.4.56-1.67 1.11-2.78 1.95-.27 1.94.83 3.05 1.95 4.16 1.11.28 2.5.56 3.33-.55.28-.83 1.38-1.67.83-2.78-.28-1.67-1.95-2.23-3.33-2.78m174.3.1 16.9 10.72c-4.15 5.28-5.52 13.59-2.2 19.68 1.67 3.05 1.95 7.21 4.45 9.7 1.38 5 4.44 8.06 7.21 12.5.55 1.67-1.11 1.95-1.95 2.78-1.94-1.11-1.38-3.88-3.05-5-5.54-11.94-12.77-21.37-21.37-31.08-.28-1.38-1.94-2.78-1.11-4.44 3.33-3.05 3.88-8.88 2.22-12.77-.21-.62-.88-1.4-1.1-2.1m-51.63 1.55c-1.66 0-3.05 1.39-3.05 2.78 0 1.67 1.39 2.78 3.05 2.78s3.05-1.38 3.05-2.78c0-1.66-1.38-2.78-3.05-2.78m105 .48c-1.32 3.72-2.54 10.23-1.2 13.96.55 3.05 3.05 6.66.55 9.44-8.05 9.71-12.5 21.65-18.04 32.75-1.95-.28-3.05-2.22-3.88-4.16 5.83-7.22 10.27-15.27 11.94-24.7 1.11-.84.28-3.05 1.38-4.17-.28-2.78 1.38-5.28.28-7.5 1-3.22-3.79-6.45-2.03-8.69zm-95 .36c-1.67 0-3.06 1.38-3.06 2.78-.28 1.66 1.12 2.78 3.05 2.78 1.67 0 3.05-1.39 3.05-2.78 0-1.67-1.38-2.78-3.05-2.78m271.16 1.4c-.83.27-1.93.27-2.22.82a3 3 0 0 0-.55 3.34c.55.83 1.66 1.93 3.05 1.66 1.4-.27 2.5-1.66 2.78-3.05h-.01c-.27-1.4-1.38-2.5-3.05-2.78m-200.94 2.49s-1.38 2.5-1.38 3.05c0 .83.55 1.67 1.38 1.67s1.39-.84 1.39-1.67zm192.96.14q-.43 0-.9.14c-1.1.83-2.77 1.39-2.22 3.33a3.8 3.8 0 0 0 3.33 1.95c1.12-.83 2.78-1.38 2.5-3.33-.46-1.13-1.46-2.08-2.7-2.1m22.77.43h-.93c-1.93 1.39 1.4 2.78 1.95 4.17 2.22 5.26 7.21 8.6 12.2 10.54.57.27 1.67.27 1.95-.28 0-1.38-1.1-2.5-2.21-3.33 0-2.23 2.5-.28 3.6-1.11 1.4-.84 2.78-1.94 2.23-3.89-1.12-1.4-2.5-2.22-4.17-1.94-1.93.28-2.21 2.21-3.88 2.5h-.01c-2.34-2.85-6.15-6.45-10.73-6.66m-411.13.14q-.6.02-1.11.13c-1.67.56-2.22 2.5-1.67 3.89a4.5 4.5 0 0 0 3.61 1.66c1.12-.83 2.22-1.38 2.5-3.33-.27-.28-.83-.55-.55-.83h-.01c-.42-1.25-1.61-1.56-2.77-1.52m434.69.07q-.3 0-.6.06c-1.11.56-1.95 1.1-2.5 2.22-.28 1.39.55 2.22 1.38 3.05 1.67.28 4.17.83 5-.83.83-.83 1.11-2.5.28-3.33-1.21-.72-2.21-1.24-3.56-1.17m-222.37.33c-.55 0-1.12.29-1.39.56zm151.8.43q-.81-.03-1.64.13c-.28 1.4 1.11 2.22 1.66 2.78 2.23 6.94 9.44 10.27 15.27 13.6.27 0 1.1.27 1.39-.28-.57-1.95-2.23-4.72-3.61-6.66v-.01c-.84-1.67-1.94-2.77-3.05-4.72-2.67-1.94-6.2-4.73-10.01-4.84m-373.84.97c-1.1.83-3.33 2.22-2.22 4.16 1.1 1.1 1.94 1.67 3.88 1.39.84-.55 1.94-1.95 1.39-3.33-.84-.84-1.67-2.22-3.05-2.22m215.93 2.04c-5.48 9.4 4.35 22.75-3.62 31.52v.55c-2.22 3.05-3.61 6.1-6.66 8.04-4.17-1.66-5.55-6.38-7.78-9.7-3.61-3.62-3.61-10.83-1.38-15.83 1.38-5-1.12-9.16-1.39-13.6l-.26-.18 5.55 3.53a6 6 0 0 0 4.16 1.95c1.39 0 2.78-.56 3.62-1.39zm188.37 1.76c-.73 0-1.47.34-2.14 1.2-.83.83 0 2.21.29 3.05 1.1 1.1 2.5.83 3.88.55.55-.83 1.94-1.39 1.66-2.5v.01c-.9-1.1-2.3-2.3-3.7-2.3m41.85 2.8c-1.1.05-2.14.68-2.9 1.45-.28 1.38-.83 2.21 0 3.33 1.11.83 2.5 1.93 4.16 1.38 1.1-.83 2.77-2.22 2.22-4.16h.01a5 5 0 0 0-1.95-1.67 3 3 0 0 0-1.54-.33m-118.8 24.24a24.8 24.8 0 0 0-16.78 5.5V459c6.39.28 12.49.28 17.77-2.5 1.66-1.66 5.27-1.1 5.27-3.05a26 26 0 0 0-6.26-1.07m-241.87 5.79c-1.1.83-2.77 1.66-2.22 3.61a3.1 3.1 0 0 0 2.78 1.67c1.39-.28 2.22-1.4 2.5-2.78h-.01c-.27-1.12-1.67-2.5-3.05-2.5m241.75 2.15c-1.39 0-2.77.76-3.33 2.28.27.84-.28 2.23.55 2.78 1.11.56 2.23 1.4 3.61 1.12 1.67-.56 2.22-2.5 2.5-3.89a3.5 3.5 0 0 0-3.33-2.3m30.12 1.52c-6.82.08-13.48 1.32-17.64 6.32l.83.55 9.16.29c5.56 0 10.28-3.06 14.44-5.83h-.01v-1.12a90 90 0 0 0-6.78-.21m-317.9 2.96q-.7-.01-1.44.6a3.2 3.2 0 0 0-1.38 3.87 3.4 3.4 0 0 0 3.6 1.39c1.67-.55 2.22-1.94 2.23-3.32-.42-1.05-1.62-2.56-3.01-2.54m8.57 2.25c-.57.55-1.4.27-1.95 1.38-.27.84 0 2.23 1.11 2.78.83.83 1.94.55 3.05 0 .27-.83 1.1-1.38.55-2.21h.02c-.29-1.4-1.67-1.67-2.78-1.95m157.09 2.78c2.21 1.11 3.05 3.33 5 5.27.83 2.78-1.12 5-1.12 7.77-.55 1.95-1.95 3.61-1.95 5.83l-.55.28c.55-2.5-1.95-4.16-1.38-6.66-1.39-1.95-1.39-4.45-2.5-6.66-1.39-2.78 1.38-3.89 2.5-5.83m-235.41.01c-.34.01-.62.21-.8.82 5.83 3.88 5.83 10.54 11.66 13.87 1.67.84 4.44 3.33 6.1 1.4-3.87-5-5.27-10.28-10.81-13.6-1.4-.57-2.5-1.4-3.62-1.95-.76.38-1.79-.55-2.53-.54m414.81 1.69a26.3 26.3 0 0 0-17.6 8.55c-.28.28-.28.83.27 1.11.84 0 1.67-.27 2.22-.55 8.33-.55 16.66-1.93 22.49-7.21.56-.83-.56-.83-.56-1.39a25 25 0 0 0-6.82-.5m-23.11 1.45a4 4 0 0 0-2.54.73c-.57.83-1.67 1.4-1.12 2.78.84 1.4 1.67 2.5 3.62 2.78 1.94-.83 3.33-1.95 2.77-4.45-.31-1.25-1.5-1.8-2.73-1.84m-320.33.73c-1.39.83-2.22 1.95-2.22 3.33.27 1.11 1.1 2.22 2.22 2.5.83.28 2.5 0 3.05-.83 1.11-.84 1.11-2.5.83-3.62-.83-1.38-2.5-1.38-3.88-1.38m374.55 1.03c-.42 0-.84.07-1.25.07-6.66 2.78-12.21 9.72-14.99 16.1 1.11 1.12 2.22-.55 3.33-.55 6.94-2.5 10.27-9.44 14.16-15.27a2 2 0 0 0-1.25-.35m-363.83.31q-.23-.01-.44.04c-.84.84-2.22 1.67-1.67 3.33.83 1.12 1.4 2.23 2.78 1.95 1.1-1.11 2.5-1.38 2.22-3.33-.49-.97-1.82-1.95-2.9-1.99m-56.5.05c-1.12.27 0 .84 0 1.39 3.88 1.66 6.66 5 8.87 8.33a13.4 13.4 0 0 0 10.83 2.5v-1.1c-6.38-4.73-11.38-11.4-19.7-11.12m441.85 1.95c-5.27 2.22-8.88 8.05-11.1 13.04-.83 1.67-2.78 3.34-1.95 5 5.55-.83 8.33-5.28 11.66-9.16 1.38-2.23.83-5.56 2.22-7.78v.01zm-476.58 1.32c-1.16 0-2.4.54-3.03 1.17a3.55 3.55 0 0 0 1.39 4.16c1.38.56 2.77.28 3.88-.55 1.12-1.11.55-2.5 0-3.61h.01c-.49-.85-1.34-1.17-2.25-1.17m-10.28 1.56q-.4.02-.8.17a3.35 3.35 0 0 0-1.67 3.61c.84 1.67 1.94 2.5 3.89 2.22.83 0 1.66-1.11 2.21-1.95 0-1.11-.27-1.66-.55-2.5a3.9 3.9 0 0 0-3.08-1.55m19.71 1.4q-.63.03-1.36.14a3.9 3.9 0 0 0-1.94 3.34c1.38 1.39 2.77 3.05 5 1.94 1.93-.55 1.66-2.78 1.38-4.16-.83-1.05-1.82-1.31-3.08-1.26m479.9 2.1c-1.38.54-2.77 1.37-2.22 3.32.83 1.67 2.5 1.67 3.88 1.95 1.39 0 1.95-1.67 2.5-2.78-.28-1.67-2.5-2.5-4.16-2.5m-452.41 0c-.83.56-1.66 1.11-2.22 1.95-1.1 1.1.84 1.93 1.12 3.05.83.27 2.21.55 3.05-.28 1.4-.55.83-2.22 1.11-3.33-.56-1.39-1.95-.84-3.06-1.39m421.33.55a4.4 4.4 0 0 0-2.78 3.05c.83 1.95 3.06 3.61 5.28 2.5.56-.28 2.23-1.4 1.95-2.78v.01a4.7 4.7 0 0 0-4.45-2.78m22.42.68a4.6 4.6 0 0 0-2.16.44c-.84 1.11-1.94 2.23-.55 3.61a4.4 4.4 0 0 0 4.16.55c.83-.28 1.38-1.66 1.38-2.78-.34-1.2-1.56-1.77-2.83-1.82m-486.49 2.64c-1.38.57-1.94 2.23-1.66 3.61a3.8 3.8 0 0 0 3.61 2.5c1.67-.55 2.23-2.21 1.95-4.16h-.01c-1.1-1.11-2.5-1.95-3.89-1.95m10.56.58c-1.67 0-3.05 1.38-3.05 3.05s1.38 3.05 3.05 3.05c1.66 0 3.05-1.39 3.05-3.05s-1.39-3.05-3.05-3.05m446.44 1.48c-.96 0-1.87.46-2.36 1.55-1.1.84-.27 2.79.28 3.62.83.83 1.66 1.4 3.05 1.11 1.66-.83 2.77-2.5 2.21-4.44a3.8 3.8 0 0 0-3.18-1.84m-101.03.83c-4.04-.05-7.99 1.15-10.69 4.07-6.11 5-1.95 13.04-1.67 19.7 0 1.39.28 2.5-1.11 3.05-24.42-2.22-46.9-8.33-71.33-10.82-5.55-.84-11.1-.84-16.38-1.95l-6.66-.83c-21.09.55-41.9 1.94-61.6 6.94-4.17 1.38-8.89 1.66-13.05 3.33-3.05-.55-5.55 1.67-8.33.83l-5.55 1.39h-1.94c-2.78-6.95 5.28-11.11 2.78-18.04-2.22-3.88-6.66-7.5-11.66-6.95a13.7 13.7 0 0 0-13.33 6.95c-3.88 8.33 1.12 17.2 2.5 25.53-.28 2.78 2.78 5.83 0 8.05-5.27-3.61-12.49-5.83-18.87-3.88-1.94 1.1-5.83-.29-6.66 1.94 7.21 3.88 16.37 3.33 24.42 3.05 1.11-.28 1.67-.55 2.5.28.55 4.45-.84 10.28 1.94 14.16 3.05 4.16 8.05 5 13.05 5.55 15.54-.55 29.14-5 43.3-8.61 2.22-.28 3.88-1.39 6.1-1.39 7.5-1.66 15.83-3.05 23.88-3.33-3.62 4.45-5.55 9.71-6.95 15.27-1.94 4.45 3.62 5.28 5.28 7.78-5.28 1.38-8.88 5-13.87 7.21-10.83-.28-19.7 3.62-29.98 5-.28 2.22 3.61 1.38 3.88 3.61-.55 1.39-1.95 1.67-3.05 2.5-.28 1.11 0 1.11 1.11 1.38 1.12-1.11 3.05-.28 4.17-1.38 3.33 0 6.1-1.11 9.44-1.11 2.78-1.12 6.1-1.39 8.6-3.33 3.62-1.12 5.84-3.34 9.17-4.45 5 0 9.44-1.67 14.15-1.95v1.12c-3.88 6.38-7.77 12.77-11.94 18.59-.55 1.11.29 2.5 1.12 2.78a9.3 9.3 0 0 0 6.66-1.12 189 189 0 0 0 9.44-18.03c1.12-5.83 5.28-8.89 9.44-12.78.55-.28 1.67-1.38 2.22-.28-3.33 3.88-5.55 7.5-8.05 11.94-1.38 4.72-1.66 10.83 2.5 14.7 1.95 1.67 5 1.12 7.78 1.4 6.66-3.34 14.99 1.94 19.98-4.45 3.05-.55 3.61 3.05 5.28 4.71 2.78.84 5.83 3.62 8.6 1.67-.27-1.95-2.2-3.61-3.04-5.28-1.95-3.61-4.45-6.38-6.38-9.71-.84-2.5-2.22-3.88-2.78-6.38 3.05 1.11 5.83 3.05 9.16 3.61 2.78 1.12 6.38 1.12 9.16 2.78 2.22 2.78 5.55 4.45 8.33 6.38 4.16 1.95 8.87 2.5 13.32 4.16 1.66.28 4.16 1.39 5.28 0a6 6 0 0 0-2.5-1.94c-.55-2.22 3.05-1.12 4.16-2.78-.28-.83-1.11-1.12-1.95-1.39-2.5-1.38-8.32-1.66-9.99-2.5-1.94-.28-3.88-1.1-5.83-1.94-9.99 0-15.54-9.16-23.58-12.5 1.94-1.66 4.71-3.04 5.83-5.54 1.38-2.5 1.94-6.38.55-8.88-1.39-5.28-8.33-4.44-12.21-7.5l.55-.54c6.66-.28 12.2 1.11 18.04 2.5 16.1 2.21 31.08 8.32 47.73 8.6 9.16 0 20.82.55 25.26-8.32.83-5.28 1.94-10.55 2.78-15.83 2.21-8.88 7.77-16.65 6.94-25.81h-.06c-1.94-5.27-6.1-8.87-11.37-10.53a21 21 0 0 0-4.02-.46m-264.81.62q-.3 0-.67.1c-1.1.29-1.38 1.12-2.22 1.67-.56 1.67.55 2.5 1.39 3.61.55.83 1.94.56 2.5.28.56-1.11 2.5-1.38 1.94-3.33-.97-.97-1.52-2.37-2.94-2.33m401.22.93c-1.1.56-1.1 1.4-2.22 1.94 0 1.4 0 2.78 1.39 3.62 1.1.56 2.76.28 3.88-.56.28-.83 1.11-1.38.83-2.5-.55-1.67-2.22-2.22-3.88-2.5m-9.66.78c-1.04-.02-1.59.65-2.56.9-2.78 1.94 1.93 3.6-.28 6.1-3.05 0-6.95-.83-9.16 1.39 1.4 1.11 3.33 1.11 4.44 1.94 4.45 4.72 10.55 6.1 16.66 6.39v-1.39c-3.6-3.05-6.1-6.66-10.55-8.88.28-.83 1.4-.27 1.95-.55 1.38-.56 3.05-1.66 2.5-3.61l-.01-.01c-.55-1.1-1.12-1.94-2.5-2.22a3 3 0 0 0-.49-.06m-68.79.3a3.4 3.4 0 0 0-2.88 1.7c-.55 1.67.84 2.78 1.67 3.89a3 3 0 0 0 3.61-.55c.28-.83 1.12-1.95.83-2.78-.31-1.56-1.77-2.33-3.23-2.26m-58.51.52c1.73.07 3.46.49 4.85 1.19 2.21.55 4.71 1.38 5.54 3.6 2.22 1.96 1.67 6.39 1.12 9.45l-.01-.01c-1.39 3.05-3.88 5.28-7.22 5.83.29-4.16 3.89-6.94 2.5-11.38-2.21-3.33-6.66-4.16-10.54-3.33-1.39 1.11-.83 2.78-1.38 4.16l-.56 5.55c-3.33 0-3.6-3.05-4.44-5.27.28-3.62 1.66-7.22 5.28-8.88 1.39-.7 3.12-.97 4.86-.9m-207.28.63c2.35.14 4.64.83 6.45 1.94 1.11.55 1.95 1.67 2.78 3.33.83 2.78-.55 5.83-2.5 7.5h-1.66c0-2.78 0-5.55 1.1-7.5-.27-1.94-1.94-2.22-3.04-3.05-2.78-.83-5.28.55-7.5 1.67-1.66 1.94-3.04 4.44-2.21 7.5 1.11 1.94.28 4.44.83 6.37l-.55.56c-2.5-2.5-5-4.72-4.44-8.61h-.02c.56-3.04 1.12-6.37 3.89-8.32a13 13 0 0 1 6.87-1.39m-109.42 4.2c-.73.02-1.47.27-2.08.8-.28.82-1.12 1.66-.83 2.77.55 1.4 1.66 1.67 3.05 1.95 1.66-.28 2.22-1.4 2.78-2.78.19-1.72-1.33-2.78-2.92-2.74m370.32.48c-.7 0-1.36.27-1.88.87-.83 1.39-1.66 2.78-.28 4.17.83.83 2.22 1.93 3.61 1.38 1.4-.55 3.06-1.94 2.78-3.88-.96-1.34-2.7-2.54-4.23-2.54m-354.62.05c-5 3.33-10.27 6.38-13.05 12.21-.56 1.67-3.33 3.61-2.78 5 6.38-.57 10.83-5.56 13.33-11.1.83-2.5 3.32-3.62 3.33-6.1zm93.08.4c1.02-.05 2.1.21 2.1 1.26-.28 1.94-.28 4.16-.83 5.83-2.21 0-3.33-1.39-4.16-3.34.55-1.38 0-3.33 1.95-3.6q.42-.12.94-.15m271.33.99c-1.1.28-1.38 1.66-2.21 2.5 0 1.38 1.1 2.5 2.21 3.04.55 0 1.39-.27 1.67.28 1.66-.28 2.77-1.66 3.05-3.6-.55-2.22-3.05-2.22-4.72-2.22m-340.14.04q-.42 0-.96.23c-.83.83-2.23 1.94-1.95 3.33.56 1.11 1.67 2.22 3.05 1.94 1.39-.83 2.78-1.66 2.5-3.6h.01c-.9-.68-1.44-1.91-2.65-1.9m10.86.17q-.36 0-.72.06c-1.1.83-2.5 1.66-2.22 3.33.55 1.4 1.93 1.66 3.05 1.94 1.94-.28 2.78-1.4 3.33-2.78-.25-1.7-1.76-2.55-3.44-2.55m357.14.35c-.42 0-.83.15-1.22.54 1.67 5.28 4.45 9.44 8.61 13.6 2.5.55 4.71 3.62 7.5 2.5.26-1.4-1.12-2.23-1.95-2.78-1.94-4.71-5.55-9.16-9.71-12.49-1-.4-2.15-1.37-3.23-1.37m-91.33.7c.54-.04 1.37.6 2.68 2.34 0 1.38.29 3.33-1.1 4.44-.84.55-2.22 1.95-3.62 1.12l.01-.02c1.46-1.46.42-7.75 2.03-7.88m107.73.09q-.2-.01-.4.04c-1.1.55-2.5.83-3.05 2.22-.84 1.38.55 2.77 1.38 3.88 1.66.27 3.6.55 4.72-1.11.56-1.12.83-2.5.28-3.62v.02c-1.21-.49-2-1.4-2.93-1.43m-357.4 4.4q-.24 0-.5.06c-.83.84-2.77 1.39-1.94 3.34.55 1.66 2.78 2.22 4.16 1.94 1.67-.83 1.4-2.78 1.12-4.16-.98-.73-1.74-1.25-2.84-1.18m142.94 1.37c7.56.07 15.06.48 22.28 1.73 4.71.29 8.6 1.39 13.32 1.67 9.44 1.11 18.04 3.61 27.75 4.44 1.39.55 3.33.55 5 .84 14.99 2.5 32.2 6.66 46.63 0-.28 6.66-2.78 12.2-3.61 18.03l-.01.02c-1.39 1.66-.28 4.44-1.95 5.82 0 3.05-2.5 4.45-4.71 5.83-19.99 4.45-39.7-2.5-58.85-5.83-26.91-5.82-58.56-7.49-86.04-1.38a424 424 0 0 0-38.02 8.88c-7.78 1.11-16.1 2.22-23.59-.28-6.1-2.78-3.61-10.55-5.28-16.1.29-4.17-1.11-7.5-1.38-11.66a8 8 0 0 1-.55-4.45c2.5.28 5 2.22 7.77 2.78 14.16 2.78 26.65-1.95 39.7-4.16 12.48-2.78 25.53-5 38.85-5.83 7.5-.14 15.13-.42 22.69-.35m-103.46 1.2c2.5 1.94 6.11 1.1 9.16 1.38.55 1.94.55 4.16-.83 5.83-2.78-.56-6.66-.29-8.05-3.05.28-1.12-.55-2.78-.28-4.17m269.56 2.39q-.42 0-.88.38c-.29.55 0 1.39.55 1.67 3.05 7.5 4.71 15.26 12.2 20.53h.56c1.11-.83-.27-2.21.28-3.33a28 28 0 0 0-4.45-11.94l-4.7-4.98c-1.35-.46-2.34-2.37-3.56-2.33m-294.54.03c-4.45.13-8.4 2.19-12.77 3.4-.55 0-1.11.83-.83 1.39 7.76 4.44 17.2 1.66 23.87-3.05-.28 0-.56 0-.28-.28l-8.05-1.39q-.99-.1-1.94-.07m120.17.06v.83c1.94.28 3.05.28 3.05 2.78l-.28 12.77c0 2.22-.83 2.22-3.05 2.5v.83l11.66.28v-.83c-2.22-.28-3.05-.56-3.05-2.78v-5.55h.83l6.94 9.16H524v.57l6.94.83v-.83c-1.11-.28-2.5-.55-2.5-1.67 0-.56.84-1.66 1.95-3.61l7.78.83c.28.83 1.11 3.05 1.11 3.88 0 1.12-.56.84-2.78.84v.83l11.08 1.38-.53-.8c-1.67-.29-2.22-1.12-3.33-4.45l-5.83-15.82h-.83l-9.45 14.7c-.86 1.72-1.39 2.61-2.48 2.92v-.44c-.27 0-.84 0-1.39-.55l-6.66-8.33c1.94-.27 5.55-1.1 5.55-4.71.27-4.73-6.95-5.28-9.44-5.28zm45.5 23.04.02.03.01-.02zm-48.83-23.03-20.54 1.95.55 5.83h1.12c.28-4.72 3.6-5.27 6.1-5.55l1.4 14.99c.27 2.5-.56 2.77-3.06 3.05v.83l12.2-1.11-.28-1.12c-2.5.28-3.33.28-3.61-2.21l-1.39-15c2.23-.28 5.83-.28 6.95 4.17h1.11zm-145.15.82c-8.88.84-18.87 5.83-21.92 15 1.66 1.1 2.5-.84 3.88-1.4 7.21-1.66 12.21-8.59 18.04-12.2zm255.07.01c2.78.55 5.83.56 8.33 1.67.28 2.78-2.22 1.95-3.62 3.05h-4.16c-.83-1.39-.55-3.33-.55-4.72m-185.41.84-1.38 1.38c.55-.27 1.1-.83 1.38-1.38m89.1 0q4.16 0 4.16 4.16c0 3.61-1.94 4.16-6.39 4.16v-7.2c.27-.84.27-1.12 2.22-1.12m-38.6.83-1.11.28c0 .56 0 .83-.83 1.11-1.1.29-2.77-.27-5.55.29-6.4 1.38-6.4 5.54-6.11 7.2.28 1.4.83 3.6 6.94 4.72l2.5.28c2.23.29 4.16.56 4.44 2.5 0 .56.28 3.33-3.6 4.17-4.17 1.1-6.67-1.67-8.05-4.45l-.84.28 1.39 6.95 1.11-.29c0-.28 0-.83.84-1.1.83-.29 2.77.54 5.82-.29 6.11-1.4 7.5-5.28 6.95-7.78-.55-3.06-3.6-4.16-4.72-4.44l-5.27-.83c-3.05-.55-3.89-1.12-4.17-2.5-.28-1.67 1.38-3.05 3.05-3.33 4.16-1.1 6.66 1.66 7.78 3.61l-.01.01.83-.28zm77.73 1.67v.83c1.38.28 2.78.55 2.5 2.5l-2.5 13.6c-.28 1.67-1.39 1.66-3.33 1.38v.84l19.42 3.6h.02l2.5-5.82-1.11-.28c-1.95 2.77-4.45 4.71-9.44 3.88-2.23-.55-3.06-.83-2.78-2.22l2.5-13.32c.55-2.5 1.38-2.23 3.88-1.95v-.83zm-93.83 2.2-7.21 1.65.28.84c2.77-.55 3.6.28 3.88 1.94l1.95 8.61c.55 1.67 1.38 6.11-4.45 7.5-4.72 1.38-5.83-2.5-6.1-4.17l-2.22-9.44c-.84-2.5.28-2.78 2.5-3.33l-.29-.83-11.37 2.78.28.83c1.94-.27 2.78-.27 3.33 1.95l2.21 9.44c.84 3.06 1.95 3.61 3.62 4.44 2.5.84 5.83.28 7.21 0 1.95-.56 4.73-1.66 6.11-3.6 1.1-1.67.83-4.17.55-5.84l-2.21-8.88c-.56-1.93.28-2.5 1.94-3.05zm78 1.13 2.5 7.49-6.66-.83zm37.2.55-.27.83c1.66.56 3.06.83 2.78 2.78l-2.78 13.6c-.56 1.67-1.67 1.67-3.61 1.39l-.28.83 11.65 2.5.28-.83c-1.94-.57-3.06-1.12-2.77-2.78l2.77-13.6c.29-1.94 1.95-1.67 3.62-1.4l.28-.83zm98.81.28c-.83.56-1.94.83-2.5 1.94 0 1.12 0 2.78 1.39 3.33.55.84 2.21.84 3.05 0 1.38-.28 1.93-2.22 1.38-3.6h.01c-.83-1.4-2.21-1.4-3.33-1.67m-19.31 1.73c-3.62.1-7.2.9-10.67 1.6-.83.83-2.5.28-2.78 1.66 5 1.4 10 3.9 15.83 1.95 2.22-.83 5-1.95 6.1-4.44-.27-.84-1.66-.56-1.94 0a22 22 0 0 0-6.54-.77m-58.7 1.6-9.15 14.99c-1.12 2.21-1.67 3.05-3.61 3.05v.83l6.94.83v-.83c-1.4 0-2.78-.27-2.78-1.38 0-.57.83-1.67 1.94-3.62l7.78.84c.28.83 1.12 3.05 1.12 3.88s-.57.83-2.78.83v.84l11.1 1.1-.28-1.1c-1.66-.28-2.22-1.1-3.33-4.44l-6.1-15.82zm-243.11 1.39c-1.12.57-2.5.84-2.78 1.95-.83 1.1.27 1.94.55 3.05 1.11.55 2.22 1.1 3.33.55 1.4-.56 1.4-2.22 1.95-2.78-.28-1.94-1.67-2.77-3.05-2.77m74.36.81-5.83 16.66c-.83 2.23-1.1 3.06-3.05 3.61v.83l6.94-.83v-.83c-1.38.28-3.05.28-3.05-.83 0-.56.29-1.67 1.12-3.89l7.77-.83c.57.83 1.95 2.78 1.95 3.61.28.83-.28 1.1-2.5 1.39v.83l11.1-1.38-.01-.02v-.55c-1.67.27-2.22-.83-4.17-3.61l-9.44-14.16zm-64.58.74q-.3 0-.62.1c-.83.28-1.94.56-2.22 1.4-.56 1.1 0 2.2.55 3.32 1.12.84 1.95 1.4 3.33 1.12 1.1-.83 1.67-2.22 2.22-3.33-.48-1.22-1.82-2.64-3.26-2.61m307.63 1.66c-.68.02-1.34.23-1.86.66-.56 1.12-2.23 1.95-1.11 3.34.56 1.11.83 2.21 1.95 2.5 1.1.83 2.77.56 3.6-.56.57-1.11 1.4-1.94 1.12-3.33h-.01a3.8 3.8 0 0 0-3.7-2.6m8.85.97q-.47-.04-.98.26c-2.23.28-2.5 2.78-1.95 4.44.56.27.83 1.67 1.95 1.39 1.94.83 2.5-1.39 3.6-2.22.28-.83 0-1.66-.27-2.5-.63-.42-1.41-1.3-2.35-1.37m-85.08.82 2.78 7.21-6.66-.55zm-167.64 1.94 4.16 6.66-6.66.55zm-71.3 1.11c-1.95 1.11-2.23 3.33-1.95 5 .83 2.22 3.05 2.22 5 1.94 1.38-.83 1.94-2.5 1.66-4.44-.83-2.22-2.76-2.5-4.71-2.5m14.42 1.66c-4.16 4.72-10.54 8.6-14.15 13.88v.83c2.77 1.67 5.27-.83 8.05-1.38 4.72-2.78 5.82-8.61 6.1-13.33m274.51 1.64-.3.03c-.84.56-1.94.83-2.22 1.95-.55 1.11-.28 2.78.83 3.33 1.39.27 3.05.83 4.17-.28.56-.84 1.66-1.67 1.1-2.78-.78-1.04-2.05-2.33-3.58-2.25m-265.83.67c-.23 0-.47.14-.63.45 1.95 5.83 1.38 12.78 5 17.77 1.66 1.67 3.04 4.73 5.82 4.45-1.1-4.17 0-9.44-2.21-13.33.27-1.12-1.12-1.12-1.12-1.95-1.93-2.22-3.88-5.55-6.38-7.22a.7.7 0 0 0-.48-.17m275.21.7q-.54.02-1.07.33c-.83.83-2.21 1.38-1.66 3.05.83.83 1.94 1.1 3.05 1.38.83-.83 2.22-1.11 2.22-2.5v.01c-.42-1.46-1.46-2.3-2.54-2.27m-140.68 1.71c1.67 0 3.05 0 4.45.55.28 3.33 4.44 8.05 0 10.83-1.39.55-3.61 2.21-5.28.55-2.22-1.67-2.5-3.33-1.66-5.55.83-2.5 1.11-4.44 2.5-6.38m153.48.27-1.1.28c-.56 6.66 4.15 11.66 9.15 16.1h.55c.83.28 1.12-.56 1.12-1.1 0-6.95-5-11.12-9.72-15.28m-163.55.11a24 24 0 0 1 3.4.17c1.11 1.39-.28 2.5-.55 3.33-2.22-.55-3.33-3.05-5.83-3.05a12 12 0 0 1 2.98-.45m22 .17 5.1.27c-2.74 0-5.96 6.01-7.31.85-.29-1.39 1.38-.29 2.21-1.12m-28.3 2.18a6.3 6.3 0 0 1 3.6.87c-4.44 1.11-10 2.22-10.82 7.78.28 2.22-.56 3.33.55 5.28 1.94 3.33 6.1 1.94 8.33 4.44 0 .83-.56 1.95-1.39 1.95-3.05-1.39-6.38-2.22-9.16-4.45-.83-5.84 1.38-11.12 5.28-15.28 1.1-.28 2.36-.55 3.6-.59m34.27 1.13.41.02c-1.94.55-3.6 3.05-5.54 3.62.78-1.83 3.02-3.65 5.13-3.64m4.48 1.49c1.35.04 2.57.79 3.44 2.7h-.01c.83 2.5 2.21 4.44 1.38 7.49-1.66 3.33-5 3.33-8.04 3.88a5 5 0 0 1-3.89-1.11c.29-.55-.28-1.11-.55-1.67.55-2.21-3.88-4.44-.83-6.38 1.91-1.71 5.52-5 8.5-4.91m-35.6.98c1.78-.04 3.47.47 4.61 1.72a16 16 0 0 1-4.16 9.7 38 38 0 0 1-8.04-1.94c-1.67-1.66 0-3.61 0-5.55 1.38-2.25 4.61-3.86 7.59-3.93m7.95.6h.28v1.95zm153.13.87q-.49.01-1.04.25c-.83.83-2.78 1.66-2.5 3.33.28 2.5 3.05 2.77 5 2.22.83-.84 1.67-1.95 1.38-3.34-.44-1.35-1.44-2.52-2.84-2.46m-118.16.8c1.94.55 2.21 2.78 2.21 4.44-.28 3.61-2.21 6.95-5.83 8.33-1.94 1.11-4.71 1.38-6.66.55 4.17-.28 8.33-1.66 10-5.83zm109.63 1.66c-6.38 2.5-11.38 8.9-13.05 15.27-.27.56-.55 1.95.29 2.5 4.43-4.71 10.82-7.77 13.04-14.15-.56-1.4 2.22-3.34-.28-3.62m-145.44.28a18 18 0 0 1-2.78 7.22c.55-2.22 1.38-5 2.78-7.22m2.2 3.36c.63-.01 1.2.93 1.41 1.37-.55 1.11-1.38 1.67-2.5 1.39-.28-.56.28-1.39.55-2.5a.8.8 0 0 1 .54-.26m11.4.26c0 .28.28.28.28.55-1.11.83-1.94 1.66-3.05 1.95.54-1.12 1.38-2.5 2.77-2.5m-6.38 1.1c.55.55-.28.83-.28 1.11h-.83zm147.98 1.61q-.3 0-.6.06c-1.11.83-2.5 1.38-2.23 3.05.84 1.4 2.23 1.66 3.62 1.94.83-.83 2.21-1.66 2.21-3.05a3.1 3.1 0 0 0-3-2m-141.47 2.34c.28 0 .56.07.7.21h-1.4c.15-.14.42-.2.7-.2m5.97 2.16h.28v.55h-.28zm-24.98.55h.55c-.28 0-.55 0-.55.28h.28v.56H499zm14.18.02c1.6-.08 2.94 2.62 3.59 4.15 2.5 3.6 9.15 7.2 6.66 12.2-3.33 2.78-8.33.29-11.66 2.5-1.95-.28-5 .29-6.11-1.38 1.66-5.83 3.33-11.94 6.1-16.65q.75-.81 1.42-.81m5.12.77a3.9 3.9 0 0 1 3.46 2c-.27.28.28.83-.28 1.1l-3.88-3.04q.37-.06.7-.06m-10.41 2a69 69 0 0 1-5.55 12.2c-1.12-4.16 3.05-7.21 4.71-10.82zm24.13.81c4.72.55 8.33 3.33 12.21 5.55l.01.01c-.28.28-.28.55-.28.55-5 .29-8.04-2.78-11.65-5.28zm-42.7.69a7 7 0 0 1 2.46.43c-3.05 2.5-8.32 3.6-12.77 3.6 3.39-1.34 6.77-3.98 10.3-4.03m37.44.16c4.16 6.66 7.5 13.87 11.37 20.25-.28.55-1.1.55-1.38.28-5-6.38-7.5-13.32-10.54-20.25zM495.94 567c1.1 1.38-.83 1.94-.84 3.31a108 108 0 0 1-8.32 15.83c-.28.83-1.67 1.11-2.78 1.11 0-2.5 2.21-4.16 3.33-6.38 3.61-4.44 4.44-9.44 8.6-13.88m29.14 3.88c.28 1.66 1.95 2.5.84 3.88-.29-.55-1.39-2.22-.84-3.88m-59.65 1.03q1.8-.05 3.58.35c-5 4.16-11.38 4.45-17.2 5.83l-2.5-2.22c1.1-1.38 3.6-.55 5.54-1.66 3.34-1.04 6.98-2.24 10.58-2.3m90.73 3.6a1 1 0 0 1 .29.08c3.88 1.95 12.2 3.61 18.04 4.16-.56 2.22-4.72.29-4.17 3.34-5.28-1.95-11.38-3.05-14.99-7.22.23 0 .45-.36.83-.35m-27.48 2.3c.84.83 1.67 1.95 1.12 3.33l-.83.28c-.84-.55-.56-2.5-.29-3.61m-3.53 1.99c.55 0 .94.38 1.04 1.62-1.12 5.28-7.78 1.38-11.94 3.33-3.04.28-8.04 1.95-11.1-.55.28-1.38-1.38-1.95-1.11-3.33 2.78-1.11 5 2.22 7.5-.28 3.87.28 7.77-.55 11.65.28 1.28.36 2.9-1.06 3.96-1.07m70.89 107.92c-1.67 0-3.07.56-4.45 1.95a5.5 5.5 0 0 0-1.95 4.44c0 1.67.84 3.33 1.95 4.45a5.5 5.5 0 0 0 4.45 1.94c1.66 0 3.33-.83 4.44-1.94a5.5 5.5 0 0 0 1.95-4.45c0-1.66-.84-3.33-1.95-4.44a5.5 5.5 0 0 0-4.44-1.95m-229.52.3-19.7 43.85c-1.95 4.16-3.34 6.94-4.72 8.32a8.6 8.6 0 0 1-5 2.5v1.39h18.32v-1.39c-2.78-.28-4.44-.56-5.28-1.11-1.4-.55-1.94-1.67-1.94-3.33 0-1.12.28-2.78 1.1-4.45l2.23-5.28h19.42l3.33 6.95c.56 1.66 1.11 2.77 1.11 3.05.29.27.29.83.29 1.38 0 .83-.29 1.4-.84 1.95-.83.55-2.22.83-4.44.83h-1.12v1.38h26.65v-1.38a5.5 5.5 0 0 1-3.88-1.38c-1.39-1.1-2.77-3.89-4.72-8.05l-19.98-45.24zm212.3 1.1v.29h.02v-.28zm0 .29h-16.09v1.38c1.67.27 3.06.55 3.62 1.38q.83.84.83 5v39.41q0 4.17-.83 5c-.57.83-1.95 1.38-3.62 1.38v1.38h20.54v-1.38c-1.66-.27-3.06-.55-3.61-1.38s-.83-2.5-.83-5.28zm-99.9 2.76a51 51 0 0 1-6.38 8.87c-2.23 2.5-5.28 5-8.6 7.5v1.38h4.99v20.54c0 4.16 0 6.66.28 7.5.27 1.66 1.38 3.04 3.05 4.44s3.61 1.94 6.1 1.94c4.72 0 8.34-2.5 10.55-7.77l-1.11-.83c-1.67 2.5-3.33 3.88-5 3.88-.27 0-.83-.27-1.38-.55-.56-.55-.83-1.12-1.12-1.67s-.28-1.94-.28-4.16V709.9h8.88v-3.88h-8.88v-13.87zm64.66 12.76c-3.06 0-5.83.55-8.6 1.38a18 18 0 0 0-6.39 4.16 8.8 8.8 0 0 0-2.22 5.55c0 1.4.56 2.5 1.67 3.61a6.8 6.8 0 0 0 4.45 1.67c1.66 0 2.76-.55 3.88-1.38a4.6 4.6 0 0 0 1.38-3.33q0-1.67-1.66-3.34c-.84-.83-1.12-1.66-1.12-2.21s.28-1.12 1.12-1.67c1.11-.83 2.78-1.11 4.44-1.11 1.1 0 2.22.28 3.05.83a3.8 3.8 0 0 1 1.67 1.95c.27.56.55 2.5.55 5.27v3.89c-8.33 3.6-13.88 6.93-16.37 9.16-2.5 2.22-3.62 5-3.62 7.77 0 1.95.82 3.9 2.22 5.28a7.2 7.2 0 0 0 5.28 2.22c3.61 0 7.77-1.95 12.49-6.11.28 2.22.83 3.62 1.95 5 1.1.84 2.77 1.39 5 1.39a9.6 9.6 0 0 0 4.99-1.39 22 22 0 0 0 4.16-4.44l-1.11-1.12c-.84.84-1.39 1.39-2.22 1.39-.28 0-.55 0-.83-.28s-.55-.56-.55-1.12c-.29-.55-.29-1.66-.29-3.33v-14.7c0-3.9-.27-6.67-.55-7.78q-.83-2.92-4.16-5c-2.23-1.38-5-2.21-8.6-2.21m82.71 0c-3.06 0-5.83.55-8.6 1.38a18 18 0 0 0-6.39 4.16 8.8 8.8 0 0 0-2.21 5.55c0 1.4.55 2.5 1.66 3.61a6.8 6.8 0 0 0 4.45 1.67c1.66 0 2.76-.55 3.88-1.38a4.6 4.6 0 0 0 1.38-3.33q0-1.67-1.66-3.34c-.84-.83-1.12-1.66-1.12-2.21s.28-1.12 1.12-1.67c1.11-.83 2.78-1.11 4.44-1.11 1.1 0 2.22.27 3.05.83s1.39 1.11 1.67 1.95c.27.56.55 2.5.55 5.27v3.89c-8.33 3.6-13.88 6.94-16.38 9.16s-3.6 5-3.6 7.77c0 1.95.81 3.9 2.21 5.28a7 7 0 0 0 5.28 2.22c3.6 0 7.77-1.95 12.49-6.11a12 12 0 0 0 1.94 5c1.12.84 2.78 1.39 5 1.39a9.6 9.6 0 0 0 5-1.39 22 22 0 0 0 4.16-4.44l-1.11-1.12c-.84.84-1.39 1.39-2.22 1.39-.28 0-.56 0-.83-.28s-.55-.56-.55-1.12c-.29-.55-.29-1.66-.29-3.33v-14.7c0-3.9-.26-6.67-.55-7.78q-.82-2.92-4.16-5c-2.23-1.38-5-2.21-8.6-2.21m-167.65.27a10 10 0 0 1-1.38 1.66c-.28.28-.57.28-1.12.28-.28 0-.83-.27-1.66-.55a16 16 0 0 0-6.11-1.38c-3.89 0-6.95 1.11-8.88 3.61s-3.05 5-3.05 8.05c0 2.5 1.11 5 2.78 7.21 1.1 1.67 3.88 3.88 8.04 6.66 3.05 1.95 4.72 3.61 5.55 4.45s1.12 1.94 1.12 3.33c0 1.38-.55 2.21-1.39 3.05s-1.66 1.11-3.05 1.11c-1.94 0-3.89-1.11-6.1-2.78s-3.9-4.43-5-8.05h-1.39l.55 13.61h1.39c.55-1.4 1.38-1.95 2.21-1.95.29 0 .84.27 1.67.55 3.05 1.12 5.27 1.67 7.21 1.67 2.22 0 4.44-.56 6.38-1.67a12 12 0 0 0 4.45-4.71 12 12 0 0 0 1.66-6.11c0-2.5-.56-4.44-1.94-6.38-1.12-1.95-3.9-4.17-7.78-6.95-3.88-2.77-6.38-4.7-7.21-5.82-.55-.84-.83-1.39-.83-2.22s.28-1.67 1.1-2.5a3.6 3.6 0 0 1 2.79-1.11c1.66 0 3.61.83 5.28 2.21 1.94 1.4 3.6 3.9 5.27 7.78h1.39l-.55-13.04-.01-.01zm61.34 0c-1.93 0-3.6.57-5.55 1.95-1.94 1.12-4.16 3.9-6.66 7.78v-8.62h-15.27v.55c1.4.28 2.23.55 2.78.83.56.29.83.84 1.11 1.67.29.55.29 1.95.29 4.16v21.1c0 3.32-.28 5.27-.84 6.1s-1.66 1.39-3.33 1.39v1.38h20.54v-1.38c-1.66 0-2.78-.27-3.33-.55s-1.1-.84-1.39-1.67c-.28-.55-.28-1.38-.28-3.05V726c0-3.07.55-6.12 1.39-8.61a8 8 0 0 1 2.5-3.88 3.2 3.2 0 0 1 2.21-.84c.28 0 .55 0 .84.28s.83.84 1.94 1.67a5.3 5.3 0 0 0 3.61 1.38c1.1 0 2.22-.27 3.05-1.38.84-.83 1.39-2.22 1.39-4.17 0-1.66-.55-3.05-1.39-3.88a5.3 5.3 0 0 0-3.6-1.38m152.65.02c-2.21 0-4.16.28-5.83 1.38a26 26 0 0 0-5.54 4.72v-5l-.03-.01h-15.54v1.38c1.67.28 2.78.56 3.33 1.39.55.56.84 2.5.84 5.28v21.37c0 3.06 0 4.72-.56 5.27-.55 1.12-1.66 1.39-3.33 1.67v1.38h19.16v-1.38c-1.39-.27-2.5-.55-3.05-1.39-.55-.56-.84-2.5-.84-5.27v-20.26c1.94-3.33 4.17-5 6.38-5 .84 0 1.4 0 1.95.56a3.3 3.3 0 0 1 1.39 1.94c.28.84.28 2.78.28 5.83V736c0 2.78 0 4.44-.55 5-.56.83-1.67 1.38-3.05 1.66v1.38h19.15v-1.38c-1.67-.27-2.78-.55-3.33-1.38-.56-.84-.84-2.5-.84-5.55v-14.7c0-4.44 0-7.22-.55-8.89a10 10 0 0 0-3.33-5c-1.66-1.39-3.61-1.94-6.1-1.94m-280.6 1.08v1.67c1.67.27 2.78.55 3.33 1.38.56.56.84 2.5.84 5.28v14.99q0 6.67.83 9.16c.55 1.93 1.67 3.32 3.33 4.71s3.6 1.95 5.83 1.95 4.16-.27 6.11-1.39c1.94-.83 3.6-2.5 5.55-4.71v5h15.54v-1.39c-1.67-.27-2.78-.55-3.33-1.38-.55-.84-.83-2.77-.83-5.55v-29.72h-15.82v1.67c1.67.27 2.78.55 3.34 1.38.55.56.83 2.5.83 5.28v20.25a19 19 0 0 1-3.89 4.17 4.7 4.7 0 0 1-2.77.83c-.84 0-1.39-.27-1.95-.55s-.83-.84-1.11-1.67-.29-2.5-.29-5.28v-26.08zm209.83.02h.01m0 .01h-16.1v1.67c1.67.27 3.06.55 3.61 1.38q.83.83.84 5v22.2q0 4.17-.84 5c-.56.83-1.94 1.38-3.6 1.38v1.39h20.53v-1.39c-1.67-.27-3.06-.55-3.62-1.38s-.83-2.5-.83-5.28zm-240.64.27 8.33 18.87h-16.65zm184.57 16.37v12.77c-1.93 1.4-3.6 2.22-4.71 2.22-1.12 0-2.23-.28-2.78-1.11-.83-1.11-1.39-2.22-1.39-3.33 0-1.4.56-3.06 1.67-4.45 1.38-2.22 3.88-4.16 7.21-6.1m82.71 0v12.77c-1.66 1.4-3.33 2.22-4.71 2.22-1.12 0-2.23-.28-2.78-1.11-.84-1.11-1.39-2.22-1.39-3.33 0-1.4.55-3.06 1.67-4.45 1.38-2.22 3.88-4.16 7.21-6.1m-269.49 52.67h-1.68a10 10 0 0 1-1.67 3.06c-.83.55-1.38.83-2.22.83-.55 0-1.93-.27-4.71-1.38a46 46 0 0 0-5.83-1.95 60 60 0 0 0-7.5-.55c-8.87 0-16.09 2.79-21.92 8.6-5.82 5.82-8.6 12.77-8.6 21.1 0 4.44.83 8.87 2.77 12.49a27 27 0 0 0 6.12 7.77 39 39 0 0 0 9.15 5.55 36 36 0 0 0 13.05 2.21c4.16 0 8.04-.28 11.94-1.1a52 52 0 0 0 11.1-3.62v-11.38c0-2.21 0-3.33.28-3.88.57-.83 1.12-1.67 1.95-1.95s2.22-.83 4.16-.83v-1.38H338.8v1.38h1.94q2.09 0 3.33.83c1.12.55 1.67 1.12 1.95 1.67.27.55.55 1.95.55 4.16v11.38c-1.66.55-3.06 1.1-4.44 1.38s-2.78.28-4.17.28c-3.88 0-7.2-.84-9.99-2.78s-4.71-5-6.1-8.87-1.96-8.6-1.96-13.88c0-4.44.56-8.6 1.67-12.77s3.05-7.5 5.83-9.71c2.78-2.5 6.1-3.61 10.27-3.61a19 19 0 0 1 11.94 4.16c3.6 2.77 6.1 6.93 8.05 12.21h1.38zm350 4.44a51 51 0 0 1-6.39 8.88c-2.23 2.5-5.28 5-8.6 7.5v1.38h4.99v20.53c0 4.17 0 6.67.28 7.5.27 1.67 1.39 3.05 3.05 4.44 1.67 1.4 3.61 1.95 6.11 1.95 4.72 0 8.33-2.5 10.55-7.77l-1.12-.84c-1.66 2.5-3.33 3.88-5 3.88-.27 0-.83-.27-1.38-.55-.56-.55-.83-1.11-1.11-1.66s-.28-1.95-.28-4.16v-23.32H719v-3.88h-8.87v-13.88zM385.4 792.83c-5.54 0-9.99 2.23-13.32 6.11a22.3 22.3 0 0 0-4.72 14.16c0 5.27 1.67 10 4.72 13.87 3.33 4.17 7.5 6.11 13.32 6.11s10.28-2.21 13.6-6.66c2.79-3.6 4.17-8.33 4.17-13.6 0-3.61-.83-7.23-2.21-10.28-1.39-3.04-3.6-5.54-6.39-7.21s-5.83-2.5-9.16-2.5m71.33.02c-4.45 0-8.61 1.67-11.94 5.55q-5 5.41-5 14.99c0 5.27 1.4 9.43 3.61 13.04 2.78 4.17 7.23 6.38 12.77 6.38 3.33 0 6.11-.83 8.61-2.5 2.5-1.66 5-4.71 6.95-8.87l-1.39-.84q-2.07 3.75-4.16 5a8.4 8.4 0 0 1-4.45 1.39q-3.74 0-6.66-3.34c-2.22-3.06-3.6-6.94-3.88-11.94H472c-.28-6.1-1.66-10.81-5.27-14.14-2.78-3.05-6.11-4.72-10-4.72M472 811.71v.02zm164-18.87c-4.45 0-8.61 1.67-11.94 5.55q-5 5.41-5 14.99c0 5.27 1.4 9.43 3.61 13.04 2.78 4.17 7.23 6.38 12.77 6.38 3.34 0 6.11-.83 8.61-2.5 2.5-1.66 5-4.71 6.95-8.87l-1.39-.84q-2.07 3.75-4.16 5a8.4 8.4 0 0 1-4.45 1.39q-3.74 0-6.66-3.34c-2.22-3.06-3.6-6.94-3.88-11.94h20.8c0-6.1-1.66-10.81-5.27-14.14-2.78-3.05-6.11-4.72-10-4.72m15.27 18.86v.02zm-149.04-18.6c-1.94 0-3.6.56-5.55 1.95-1.95 1.11-4.16 3.9-6.66 7.77v-8.61h-15.27v.55c1.4.28 2.21.55 2.78.83s.83.83 1.11 1.67c.28.55.28 1.94.28 4.16v21.09c0 3.33-.28 5.27-.83 6.1s-1.67 1.4-3.33 1.4v1.38h20.54V830a8 8 0 0 1-3.34-.55 3 3 0 0 1-1.38-1.66c-.28-.56-.28-1.39-.28-3.06v-10.82c0-3.06.55-6.11 1.38-8.6a8 8 0 0 1 2.5-3.9 3.2 3.2 0 0 1 2.22-.82c.28 0 .55 0 .83.28s.83.83 1.95 1.66a5.3 5.3 0 0 0 3.6 1.39c1.11 0 2.23-.27 3.06-1.39.83-.83 1.38-2.21 1.38-4.16 0-1.67-.55-3.05-1.38-3.88a5.3 5.3 0 0 0-3.61-1.39m34.14.01c-2.22 0-4.16.29-5.83 1.39s-3.6 2.5-5.55 4.71v-5h-15.56v1.38c1.67.27 2.78.55 3.33 1.38.55.57.83 2.5.83 5.28v21.37c0 3.06 0 4.73-.55 5.28-.55 1.11-1.66 1.38-3.33 1.66v1.39h19.15v-1.39c-1.38-.27-2.5-.55-3.05-1.38-.55-.56-.83-2.5-.83-5.28v-20.25c1.94-3.33 4.16-5 6.38-5 .83 0 1.4 0 1.95.55.83.56 1.1 1.12 1.38 1.95s.28 2.78.28 5.83v16.93c0 2.78 0 4.45-.55 5-.55.83-1.66 1.38-3.05 1.66v1.39h19.16v-1.39c-1.67-.27-2.79-.55-3.34-1.38s-.83-2.5-.83-5.55v-14.7c0-4.44 0-7.22-.55-8.88a10 10 0 0 0-3.33-5c-1.67-1.4-3.61-1.95-6.11-1.95m44.41 0a13 13 0 0 0-5.82 1.39c-1.95.83-3.62 2.5-5.83 4.71v-5H553.3v2.21c1.66.27 2.77.55 3.33 1.39.55.56.83 2.5.83 5.27v21.37c0 3.06 0 4.73-.55 5.28-.55 1.12-1.67 1.39-3.33 1.67v1.38h19.7v-1.38c-1.67 0-2.78-.56-3.33-1.39s-.83-2.5-.83-5.28v-20.25c1.66-2.23 2.78-3.61 4.16-4.44a6.3 6.3 0 0 1 3.05-.84 3 3 0 0 1 1.95.84c.55.28 1.1 1.1 1.38 1.94s.28 3.05.28 6.38v16.37c0 2.23 0 3.9-.28 4.45 0 .55-.56 1.11-1.11 1.67q-.83.83-2.5.83v1.38h19.7v-1.38c-1.66 0-3.06-.55-3.6-1.67-.28-.83-.56-2.5-.56-5.28v-20.25a17 17 0 0 1 3.61-3.88c1.4-.84 2.5-1.39 3.61-1.39.84 0 1.4 0 1.95.55.55.28 1.1 1.12 1.39 1.95s.28 3.05.28 6.38v16.37q0 3.75-.84 5a3.9 3.9 0 0 1-3.33 1.67v1.38h19.7v-1.38c-1.66-.27-2.77-.56-3.32-1.39-.56-.83-.84-2.5-.84-5.55v-15.54c0-4.16-.28-6.94-.83-8.87s-1.67-3.6-3.33-4.72c-1.67-1.4-3.88-1.95-6.38-1.95-2.22 0-4.44.56-6.38 1.67-1.95 1.11-3.9 2.78-6.11 5.28a9.8 9.8 0 0 0-3.89-5.28 10.5 10.5 0 0 0-6.1-1.67m98.8 0c-2.21 0-4.16.29-5.82 1.39s-3.6 2.5-5.55 4.71v-5h-15.56v1.38c1.66.27 2.78.55 3.33 1.38.55.57.83 2.5.83 5.28v21.37c0 3.06 0 4.73-.55 5.28-.55 1.11-1.67 1.38-3.33 1.66v1.39h19.15v-1.39c-1.38-.27-2.5-.55-3.05-1.38-.55-.56-.83-2.5-.83-5.28v-20.25c1.94-3.33 4.16-5 6.38-5 .83 0 1.4 0 1.95.55.83.56 1.1 1.12 1.38 1.95s.28 2.78.28 5.83v16.93c0 2.78 0 4.45-.55 5-.55.83-1.67 1.38-3.05 1.66v1.39h19.15v-1.39c-1.66-.27-2.78-.55-3.33-1.38s-.83-2.5-.83-5.55v-14.7c0-4.44 0-7.22-.55-8.88q-.83-2.91-3.33-5c-2.5-2.09-3.62-1.95-6.11-1.95m-249.81 1.1v1.39q2.5 0 3.33.83c.55.57.83 1.12.83 1.95 0 1.38-.83 3.88-2.22 7.5l-5 12.2-6.37-14.15c-1.12-2.77-1.67-4.44-1.67-5.55 0-.83.56-1.67 1.12-2.22.28-.27 1.11-.55 2.5-.55v-1.38h-20.26v1.38c1.11.27 2.23.55 2.78 1.39.83.83 1.94 3.05 3.6 6.66l12.78 29.4h1.92l12.77-29.7c1.38-3.6 2.5-5.54 3.33-6.38s1.93-1.1 3.05-1.38v-1.38zm-8.58 38.85h-.03zm35.53-37.46c.83 0 1.66.28 2.21.83 1.1.84 1.67 1.95 2.22 3.62.55 1.66.83 4.43.83 8.87h-11.1v-1.38q0-6.25 2.5-10a3.6 3.6 0 0 1 3.34-1.94m179.29 0c.83 0 1.66.28 2.21.83 1.1.84 1.67 1.95 2.22 3.62.55 1.66.84 4.43.84 8.87h-11.1v-1.38q0-6.25 2.5-10a3.6 3.6 0 0 1 3.33-1.94m-250.63.28a7 7 0 0 1 2.78.55c.83.84 1.66 2.22 2.21 3.89.56 1.66.84 4.72.84 9.44 0 7.76-.28 13.04-.84 15.54-.55 1.66-1.1 3.05-2.21 3.88a4.2 4.2 0 0 1-3.05 1.11 4.4 4.4 0 0 1-3.33-1.38c-1.12-1.11-1.67-2.5-1.95-4.45-.27-2.5-.55-5.26-.55-8.04 0-5.56.27-9.72.55-12.77.28-3.06.83-5 1.95-6.11a5 5 0 0 1 3.6-1.67" style="fill:#fff"/>
</svg>
