<svg xmlns="http://www.w3.org/2000/svg" viewBox="0 0 1024 1024">
   <circle cx="512" cy="512" r="512" style="fill:#90d033"/>
   <path d="M267 270.41v345.41h488.26V270.41zm.343 371.3v111.86h40.445c30.11 0 55.931-24.082 55.931-55.069-.844-34.415-22.359-56.789-52.486-56.789zm135.12 0-43.029 111.87h24.098l33.555-88.638 27.54 70.569h-30.985v18.069h61.973l-43.887-111.87zm54.205 0v18.931h36.14v92.944h24.96v-92.944h35.276V641.71zm105.83 0v111.87h77.442v-18.069h-53.347v-30.988h47.335v-18.931h-47.335v-24.956h50.78v-18.931h-74.858zm80.903 0 43.89 111.87h26.682l43.03-111.87h-59.394v18.931h28.404l-25.82 67.985-31.833-86.915zm-352.82 18.947h18.914c18.947 0 31.85 13.76 30.988 36.997-.861 24.098-17.209 37-37 37h-12.902z" style="fill:#fff"/>
</svg>
