<svg xmlns="http://www.w3.org/2000/svg" viewBox="0 0 1024 1024">
   <circle cx="512" cy="512" r="512" style="fill:#8b47ae"/>
   <path d="M697.61 288v154.69h-1c-6.96-8.46-16.9-15.92-29.34-22.88Q648.6 409.37 621 409.36c-17.9 0-33.82 3.48-48.25 10.45s-26.86 16.41-36.8 28.35c-10.45 11.94-17.92 25.87-23.39 41.29a151 151 0 0 0-8.45 49.74c0 17.4 2.48 33.82 7.96 49.74 5.47 15.92 12.93 29.84 23.37 41.78 9.95 12.44 22.39 21.89 36.81 29.35S603.6 671 622 671a111 111 0 0 0 47.26-10.44c14.42-6.47 25.86-16.42 33.82-28.85h1v32.33h75.1V288zM357.36 408.37c-18.73.05-36 3.04-52.28 9.45a135 135 0 0 0-42.28 26.36q-17.91 17.16-28.36 41.79T224 541.17c0 20.9 3.48 39.3 10.94 55.72a111.6 111.6 0 0 0 29.35 40.79 118 118 0 0 0 43.27 25.36c16.42 5.97 34.32 8.96 52.73 8.96 25.37 0 47.25-4.48 66.65-13.93 18.9-8.95 34.32-21.88 45.76-38.8L416 583.46a61 61 0 0 1-21.89 18.4q-13.43 7.46-32.83 7.46c-7.46 0-14.42-.99-20.89-3.48-6.96-2.48-12.93-5.47-18.4-9.94a53 53 0 0 1-13.43-14.43 41 41 0 0 1-6.47-18.9h179.57c.5-2.99.5-5.97.5-9.45v-9.95q0-32.09-8.96-56.7c-6.46-16.42-14.92-30.84-25.86-42.28a115 115 0 0 0-39.3-26.87c-15.42-5.96-31.83-8.95-50.23-8.95zm.38 56.2h.56c16.41 0 28.35 4.48 36.8 13.93 7.97 9.45 11.95 20.4 11.95 33.33H302.1a48 48 0 0 1 4.97-18.4 56 56 0 0 1 11.94-14.93 56 56 0 0 1 17.4-10.44c6.32-2.43 13.59-3.44 21.33-3.48zm283.44 11.45h.22c9.45 0 17.41 1.99 24.87 5.47s13.43 8.46 18.9 14.42a76 76 0 0 1 11.94 20.4 74 74 0 0 1 3.98 23.37c0 7.96-1.5 15.92-3.98 23.38a76 76 0 0 1-11.94 20.4c-5.47 5.97-11.44 10.94-18.9 14.42a57 57 0 0 1-24.87 5.47c-9.45 0-17.9-1.99-25.37-5.47a53 53 0 0 1-18.4-14.42c-4.97-5.97-8.46-12.94-10.94-20.9a74 74 0 0 1-3.98-23.37c0-7.96 1.49-15.92 3.98-23.38 2.48-7.46 5.96-14.43 10.94-20.4 4.97-5.47 10.94-10.44 18.4-13.92a59 59 0 0 1 25.15-5.47" style="fill:#fff"/>
</svg>
