<svg xmlns="http://www.w3.org/2000/svg" viewBox="0 0 1024 1024">
   <circle cx="512" cy="512" r="512" style="fill:#009fd9"/>
   <path d="M502.097 344.695h19.895V324.8h19.686v-19.905h-19.686V285h-19.895v19.895h-19.895v19.894h19.895zm128.93-5.073c-24.461.014-41.368 25.717-32.135 48.262 5.286 12.906 18.188 21.57 32.135 21.578 24.515 0 41.208-26.095 32.123-48.267-5.286-12.901-18.181-21.561-32.123-21.573M392.853 459.407h238.174v-39.998H392.853zm34.727-84.87c0-19.28-15.634-34.915-34.727-34.915-13.942.012-26.837 8.672-32.123 21.573-9.236 22.541 7.663 48.245 32.123 48.267 18.986-.011 34.824-15.939 34.727-34.925m89.339 0c0 19.29 15.624 34.925 34.717 34.925 19.082 0 34.717-15.624 34.717-34.925.091-18.979-15.739-34.898-34.717-34.915-19.082 0-34.717 15.624-34.717 34.915m-44.675 34.925c19.083 0 34.728-15.624 34.728-34.925 0-19.28-15.635-34.915-34.728-34.915-13.941.012-26.836 8.672-32.122 21.573-9.236 22.541 7.663 48.245 32.122 48.267m258.069 89.953-29.852 89.943-29.842-89.943h-99.286V659h59.486V539.215L670.421 659h59.684l39.602-119.785V659h59.486V499.217zm-277.765 0h-59.487V659h158.783v-40.206h-99.296zm-79.59 0h-59.486l-59.695 59.893v-59.893h-59.496V659h59.496v-59.892L313.462 659h79.391l-89.339-89.943z" style="fill:#fff"/>
</svg>
