<svg xmlns="http://www.w3.org/2000/svg" viewBox="0 0 1024 1024">
   <circle cx="512" cy="512" r="512" style="fill:#093e3b"/>
   <path d="M284.4 586.3v.1c11.3 11.5 11.1 25.9-.2 37.2-9.4 8.7-24.2 9-33.6-.5l-55.3-57.6v38.8c0 13.8-11.3 25-24.9 25s-24.9-11.1-24.9-25V418.8c0-13.8 11.3-25 24.9-25s24.9 11.1 24.9 25v90.6l55.9-54.8c9.7-9.3 24.7-8.3 34.3 1.4 9.2 9.5 9.5 24.9.3 34.5l-48.3 48.3zm185.8-129.4c-17.7 9.6-31.9 24.9-40 43.4v-25.5c0-13.2 10.8-24.1 24-24.1 6.2 0 11.7 2.4 16 6.2m138.6 82.6-.1.2c.1 21.3-.1 42.7 0 64 .1 11.4-5.2 19.2-15.2 23.7-9.1 4.2-18.6 2.1-26.5-6.4-3-3.4-5.2-2-8.1-.8-32.6 14.5-63.5 12.1-92.8-8.8-2-1.4-5.6-4.1-5.6-4.1 11.8-11.7 20.6-27.5 25-44.1 7.4 8.3 14.7 14.5 24.6 17.1 22.1 5.7 44.5-8.5 49.6-31.1 4.9-22.1-10.8-45.6-33-49.5-22-3.8-43.7 11.8-46.9 34.1-1 6.7-1.4 13.6-2.4 20.5-5.8 41.5-41.8 72.7-83.4 75.2-46.4 2.8-84.2-31.6-92.1-70.3-1.8-8.3-1.8-6.4-1.8-25.6s-.1-38.3.1-57.4c.2-12.4 7.3-21.7 18.2-24.6 9.6-2.7 20.1 1.6 26 10.5 3 4.7 3.8-5.5 3.8 15.4s-.3 41.7 0 62.6c.4 19.1 13.3 35.7 30.8 40 18.7 4.7 38-3.7 47-20.1 4.7-8.6 4.4-17.9 5.3-27.3 3.4-39.3 30.9-71.2 69.1-79.8 55.7-12.4 107.9 29.3 108.4 86.6m77.8 43.2v.1c13.2 2 22.4 12.5 21.5 24.6-.9 12.4-11.6 22-24.8 22.2-34.1.8-64.7-20.5-64.7-62.6-.2-23.7 0-120.5 0-144.9 0-15.8 10.6-27.3 24.6-27.1 13.5 0 23.9 11.7 23.9 27.1.1 46.3 0 139.7 0 139.7 0 11.1 8.1 18.9 19.5 20.9m103-131.6c49.2 0 88.9 39.9 88.9 89.3s-39.7 89.3-88.9 89.3-88.9-39.9-88.9-89.3 39.7-89.3 88.9-89.3m0 130.7c22.7 0 41.2-18.6 41.2-41.4S812.3 499 789.6 499s-41.2 18.6-41.2 41.4 18.4 41.4 41.2 41.4" style="fill:#fff"/>
</svg>
