<svg xmlns="http://www.w3.org/2000/svg" viewBox="0 0 1024 1024">
   <circle cx="512" cy="512" r="512" style="fill:#005eb8"/>
   <path d="M185.15 378.11h89.43l54.82 185.76h.83l37.6-185.76h67.55l-56.82 267.87h-89.01l-56.07-185.34h-.75l-37.19 185.34h-67.55l57.15-267.87Zm276.6 0h71.79L512.41 480.6h84.85l21.13-102.49h71.79l-55.65 267.87h-72.21l23.79-114.72h-84.44l-23.79 114.72h-71.71l55.57-267.87Zm417.2 60.64a134.59 134.59 0 0 0-58.73-12.31c-28.37 0-51.41 4.24-51.41 25.71 0 38.02 103.99 23.79 103.99 105.15 0 74.04-68.71 93.25-130.86 93.25-28.24-.66-56.25-5.31-83.19-13.81l16.64-54.49c14.23 9.23 42.59 15.39 65.97 15.39s57.15-4.24 57.15-31.86c0-43.01-103.99-26.87-103.99-102.49 0-69.05 60.64-89.84 119.38-89.84 33.28 0 64.06 3.49 82.11 11.9l-17.05 53.41Z" style="fill:#fff"/>
</svg>
