<svg xmlns="http://www.w3.org/2000/svg" viewBox="0 0 1024 1024">
   <circle cx="512" cy="512" r="512" style="fill:#38bdf8"/>
   <path d="M508.78 247.21c-35.53-.8-70.36 5.55-103.51 18.87-67.07 26.96-117.68 77.09-146.36 144.99-7.9 18.73.87 40.32 19.59 48.23 18.73 7.9 40.32-.87 48.23-19.59 21.18-50.13 56.84-85.58 106-105.33 47.15-18.95 99-18.17 146 2.19 46.99 20.36 83.34 57.72 102.37 105.2 18.71 46.7 17.77 98.4-2.66 145.59-20.53 47.44-58.12 83.84-105.83 102.49-20.05 7.83-39.6 11.54-56.59 12.8l84.77-133.05c10.92-17.15 5.88-39.9-11.26-50.82-17.15-10.92-39.9-5.88-50.82 11.26L421.98 713.25c-5.99 9.4-7.39 21-3.83 31.56a36.77 36.77 0 0 0 22.18 22.77c16.43 6.04 38.03 9.28 61.46 9.28l.03-.01v-.02c2.44 0 4.91-.04 7.39-.11 30.58-.88 61.77-7.21 90.21-18.33 33.5-13.09 63.43-32.47 88.96-57.61 24.49-24.11 43.87-52.44 57.62-84.19 13.71-31.68 21.09-65.09 21.93-99.32.87-35.47-5.36-70.09-18.5-102.89-13.27-33.11-32.64-62.71-57.58-87.97-24.1-24.41-52.31-43.71-83.86-57.38-31.63-13.71-65.01-21.05-99.21-21.82m-50.391 155.782c-11.81.33-23.25 6.328-30.069 17.047L293.19 632.58c-10.91 17.16-5.84 39.9 11.31 50.81a36.63 36.63 0 0 0 19.71 5.75h.01c12.17 0 24.08-6.03 31.09-17.06l135.13-212.54c10.91-17.16 5.84-39.9-11.31-50.81a36.64 36.64 0 0 0-20.741-5.738" style="fill:#fff"/>
</svg>
