<svg xmlns="http://www.w3.org/2000/svg" viewBox="0 0 1024 1024">
   <circle cx="512" cy="512" r="512" style="fill:#ff195b"/>
   <path d="M486.8 783.47c-46.34-4.78-87.45-19.44-125.92-44.9-7.23-4.79-13.41-9.14-13.74-9.67-.78-1.23-1.04-1.36 10.97 4.8a222 222 0 0 0 76.7 23c12.81 1.45 40.23 1.24 53.17-.43 37.63-4.78 71.5-17.86 98.51-38.04 7.87-5.88 22.15-19.58 28.58-27.43 31.58-38.5 41.88-93.46 26.34-140.45-6.6-20.01-17.3-37.1-33.02-52.82-11.56-11.55-22.08-19.2-35.64-25.9-21.83-10.8-41.58-15-66.25-14.1-35.7 1.28-67.32 15.32-92.31 40.97-19.03 19.52-30.62 41.3-36.52 68.62-1.65 7.63-1.9 11.2-1.88 26.83.02 19.87 1.19 27.81 6.3 43.19 15.54 46.6 55.4 81.5 104.1 91.11 7.67 1.51 12.43 1.86 25.62 1.9 18.52.06 18.53-.02-.52 5.55-50.94 14.92-101.7 11.19-145.65-10.72a197 197 0 0 1-33.54-20.72c-11.85-8.89-31.12-27.78-39.81-39.04-27.56-35.67-44.54-76.27-50.9-121.66-2.05-14.7-2.03-49.77.05-64.9 6.8-49.63 24.03-91.99 53.02-130.4 45.49-60.26 112.09-98.19 187.73-106.9 15.47-1.78 43.98-1.78 59.54 0 72.15 8.23 137.8 44.41 182.79 100.73 54.87 68.69 73.07 158.1 49.57 243.55-8.96 32.58-27.9 69.42-49.51 96.36-44.26 55.14-106.57 90.35-177.4 100.23-11.28 1.57-49.46 2.34-60.38 1.21z" style="fill:#fff"/>
</svg>
