<svg xmlns="http://www.w3.org/2000/svg" viewBox="0 0 1024 1024">
   <circle cx="512" cy="512" r="512" style="fill:#17541f"/>
   <path d="M389.06 749.49c-2.61-12.308-7.77-37.049-8.454-37.049-109.84-65.706-96.85-179.46-60.484-244.55 7.77 81.931 152.8 138.5 68.255 238.64-.684 1.243 3.854 16.908 7.77 31.206 16.908-28.595 42.271-63.033 40.903-66.328-104-253.56 221.11-273.02 288.68-430.42 30.522 152.17-15.603 387.59-276.94 447.39-1.243.684-47.43 81.931-49.419 82.614 0-1.243-19.519-.684-16.908-7.149 1.43-3.978 3.979-9.138 6.59-14.36zm-3.232-61.106c33.133-38.417-5.844-104.06-29.28-125.51 39.66 68.255 37.05 107.91 29.28 125.51" style="fill:#fff"/>
</svg>
