<svg xmlns="http://www.w3.org/2000/svg" viewBox="0 0 1024 1024">
   <circle cx="512" cy="512" r="512" style="fill:#0096fa"/>
   <path d="M280.02 790.64c0 8.484 6.878 15.362 15.362 15.362h92.276c8.484 0 15.362-6.878 15.362-15.362v-83.923c39.077 23.969 85.051 37.781 134.25 37.781 142.08 0 257.25-115.16 257.25-257.25 0-142.08-115.16-257.25-257.25-257.25-60.443 0-115.95 20.896-159.88 55.783l-31.344-48.727a15.345 15.345 0 0 0-12.929-7.056h-37.752c-8.484 0-15.362 6.877-15.362 15.362v545.27h.019zm257.27-169.16c-74.142 0-134.25-60.105-134.25-134.25s60.105-134.25 134.25-134.25c74.142 0 134.25 60.105 134.25 134.25s-60.105 134.25-134.25 134.25z" style="fill:#fff"/>
</svg>
