<svg xmlns="http://www.w3.org/2000/svg" viewBox="0 0 1024 1024">
   <circle cx="512" cy="512" r="512" style="fill:#c00"/>
   <path d="M203.72 442.83c-4.35.7-8.66 1.52-12.95 2.45-2.84.61-5.68 1.17-8.49 1.89-2.59.66-5.24 1.24-7.78 2.05-2.45.78-4.87 1.58-7.27 2.51-4.67 1.83-9.09 4.41-12.93 7.64-2.35 1.99-4.55 4.14-6.39 6.64-1.3 1.78-2.38 3.62-3.43 5.57-.98 1.85-1.66 4.04-1.68 6.16-.03 6.24 3.91 11.46 8.44 15.34 1.49 1.27 3.08 2.44 4.68 3.55 4.77 3.31 9.96 6.22 15.23 8.76 5.44 2.6 10.92 5.11 16.47 7.49 5.24 2.24 10.6 4.14 16.01 5.95 1.56.52 3.13 1.03 4.68 1.55 4.9 1.64 9.91 3.16 14.78 4.93 3.02 1.1 6.26 2.13 9.28 3.51 3.15 1.43 6.41 2.86 9.18 4.91 1.86 1.35 3.47 3.04 4.65 5.01 1.17 1.94 1.89 4.17 1.94 6.44.07 2.18-.56 4.3-1.72 6.15-3.04 4.78-8.33 8.05-13.44 10.22a218.42 218.42 0 0 1-23.38 8.39c-4.53 1.34-9.06 2.66-13.63 3.85-4.58 1.2-9.25 2.46-13.88 3.63-4.62 1.17-9.23 2.22-13.86 3.23-2.65.57-5.33 1.13-7.96 1.68-1.59.32-3.15.66-4.73 1-3.31.73-6.63 1.45-9.96 2.16-3.79.84-7.58 1.66-11.36 2.49-1.1.24-2.2.54-3.3.78-.98.23-4.65 1.08-1.93.92 3.79-.21 13.9-1.1 35.5-4.01 7.83-1.3 15.69-2.42 23.53-3.71 9.77-1.6 19.48-3.49 29.11-5.79 2.76-.65 5.5-1.35 8.23-2.11 1.81-.51 3.6-1.03 5.38-1.59 7.57-2.36 19.73-6.53 22.6-7.79 10.99-4.84 17.84-8.48 21.41-17.15 1.22-3.08 1.79-6.53 1.42-9.83-.37-3.03-1.39-6.09-2.96-8.7-1.51-2.51-3.57-4.66-5.72-6.64-4.01-3.67-8.5-6.64-13.31-9.15-1.35-.71-2.74-1.39-4.14-2.03-1.74-.8-3.48-1.56-5.24-2.3-2.48-1.04-4.99-1.94-7.52-2.81-6.59-2.27-13.29-4.29-19.92-6.47-3.75-1.23-7.47-2.57-11.09-4.11a88.95 88.95 0 0 1-4.55-2.06c-1.76-.85-3.47-1.79-5.16-2.8-2.08-1.26-5.48-3.43-4.53-6.38.66-2.11 2.94-2.92 4.8-3.68 1.72-.7 3.55-1.19 5.34-1.66 5.48-1.41 11.07-2.37 16.6-3.55 1.62-.35 3.25-.7 4.87-1.08 4.31-1.01 8.76-1.78 12.87-3.41 3.53-1.39 8.06-3.63 9.38-7.52 1.89-5.67-.25-11.8-3.35-16.59a141.8 141.8 0 0 0-3.45-5.08c-1.62-2.28-3.42-4.43-5.17-6.6-.79-.99-1.76-.91-2.57-.66-1.08.37-4.04 3.85-27.66 8.39m358.56 56.77.32-.74.37-.64.32-.59.32-.51.22-.5.23-.37.19-.36.23-.23.58-1 .34-.6.41-.59.86-1.47.53-.79.54-.82.13-.14.18-.05.41.14.2.13.27.32.54.78.56 1.05.62 1.43.66 1.7.73 2.06.13.36.24.6.31.78.42 1 .05.19.08.23.14.46.1.36.08.37v.27l.05.28-.05.08v.37l-.27.36-.19.23-.46.19-.61.19-.76.09h-.47l-.45.04-4.5.36h-.86l-.68.05h-.71l-.54.04-.56-.04h-1.05l-.51-.09-.32-.09-.27-.18-.15-.24-.13-.32.07-.31.07-.42.24-.46.34-.59.3-.51.27-.46.27-.37.2-.36.19-.28.08-.27.13-.14m-28.79 21.67s.65.17.65.18c2.45.7 3.65 2.36 1.78 4.52-.59.7-1.07 1.47-1.54 2.22l-.41.68c-.41.68-.71 1.31-.78 2.11l.03.42c.12 1.11 1 2.29 1.54 3.24 1.13 1.95 2.32 3.68 3.64 5.46.2.29 3.09-4.51 3.28-4.78 1.03-1.44 2.23-2.71 3.3-4.12 1.33-1.77 2.79-3.44 4.72-4.56 1.93-1.13 4.14-1.58 6.36-1.82 2.2-.25 4.39-.35 6.58-.46 4.49-.24 8.96-.75 13.42-1.18 1.72-.17 4.28-.6 5.83.25 1.5.82 2.65 2.24 3.82 3.46 1.4 1.48 2.77 2.99 4.09 4.54 1.57 1.83 2.97 3.78 4.71 5.47 1.1 1.08 2.23 2.03 3.48 2.94l.64.41c2.21 1.11 3.77-.34 4.24-2.59.68-3.32-1.2-6.55-2.74-9.35-.83-1.51-1.64-3.11-2.33-4.69-.61-1.31-1.22-3.32-.13-4.57.84-.95 2.58-1 3.73-1.31 1.37-.36 2.71-.78 4.08-1.06 2.74-.56 5.46-1.3 8.25-1.66 1.56-.19 4.11-1.34 5.45.02 1.76 1.77.08 5.1-.59 6.99-1.1 3.15-2.21 6.42-2.57 9.77-.31 3.04.44 6.31 2.36 8.74 1.42 1.79 3.81 3.32 6.04 2.03 1.78-1.04 3.08-3.26 3.87-5.1 1.49-3.52 2.52-7.17 3.7-10.79 1.06-3.26 2.17-6.52 3.38-9.74.89-2.35 1.93-4.66 2.83-7 .57-1.52 1.37-2.94 2-4.44.51-1.27.68-2.92 1.93-3.71 1.52-.95 3.4 1.81 4.13 2.77 1.38 1.8 2.62 3.69 3.89 5.56 1.4 2.03 2.67 4.72 4.94 5.87 3.91 2.01 7.41-2.69 9.6-5.21 1.52-1.72 3.06-3.5 4.63-5.22 1.67-1.85 3.38-3.69 5.04-5.54 1.08-1.18 2.5-3.51 4.27-3.54 1.54-.03 1.9 1.66 2.03 2.87.68 5.77.93 11.65 1.79 17.44.34 2.15.76 4.29 1.13 6.43l.54 3.02c.27 1.44.56 2.87.86 4.3.66 2.97 1.36 5.93 2.25 8.83.79 2.46 1.81 5.12 3.84 6.85 2.42 2.05 6.85 1.36 8.4-1.5.32-.6.46-1.33.59-2 .27-1.42.13-2.91.02-4.34-.41-5.1-1.82-10.08-1.91-15.22-.01-2.12.15-4.23.32-6.34.35-4.93.98-9.84 1.25-14.78.34-6.04.88-12.42-.86-18.3-.49-1.69-1.18-3.32-2.08-4.83-.77-1.35-1.75-2.62-2.82-3.74-1.13-1.18-2.37-2.22-3.8-2.99-1.35-.74-3.11-1.32-4.65-1.4-3.7-.19-7.54 1.87-10.43 4.02-2.47 1.83-4.7 3.91-6.81 6.13-3.75 3.99-7.52 8.11-10.86 12.49-.96 1.28-2.13 3.58-4.07 3.34-2.3-.3-3.52-3.77-4.23-5.6-.69-1.74-1.47-3.41-2.27-5.1-1.05-2.13-2.11-4.24-3.11-6.4-.83-1.79-1.68-3.65-2.96-5.15-1.47-1.71-3.36-2.54-5.46-3.23-1.49-.49-3.6-1.11-5.05-.24-1.95 1.17-1.57 4.09-1.69 5.98-.12 1.69-.3 3.33-.46 5.02-.42 4.08-.67 8.28-1.59 12.29-.41 1.78-.99 4.01-2.52 5.15-1.18.88-2.67.76-4.04.82-1.12.05-2.25.02-3.38-.02-2.57-.06-5.14-.16-7.71-.09-2.2.07-4.41.2-6.62.29-1.96.09-3.94.28-5.92.28-2.21.13-4.92.48-7-.5-1.64-.78-2.52-2.56-3.25-4.13-1.05-2.24-2.38-4.34-3.63-6.47-1.13-1.9-2.23-3.81-3.38-5.7-1.66-2.71-3.3-5.42-4.99-8.11-1.1-1.78-2.25-3.54-3.43-5.27-.96-1.4-2.18-3.29-3.87-3.87-1.55-.54-3.07.48-3.4 2.02-.22 1 .02 2.02-.19 3.02-.22 1.06-.64 2.1-1.08 3.09-.86 2-2.01 3.85-3.18 5.68-3.92 6.1-6.85 12.88-10.35 19.22-.66 1.18-1.36 2.34-2.02 3.53-.89 1.66-1.48 3.02-3.45 3.55-1.76.46-3.65.23-5.43.67-2.2.55-2.84 2.44-3.21 4.5-.31 1.74-.35 3.51-.63 5.27-.2 1.27-.51 2.69-.38 3.97Zm-239.73 35.74c-1.81.06-3.6.4-5.39.3-2.1-.12-3.42-1.39-4.19-3.25-.91-2.23-1.44-4.74-2-7.08-.51-2.21-.91-4.38-.68-6.64.15-1.23.34-2.12 1.34-2.97 1.57-1.3 3.77-.45 5.43-1.38 1.49-.84 1.98-2.66 2.11-4.24.24-2.66-.05-5.5-.19-8.17-.41-6.85.05-13.83-.81-20.64-.19-1.57-.69-3.37-2.44-3.84-3.45-.92-3.48-4.34-3.7-7.3-.14-1.85-.15-4.03.59-5.77 1-2.38 3.65-3.62 5.98-4.34 2.27-.7 4.57-1.34 6.86-1.97 2.33-.64 4.75-.98 7.14-1.39 2.45-.41 4.9-.77 7.37-1.15 2.4-.38 4.8-.71 7.24-.97 2.27-.25 4.55-.53 6.83-.67 2.67-.16 5.38-.32 8.05-.42 2.4-.1 4.8-.05 7.19-.03s4.75.12 7.12.19c2.43.09 4.9.29 7.3.62 3.5.47 6.83 1.08 9.84 3.05 3.13 2.07 5.21 6.31 2.11 9.44-3.13 3.17-8.17 2.65-12.22 2.65-3.33 0-6.64.08-9.98.18-3.2.1-6.39.43-9.6.63-2.98.19-5.93.4-8.93.63-3.08.24-6.17.53-9.25.84-2.45.24-4.92.47-7.34.92-2.03.37-4.41.74-5.97 2.22-1.15 1.11-1.2 2.96-.73 4.4.93 2.79 5.16 2.09 7.39 2.03 5.07-.15 10.1-.99 15.15-1.33 2.33-.16 4.65-.24 6.96-.38 2.81-.17 5.6-.26 8.42-.13 2.47.12 4.89.41 7.3.91 2.96.62 5.72 1.76 8.44 3.02 3.48 1.21 2.92 5.61 2.35 8.44-.3 1.49-.79 2.8-2.13 3.63-3.04 1.88-7.35 1.4-10.75 1.49-3.35.1-6.71.39-10.04.7-5.26.5-10.52 1.02-15.76 1.67-3.21.41-6.42.96-9.64 1.3-2.16.23-5.01.02-6.78 1.55l-.32.28-.24.14-.17.32-.2.42c-.24 1.35-1.62 5.81-.24 6.87l.29.13h.46c1.76 0 3.5-.09 5.26-.17 2.67-.12 5.34-.23 8.03-.44 5.14-.42 10.28-.85 15.42-1.29 3.35-.3 6.8-.48 10.18-.79 5.07-.45 10.14-.72 15.22-.93 3.08-.13 6.04-.08 8.93-1.35 3.35-1.5 6.12-4.12 9.4-5.82 4.14-2.14 8.39-4.05 12.58-6.07 5.14-2.48 10.16-5.33 15.39-7.63 4.02-1.77 8.06-3.52 12.09-5.28 1.94-.85 3.94-1.64 5.8-2.7 1.29-.75 4.62-2.38 3.77-4.4-.44-1.05-1.77-1.2-2.76-1.32-3.85-.46-13.52.25-19.44 1.17-9.59 1.68-10.92 2.93-13.59.29-2.03-2.17-1.52-5.24-1.22-7.93.3-2.76 1.62-6.95 2.55-7.99 2.77-3.64 11.92-4.06 16.18-4.37 2.2-.16 4.43-.23 6.64-.24 3.11-.02 6.2.19 9.3.19 2.69.12 5.36.29 8.03.56 3.04.3 6.37.38 9.33 1.33.96.31 1.93.63 2.84 1.07 3.06 1.43 5.85 3.3 7.93 5.97 1.24 1.58 2.05 3.4 2.45 5.35.2.94.34 1.86.2 2.81-.1.7-.3 2.11-.74 2.66l-.19.24c-.42.93-1.24 1.77-1.98 2.44-3.62 3.18-8.89 4.34-13.25 6.14-2.16.9-4.29 1.93-6.42 2.9-5.99 2.73-11.92 5.57-18.02 8.05-5.02 2.05-10.03 4.16-14.84 6.67-1.32.7-3.25 1.68-4.04 3.03-.79 1.42.93 1.41 2.04 1.44 1.22.04 2.45-.03 3.69-.12 3.7-.3 7.41-.65 11.12-1.06 3.79-.42 7.61-.76 11.4-1.24 3.57-.46 7.13-.92 10.68-1.31 3.89-.41 7.68-.56 11.57-.56 3.91 0 7.71.05 11.57.69l.57.09 1.01.05c1.62 0 3.33-.22 4.16-1.85 1.35-2.64 2.13-5.83 3.11-8.62 1.25-3.63 2.55-7.25 3.85-10.86.17-.5.36-1 .54-1.5 1.49-4.08 2.94-8.18 4.56-12.22.64-1.63 1.32-3.25 1.84-4.93.39-1.26.57-2.54 1.17-3.74.98-1.93 2.76-3.17 4.75-1.77 1.61 1.13 2.71 3.1 3.64 4.81.96 1.8 1.79 3.59 2.25 5.6.46 2.02-.03 3.81-.64 5.75-.63 1.99-1.44 3.96-1.96 5.98-1.13 4.34 3.13 7.84 6.41 9.81 2.96 1.79 6.36 3 9.54 4.35 2.38 1 4.77 2.06 7.28 2.56 1.51.29 3.42.59 4.75-.36 2.16-1.57 2.82-4.64 3.55-7.06.88-2.98 1.54-6.03 2.2-9.06.57-2.51.96-5.06 1.23-7.63.22-2.02.41-4.05.53-6.07.13-2.63-.07-5.17-.1-7.78 0-1.69.3-3.88 1.49-5.2 1.52-1.74 4.16-.85 5.44.81.03.03.47.6.47.6.78 1.32 1.35 2.76 1.79 4.23.76 2.64 1.19 5.35 1.46 8.07.23 2.25.39 4.5.47 6.75.27 7.79-.27 15.59-1.32 23.3-.57 4.16-1.49 8.21-2.36 12.3-.51 2.25-.9 4.56-1.86 6.68-.64 1.39-1.54 2.73-2.56 3.86-.49.55-1.03 1.01-1.64 1.4-2.11 1.33-4.87 1.28-7.27 1.04-3.35-.31-6.56-1.18-9.7-2.33-2-.72-3.92-1.5-5.83-2.4-1.94-.93-3.91-1.86-5.78-2.92a61.812 61.812 0 0 1-5.5-3.52c-1.69-1.19-3.34-2.52-4.78-4-1.27-1.3-2.21-2.98-3.4-4.36-1.27-1.45-2.25-1.94-3.08.06-.51 1.3-.78 2.67-1.08 4.04-.51 2.39-1.22 4.76-1.96 7.1-.71 2.31-3.77 8.72-7.1 5.73-1.08-.96-1.86-2.21-3.48-2.19-1.66.02-3.23.7-4.83 1.06-1.69.38-3.45.58-5.17.93-3.26.67-6.53 1.43-9.77 2.08-2.16.42-4.33.73-6.48 1.1-2.08.35-4.18.62-6.27.94-2.16.32-4.31.67-6.46.92-3.38.42-6.74.83-10.11 1.18-2.7.36-5.39.62-8.08.94-2.25.25-4.48.48-6.73.7-3.77.36-7.51.69-11.29.82-5.7.2-11.6.54-17.21-.59-1.25-.25-3.11-.4-4.06-1.33-.67-.66-.13-1.79-.64-2.56l-.08-.14-.22-.24-.2-.14-.22-.09h-.45l-.24.09-.27.09-.24.19-.47.33-.3.36-.24.42-.14.46c-1.22 3.93-5.34 5.41-9.09 5.89l-60.04 7.08m560.5-30.49c-7.88.57-15.3 1.9-23.3 1.14-2.58-.25-7.03-.47-9.21-1.89-6.39-4.21 16-11.71 18.75-12.69 7.76-2.77 23.4-7.29 23.4-7.29s14.69-3.65 15.13-11.57c.54-9.6-9.34-13.95-16.89-16.35-3.15-.7-6.24-1.23-9.44-1.56-2.14-.22-4.33-.31-6.49-.39-4.07-.14-8.05.25-12.11.74-4.16.5-13 .76-14.28 5.99-.65 2.66-3.66 8.15-1.14 10.56 2.67 2.56 7.02 1.5 10.3 1.17 4.53-.45 9.01-1.29 13.52-1.74 3.33-.33 7.68-1.07 10.42 1.38 3.36 3.03-5.56 5.91-7.34 6.67-6.74 2.87-13.79 4.94-20.56 7.75-6.34 2.64-12.7 5.17-18.89 8.13-2.84 1.35-5.49 3.02-8.16 4.64l-1.29-.88-7.79.83-7.81.64c-5.22.43-10.52.58-15.76.83-2.62.09-6.73.2-8.79-1.76-4.51-4.28-2-10.22.98-14.36 3.26-4.51 7.84-7.85 12.54-10.68 3.16-1.9 6.66-3.46 10.21-4.53 2.4-.73 4.89-1.33 7.39-1.7.35.69.76 1.39 1.15 2.06.2.39 6.04-2.06 6.59-2.35 1.79-.93 4.29-2.8 4.35-5.05.08-2.75-2.28-5.49-4.43-6.86-2.4-1.53-5.12-2.04-7.95-2.06-3.06-.04-6.14.14-9.15.54-2.13.29-4.22.76-6.3 1.36a47.368 47.368 0 0 0-9.86 4.12c-4.16 2.32-8.22 5.44-11.48 8.9a31.623 31.623 0 0 0-4.13 5.43c-1.5 2.48-2.6 5.23-3.48 8-2.38 7.65-1.66 17.18 1.8 24.4 2.36 4.96 6.04 9.27 10.73 12.16 5.92 3.64 13.41 4.85 20.19 3.54 2.84-.53 5.36-1.28 7.98-2.34 2.77-1.13 5.48-1.95 8.07-3.45.51-.27 6.04-3.44 6.35-3.02.86 1.13 1.37 2.5 2.3 3.58.9 1.04 2.03 1.99 3.11 2.8 2.28 1.71 4.87 2.39 7.66 2.72 6.98.84 14.07 1.26 21.1 1.36 5.61.08 11.29-.31 16.87-.83 3.62-.34 7.24-.81 10.84-1.25 9.16-1.13 16.74-3.16 26.66-7.45 4.68-2.21 7.59-5.04 9.38-7.14-1.05-.66-2.26-1.24-3.42-1.7-7.22-2.9-15.45-3.02-23.13-2.04-3.54.45-7.07.79-10.6 1.11-1.54.14-3.08.26-4.61.37m-122.27 8.21c.08-1.34-.07-2.69-.46-3.73-1.03-2.71-3.89-5.45-6.73-5.98-2.57-.46-5.67.03-7.76 1.67-1.13.9-2.36 2.34-2.96 3.69-1.3 2.95-1.17 7.33.74 9.94 3.23 4.42 10.06 4.42 13.86.84 1.83-1.71 3.11-3.89 3.3-6.43" style="fill:#fff"/>
</svg>
