<svg xmlns="http://www.w3.org/2000/svg" viewBox="0 0 1024 1024">
   <circle cx="512" cy="512" r="512" style="fill:#ba1824"/>
   <path d="M512 240c150.121 0 272 121.879 272 272S662.121 784 512 784 240 662.121 240 512s121.879-272 272-272m-51.51 118.93a184.4 184.4 0 0 0 48.975 7.929c1.229 0 1.554-.279 1.662-1.554.749-23.042 1.538-46.085 2.38-69.12 0-1.12-.232-1.553-1.414-1.862a6.345 6.345 0 0 0-7.163 2.534 350.6 350.6 0 0 0-42.153 54.988c-.997 1.553-1.893 3.106-2.967 4.659-1.073 1.551-1.12 2.332.68 2.426m294.717 40.658-.007-.012a165 165 0 0 0-9.697-19.148 266.6 266.6 0 0 0-31.953-45.151 21 21 0 0 0-1.985-2.001 114 114 0 0 1 10.509 17.301c.456.843.85 1.723 1.182 2.628a28.9 28.9 0 0 0 7.039 11.567 185.5 185.5 0 0 1 24.511 35.128l.014-.01.195.389.448-.17a.405.405 0 0 0-.239-.518q-.01 0-.017-.003M510.24 281.702c-.88-.45-1.142-1.431-1.625-2.192a112.9 112.9 0 0 0-20.732-24.867 14.12 14.12 0 0 0-13.77-3.408 153 153 0 0 0-37.802 13.585l-1.8 1.028c-.093 0-.139.216-.309.494 4.443.232 8.793.387 13.152.858a179.3 179.3 0 0 1 50.636 13.569c2.288.951 4.521 1.955 6.777 2.952.124 0 .263.185.356.139 1.759-.594 3.75-.648 5.117-2.158m.146-.032c1.935.557 3.965.718 5.964.451.966 0 1.214-1.476 1.677-2.349a141 141 0 0 1 10.726-17.487 53.9 53.9 0 0 1 12.309-12.618 197.2 197.2 0 0 0-53.666-.526c1.832 1.646 3.578 3.029 5.131 4.66a96.8 96.8 0 0 1 15.385 22.224c.827 1.553 1.553 3.013 2.38 4.551.147.324.666.711.094 1.094m-.146.032.052.025.016.008.007-.008-.002-.012.073-.045-.084-.025-.002-.01-.007.008zm38.58-35.157a269.7 269.7 0 0 0-69.553-.572c2.079.711 4.312.858 6.468.433a224.7 224.7 0 0 1 58.859.827 8.7 8.7 0 0 0 4.226-.688M285.976 658.243a167.5 167.5 0 0 1-11.219-24.152 52.5 52.5 0 0 0-7.526-14.906 103 103 0 0 1-5.486-8.987c-.163.897 0 1.816.479 2.597a238 238 0 0 0 15.732 32.423 1700 1700 0 0 0 6.762 11.483c.335.548.505 1.285 1.258 1.542m.011.059c-.138.27.074.355.299.439h.186zm-.01-.058.031.01-.031-.015zm-.001-.001.001.003v-.002zm.001.05.01.009a1 1 0 0 1 .052-.087zm354.06-381.322.035.019v-.007zm0 0a256.6 256.6 0 0 0-81.086-28.796 13.1 13.1 0 0 0-5.44.433c5.919 1.198 11.22 2.38 16.474 3.841a147 147 0 0 1 36.311 15.076 16.5 16.5 0 0 0 6.143 1.445 107 107 0 0 1 25.771 7.364c.576.288 1.204.427 1.827.637M756.02 401.786l.123.433h.17l-.263-.387zm0 0c.154-.263 0-.433-.186-.556l-.185.108c0 .247.077.448.371.448M644.847 695.67l-6.73 2.07a425 425 0 0 1-116.041 17.286c-1.707 0-2.333.356-2.38 2.195-.324 15.4-.826 30.778-1.986 46.132-.092 1.275.217 1.553 1.554 1.553a357.2 357.2 0 0 0 100.562-15.54 7.02 7.02 0 0 0 3.702-2.673 113.6 113.6 0 0 0 16.598-33.305c1.8-5.687 3.338-11.436 4.721-17.703zM388.232 274.44l-.556.186c.294.324.448.201.541-.155zm14.427 209.518c-6.012 18.885-11.204 37.972-15.339 57.367a663 663 0 0 0-5.826 30.886c-.278 1.692.155 2.256 1.661 2.704a430 430 0 0 0 42.585 10.88 458.7 458.7 0 0 0 78.085 8.64c1.692 0 2.302-.186 2.333-2.087.487-30.855 1.043-61.718 1.662-92.573 0-1.862-.449-2.271-2.21-2.287a370.7 370.7 0 0 1-72.057-8.67c-9.234-2.055-18.376-4.489-27.37-7.395-2.844-.919-2.38-1.089-3.292 1.677-.093.325-.155.587-.232.858m221.889-2.373c-.557.14-1.028.217-1.553.356a352.5 352.5 0 0 1-101.027 15.733c-1.414 0-1.831.293-1.8 1.769.456 31.141.687 62.274.687 93.415 0 1.553.418 1.801 1.801 1.77a428 428 0 0 0 119.433-18.291c3.825-1.197 3.84-1.167 3.245-5.162a584 584 0 0 0-20.315-87.851c.016-.572-.263-1.136-.464-1.739zM378.875 679.96a423.3 423.3 0 0 0 87.179 17.935 476 476 0 0 0 37.067 2.349c1.445 0 1.832-.263 1.847-1.739q.338-41.045.827-82.079c0-1.754-.842-1.553-1.986-1.646a463 463 0 0 1-69.198-6.761 392 392 0 0 1-54.245-13.368c-1.383-.448-1.893-.34-2.071 1.213a380.3 380.3 0 0 0-.796 81.94q.201 1.8 1.368 2.164zm7.101-404.631.51-.324-.526.278zm1.043-.618c.294.309.495.324.572-.155l-.572.139zm-99.241 214.81a192 192 0 0 0-7.882 21.838 2.74 2.74 0 0 0 .734 3.106 182.8 182.8 0 0 0 39.633 32.037 273.4 273.4 0 0 0 46.147 22.463c1.739.65 1.94.14 2.21-1.414a521 521 0 0 1 14.234-60.149c2.875-9.589 5.842-19.132 9.327-28.521.587-1.553.247-2.21-1.337-2.813a208 208 0 0 1-54.879-30.198A124.5 124.5 0 0 1 320 431.103c-1.166-1.306-1.553-1.028-2.38.247a311 311 0 0 0-25.02 45.73c-1.739 4.088-3.215 8.3-4.822 12.449zm128.914-45.026c-1.878 4.868-3.702 9.744-5.687 14.565-.688 1.646-.248 2.226 1.336 2.736a321 321 0 0 0 46.99 10.973 380 380 0 0 0 47.005 4.288c1.692 0 1.97-.494 1.986-2.001.688-29.348 1.414-58.689 2.194-88.037 0-1.553-.231-2.194-1.986-2.225a208.3 208.3 0 0 1-57.784-9.404c-1.399-.433-1.862 0-2.488 1.105a535 535 0 0 0-20.501 41.433c-3.917 8.747-7.696 17.58-11.05 26.567zm-24.449 9.921c2.658 1.028 4.659 1.739 6.607 2.581 1.074.479 1.553.217 1.908-.857a550 550 0 0 1 11.375-26.42 534 534 0 0 1 26.419-50.204c1.09-1.816 2.087-3.717 3.292-5.44.92-1.275.479-1.661-.749-2.133a130.4 130.4 0 0 1-20.547-9.868 87.3 87.3 0 0 1-20.207-15.98c-1.105-1.213-1.692-.996-2.766-.154a363.3 363.3 0 0 0-52.925 49.941c-4.474 5.178-8.778 10.494-12.981 15.903a1.726 1.726 0 0 0-.194 2.434c.101.116.209.216.34.301a144.6 144.6 0 0 0 32.501 25.879 209 209 0 0 0 27.919 14.017zm187.293-78.787c-.602-.263-1.027 0-1.476.17a206.4 206.4 0 0 1-58.271 9.064c-1.553 0-1.847.417-1.8 1.94a5927 5927 0 0 1 1.955 88.469c0 1.353.262 1.863 1.8 1.832a335.1 335.1 0 0 0 94.69-14.752c1.275-.402 1.553-.827 1.074-2.086a581.4 581.4 0 0 0-37.16-83.323c-.278-.479-.572-.935-.812-1.322zm68.51 219.571-1.336.386a408 408 0 0 1-79.36 16.521c-14.643 1.553-29.317 2.565-44.045 2.72-1.8 0-2.349.433-2.349 2.318q-.002 40.742-.781 81.507c0 1.368.279 1.723 1.646 1.693A437.5 437.5 0 0 0 644.7 681.444a4.09 4.09 0 0 0 3.354-4.026 366 366 0 0 0 1.074-74.406 224 224 0 0 0-.572-6.545c-.061-.417.124-.966-.51-1.275zm-267.804 99.643c.078 1.8.371 3.585.889 5.316a132.4 132.4 0 0 0 16.861 43.52 12.67 12.67 0 0 0 7.457 5.749 360.8 360.8 0 0 0 73.532 13.987c8.114.734 16.259 1.12 24.388 1.383 1.476 0 1.769-.294 1.754-1.739a5379 5379 0 0 1-.248-45.977c0-1.692-.417-2.133-2.132-2.179a449 449 0 0 1-79.498-8.848 363 363 0 0 1-39.386-10.215c-1.152-.34-2.319-.634-3.624-1.013zm279.133-124.371a228.8 228.8 0 0 0 77.898-46.224c2.627-2.488 5.023-5.224 7.604-7.774a3.13 3.13 0 0 0 .827-3.454 289.3 289.3 0 0 0-29.333-68.386c-2.596-4.428-5.332-8.763-8.129-13.369-2.859 3.03-5.502 5.92-8.377 8.593a172 172 0 0 1-42.917 28.63 256 256 0 0 1-19.851 8.5c-1.028.371-1.553.664-1.074 1.97a521.5 521.5 0 0 1 23.127 90.927c.055.201.124.394.217.572zm-30.276-224.5c-.572-.325-.78.293-1.059.603a104.5 104.5 0 0 1-40.112 25.708c-1.476.572-1.816.92-.888 2.442a525.6 525.6 0 0 1 40.769 81.801c.355.935.463 1.739 1.908 1.182a186.3 186.3 0 0 0 54.771-31.087 133 133 0 0 0 10.787-10.385c1.136-1.213 1.09-1.971.124-3.246a353.6 353.6 0 0 0-53.797-56.857c-3.748-3.106-7.635-6.22-11.452-9.327-.325-.309-.649-.541-1.059-.842zM298.07 364.765c-3.593 3.624-6.73 7.302-9.79 11.034a201.5 201.5 0 0 0-30.554 51.294 65.6 65.6 0 0 0-3.454 35.344 92.44 92.44 0 0 0 18.183 41.967c.208.216.44.417.687.587 1.152-3.485 2.226-6.823 3.369-10.13a285.6 285.6 0 0 1 35.654-69.661 2.78 2.78 0 0 0 0-3.856 72.9 72.9 0 0 1-14.999-48.435c.139-2.596.619-5.285.904-8.144m230.652-83.347-.016-.015a23.4 23.4 0 0 1 4.869-1.878 165 165 0 0 1 31.086-9.172 146 146 0 0 1 26.922-2.859c.526-.016 1.105.185 1.692-.34a121.6 121.6 0 0 0-24.062-10.88 194 194 0 0 0-19.458-5.178 6.02 6.02 0 0 0-4.837.827 68.9 68.9 0 0 0-16.583 15.2 162 162 0 0 0-10.022 13.754c-.749 1.113-.595 1.414.634 1.94a6.225 6.225 0 0 0 7.024-.371 2.7 2.7 0 0 1 2.272-.556 11 11 0 0 1-3.779 1.553c-1.19.201-2.202.803-.649 2.001a3.106 3.106 0 0 1 1.074 4.088c-.541 1.259.186 1.337 1.012 1.553a306 306 0 0 1 35.623 12.031 323.4 323.4 0 0 1 51 26.034c1.461.919 2.202.919 3.199-.634a36.4 36.4 0 0 0 6.221-25.786 2.496 2.496 0 0 0-1.986-2.411 291 291 0 0 0-68.634-12.263 315 315 0 0 0-19.086-.556 1.8 1.8 0 0 1-1.847-.572 288.4 288.4 0 0 1 89.791 10.231c.332-.874-.201-1.569-.495-2.272a57.23 57.23 0 0 0-21.945-24.867 3.9 3.9 0 0 0-2.349-.463 176.1 176.1 0 0 0-59.315 9.852c-.811.271-1.568.471-2.364.719l-4.822 1.816zm.655 5.801a.595.595 0 0 1 .813-.106v.325c-.309.075-.639.136-.813-.219m-.028.037.014-.066.014.029-.014.018zm-.983-.035c.364-.309.688-.031.982.031.002 0-.01.018-.025.039-.087.118-.036.05 0 0l.026-.035c-.152.628-.56.135-.859.135a8 8 0 0 1-.734.109l-.108-.279zm-1.46.294h-.016c-.03.062-.216.031-.324.031l-.216-.278a1.7 1.7 0 0 1 .34-.078c.216.016.355.124.216.325M364.438 674.842a283 283 0 0 1-2.084-25.644 361 361 0 0 1 2.704-57.151c.093-.284.14-.581.14-.879a2.84 2.84 0 0 0-2.358-2.792 255 255 0 0 1-63.054-33.76 167.7 167.7 0 0 1-24.063-21.683c-.216-.247-.463-.479-1.012-1.012-.688 3.964-1.399 7.634-1.971 11.313a208.6 208.6 0 0 0 .812 72.118 6.8 6.8 0 0 0 1.692 3.385 186.1 186.1 0 0 0 41.14 33.088 286.6 286.6 0 0 0 46.943 22.695c.307.108.569.169 1.111.322m0 0 .002.018.008-.015zm42.235-378.519c6.945-1.8 13.582-3.384 20.296-4.658a294.2 294.2 0 0 1 72.119-4.66c3.4.185 3.4.17 5.625-2.658a201 201 0 0 0-19.928-7.117 186.5 186.5 0 0 0-42.74-7.774c-2.256-.139-4.536 0-6.761-.278a13.98 13.98 0 0 0-11.529 3.918 51.35 51.35 0 0 0-17.082 23.227m0 0-.003.001v.008zm348.76 104.456.216-.114a.404.404 0 0 0-.155-.548s-.008 0-.015-.008l-.449.17.322.537-.043.019.34.495.216-.124a.375.375 0 0 0-.155-.502c-.015-.008-.038-.015-.061-.023zM614.989 760.301c-.077-.073-.17-.067-.278.03v.17l.324-.09.016.029v-.034l.013-.003-.003-.004.006.003-.003.001.018.037.009-.027a.406.406 0 0 0 .509-.174s0-.008.007-.016l-.216-.355c-.175.121-.478.16-.402.433M386.518 275.03c.31.129.501.118.501-.304zm0 0-.024-.01.015.015zm227.598 481.554c-6.221 1.738-12.356 3.531-18.654 5.069a341.8 341.8 0 0 1-76.252 9.636c-1.693 0-2.396.309-2.489 2.163a25.5 25.5 0 0 1-1.553 7.774c2.581 0 5.023 0 7.457-.139a266 266 0 0 0 59.747-9.327 76.7 76.7 0 0 0 25.307-10.038 45.7 45.7 0 0 0 6.437-5.131zM278.743 634.685l.125-.208h-.247zm0 0-.014.024.046.031zm471.619-100.676a198.2 198.2 0 0 1-64.985 46.424c-7.055 3.353-14.234 6.467-21.59 9.141-1.553.541-1.862 1.213-1.692 2.782a337 337 0 0 1 .417 72.52c-.387 3.516-.873 7.024-1.368 10.88 4.165-1.676 8.067-3.106 11.908-4.775a236.5 236.5 0 0 0 57.707-33.652 161 161 0 0 0 17.425-16.49 7.76 7.76 0 0 0 1.971-3.733 210.3 210.3 0 0 0 .525-82.627c-.015-.107-.136-.214-.318-.47m0 0 .001-.002-.008-.007zM386.626 306.372c-4.024 1.676-8.078 3.259-12.056 5.036a255 255 0 0 0-58.255 35.932 15.22 15.22 0 0 0-6.059 11.722 70.5 70.5 0 0 0 14.504 46.904c.843 1.183 1.198.734 1.878-.092a329 329 0 0 1 19.241-21.869 345.5 345.5 0 0 1 48.18-41.719c1.398-.997 1.676-1.553.587-3.106a41.64 41.64 0 0 1-7.851-32.161c.031-.139-.077-.262-.169-.647m0 0 .007-.002h-.008zm115.851-15.23c.927-.854.268-1.923.073-2.847-.217-1.02-1.198-.618-1.816-.633a299.8 299.8 0 0 0-93.114 11.722 2.656 2.656 0 0 0-2.287 2.581 37.12 37.12 0 0 0 7.147 26.535c.843 1.229 1.554.688 2.303.17a334 334 0 0 1 26.42-14.643 323 323 0 0 1 54.4-21.157c.532-.148 1.071-.522 1.671-.284l.044.051.003-.031.036.017c.253-.373.505-.585.812-.272l-.039.001c-.24.386-.502.617-.812.285-.092.856-.941.644-1.437.805a330.8 330.8 0 0 0-78.308 38.234c-1.353.889-1.399 1.353-.278 2.489a91.4 91.4 0 0 0 30.136 19.897c1.383.588 2.797 1.121 4.134 1.801s1.862.309 2.643-.827a371 371 0 0 1 18.321-24.743 300 300 0 0 1 33.591-35.746c.417-.356.795-.75 1.321-1.26-1.858-.44-2.865-2.584-4.964-2.145m-3.913 1.185a4.35 4.35 0 0 1 3.358-.977 8.8 8.8 0 0 1-3.358.977m-90.797 463.244a51.5 51.5 0 0 0 20.794 12.696 287 287 0 0 0 36.851 9.095 281 281 0 0 0 38.528 3.933c1.77 0 2.164-.37 1.863-2.101a34 34 0 0 1-.371-6.144c0-1.414-.448-1.785-1.893-1.815a354 354 0 0 1-42.508-3.532 319 319 0 0 1-51.402-11.645c-.448-.185-.935-.185-1.862-.494zm354.428-145.58c-3.45 5.973-6.845 11.968-10.727 17.694a43.8 43.8 0 0 0-3.516 8.732 152 152 0 0 1-8.847 18.514 4.2 4.2 0 0 0-.387 1.183 194 194 0 0 0 13.291-23.468c2.001-4.258 3.949-8.546 5.935-12.82.139-.309.216-.664.664-.633zm0 0 .014-.025-.008.008zm-483.389 24.786-.023-.083-.015-.008.015.093zm0 0a101 101 0 0 0 6.035 16.252 146.6 146.6 0 0 0 16.676 28.753 192 192 0 0 0 24.789 27.278 171 171 0 0 0 35.638 24.387 243 243 0 0 0 26.002 11.815c.51.247 1.082.34 1.646.263-.827-1.136-1.661-2.272-2.472-3.408a120.7 120.7 0 0 1-18.762-44.409 9.5 9.5 0 0 0-6.762-7.773 236.6 236.6 0 0 1-68.386-39.68 156 156 0 0 1-13.028-12.433c-.383-.413-.614-1.107-1.376-1.045m36.859-305.736a261 261 0 0 0-53.418 83.826c1.986-3.933 3.933-7.882 5.981-11.769a187.5 187.5 0 0 1 30.306-41.967 8.85 8.85 0 0 0 2.117-3.423 87.4 87.4 0 0 1 14.319-25.693c.247-.309.479-.649.703-.981zm72.475-54.662c.664.34 1.197-.139 1.707-.356a111.8 111.8 0 0 1 27.648-6.761 9.3 9.3 0 0 0 3.655-1.213 161.3 161.3 0 0 1 50.792-17.673l2.581-.494a14.4 14.4 0 0 0-6.623-.34 262.5 262.5 0 0 0-52.236 14.218 228 228 0 0 0-26.033 11.66c-.526.294-1.151.433-1.553 1.013l.062-.047zm227.483 485.844a196 196 0 0 0 25.801-12.433c5.502-3.184 11.127-6.22 16.413-9.729a7.3 7.3 0 0 0 1.63-1.414c-4.659 2.396-9.141 4.884-13.801 7.117-5.671 2.736-11.421 5.301-17.332 7.511a16.5 16.5 0 0 0-5.1 2.952 66 66 0 0 1-7.851 5.594l.232.402zm-206.782.387c-4.057-2.628-7.774-5.765-11.599-8.655a35.4 35.4 0 0 0-7.773-3.261 227 227 0 0 1-26.003-12.727 1.54 1.54 0 0 0-1.63-.139 264.3 264.3 0 0 0 47.005 24.789zm367.598-292.134.004-.027-.008.008zm0 0c-.491 3.924-.507 7.756-.931 11.664a92.1 92.1 0 0 1-17.101 43.52 6.08 6.08 0 0 0-1.167 5.07 204 204 0 0 1 0 76.731c-.324 1.662-.687 3.308-.873 5.008a92 92 0 0 0 12.078-21.011 164.5 164.5 0 0 0 9.327-39.927 273 273 0 0 0 1.337-62.173c-.541-5.981-1.554-11.939-2.38-17.904a10 10 0 0 1-.29-.978m-256.016-174.98c5.162 4.52 10.053 9.095 14.751 13.847a355.7 355.7 0 0 1 39.216 47.932c.525.781.842 1.554 2.195 1.059a93.4 93.4 0 0 0 32.98-20.361c2.426-2.458 2.426-2.473-.402-4.335a340.3 340.3 0 0 0-53.017-28.784 300 300 0 0 0-29.232-10.88c-1.785-.572-3.339-1.013-4.791.602a6.8 6.8 0 0 1-1.693.92zm91.498-22.486a82.7 82.7 0 0 1 18.337 16.474 49 49 0 0 1 8.284 14.597 2.94 2.94 0 0 0 2.179 1.878 234.6 234.6 0 0 1 56.324 30.275c5.239 3.841 10.262 7.944 15.54 12.572a48 48 0 0 0-3.686-9.234 98.9 98.9 0 0 0-27.046-32.671 207.3 207.3 0 0 0-32.207-22.27 113.8 113.8 0 0 0-36.465-11.614 8 8 0 0 0-1.275-.015zm28.398 36.727c.518 3.006.765 6.043.734 9.095a43.25 43.25 0 0 1-8.083 23.313c-.904 1.306-1.012 1.925.449 2.968a338.2 338.2 0 0 1 66.446 63.526q1.554 1.986 2.968 0a68.58 68.58 0 0 0 13.213-43.01c-.479-9.605-.525-9.605-7.912-15.888a238 238 0 0 0-60.103-37.083c-2.504-.997-5.069-1.893-7.712-2.921m-70.465 50.9c-3.454-5.363-6.761-10.648-10.215-15.81a321 321 0 0 0-38.049-47.299 4 4 0 0 0-4.397-1.352c-2.844.734-2.875.541-2.72 3.439 1.244 22.393 2.102 44.81 2.859 67.219 0 1.059-.263 2.117 1.553 2.071a179.4 179.4 0 0 0 49.532-7.774c.402-.108.78-.262 1.429-.494zm-256.739-13.461c5.487-4.66 10.649-8.747 16.058-12.588a236.6 236.6 0 0 1 56.996-29.719 3.6 3.6 0 0 0 2.442-2.426 62 62 0 0 1 23.112-28.398 4.45 4.45 0 0 0 1.785-1.553 91 91 0 0 0-10.385 1.738 116.6 116.6 0 0 0-34.989 13.369 208.6 208.6 0 0 0-24.341 17.44 99 99 0 0 0-24.789 28.444 69.2 69.2 0 0 0-5.889 13.693m414.53 21.93a66.9 66.9 0 0 1 1.012 19.975 75.8 75.8 0 0 1-14.427 36.48 1.994 1.994 0 0 0-.077 2.689 279.2 279.2 0 0 1 37.957 80.155c.108.24.239.48.386.704a102.2 102.2 0 0 0 11.127-18.901 80.5 80.5 0 0 0 6.112-48.744 80 80 0 0 0-5.409-15.717 193.2 193.2 0 0 0-35.468-55.768c-.293-.355-.479-.904-1.213-.873m16.892 269.017a159 159 0 0 1-15.061 14.721 215.7 215.7 0 0 1-46.889 29.765 273 273 0 0 1-22.896 9.729 2.82 2.82 0 0 0-1.986 2.287 146.4 146.4 0 0 1-6.375 20.593 107.8 107.8 0 0 1-17.193 30.229c-.224.348-.432.703-.618 1.074a186.46 186.46 0 0 0 73.78-47.499 172.2 172.2 0 0 0 37.238-60.899m-477.213-27.586a201.7 201.7 0 0 1-1.909-67.413c.703-5.162 1.553-10.293 2.674-15.369a3.55 3.55 0 0 0-.719-3.2 87.93 87.93 0 0 1-18.654-64.113q.046-1.1.279-2.179c-.997 4.382-1.693 8.825-2.458 13.26a262.7 262.7 0 0 0-3.469 48.18 290.5 290.5 0 0 0 4.319 43.52 103.8 103.8 0 0 0 18.422 45.699c.325.433.634.904.966 1.321.031.108.17.124.541.294z" style="fill:#fff"/>
</svg>
