<svg xmlns="http://www.w3.org/2000/svg" viewBox="0 0 1024 1024">
   <circle cx="512" cy="512" r="512" style="fill:#595149"/>
   <path d="M762.697 406.256a273.73 273.73 0 0 0-94.979-117.245l-.004.01.027.018.083.059-.771 2.33c-5.205 9.679-63.882 115.778-85.973 155.721l-1.066 1.925q-3.73 6.744-7.458 13.491c-17.074 29.484-24.91 62.671-20.963 88.773a85.5 85.5 0 0 0 14.867 36.781 88.65 88.65 0 0 0 57.746 36.074 92 92 0 0 0 15.438 1.298 90.15 90.15 0 0 0 54.441-18.052 85.88 85.88 0 0 0 33.524-54.606c3.881-23.066-1.748-46.322-15.856-65.487a90.92 90.92 0 0 0-58.49-35.79 99 99 0 0 0-3.998-.584c-8.176-1.024-14.303-8.187-14.048-16.423a15.8 15.8 0 0 1 5.318-11.51 16.2 16.2 0 0 1 12.557-3.936c1.803.224 3.652.492 5.493.802 32.122 5.405 60.286 22.711 79.301 48.732 19.103 26.145 26.697 57.937 21.382 89.522-5.315 31.584-22.895 59.138-49.5 77.59a122.45 122.45 0 0 1-70.099 21.846c-3.64 0-7.306-.161-10.906-.479a128 128 0 0 1-9.878-1.271 120.42 120.42 0 0 1-78.807-49.37 127 127 0 0 1-9.666-16.025c-16.274-32.138-17.071-69.689-2.306-108.601 5.051-13.313 11.246-26.162 17.188-38.063l92.466-168.935 2.27-2.749.096.051.027-.055a273 273 0 0 0-22.197-10.588A271.95 271.95 0 0 0 511.955 240c-149.185 0-271.946 122.761-271.946 271.946 0 72.172 28.73 141.455 79.803 192.447q1.344 1.344 2.705 2.663l147.986-274.369H312.524l27.69 46.632a14.48 14.48 0 0 1 1.747 11.205c-1.756 6.768-7.888 11.546-14.879 11.595a14.53 14.53 0 0 1-12.448-6.819l-41.332-69.567a14.47 14.47 0 0 1-2.186-7.836l.012-.601c.25-7.907 6.781-14.294 14.691-14.366h209.87c3.814 0 8.432 1.374 10.742 3.198l.219.164c6.809 4.878 8.969 14.15 5.015 21.535L351.422 725.031a16.7 16.7 0 0 1-3.165 4.154c94.64 71.538 225.695 73.208 322.127 4.104H542.959c-9.257 0-16.874-7.617-16.874-16.874v-.341c0-9.256 7.617-16.874 16.874-16.874h166.496c74.157-78.293 95.106-193.575 53.235-292.953z" style="fill:#fff"/>
</svg>
