<svg xmlns="http://www.w3.org/2000/svg" viewBox="0 0 1024 1024">
   <circle cx="512" cy="512" r="512" style="fill:#850122"/>
   <path d="m296.5 261.12 87.67 88.57c2.05 2.05 4.1 2.56 7.18 2.56h369.66c2.56 0 4.1-3.07 1.54-5.63l-86.64-87.55c-2.05-2.05-4.1-3.07-8.2-3.07H298.56c-3.59 0-4.1 3.07-2.05 5.12ZM283.69 763.9c-.51 2.05.51 4.1 3.08 4.1h364.54c3.59 0 5.13-1.53 6.15-4.61l110.23-355.32c1.03-3.58-.51-4.61-3.59-4.61H398.54c-3.08 0-4.1 1.02-5.13 3.58L283.69 763.9ZM256 661.5c0 4.1 5.13 4.1 6.15 0l83.57-271.87c1.03-3.07 1.03-5.12-1.54-7.68l-83.06-82.43c-2.05-2.05-5.13-1.02-5.13 1.54V661.5h.01Z" style="fill:#fff"/>
</svg>
