<svg xmlns="http://www.w3.org/2000/svg" viewBox="0 0 1024 1024">
   <circle cx="512" cy="512" r="512" style="fill:#005288"/>
   <path d="M511.995 192.013c176.74 0 319.995 143.28 319.995 319.993 0 176.739-143.255 319.993-319.995 319.993C335.281 831.999 192 688.744 192 512.006c0-176.739 143.281-319.993 319.995-319.993m0 620.173c165.783 0 300.181-134.397 300.156-300.179 0-165.757-134.398-300.154-300.156-300.154-165.783 0-300.181 134.397-300.181 300.154 0 165.782 134.398 300.179 300.181 300.179M746.872 456.43l-4.275-16.819 2.611-.666 1.178 4.685 35.609-9.037-1.178-4.71 2.586-.666 6.477 25.471 1.715-.461.845 3.354-9.83 2.483-.845-3.277 4.454-1.126-3.251-12.851-14.592 3.712 2.509 9.881 4.198-1.075.896 3.328-12.16 3.098-.922-3.328 4.326-1.101-2.509-9.881-16.333 4.147 1.05 4.122zm15.59-29.081c-11.161 4.889-23.782.205-28.518-10.547-4.71-10.752.435-23.168 11.597-28.057 11.136-4.889 23.705-.23 28.416 10.521 4.71 10.752-.333 23.193-11.494 28.083Zm-13.312-30.361c-8.883 3.891-14.413 12.518-11.878 18.355 2.586 5.888 12.697 7.654 21.58 3.763 8.806-3.84 14.336-12.467 11.776-18.38-2.56-5.837-12.672-7.603-21.478-3.738m-56.94 173.474q-.736 2.274-1.529 4.52l6.63-2.714-3.405-1.766 16.051-3.302-12.39 10.726.64-3.738-8.601 3.738c-26.7 72.139-96.101 123.569-177.533 123.569-57.369 0-108.722-25.523-143.435-65.816.179-.23.358-.435.563-.666 10.265-12.134 1.51-22.067.819-32.127-.077.205-.128.358-.205.538-.179 8.448 4.966 17.817-3.558 30.847a45.6 45.6 0 0 1-3.942 5.171c-3.942-4.403-5.478-11.059-4.608-17.664a176 176 0 0 1-2.483-3.558c-2.355 1.741-5.222 3.098-8.678 3.891-1.28-5.76-.538-10.957 1.638-15.078-.87-1.51-1.741-3.021-2.56-4.531-4.122 1.178-8.243 1.459-12.262 2.483 1.638-5.965 4.326-9.753 7.398-12.109-.051-.128-.128-.256-.179-.384-5.248.563-11.033-.384-16.691-2.176 2.662-2.586 7.373-5.376 12.749-6.809a58 58 0 0 1-1.075-2.662c-6.784.691-13.901-1.664-21.145-7.91 5.069-2.586 11.417-3.456 17.305-2.97-.026-.051-.026-.102-.051-.154-9.549-1.434-15.539-5.504-19.84-12.185 6.246-1.715 11.725-1.69 16.281-.512a100 100 0 0 1-.922-3.968c-8.576-1.382-14.976-2.458-19.456-17.024 7.373-.102 12.953 1.562 17.101 4.224a188 188 0 0 1-.973-7.603c-5.606-3.226-8.985-8.345-9.779-17.28-.461-4.992-.973-7.168-1.536-11.187 2.944 2.918 5.914 3.763 10.214 7.142a188.9 188.9 0 0 1 7.91-53.426c8.576.794 16.051-.922 20.173-1.715-7.117 4.454-12.365 12.8-14.336 21.35 8.115 1.101 18.918-1.741 25.958-6.963-5.99 6.809-9.497 15.257-10.521 23.04 8.192-.461 15.769-4.096 22.886-9.216-2.816 5.529-7.629 14.924-8.192 21.785 7.552-.794 17.561-4.838 22.374-10.752-3.994 8.857-5.939 16-5.453 23.936 7.501-1.408 13.209-3.507 19.917-9.933-3.2 8.089-3.891 16.87-3.174 23.552 8.678-3.046 13.901-7.193 18.79-15.36-2.586 7.193-3.635 16.819-1.843 22.323 7.347-2.202 11.673-7.091 15.488-14.592-2.662 7.347-3.686 16.896-1.587 21.99 4.506-1.613 7.27-3.123 8.627-4.608q.1 1.326.19 2.612c-1.266-18.756-2.921-46.864-4.119-71.942l.089 1.977c-3.354 1.818-6.451 2.944-9.113 3.533-2.227-4.966-2.534-11.955-1.152-17.152-6.349 3.814-15.36 5.35-22.144 5.555.717-6.067 2.739-14.54 7.808-20.94-8.32 1.126-15.539 1.101-22.374-.307 1.69-5.017 4.634-10.214 9.088-14.489-9.037.282-20.096-2.867-25.984-5.683 3.354-5.504 9.421-11.597 15.232-14.668-8.115-.819-21.196-2.432-27.238-5.145 2.918-4.147 8.55-10.905 12.518-12.851-10.752-.819-22.016-4.659-27.827-7.296 2.022-3.354 5.146-7.014 8.755-9.907-8.576.589-19.712-2.534-26.7-6.246 1.536-2.97 6.067-8.269 9.805-10.777-8.089-.154-17.894-6.067-22.784-11.75 2.586-3.686 8.141-7.065 14.643-7.731-7.347-1.51-13.491-12.774-10.624-21.248 12.749 11.52 41.625 20.505 51.558 23.833 16.077 5.401 26.956 10.854 36.147 19.686 3.789 3.635 7.603 7.961 8.32 13.337 1.254 9.395-2.432 13.926-4.838 22.912-4.045 15.104-.794 28.262 12.928 40.78 4.267 3.884 8.254 6.594 12.8 8.921q-.054-1.518-.102-2.982c20.761-5.12 51.455-9.113 77.285-9.113 25.856 0 56.524 4.019 77.311 9.113-.973 29.414-3.61 75.646-5.402 101.937-1.254 18.636-10.649 33.433-29.081 39.09-15.897 4.864-23.321 7.27-28.441 8.857-6.733 2.074-11.366 6.016-12.365 12.365h-4.019c-.998-6.349-5.632-10.291-12.365-12.365-5.12-1.587-12.544-3.994-28.441-8.857-18.406-5.657-27.801-20.48-29.081-39.09l-.065-.961q.035.524.065 1.038c.358 5.401 1.434 10.47 3.2 15.104-.589.691-2.022 2.304-2.074 2.381-3.866 4.147-7.526 5.913-13.005 8.985 1.792.282 3.968 2.253 6.451 2.534-2.765 3.149-8.371 3.84-11.853 7.373 2.714.333 3.379 2.278 6.63 1.92-6.221 4.813-15.641 6.553-16.921 6.681-1.28.154-5.478.538-8.141.128-3.763-.589-7.654 1.306-9.165 2.176-1.443.84-1.933 2.377-1.994 3.809-2.105-.476-6.124.24-6.889 1.388-.973 1.459-.742 2.253.051 4.838.768 2.509 1.357 3.405 2.995 3.635.461.051 1.306.179 2.278-.179-.512.333-.87.589-1.126 1.254-.282.666-.717 1.792 1.254 4.173 1.741 2.074 3.43 2.893 4.864 2.099.819-.461 1.101-.947 1.485-1.357-.23.538-.461 1.152-.589 1.766-.435 2.074 1.126 2.867 3.046 3.61 3.661 1.434 5.504.896 6.426-.384 1.971-2.79 1.024-6.451-.23-7.091.282 1.126.23 2.304-.026 3.635-.205 1.075-.742 2.867-2.765 2.637-1.075-.128-3.072-.64-4.25-1.459-.845-.563-.819-2.022-.358-3.251.23-.614.512-1.485 1.28-2.099-1.254.282-1.997.947-2.97 1.715s-2.432.922-3.251 0c-1.05-1.126-1.664-1.997-2.022-2.765-.87-1.997 1.69-3.456 3.174-4.224-2.56.026-3.021.998-5.094.64s-2.611-3.712-2.611-4.813c0-.819.998-1.587 2.227-1.869 1.107-.252 2.46-.157 3.236-.081q.053.278.118.516c.282.973.691 2.125 2.432 3.021.998.282 1.613.358.614-.384-.922-.691-1.92-4.889.205-6.451 1.536-1.152 3.533-2.022 6.451-1.971 2.918.077 6.835.23 8.832-.102 1.357-.23 4.582.026 5.171.614 1.331 1.331 1.587 7.347 5.606 6.502 3.661-.768 11.929-2.816 17.945-5.76-1.05 2.253-.614 4.173-1.715 6.681 6.477-1.587 8.115-4.889 14.31-7.065-1.024 2.253-.742 3.994-2.125 6.144 5.222-.922 10.086-5.606 17.357-7.552.23.077.435.128.666.205 2.202.666 4.25 1.306 6.144 1.894-3.866 4.07-9.651 13.133-11.673 21.964 0 0 3.61.102 8.985-1.766-1.536 4.736-2.483 9.805-2.586 15.206 0 0 4.07-.742 9.651-4.198-.486 5.12-.307 10.47.768 15.948 0 0 4.71-1.946 10.265-7.603.64 5.273 1.971 10.649 4.25 15.974 0 0 4.019-2.739 8.269-9.088 3.174 9.933 7.859 14.848 7.859 14.848 3.482-4.966 6.042-10.189 7.859-15.488 4.403 6.809 8.678 9.728 8.678 9.728 2.278-5.299 3.61-10.675 4.25-15.974 5.555 5.683 10.265 7.603 10.265 7.603a56 56 0 0 0 .742-15.923c5.581 3.456 9.651 4.198 9.651 4.198-.077-5.427-1.024-10.496-2.56-15.206 5.376 1.869 8.985 1.766 8.985 1.766-1.971-8.653-6.221-15.795-11.366-21.632 2.202-.666 4.608-1.434 7.245-2.227.23-.077.435-.128.666-.205 7.27 1.946 12.134 6.63 17.357 7.552-1.408-2.125-1.126-3.866-2.15-6.144 6.195 2.176 7.833 5.478 14.336 7.065-1.126-2.509-.666-4.429-1.715-6.681 7.296 2.918 13.67 2.714 18.125 5.273 3.635 1.562 4.403-1.562 5.094-4.07.282-1.05 1.459-3.584 3.379-3.379 2.074.205 6.4-.051 9.216-.179 2.534-.102 4.685.819 6.221 1.946 2.099 1.562 1.28 5.606.358 6.272-.973.742-.358.666.64.384 1.741-.896 2.15-2.048 2.432-3.021.071-.263.134-.567.179-.898.787-.024 1.812-.019 2.714.206 1.203.307 2.176 1.126 2.15 1.92-.026 1.101-.64 4.429-2.714 4.736-2.099.307-2.509-.691-5.094-.794 1.459.819 3.994 2.355 3.046 4.326-.358.768-1.024 1.587-2.074 2.714-.845.87-2.304.691-3.251-.102-.973-.794-1.69-1.459-2.918-1.792.742.64.998 1.536 1.203 2.15.435 1.229.41 2.688-.461 3.251-1.203.768-3.2 1.229-4.301 1.331-2.022.179-2.534-1.613-2.714-2.714-.205-1.331-.23-2.534.077-3.635-1.254.614-2.304 4.25-.435 7.091.87 1.306 2.688 1.894 6.426.563 1.971-.691 3.533-1.459 3.2-3.507-.102-.614-.333-1.229-.538-1.766.384.41.64.922 1.434 1.382 1.408.819 3.098.077 4.915-1.971 2.022-2.304 1.613-3.482 1.382-4.147-.23-.666-.589-.947-1.075-1.28.973.384 1.818.282 2.278.23 1.638-.205 2.253-1.075 3.098-3.558.87-2.586 1.126-3.328.179-4.838-.384-.614-1.715-1.152-3.2-1.434l54.988-43.391.154 3.814 9.856-13.081-15.001 6.656 3.686.998-55.398 43.775-1.306 1.024c-.074 0-.149.024-.246.026h-.022c-.132-1.317-.658-2.664-1.959-3.43-1.51-.87-5.402-2.765-9.165-2.176-2.662.41-6.861.026-8.141-.128-3.2-.384-8.909-.563-15.155-5.376 3.251.358 3.891-1.613 6.605-1.92-3.482-3.558-9.088-4.25-11.853-7.373 2.483-.256 4.941-1.818 6.758-2.074-4.173-1.331-9.446-5.273-13.312-9.421-.077-.077-1.51-1.766-2.099-2.458 1.741-4.634 2.816-9.677 3.174-15.052.102-1.357.179-2.765.282-4.198 2.15 2.355 6.17 4.48 9.241 5.094 1.28-4.813 1.741-14.054-2.022-22.016 3.814 7.501 8.653 11.904 16 14.105 1.818-5.504.102-14.976-2.483-22.169 4.89 8.192 10.649 11.622 19.328 14.694.717-6.681-.461-14.796-3.712-22.86 6.733 6.4 12.416 8.525 19.942 9.933.461-7.936-1.459-15.078-5.453-23.936 4.813 5.913 13.721 10.854 21.273 11.648 1.178-7.91-3.814-19.046-7.757-23.424 6.144 6.144 14.489 10.393 23.552 9.933-.282-8.909-4.224-17.536-10.521-23.04 6.4 5.017 18.125 7.91 26.905 5.939-1.613-7.987-5.402-14.95-16.384-21.376 4.122.794 12.697 3.533 21.273 2.739 5.146 17.203 7.91 35.43 7.91 54.296 0 2.509-.051 5.017-.154 7.501l6.758-7.245-3.789-.461 13.849-8.755-7.808 14.387-.717-3.738-8.473 9.369c-.23 4.019-.589 8.013-1.075 11.955l6.861-5.734-3.686-.973 14.899-6.835-9.677 13.209-.205-3.814-8.601 7.193a200 200 0 0 1-1.587 9.651l5.478-3.482-3.533-1.434 15.641-4.813-11.161 11.801.307-3.789-7.168 4.557a203 203 0 0 1-.926 4.197l-13.41 4.507 3.558 1.331-33.126 21.657c-2.278 1.869-4.531 3.635-6.579 5.248 3.149-1.587 6.758-3.405 10.445-5.248l30.438-19.891-.205 3.814 8.353-9.208a198 198 0 0 1-1.236 4.804l7.526-4.147-3.533-1.459 15.667-4.762-11.366 11.801.307-3.789-9.421 5.197q-.332 1.135-.677 2.265l-12.379 2.65 3.379 1.741-45.798 22.937c-.819.64-1.459 1.152-1.843 1.459.333.256.589.538.794.87.102.154.154.282.23.41l47.564-23.808-.64 3.763 7.648-6.696Zm4.303-15.449 2.129-.716-2.655 2.927q.269-1.102.526-2.211m-3.258 12.122 3.647-.781-4.691 4.107a198 198 0 0 0 1.045-3.327ZM338.84 501.127c-3.891 1.587-9.421 7.014-11.904 14.131.973 1.101 1.766 2.278 2.483 3.507 1.382-5.222 4.326-11.315 7.296-13.901-1.946 3.328-4.659 10.675-5.99 16.46 1.382 3.226 1.971 6.579 1.869 9.753 7.424-6.809 10.009-18.585 6.246-29.951Zm51.506 91.877a3.04 3.04 0 0 0-3.584-2.381c-1.638.333-2.714 1.946-2.381 3.584s1.946 2.714 3.584 2.381c1.638-.358 2.714-1.946 2.381-3.584m270.588-57.65 3.814-.205-21.504 32.614c-2.509 5.094-4.966 10.061-7.117 14.413.102-.128.23-.256.333-.384l30.028-45.516 1.331 3.584 5.274-15.513zm-316.821 24.294c-.384-1.946-2.304-3.2-4.25-2.816a3.58 3.58 0 0 0-2.816 4.25c.384 1.946 2.304 3.226 4.25 2.816a3.58 3.58 0 0 0 2.816-4.25m312.725-35.993 3.763-.666-34.227 69.323c.282.128.512.282.717.384.41.23.742.538.998.845l34.406-69.631 1.766 3.379 3.328-16.051zm-283.285 68.76a2.775 2.775 0 0 0-3.277-2.176 2.81 2.81 0 0 0-2.202 3.277c.307 1.51 1.792 2.509 3.277 2.202a2.786 2.786 0 0 0 2.202-3.302Zm-28.544-23.526a2.557 2.557 0 0 0-2.995-2.099 2.72 2.72 0 0 0-1.638.998c-8.397-7.398-14.157-7.449-18.585-7.654 2.662.947 12.262 3.712 18.355 8.013-.256.486-.358 1.024-.256 1.613.23 1.434 1.587 2.355 2.995 2.125a2.62 2.62 0 0 0 2.125-2.995Zm58.572 34.073c1.536.896 3.098.768 3.994.333s.896-1.126.87-2.688-1.178-.922-1.562.102c-.384 1.05-1.178 2.099-3.302 2.253m215.83-1.664c.998 1.818 1.05 4.915.538 6.425 3.635-.589 4.275-4.019 4.506-5.862-1.075-1.306-3.584-1.459-5.043-.563Zm-284.028-65.227c-.358-1.792-2.074-2.918-3.866-2.56l-.23.077c-2.15-8.345-4.198-14.848-13.696-21.376 4.762 6.093 10.24 14.95 13.312 21.478a3.28 3.28 0 0 0-1.971 3.686 3.29 3.29 0 0 0 3.866 2.56c1.792-.384 2.944-2.099 2.586-3.866Zm15.821-12.16c-12.185 5.325-17.817 20.505-11.597 31.641 5.709-8.115 16.435-9.881 11.597-31.641m-11.545 31.052c-1.459-6.118 2.355-22.425 7.808-25.779-3.533 7.91-4.992 15.232-7.808 25.779m64.997 51.378a8 8 0 0 1-1.331 3.251c-.538.794-1.331 1.28-1.894 1.766.973.742 2.381 1.178 3.533 1.126 1.152-.051 1.203-.23 1.126-.666-.23-1.946-.973-4.71-1.434-5.478Zm-22.067-18.636c-.435-2.125-2.483-3.507-4.608-3.072a3.89 3.89 0 0 0-3.046 4.608c.435 2.099 2.483 3.482 4.582 3.046a3.914 3.914 0 0 0 3.072-4.582m270.204-23.782 39.039-49.433 1.024 3.686 6.554-15.027-13.056 9.907 3.814.128-35.353 44.799c-2.765 4.198-5.709 8.678-8.473 12.851l.077.051c2.074-2.253 4.198-4.582 6.374-6.963Zm-69.247 67.864 19.917-14.029c2.278-2.483 4.787-5.222 5.658-6.169l-24.883 16.435.026.051-3.098-.64-1.818 1.126-15.974 9.958 4.48.922.538 3.379 12.877-11.11zm-185.648-28.62c.205 1.843.845 5.299 4.506 5.862-.563-1.51-.461-4.582.512-6.425-1.434-.896-3.968-.742-5.018.563m220.848-1.51c-2.15-.154-2.918-1.203-3.302-2.253-.41-1.024-1.536-1.664-1.562-.102s-.026 2.253.845 2.688c.922.435 2.509.563 4.019-.333m-7.424 13.824a8.5 8.5 0 0 1-.23-2.79l-10.88 11.853-3.2.256-15.411 15.411.717-.026-.051.051.179-.077 3.738-.179.666 3.712 12.544-16.486 2.406-.512zm7.654-7.193a8.35 8.35 0 0 1-1.331-3.251c-.435.768-1.178 3.533-1.459 5.478-.077.435-.026.614 1.152.666 1.152.051 2.56-.358 3.533-1.126-.563-.486-1.331-.973-1.894-1.766Zm-266.927-28.927a3.735 3.735 0 1 0-7.32 1.484 3.735 3.735 0 0 0 7.32-1.484m23.449-14.745c.128-5.401-.691-10.957-.051-17.254-10.752 7.833-14.413 21.58-9.958 31.18a4.2 4.2 0 0 0-1.382 0 3.735 3.735 0 1 0 1.485 7.321c2.022-.41 3.328-2.381 2.918-4.378a3.7 3.7 0 0 0-1.613-2.381c-1.792-8.499-.307-19.097 4.147-23.577-1.382 5.325-3.917 16.46-2.278 26.726 1.741-1.997 3.046-3.942 4.045-5.862a20.6 20.6 0 0 0 1.28 5.043c.23-8.166 2.97-16.256 11.443-21.888-6.221 7.885-9.779 17.1-10.521 24.012 4.531-5.734 14.797-7.449 15.513-29.9-5.222 1.536-11.469 5.35-15.027 10.957Zm-25.932 52.044c2.33-4.429 7.808-12.441 12.544-17.408 3.098-3.251.998-2.125-2.739.973-5.325 4.403-8.96 10.957-9.805 16.435m-14.285-62.744a2.58 2.58 0 0 0-2.534-2.15c-3.917-5.299-9.574-10.982-18.995-11.981 5.171 2.458 12.928 7.219 18.304 12.083a2.567 2.567 0 0 0-1.894 2.918 2.62 2.62 0 0 0 2.995 2.125c1.408-.23 2.355-1.587 2.125-2.995Zm231.753 79.717 7.987-4.966 7.449-5.069 2.534.486s18.125-11.187 22.579-14.08c.23-.154.358-.23.358-.23.051-.026.102-.051.128-.102l-23.808 11.878-3.021-.947-18.944 8.985 4.275 1.562.461 2.483Zm-205.795-2.048c-.23-4.966 4.301-22.272 8.525-28.799-1.178.538-5.018 6.221-6.554 9.958-2.227 5.401-4.019 13.696-1.971 18.841m286.895-52.965c3.277-2.586 6.707-5.273 10.035-7.936l32.512-30.105.461 3.789 8.781-13.849-14.413 7.782 3.738.717-32.614 30.259c-2.918 3.226-5.811 6.374-8.499 9.344Zm-266.902 20.915c-.435-2.125-2.483-3.507-4.608-3.072-2.099.435-3.482 2.483-3.046 4.608.41 2.099 2.483 3.482 4.582 3.046a3.914 3.914 0 0 0 3.072-4.582m233.801 20.505c-.691-.23-1.28-.563-1.792-1.05l-8.192 16.998.051.026-2.995.998-9.702 18.585 4.685-1.434 1.715 4.608 9.19-18.841-1.075-3.046zm-268.975-43.596c.486.051.384.026-.179-.154-5.709-3.2-9.753-4.275-17.613-3.226 7.373.538 12.544 1.536 17.792 3.379Zm285.308 15.411c1.331-1.05 3.251-2.56 5.555-4.378l53.452-58.444.742 3.738 7.654-14.489-13.747 8.909 3.789.41-55.935 61.208c-.563 1.101-1.05 2.125-1.51 3.046m-273.89-6.067c-.23-1.408-1.587-2.355-2.995-2.099a2.51 2.51 0 0 0-1.92 1.485c-7.296-.973-15.257.051-21.913 3.763 7.501-1.741 15.334-3.328 21.76-3.354h.026a2.2 2.2 0 0 0-.051 1.075 2.62 2.62 0 0 0 2.995 2.125c1.382-.23 2.33-1.587 2.099-2.995Zm7.526 4.378c-.384-1.818-2.15-3.021-3.994-2.662-1.818.358-2.995 2.15-2.637 3.942-.077 0-.154-.026-.23-.026-5.402-.205-14.413 1.229-19.917 7.757 5.658-3.328 14.669-6.758 20.07-7.501h.154c.461 1.69 2.15 2.79 3.917 2.432 1.792-.333 2.995-2.125 2.637-3.942m47.359 16.998c-.614.973-1.28 2.381-1.766 4.48 11.213 8.985 18.355 20.044 20.352 33.715 2.227-.435 5.862 1.05 7.808 2.458-2.253-12.953-10.982-29.055-26.393-40.652Zm-53.785-65.279c-7.91 6.63-10.137 14.95-9.293 22.246a3.7 3.7 0 0 0-.922.026c-1.638.333-2.714 1.946-2.381 3.558.333 1.638 1.92 2.714 3.558 2.381.384-.077.717-.23 1.024-.41a24.8 24.8 0 0 0 2.893 5.76c-.717-2.458-1.229-5.197-1.485-7.961.026-.307.051-.614-.026-.922-.026-.077-.051-.128-.051-.205-.435-6.221.538-12.646 3.994-17.254-1.075 6.784-2.688 19.891-1.152 28.031 2.304-8.704 14.771-12.518 3.84-35.25Zm151.089 21.273h-60.671a36 36 0 0 0 3.098 5.273c4.378 6.118 10.598 10.675 18.483 13.081 10.726 3.302 17.536 5.427 22.528 7.014l5.939 1.843c4.864 1.51 8.243 3.686 10.624 6.093zm4.659-14.438v17.74c.614.358 1.203.717 1.792 1.075 2.714 1.69 5.069 3.123 8.806 3.123 2.304 0 4.608-1.382 7.296-2.995 3.61-2.15 7.68-4.608 13.133-4.608 5.171 0 8.601 2.125 11.622 3.968 2.714 1.664 5.043 3.098 8.806 3.098 2.893 0 4.71-1.024 6.605-2.458 3.891-5.76 6.144-12.902 6.707-21.222.026-.358.051-.717.077-1.05a7 7 0 0 0-.512.41c-2.893 2.33-6.502 5.273-12.851 5.273-5.965 0-9.83-2.355-12.928-4.275-2.534-1.587-4.557-2.816-7.501-2.816-3.277 0-6.093 1.69-9.088 3.482-3.2 1.92-6.861 4.096-11.341 4.096-4.608.051-7.936-1.331-10.624-2.842Zm59.366-35.199c1.997-1.613 4.352-3.533 7.705-4.275l.384-6.579c-20.403-4.378-46.361-7.296-67.455-7.501v18.201c.614.358 1.203.717 1.792 1.075 2.714 1.664 5.069 3.123 8.806 3.123 2.304 0 4.608-1.382 7.296-2.995 3.61-2.15 7.68-4.608 13.133-4.608 5.171 0 8.601 2.125 11.622 3.968 2.714 1.664 5.043 3.098 8.806 3.098 3.584 0 5.504-1.536 7.91-3.507Zm0 26.188c1.664-1.331 3.558-2.893 6.093-3.814.358-5.657.717-11.699 1.101-17.971-.666.435-1.382.998-2.227 1.69-2.893 2.33-6.502 5.248-12.851 5.248-5.965 0-9.83-2.355-12.928-4.275-2.534-1.562-4.557-2.79-7.501-2.79-3.277 0-6.093 1.69-9.088 3.482-3.2 1.92-6.861 4.122-11.341 4.122-4.582 0-7.91-1.382-10.598-2.893v17.024c.614.358 1.203.717 1.792 1.075 2.714 1.664 5.069 3.123 8.806 3.123 2.304 0 4.608-1.382 7.296-2.995 3.61-2.15 7.68-4.582 13.133-4.582 5.171 0 8.601 2.099 11.622 3.942 2.714 1.69 5.043 3.123 8.806 3.123 3.558.026 5.478-1.536 7.885-3.507Zm-131.761-41.65c20.275-4.301 47.078-7.475 70.041-7.475 22.988 0 49.791 3.174 70.041 7.475.973-17.715 1.818-35.558 2.33-49.637-21.478-4.889-49.996-8.089-72.37-8.089s-50.866 3.2-72.37 8.089c.512 14.08 1.357 31.923 2.33 49.637Zm8.217-23.5.768-3.84-3.533-1.587 3.84-.435.358-3.866 1.613 3.558 3.763-.819-2.842 2.637 1.971 3.379-3.379-1.971-2.56 2.944Zm16.947-2.688.896-3.814-3.482-1.715 3.866-.282.512-3.866 1.459 3.61 3.814-.666-2.944 2.509 1.818 3.456-3.277-2.074zm47.974-16.614-2.995-2.483-3.021 2.483 1.382-3.661-3.226-2.15 3.84.205 1.024-3.763.998 3.763 3.84-.205-3.226 2.15 1.382 3.661Zm-25.062 14.208-3.2-2.202-2.79 2.714 1.075-3.763-3.405-1.869 3.866-.102.691-3.84 1.306 3.661 3.84-.512-3.072 2.406zm82.2 2.304-3.405 1.894 1.997-3.354-2.79-2.662 3.738.87 1.664-3.533.307 3.866 3.84.486-3.558 1.536.717 3.84-2.509-2.944Zm-18.509-3.994-2.97-2.534 3.814.691 1.485-3.61.512 3.866 3.84.307-3.482 1.69.922 3.814-2.688-2.842-3.302 2.048zm-46.745.896-3.072-2.381-2.918 2.56 1.254-3.686-3.302-2.022 3.866.077.87-3.814 1.126 3.738 3.84-.307-3.149 2.227 1.485 3.61Zm16.973.205-2.918-2.56-3.098 2.381 1.536-3.635-3.174-2.227 3.84.333 1.126-3.738.87 3.789 3.866-.051-3.302 2.022zm12.646-2.842-3.072-2.406 3.84.512 1.306-3.661.691 3.84 3.866.128-3.405 1.843 1.075 3.763-2.79-2.714-3.2 2.202zm-80.511-5.913.794-3.814-3.533-1.613 3.84-.41.41-3.866 1.587 3.558 3.763-.794-2.867 2.611 1.92 3.405-3.328-1.971zm41.318-4.48-3.149-2.304-2.842 2.662 1.152-3.738-3.379-1.92 3.866-.051.794-3.814 1.229 3.686 3.814-.435-3.098 2.33zm-17.715 1.357-3.277-2.125-2.688 2.79.947-3.789-3.456-1.741 3.866-.23.563-3.866 1.434 3.635 3.814-.64-2.995 2.483zm85.81.256-3.328 1.971 1.92-3.405-2.867-2.611 3.763.794 1.587-3.558.41 3.866 3.84.41-3.533 1.613.794 3.814-2.586-2.893Zm-19.251-3.712-2.995-2.483 3.814.614 1.408-3.635.589 3.866 3.866.205-3.456 1.766.973 3.789-2.714-2.79-3.277 2.125zm-17.869-1.459-3.098-2.33 3.84.435 1.229-3.712.768 3.814 3.866.051-3.354 1.92 1.152 3.738-2.842-2.637-3.149 2.278zm-69.708 36.71.819-3.814-3.533-1.638 3.84-.384.435-3.866 1.562 3.584 3.763-.768-2.867 2.586 1.894 3.405-3.328-1.997-2.586 2.893Zm22.963-2.918-3.251-2.125-2.739 2.765.998-3.789-3.456-1.792 3.866-.179.614-3.866 1.382 3.635 3.814-.589-2.995 2.458zm16.998-1.229-3.123-2.304-2.867 2.637 1.178-3.712-3.354-1.946 3.866-.026.794-3.814 1.203 3.712 3.84-.435-3.123 2.33zm46.873-2.125-2.995-2.458 3.814.614 1.382-3.661.614 3.866 3.84.23-3.43 1.766.973 3.789-2.714-2.79-3.277 2.15 1.792-3.507Zm-29.824 1.818-3.021-2.483-2.995 2.483 1.382-3.661-3.226-2.125 3.84.179.998-3.763 1.024 3.763 3.84-.179-3.226 2.125 1.382 3.661Zm12.621-3.174-3.098-2.33 3.84.435 1.229-3.712.768 3.814 3.866.051-3.379 1.92 1.178 3.738-2.867-2.662-3.149 2.304 1.613-3.558Zm35.788 4.941-3.328 1.997 1.92-3.405-2.867-2.611 3.763.794 1.562-3.584.41 3.891 3.866.384-3.533 1.613.819 3.814zm-57.369 53.836c.998 2.381 1.997 2.842 2.944 3.405v-48.178c-21.094.179-47.052 3.098-67.455 7.501.87 15.872 1.766 31.411 2.662 43.775.486 6.681 1.459 9.933 3.046 14.08l3.021-5.581 2.406-2.304 2.253 2.381 4.07-3.174 2.355-3.123 4.173-7.065 6.042-3.2 4.454-4.71 2.918-4.659 5.504-1.28 3.686-4.07 6.195 5.555 5.53 2.406 2.432 6.374 3.763 1.869Zm18.227 38.578c-4.582 0-7.91-1.382-10.598-2.893v20.838c2.381-2.432 5.786-4.608 10.624-6.093l5.939-1.843c4.966-1.587 11.776-3.712 22.528-7.014a36.8 36.8 0 0 0 8.576-3.84c-3.891-.742-6.733-2.458-9.113-3.942-2.534-1.562-4.557-2.79-7.501-2.79-3.277 0-6.093 1.69-9.088 3.482-3.226 1.92-6.886 4.096-11.366 4.096Zm181.501-181.449c19.942 33.663 31.411 72.958 31.411 114.942 0 124.695-101.093 225.787-225.789 225.787S286.255 636.708 286.255 512.013c0-44.133 12.672-85.323 34.585-120.113 3.354 1.587 6.707 2.893 10.137 3.891-21.555 33.51-34.073 73.419-34.073 116.222 0 118.807 96.331 215.138 215.139 215.138 118.833 0 215.139-96.331 215.139-215.138 0-41.01-11.494-79.358-31.411-111.972a92 92 0 0 0 10.649-2.97Zm4.096-63.154c-.026 8.397-.384 19.174-21.913 25.139 3.712 2.483 8.269 7.808 9.805 10.777-6.989 3.712-16.64 5.581-26.7 6.246 3.584 2.893 6.707 6.553 8.755 9.907-5.811 2.662-17.075 6.502-27.827 7.296 3.942 1.971 9.958 8.781 12.877 12.928-6.042 2.714-19.481 4.275-27.596 5.094 5.811 3.072 11.878 9.165 15.232 14.668-5.888 2.842-16.973 5.965-26.009 5.683 4.454 4.25 7.398 9.472 9.088 14.489-6.835 1.382-14.054 1.434-22.374.307 5.069 6.4 7.091 14.873 7.808 20.94-6.784-.205-15.795-1.741-22.144-5.555 1.382 5.197 1.075 12.211-1.152 17.152-2.662-.589-6.963-2.304-10.317-4.122.435-9.139.794-16.998 1.075-24.831 4.736-2.483 10.035-6.502 14.105-11.11 3.84-4.352 7.014-11.75 6.835-20.915-.23-12.877-1.741-16.844-2.227-26.06-.435-8.294 3.482-13.107 7.603-16.384 14.413-11.52 24.422-14.617 40.55-19.942 21.401-7.091 41.779-10.163 54.527-21.708Zm-323.554 3.046a319 319 0 0 0-6.323-2.534 177 177 0 0 0-5.427-2.022c37.964-28.979 85.4-46.181 136.83-46.181 57.369 0 109.746 21.401 149.579 56.652-4.173 1.075-8.269 2.15-12.467 3.354-37.222-30.822-85.016-49.356-137.112-49.356-46.643 0-89.829 14.873-125.08 40.089Zm110.693 457.283-19.814-.717.102-2.688 4.838.179 1.306-36.71-4.838-.179.102-2.662 19.891.717c12.032.435 21.094 9.933 20.633 21.734-.205 5.862-2.765 11.264-7.245 15.308-4.147 3.686-8.729 5.248-14.976 5.017Zm13.261-20.659c.333-9.369-5.76-17.638-13.235-17.894l-5.402-.205-1.254 34.994 5.171.179c8.038.307 14.361-7.065 14.72-17.075ZM619.819 356.7c-14.361 6.528-23.5 14.566-24.243 26.879-.307 5.453 1.946 16.998 2.406 21.504 1.638 16.025-2.355 22.4-6.707 27.417-4.582 5.299-9.677 8.192-14.617 9.625-11.878-2.278-25.497-4.147-39.091-5.273-.947-4.787-1.664-10.649-2.048-14.131-.819-7.654-1.638-14.003-3.942-21.299 4.736.819 12.109-1.997 14.413-7.27-3.226 3.328-11.417 1.408-17.613-4.096-5.146-4.557-6.733-7.04-16.87-7.296-4.915-.128-10.009.102-15.385 1.587-4.429 1.229-5.632 3.891-3.686 5.529-2.509-.179-12.621 1.408-14.105 7.577-1.075 4.429.41 7.91 2.202 10.47-.282-7.091 10.803-5.939 13.824-4.378 3.456 1.792 5.862 4.07 7.091 6.835 1.613 3.558 3.098 8.141-3.635 13.363-4.608 3.584-9.241 7.987-10.803 13.056a380 380 0 0 0-34.815 4.403c-8.269-1.587-18.278-6.272-25.958-17.152-7.731-10.931-5.837-21.683-2.406-32.153 3.251-9.881 2.586-16.64 1.638-22.246-1.075-6.4-5.53-12.544-13.03-18.38 28.928-17.92 63.026-28.287 99.557-28.287 40.089 0 77.234 12.467 107.826 33.715ZM494.15 390.466c4.966.691 6.323-2.048 15.309-.154 0 0-2.867.845-4.966 1.587a111 111 0 0 0-5.171 2.022c-.128-.384-.333-.717-.742-1.075-.154-.128-.768-.589-.819-.922-.64.128-1.741-.051-3.61-1.459ZM280.419 637.271c-11.085 5.069-23.808.538-28.672-10.137s.102-23.168 11.187-28.211 23.705-.563 28.569 10.112 0 23.193-11.085 28.236Zm-13.747-30.182c-8.832 4.045-14.233 12.723-11.597 18.508 2.662 5.862 12.774 7.501 21.606 3.482 8.781-3.994 14.182-12.697 11.52-18.56-2.637-5.785-12.774-7.424-21.529-3.43m30.745-204.053-1.715 3.072-10.009-5.632 1.715-3.072 4.096 2.304c3.405-1.382 5.197-2.867 6.733-5.581 1.946-3.456 1.28-7.091-1.613-8.729-2.509-1.408-5.171-.794-11.417 2.509-6.502 3.507-7.449 3.866-9.933 4.352-2.406.486-5.018-.051-7.475-1.408-6.118-3.43-7.654-10.214-3.84-16.998 1.229-2.176 2.534-3.712 4.582-5.325l-1.664-.947 1.69-2.995 9.497 5.35-1.69 2.995-3.84-2.15c-2.816 1.485-4.224 2.662-5.376 4.736-1.613 2.893-.819 6.272 1.792 7.731 2.227 1.254 4.326.742 10.726-2.662 3.098-1.613 5.018-2.662 5.811-3.021 1.613-.768 3.482-1.254 5.53-1.357 2.304-.102 4.429.435 6.605 1.664 6.323 3.558 8.192 10.675 4.531 17.177-1.818 3.226-3.789 5.197-6.733 6.886zm16.717-28.876a4.14 4.14 0 0 1-4.173 4.173 4.14 4.14 0 0 1-4.173-4.173 4.14 4.14 0 0 1 4.173-4.173 4.14 4.14 0 0 1 4.173 4.173m394.26-66.047 10.624 9.677-1.818 1.971-3.968-3.61-16.051 17.612-1.075.307a644 644 0 0 1-12.544 3.379l4.019-32.691-18.765 20.582 3.712 3.405-1.792 1.997-10.649-9.702 1.818-1.971 3.917 3.558 22.553-24.729.666-3.763-3.379-3.098 1.792-1.971 9.369 8.55-4.531 35.634 17.997-19.737-3.712-3.405 1.818-1.997ZM289.482 421.237a4.27 4.27 0 0 1-5.606 2.278 4.25 4.25 0 0 1-2.278-5.581 4.25 4.25 0 0 1 5.581-2.278c2.176.896 3.2 3.405 2.304 5.581Zm123.313-129.098-26.982 13.901-1.229-2.381 4.301-2.202-16.819-32.665-4.301 2.227-1.229-2.381 23.347-12.032-.794-1.587 3.046-1.587 4.634 9.011-2.995 1.562-2.099-4.096-11.801 6.067 6.886 13.389 9.062-4.685-1.997-3.84 3.046-1.638 5.76 11.161-3.046 1.638-2.048-3.968-9.062 4.659 7.219 14.003 12.288-6.349-2.176-4.198 3.046-1.562zm77.772-23.552.435 2.637-15.334 2.662-.461-2.637 4.403-.768-5.658-9.497-15.257 2.662-2.304 10.88 5.018-.87.461 2.637-13.005 2.253-.461-2.637 3.891-.666 9.241-42.956 3.84-.666 22.553 37.426 2.637-.461Zm-31.027-9.037 12.339-2.15-8.704-14.668zm194.557 57.292-25.6-16.332 1.434-2.253 4.096 2.611 19.763-30.95-4.096-2.611 1.434-2.253 22.144 14.131.947-1.51 2.918 1.843-5.453 8.55-2.867-1.818 2.483-3.866-11.187-7.142-8.089 12.697 8.576 5.504 2.355-3.661 2.944 1.792-6.758 10.598-2.944-1.792 2.406-3.763-8.601-5.478-8.473 13.261 11.648 7.449 2.534-3.968 2.893 1.843zm97.227 37.631 2.15 2.816-8.601 6.579-2.15-2.79 4.198-3.226-6.656-8.704-28.313 21.632 3.712 4.864-2.125 1.613-10.496-13.747a27 27 0 0 0 2.458-1.203l1.459 1.92 28.313-21.632-6.682-8.755-4.198 3.2-2.125-2.79 8.601-6.579 2.125 2.79-1.408 1.075 18.329 24.012 1.408-1.075ZM564.882 792.301l-3.43.742-2.458-11.213 3.43-.742.998 4.608c3.302 1.613 5.581 1.971 8.627 1.306 3.866-.845 6.17-3.763 5.453-7.014-.614-2.816-2.867-4.403-9.472-6.861-6.937-2.534-7.833-2.97-9.856-4.506-1.971-1.459-3.302-3.763-3.917-6.502-1.51-6.861 2.56-12.518 10.137-14.182 2.432-.538 4.454-.563 7.014-.102l-.41-1.869 3.354-.742 2.33 10.649-3.354.742-.947-4.301c-2.995-1.101-4.787-1.382-7.091-.87-3.251.717-5.248 3.558-4.582 6.502.538 2.483 2.33 3.738 9.139 6.221 3.277 1.254 5.325 1.971 6.118 2.304 1.638.691 3.251 1.766 4.685 3.226 1.613 1.69 2.611 3.61 3.149 6.041 1.562 7.091-2.509 13.209-9.83 14.796-3.61.794-6.374.614-9.6-.435zM763.023 643.03l-8.525 15.692-2.355-1.28 2.304-4.275-32.281-17.484-2.33 4.25-2.33-1.28 8.499-15.692 2.355 1.28-2.278 4.198 32.307 17.484 2.278-4.198 2.355 1.306Zm-228.4-374.418.051 2.739-8.089-.026c-3.763-.026-4.378-.41-6.554-3.789l-9.523-15.001h-1.741l-.051 16.076h4.787v2.688l-17.869-.051v-2.688l4.838.026.077-36.735h-4.838v-2.688l18.816.051c5.478 0 8.55.845 10.829 3.149 2.099 2.125 3.098 4.864 3.098 8.243-.026 5.734-2.97 9.421-8.96 11.264l9.011 13.926c1.459 2.227 2.227 2.816 3.507 2.816zm-25.881-35.839-.026 16.563 3.763.026c4.378 0 7.398-3.482 7.398-8.525.026-5.12-2.586-8.038-7.117-8.064zm163.479 513.269c-3.61 4.506-6.118 6.861-10.291 9.369-11.494 6.989-24.396 4.198-30.976-6.656-6.502-10.752-3.2-23.731 7.782-30.361 3.533-2.15 6.272-3.149 10.265-3.712l-1.382-2.278 2.995-1.818 5.914 9.753-2.995 1.818-2.125-3.507c-4.429-.307-6.554.154-9.446 1.92-7.577 4.608-9.011 14.131-3.533 23.168 5.376 8.832 15.36 12.185 22.886 7.603 2.739-1.638 4.326-3.43 5.914-6.579l-2.509-4.147 3.046-1.843zm19.174-65.816-3.942 3.61 16.153 17.715c4.864 5.325 6.067 10.342 3.789 15.872a22.2 22.2 0 0 1-5.504 7.68c-7.629 6.989-16.409 7.296-22.348.794l-17.357-19.046-3.584 3.277-1.792-1.971 13.184-12.032 1.818 1.971-3.533 3.226 16.051 17.587c4.352 4.762 7.168 6.144 10.726 5.222a12.1 12.1 0 0 0 4.736-2.688c5.658-5.145 5.888-11.52.666-17.254l-16-17.536-3.917 3.584-1.843-2.022 10.931-9.958 1.766 1.971Zm56.268-14.208 2.176 1.562-4.838 6.502c-2.253 3.021-2.944 3.328-6.937 3.046l-17.741-1.254-1.024 1.382 12.902 9.6 2.842-3.84 2.15 1.587-10.649 14.336-2.15-1.587 2.893-3.891-29.491-21.888-2.893 3.891-2.125-1.587 11.213-15.104c3.277-4.403 5.76-6.349 8.985-6.835 2.944-.435 5.76.384 8.473 2.406 4.608 3.43 5.837 7.987 3.738 13.901l16.563 1.024c2.688.154 3.584-.128 4.352-1.152l1.562-2.099Zm-44.185-.486 13.312 9.881 2.253-3.021c2.611-3.533 1.587-8.013-2.458-11.033-4.096-3.046-8.013-2.688-10.726.947zm-461.1-68.146-4.25-17.331 2.611-.64 1.126 4.659 16.281-3.968-4.915-20.147-16.281 3.968 1.152 4.634-2.611.64-4.25-17.331 2.611-.64 1.152 4.71 35.686-8.729-1.152-4.71 2.611-.64 4.224 17.331-2.611.64-1.126-4.634-15.744 3.84 4.915 20.121 15.744-3.84-1.126-4.634 2.611-.64 4.224 17.356-2.611.64-1.152-4.71-35.686 8.729 1.152 4.71-2.586.614Zm54.246 100.452-11.136-15.334 2.176-1.562 3.149 4.326 22.297-16.179-33.203 6.758 15.462-30.207-21.811 15.846 3.149 4.326-2.176 1.587-8.653-11.929 2.176-1.562 3.149 4.326 29.721-21.58-3.149-4.326 2.15-1.587 6.63 9.113-15.104 29.67 31.82-6.656 7.424 10.214-2.176 1.587-3.149-4.352-29.721 21.58 3.149 4.352-2.176 1.587Zm33.177 32.614-22.323-20.556 1.818-1.971 3.558 3.277 24.883-27.007-3.558-3.277 1.818-1.971 19.328 17.817 1.203-1.331 2.534 2.33-6.886 7.449-2.483-2.278 3.098-3.379-9.753-8.985-10.189 11.059 7.501 6.912 2.944-3.2 2.56 2.278-8.525 9.241-2.586-2.278 3.021-3.302-7.501-6.912-10.675 11.571 10.163 9.369 3.2-3.482 2.534 2.33zm37.964 26.06-24.985-16.793 1.51-2.227 4.019 2.714 20.505-30.489-4.019-2.714 1.51-2.227 14.822 9.958-1.485 2.227-3.968-2.662-19.891 29.567 11.264 7.577 2.637-3.917 2.842 1.92-4.762 7.065ZM563.474 276.42l-20.249-3.43.435-2.637 6.093 1.024 5.939-35.148-10.88-1.843-.87 5.222-3.456-.589 1.792-10.701 3.482.589-.307 1.766 29.798 5.043.307-1.766 3.456.589-1.818 10.701-3.456-.589.896-5.222-10.803-1.818-5.939 35.148 6.042 1.024zm215.83 328.441-7.219 19.2-2.509-.947 2.176-5.785-33.356-12.569-3.891 10.317 4.966 1.869-1.229 3.302-10.137-3.814 1.229-3.277 1.664.64 10.649-28.287-1.664-.64 1.229-3.277 10.163 3.814-1.229 3.277-4.941-1.869-3.866 10.265 33.356 12.569 2.15-5.734zM249.085 411.303l-1.536 5.12 22.988 6.861c6.912 2.048 10.521 5.734 11.417 11.673.41 3.046.205 6.246-.742 9.421-2.944 9.881-10.291 14.694-18.739 12.185l-24.704-7.347-1.382 4.634-2.56-.768 5.12-17.1 2.56.768-1.382 4.582 22.784 6.784c6.17 1.843 9.318 1.587 11.904-1.05 1.178-1.254 2.125-2.893 2.662-4.736 2.176-7.321-.87-12.902-8.345-15.129l-22.732-6.784-1.51 5.069-2.637-.794 4.224-14.182zm122.161-120.548c3.482 4.736 4.813 10.547 3.84 16.512-.947 5.478-3.584 9.523-8.627 13.235l-10.624 7.808a149 149 0 0 1-3.072-1.178l-21.708-29.542-3.917 2.867-1.587-2.15 16.025-11.776c9.702-7.117 22.681-5.273 29.67 4.224m-8.166 27.852c6.477-4.762 6.861-14.464.947-22.502-5.555-7.552-15.462-10.265-21.478-5.837l-4.378 3.2 20.736 28.211zm427.514 239.355-3.43 17.536-2.637-.512.922-4.71-17.28-3.379-21.196 8.729-.768 3.942-2.637-.512 3.405-17.51 2.637.512-.922 4.634 15.437-6.195-12.083-11.008-1.024 5.325-2.611-.512 2.842-14.566 2.611.512-.87 4.506 15.104 13.798 18.893 3.712.922-4.762 2.688.461ZM623.044 296.54l-17.664-6.861.973-2.483 4.992 1.946 9.958-25.676-24.243 23.705-3.379-33.791-9.753 25.139 4.992 1.946-.973 2.483-13.747-5.325.973-2.509 4.992 1.946 13.286-34.252-4.992-1.946.973-2.509 10.521 4.096 3.379 33.1 23.142-22.835 11.776 4.557-.973 2.483-4.992-1.946-13.286 34.226 4.992 1.946zm-184.292-13.773-17.561 5.811-.845-2.56 4.608-1.51-11.571-34.866-4.608 1.51-.845-2.534 18.329-6.093c7.501-2.483 13.926.435 16.205 7.398 2.176 6.605-1.818 13.977-8.909 16.307-1.024.333-1.715.486-3.379.717l-.973-2.97c.845-.077 1.152-.179 1.69-.358 4.122-1.357 5.427-5.094 3.635-10.47-1.869-5.683-5.094-7.91-9.472-6.477l-3.635 1.203 11.289 34.022 5.146-1.715zm190.973 489.155-28.236 11.085-.973-2.483 4.506-1.766-13.414-34.201-4.506 1.792-.973-2.483 24.473-9.6-.666-1.664 3.2-1.254 3.712 9.446-3.149 1.229-1.664-4.275-12.365 4.838 5.504 14.003 9.497-3.738-1.587-4.045 3.2-1.331 4.582 11.699-3.174 1.331-1.638-4.147-9.497 3.738 5.76 14.643 12.902-5.043-1.741-4.403 3.2-1.254 3.046 7.885Zm-215.984 4.122-1.101 2.432-14.157-6.451 1.101-2.432 4.07 1.843.691-11.033-14.105-6.425-8.038 7.68 4.634 2.099-1.101 2.458-12.006-5.478 1.101-2.432 3.584 1.638 31.846-30.259 3.533 1.613-2.483 43.621zm-20.531-24.959 11.366 5.197 1.101-17.024zm64.639 40.012-4.352-1.05-14.31-35.558-6.477 27.11 4.89 1.178-.614 2.611-14.029-3.354.614-2.611 5.146 1.229 7.808-32.537-1.229-3.635-4.454-1.075.614-2.611 12.339 2.97 13.235 33.382 6.221-25.983-4.915-1.178.64-2.611 14.003 3.354-.64 2.611-5.222-1.254-9.267 39.014Z" style="fill:#fff"/>
</svg>
