<svg xmlns="http://www.w3.org/2000/svg" viewBox="0 0 1024 1024">
   <circle cx="512" cy="512" r="512" style="fill:#fc0"/>
   <path d="m420.11 256 97.24 102.76-118.31-32.162 107.01 64.434 35.004-18.578v.004l-35.004 18.574-93.869 49.826 105.95-17.039-43.705 146.34v.006h-.004l-184.17-21.92 115.09 49.918-167.1 67.729 144.3-22.039-154.8 124.15 280.78-125.08 176.82-79.059-139.46-232.96 20.348 248.71-5.26-64.27-15.092-184.44-4.004 34.529h-.004l4.008-34.529zm265.23 307.86 13.994-29.006-27.1-91.096-42.51 27.168zm-13.105-120.1h.004l65.721-41.992-65.721 41.998 27.096 91.09 28.699-59.986 30.84-52.15 37.398-38.52-19.779 8.72 14.723-24.897-39.258 24.803-.002.002-16.346 5.037-110.2 10.785 33.699 12.799-41.545 12.809z" style="fill:#fff"/>
</svg>
