<svg xmlns="http://www.w3.org/2000/svg" viewBox="0 0 513 245"><path d="m262.3 64.8-26.5 47.7c-1.3 2 .3 4.8 2.7 4.6h29.3a3 3 0 0 0 2.7-1.5L286 89a3 3 0 0 0 0-3.2l-13-21.3c-2.3-4-8.5-3.9-10.7.2v.1zM255.6 39l-45 76.5c-.5 1-1.5 1.6-2.6 1.6h-23c-2.4.2-4-2.8-2.6-4.7 3.9-6.6 61.7-105.4 63.1-108a9 9 0 0 1 15-.6l7.5 10.7a3 3 0 0 1 .1 3.3l-12.3 21-.2.2zm54.6 53.4-11.8 20c-1.5 2 .3 5 2.7 4.7h23.5c4.7.1 7.8-5.4 5.3-9.4l-9-15.3a6.3 6.3 0 0 0-10.6 0h-.1zm-32.4-54.6-5.2 9.2c-.5 1-.5 2.2.1 3.1l13 21.4a6.2 6.2 0 0 0 10.7 0l5.1-8.8c.6-1 .6-2.1 0-3.1l-13-22c-2.3-4.1-8.6-4.1-10.8.1l.1.1zM41.7 180.2c-3.4-6.6-10.5-9-19-9-11.8 0-18.5 5.7-21 13.8l11.1 3.5c1.6-4.4 6.2-6 9.8-6 5.8 0 8.5 2 9 6.7C16.3 191.6 0 191.9 0 208c0 8.1 5.8 14.8 16.3 14.8 7.5 0 12.3-2.1 16.6-7.3v6h10.8v-29.9c0-4.4-.1-7.8-2-11.4zm-11.5 26.5a12.5 12.5 0 0 1-11.3 6.5c-4.3 0-6.9-2-6.9-5.4 0-2.4 1.5-4.1 5-5.6 4.7-1.5 9.6-2.6 14.5-3.2 0 2.4-.2 5.5-1.3 7.7zm35.8-6.2h34.2c4.4-38.3-47.6-38.9-47.5-2.8a24.3 24.3 0 0 0 25.4 25.1 23 23 0 0 0 21.7-14l-12.3-3.6c-1.8 4-5.3 6.2-10 6.2-6.7 0-10.6-4-11.5-10.9zM78 182c5.9 0 9 2.8 9.9 9.4H66.3c1.3-6.3 5-9.4 11.7-9.4zm65.5-9.3v2.7a20.4 20.4 0 0 0-12.6-4c-30.7-.4-30.7 51.4-.6 51.5 4.1.1 8.2-1 11.7-3.2v5c.1 5.4-5 8.2-10.5 8.2a9 9 0 0 1-8.2-4.4L112 234a22.5 22.5 0 0 0 19.4 10.6c10.8 0 19.8-4.2 22.2-13.1.5-2.2.8-4.4.7-6.6v-52.2h-10.8zm-11.3 39.2c-8 0-11.5-6.6-11.5-14.8s3.8-14.9 12-14.9c7.7 0 10.7 6 10.7 14.9s-3 14.8-11.2 14.8zm35.6-46H180V155h-12.3l.1 10.9zm0 55.6H180v-48.9h-12.3l.1 48.9zm45 1.4c12.7 0 20.4-6 20.4-16.1 0-7.6-4.2-11.6-15.4-14.5-11.4-2.9-13-3.7-13-6.2 0-2.8 3-4.4 7.5-4.2s7.5 2.6 8 6.2l12.5-2.3c-2.1-19.3-40.5-19.8-40.2.9-.6 17.1 28.8 12.8 28.1 20.7 0 3.1-2.6 5-7 5-5.5 0-9.2-2.8-10.2-7.4l-12.5 1.9c1.6 10.2 9.5 16 21.8 16zm29.5-34.7h27v9.5h-27v-9.5zM282 166h12.3v-11H282v11zm0 55.6h12.3v-48.9H282v48.9zm47.4 1.3c11.3 0 19.4-5.8 22.2-16.2L339 204c-1.4 4.7-4 7.3-9.6 7.3-7.4 0-11.2-5.8-11.2-14.3 0-8.1 3.4-14.2 11.2-14.2 4.5 0 8.4 3 9.9 8l12.3-3.3c-2.2-10-10.5-16.2-22-16.2-32.4-.6-32.6 52-.2 51.6zm51.8 0c14.7 0 24.8-10.5 24.8-25.7.3-34.3-49.6-34.5-49.5 0 0 15 10 25.8 24.7 25.8v-.1zm0-11.5c-7.7 0-11.7-5.5-11.7-14.2 0-8.5 3.7-14.3 11.7-14.3 7.8 0 11.8 5.6 11.8 14.3 0 8.4-4 14.3-11.8 14.3v-.1zm61.4-40.1c-7 0-12.3 2.5-15.8 6.4v-5h-11v48.9h12.5v-24.8c0-12.1 6.2-14 10.4-14 10.5 0 10.5 11.3 10.5 15.7v23h12.5v-27.3c0-4.1 0-23-19-23l-.1.1zm50 51.6c12.7 0 20.4-6 20.4-16 0-7.7-4.3-11.6-15.4-14.5-11.4-3-13-3.7-13-6.3 0-2.8 3-4.4 7.5-4.1s7.4 2.5 7.9 6.1l12.6-2.2c-2-19.4-40.6-19.7-40.2.9-.6 17.1 28.8 12.7 28 20.7 0 3-2.5 4.9-7 4.9-5.4 0-9.1-2.7-10-7.4l-12.7 2c1.7 10.2 9.6 16 21.9 15.9z" fill="#263cd9"/></svg>