<svg xmlns="http://www.w3.org/2000/svg" viewBox="0 0 513 245"><path d="M262.31 64.84l-26.46 47.66a3.08 3.08 0 002.7 4.58h29.26a3.08 3.08 0 002.66-1.52L286 89.05a3.09 3.09 0 000-3.17l-13-21.27a6.2 6.2 0 00-10.71.22zM255.62 39l-45 76.54a3.08 3.08 0 01-2.66 1.52h-22.87a3.08 3.08 0 01-2.66-4.64l55.86-95.63 7.24-12.38a8.93 8.93 0 0115-.58L268 14.5a3.08 3.08 0 01.12 3.32l-12.35 21-.11.19zm54.6 53.36l-11.82 20.08a3.08 3.08 0 002.66 4.65h23.52a6.22 6.22 0 005.36-9.37l-9-15.34a6.2 6.2 0 00-10.68 0zm-32.44-54.6L272.65 47a3.09 3.09 0 00.06 3.11l13.07 21.39a6.2 6.2 0 0010.63-.09l5.1-8.68a3.09 3.09 0 000-3.13l-13-22a6.2 6.2 0 00-10.76.14zM41.7 180.15c-3.44-6.51-10.49-8.86-19.08-8.86-11.76 0-18.45 5.61-20.89 13.66l11.12 3.53c1.54-4.43 6.15-6 9.77-6 5.79 0 8.5 2.08 9 6.69-9.14 1.36-16.19 2.35-20.89 4.07C2.8 196.16 0 201.23 0 208c0 8.14 5.79 14.84 16.28 14.84 7.51 0 12.3-2.17 16.64-7.33v6h10.76v-29.87c0-4.44-.09-7.87-1.98-11.49zm-11.49 26.5a12.43 12.43 0 01-11.31 6.51c-4.25 0-6.87-2-6.87-5.34 0-2.44 1.45-4.16 5.06-5.61 2.8-1.09 6.15-1.72 14.38-3.17 0 2.37-.18 5.44-1.26 7.61zM66 200.5h34.19c1.54-17.73-7.42-29.22-22.79-29.22-14.47 0-24.69 10.4-24.69 26.41 0 14.65 10.4 25.15 25.42 25.15 9.41 0 18-5.16 21.71-14.11l-12.3-3.53c-1.81 4-5.34 6.15-10.13 6.15-6.59.01-10.48-3.88-11.41-10.85zM78 182c5.88 0 9 2.8 9.86 9.41H66.3c1.26-6.29 5.06-9.41 11.7-9.41zm65.48-9.32v2.71a20.12 20.12 0 00-12.57-4.07c-14 0-23.15 10.85-23.15 25.78 0 14.65 9 25.78 22.52 25.78a21.56 21.56 0 0011.67-3.17v5c.18 5.43-5 8.23-10.49 8.23a8.94 8.94 0 01-8.14-4.43L111.88 234c3.71 6.33 11.13 10.58 19.45 10.58 10.76 0 19.81-4.16 22.16-13.12a25.47 25.47 0 00.72-6.6v-52.2zm-11.25 39.22c-8 0-11.49-6.6-11.49-14.84s3.71-14.83 11.94-14.83c7.69 0 10.76 6 10.76 14.83s-2.98 14.84-11.21 14.84zm35.54-46h12.3V155h-12.3zm0 55.63h12.3v-48.89h-12.3zm45 1.36c12.76 0 20.44-6.06 20.44-16.1 0-7.6-4.25-11.58-15.38-14.47-11.4-2.9-13-3.71-13-6.24 0-2.8 3-4.43 7.51-4.16s7.42 2.53 7.87 6.15l12.57-2.26c-1.27-8.87-9.23-14.47-20.71-14.47-11.85 0-19.45 6-19.45 15.38 0 7.51 4.34 11.31 16.28 14.38 10.58 2.8 11.76 3.44 11.76 6.33 0 3.08-2.53 4.88-7 4.88-5.43 0-9.13-2.71-10.13-7.33l-12.57 1.9c1.63 10.22 9.5 16 21.8 16zm29.49-34.65h27.13v9.5h-27.18zM282 165.85h12.3V155H282zm0 55.63h12.3v-48.84H282zm47.39 1.36c11.31 0 19.36-5.79 22.16-16.19L339 204c-1.45 4.7-4.07 7.33-9.59 7.33-7.42 0-11.21-5.79-11.21-14.29 0-8.14 3.44-14.29 11.21-14.29 4.52 0 8.41 3 9.86 8.05l12.3-3.26c-2.17-10-10.49-16.28-22-16.28-14.92 0-24.42 10.95-24.42 25.78.01 14.68 9.05 25.81 24.25 25.81zm51.83 0c14.65 0 24.78-10.58 24.78-25.78s-10-25.78-24.78-25.78c-14.47 0-24.69 10.49-24.69 25.78 0 15.11 9.95 25.79 24.7 25.79zm0-11.49c-7.69 0-11.67-5.52-11.67-14.29 0-8.5 3.62-14.29 11.67-14.29 7.78 0 11.76 5.61 11.76 14.29.02 8.42-3.89 14.3-11.75 14.3zm61.41-40.16c-7.06 0-12.3 2.53-15.83 6.42v-5h-10.94v48.85h12.48V196.7c0-12.12 6.15-13.93 10.4-13.93 10.49 0 10.49 11.22 10.49 15.65v23.07h12.48v-27.41c.01-4.08.01-22.89-19.07-22.89zm49.92 51.65c12.75 0 20.44-6.06 20.44-16.1 0-7.6-4.25-11.58-15.38-14.47-11.4-2.9-13-3.71-13-6.24 0-2.8 3-4.43 7.51-4.16s7.42 2.53 7.87 6.15l12.57-2.26c-1.27-8.87-9.23-14.47-20.71-14.47-11.85 0-19.45 6-19.45 15.38 0 7.51 4.34 11.31 16.28 14.38 10.58 2.8 11.76 3.44 11.76 6.33 0 3.08-2.53 4.88-7 4.88-5.43 0-9.14-2.71-10.13-7.33l-12.57 1.9c1.65 10.23 9.52 16.02 21.82 16.02z" style="fill:#263cd9;"/></svg>