<svg xmlns="http://www.w3.org/2000/svg" viewBox="0 0 1024 1024">
   <circle cx="512" cy="512" r="512" style="fill:#11bdf2"/>
   <path fill="#f2f4f9" d="M745.97 462.63 534.7 251.35c-12.469-12.469-32.895-12.469-45.365 0l-211.3 211.28c-12.469 12.469-22.693 37.128-22.693 54.773v192.5c0 17.645 14.437 32.083 32.083 32.083h197.35l-86.901-86.901c-4.47 1.54-9.24 2.417-14.202 2.417-24.169 0-43.846-19.677-43.846-43.846s19.677-43.846 43.846-43.846 43.846 19.677 43.846 43.846c0 4.983-.877 9.753-2.417 14.223l67.651 67.65V447.68c-14.544-7.142-24.597-22.071-24.597-39.331 0-24.17 19.677-43.846 43.846-43.846s43.846 19.677 43.846 43.846c0 17.26-10.053 32.189-24.597 39.332V621.5l67.288-67.288a43.9 43.9 0 0 1-2.053-13.261c0-24.17 19.677-43.846 43.846-43.846s43.846 19.677 43.846 43.846-19.677 43.846-43.846 43.846c-5.347 0-10.438-1.005-15.164-2.76l-93.916 93.917V742h205.33c17.645 0 32.083-14.437 32.083-32.083v-192.5c0-17.645-10.202-42.285-22.693-54.776z" style="fill:#fff"/>
</svg>
