<svg id="Layer_1" xmlns="http://www.w3.org/2000/svg" version="1.1" viewBox="0 0 1024 1024">
   <defs>
      <style>
         .st0{fill:#fff}
      </style>
   </defs>
   <circle cx="512" cy="512" r="512" style="fill:#093e3b"/>
   <path id="K" class="st0" d="m284.4 586.3-46.9-47.5 48.3-48.3c9.2-9.6 8.9-25-.3-34.5-9.6-9.7-24.6-10.7-34.3-1.4l-55.9 54.8v-90.6c0-13.9-11.3-25-24.9-25s-24.9 11.2-24.9 25v185.5c0 13.9 11.3 25 24.9 25s24.9-11.2 24.9-25v-38.8l55.3 57.6c9.4 9.5 24.2 9.2 33.6.5 11.3-11.3 11.5-25.7.2-37.2Z"/>
   <g id="UA">
      <path id="Tip" class="st0" d="M470.2 456.9c-4.3-3.8-9.8-6.2-16-6.2-13.2 0-24 10.9-24 24.1v25.5c8.1-18.5 22.3-33.8 40-43.4Z"/>
      <path id="UA1" data-name="UA" class="st0" d="M608.8 539.5c-.5-57.3-52.7-99-108.4-86.6-38.2 8.6-65.7 40.5-69.1 79.8-.9 9.4-.6 18.7-5.3 27.3-9 16.4-28.3 24.8-47 20.1-17.5-4.3-30.4-20.9-30.8-40-.3-20.9 0-41.7 0-62.6s-.8-10.7-3.8-15.4c-5.9-8.9-16.4-13.2-26-10.5-10.9 2.9-18 12.2-18.2 24.6-.2 19.1-.1 38.2-.1 57.4s0 17.3 1.8 25.6c7.9 38.7 45.7 73.1 92.1 70.3 41.6-2.5 77.6-33.7 83.4-75.2 1-6.9 1.4-13.8 2.4-20.5 3.2-22.3 24.9-37.9 46.9-34.1 22.2 3.9 37.9 27.4 33 49.5-5.1 22.6-27.5 36.8-49.6 31.1-9.9-2.6-17.2-8.8-24.6-17.1-4.4 16.6-13.2 32.4-25 44.1 0 0 3.6 2.7 5.6 4.1 29.3 20.9 60.2 23.3 92.8 8.8 2.9-1.2 5.1-2.6 8.1.8 7.9 8.5 17.4 10.6 26.5 6.4 10-4.5 15.3-12.3 15.2-23.7-.1-21.3.1-42.7 0-64Z"/>
   </g>
   <path id="L" class="st0" d="M686.6 582.7c-11.4-2-19.5-9.8-19.5-20.9 0 0 .1-93.4 0-139.7 0-15.4-10.4-27.1-23.9-27.1-14-.2-24.6 11.3-24.6 27.1 0 24.4-.2 121.2 0 144.9 0 42.1 30.6 63.4 64.7 62.6 13.2-.2 23.9-9.8 24.8-22.2.9-12.1-8.3-22.6-21.5-24.6Z"/>
   <path id="O" class="st0" d="M789.6 451.1c-49.2 0-88.9 39.9-88.9 89.3s39.7 89.3 88.9 89.3 88.9-39.9 88.9-89.3-39.7-89.3-88.9-89.3Zm0 130.7c-22.8 0-41.2-18.6-41.2-41.4s18.5-41.4 41.2-41.4 41.2 18.6 41.2 41.4-18.5 41.4-41.2 41.4Z"/>
</svg>
