<svg xmlns="http://www.w3.org/2000/svg" viewBox="0 0 1024 1024">
   <circle cx="512" cy="512" r="512" style="fill:#000"/>
   <path d="M512 256a7.32 7.32 0 0 0-6.271 3.55l-12.973 21.62a232 232 0 0 0-6.918.678l-16.935-18.67a7.32 7.32 0 0 0-4.974-2.393 7.3 7.3 0 0 0-1.877.127 7.32 7.32 0 0 0-5.453 4.713l-8.506 23.727a230 230 0 0 0-6.647 2.021l-20.26-15.012a7.3 7.3 0 0 0-4.714-1.427 7.315 7.315 0 0 0-6.875 6.23l-3.723 25.01a232 232 0 0 0-6.035 3.24l-22.881-10.807a7.3 7.3 0 0 0-2.912-.695 7.315 7.315 0 0 0-7.516 7.662l1.23 25.352a233 233 0 0 0-5.209 4.285l-24.629-6.158a7.3 7.3 0 0 0-1.992-.215 7.315 7.315 0 0 0-6.879 9.084l6.157 24.633a233 233 0 0 0-4.282 5.207l-25.346-1.228a7.315 7.315 0 0 0-6.968 10.432l10.805 22.869a231 231 0 0 0-3.245 6.04l-25.006 3.723a7.315 7.315 0 0 0-4.8 11.59l15.008 20.258q-1.059 3.302-2.022 6.645l-23.729 8.502a7.315 7.315 0 0 0-2.449 12.312l18.672 16.939q-.389 3.438-.676 6.906l-21.619 12.973a7.315 7.315 0 0 0 0 12.547l21.62 12.975v.002q.286 3.473.677 6.916l-18.67 16.934a7.315 7.315 0 0 0 2.447 12.305l23.727 8.506q.962 3.345 2.022 6.647l-15.012 20.26a7.315 7.315 0 0 0 4.802 11.59l25.01 3.722a232 232 0 0 0 3.24 6.035l-10.806 22.881a7.315 7.315 0 0 0 6.966 10.426l25.352-1.23a233 233 0 0 0 4.284 5.209l-6.157 24.629a7.315 7.315 0 0 0 8.87 8.873l24.63-6.158q2.572 2.178 5.208 4.283l-1.229 25.346a7.315 7.315 0 0 0 10.434 6.969l22.869-10.805q2.994 1.666 6.041 3.244l3.723 25.006a7.315 7.315 0 0 0 11.59 4.8l20.258-15.007q3.301 1.06 6.644 2.021l8.502 23.73a7.315 7.315 0 0 0 12.312 2.448l16.94-18.672q3.438.39 6.905.676l12.973 21.62a7.315 7.315 0 0 0 12.547 0l12.973-21.62q3.475-.287 6.918-.678l16.934 18.67a7.315 7.315 0 0 0 12.305-2.447l8.506-23.727a230 230 0 0 0 6.647-2.021l20.26 15.012a7.315 7.315 0 0 0 11.59-4.803l3.723-25.01a232 232 0 0 0 6.035-3.24l22.88 10.807a7.315 7.315 0 0 0 10.429-6.967l-1.23-25.352a233 233 0 0 0 5.208-4.285l24.63 6.158a7.315 7.315 0 0 0 8.87-8.871l-6.156-24.631a234 234 0 0 0 4.281-5.207l25.346 1.228a7.315 7.315 0 0 0 6.97-10.432l-10.806-22.869q1.665-2.995 3.242-6.04l25.008-3.723a7.315 7.315 0 0 0 4.801-11.59l-15.008-20.258q1.059-3.302 2.022-6.645l23.729-8.502a7.315 7.315 0 0 0 2.449-12.312l-18.672-16.938q.388-3.44.676-6.908l21.619-12.973a7.315 7.315 0 0 0 0-12.55l-21.62-12.972a231 231 0 0 0-.677-6.918l18.67-16.934a7.315 7.315 0 0 0-2.447-12.305l-23.727-8.506a229 229 0 0 0-2.022-6.645l15.012-20.262a7.315 7.315 0 0 0-4.803-11.59l-25.01-3.722a232 232 0 0 0-3.24-6.035l10.807-22.881a7.315 7.315 0 0 0-6.967-10.426l-25.352 1.23a234 234 0 0 0-4.283-5.209l6.156-24.63a7.315 7.315 0 0 0-6.877-9.087 7.3 7.3 0 0 0-1.992.215l-24.63 6.158a234 234 0 0 0-5.208-4.283l1.229-25.346a7.32 7.32 0 0 0-3.235-6.441 7.3 7.3 0 0 0-4.472-1.221 7.3 7.3 0 0 0-2.727.693l-22.869 10.805a232 232 0 0 0-6.04-3.244l-3.724-25.006a7.32 7.32 0 0 0-4.433-5.68 7.3 7.3 0 0 0-2.754-.556 7.3 7.3 0 0 0-4.402 1.435l-20.258 15.008a230 230 0 0 0-6.645-2.021l-8.502-23.73a7.32 7.32 0 0 0-5.463-4.708 7.3 7.3 0 0 0-1.875-.127 7.32 7.32 0 0 0-4.974 2.387l-16.94 18.672q-3.438-.39-6.906-.676l-12.973-21.62a7.32 7.32 0 0 0-6.275-3.55zm0 46.32a14.63 14.63 0 0 1 14.629 14.627 14.63 14.63 0 0 1-2.201 7.717A14.63 14.63 0 0 1 512 331.576a14.63 14.63 0 0 1-12.428-6.912 14.63 14.63 0 0 1-2.201-7.717A14.63 14.63 0 0 1 512 302.32m-34.594 25.102 24.248 24.25a14.63 14.63 0 0 0 20.691.006l24.254-24.256a186.5 186.5 0 0 1 57.691 20.936c-29.869 85.504-60.533 170.84-89.854 256.72l-.057.162-.046.162c-.83 2.703-1.342 5.556-2.143 8.276-12.127-41.676-28.164-81.625-41.582-121.71l-.02-.077-50.447-143.78a186.6 186.6 0 0 1 57.264-20.693zm-112.12 67.219 107.51 301.02a186.5 186.5 0 0 1-41.281-13.91l-5.38-33.975a14.63 14.63 0 0 0-14.833-12.332 15 15 0 0 0-1.906.176L375.419 641c-31.738-33.597-51.158-78.966-51.158-129.01 0-8.183.52-16.241 1.527-24.144l30.537-15.561a14.63 14.63 0 0 0 6.397-19.674l-15.62-30.652v-.002a187.4 187.4 0 0 1 18.185-27.324zm293.42 0a187.5 187.5 0 0 1 18.188 27.332l-15.615 30.646a14.63 14.63 0 0 0 6.393 19.672l30.533 15.559a191 191 0 0 1 1.527 24.148c0 50.038-19.42 95.406-51.156 129l-33.977-5.38a15 15 0 0 0-1.906-.177 14.63 14.63 0 0 0-14.828 12.342l-5.381 33.963a186.6 186.6 0 0 1-41.287 13.912zm-331.45 42.477a14.6 14.6 0 0 1 3.756.695 15 15 0 0 1 1.818.733 15 15 0 0 1 .534.297 15 15 0 0 1 1.166.668 15 15 0 0 1 .625.466 15 15 0 0 1 .931.715 15 15 0 0 1 .623.61 15 15 0 0 1 .756.767 14.63 14.63 0 0 1 2.938 14.178 14.63 14.63 0 0 1-10.676 9.733 15 15 0 0 1-1.118.187 15 15 0 0 1-.824.12 15 15 0 0 1-1.137.034 15 15 0 0 1-.832.01 15 15 0 0 1-1.25-.134 15 15 0 0 1-.693-.082 15 15 0 0 1-1.902-.477 14.63 14.63 0 0 1-9.393-18.432 14.63 14.63 0 0 1 14.678-10.088m369.48 0a14.63 14.63 0 0 1 14.678 10.088 14.63 14.63 0 0 1-9.393 18.432 15 15 0 0 1-1.902.477 15 15 0 0 1-.693.082 15 15 0 0 1-1.25.134 15 15 0 0 1-.832-.01 15 15 0 0 1-1.137-.035 15 15 0 0 1-.824-.119 15 15 0 0 1-1.117-.187 14.63 14.63 0 0 1-10.676-9.733 14.63 14.63 0 0 1 2.937-14.178 15 15 0 0 1 .756-.767 15 15 0 0 1 .623-.61 15 15 0 0 1 .932-.715 15 15 0 0 1 .625-.466 15 15 0 0 1 1.166-.668 15 15 0 0 1 .533-.297 15 15 0 0 1 1.818-.733 14.6 14.6 0 0 1 3.756-.695m-299.77 218.06a14.63 14.63 0 0 1 8.98 2.79 14.63 14.63 0 0 1 5.956 13.208 15 15 0 0 1-.16 1.059 15 15 0 0 1-.147.86 15 15 0 0 1-.346 1.165 15 15 0 0 1-.217.7 15 15 0 0 1-.582 1.286 15 15 0 0 1-.226.493 15 15 0 0 1-1.041 1.662 14.63 14.63 0 0 1-20.432 3.236 14.63 14.63 0 0 1-3.236-20.434 15 15 0 0 1 1.255-1.502 15 15 0 0 1 .483-.445 15 15 0 0 1 .951-.866 15 15 0 0 1 .688-.486 15 15 0 0 1 .921-.633 15 15 0 0 1 .762-.4 15 15 0 0 1 .975-.488 14.6 14.6 0 0 1 5.416-1.205m230.06 0a14.6 14.6 0 0 1 5.416 1.205 15 15 0 0 1 .975.488 15 15 0 0 1 .761.4 15 15 0 0 1 .922.634 15 15 0 0 1 .688.486 15 15 0 0 1 .95.865 15 15 0 0 1 .483.445 15 15 0 0 1 1.256 1.502 14.63 14.63 0 0 1-3.236 20.434 14.63 14.63 0 0 1-20.432-3.236 15 15 0 0 1-1.041-1.662 15 15 0 0 1-.227-.492 15 15 0 0 1-.582-1.287 15 15 0 0 1-.216-.7 15 15 0 0 1-.346-1.165 15 15 0 0 1-.147-.86 15 15 0 0 1-.16-1.058 14.63 14.63 0 0 1 5.955-13.21 14.63 14.63 0 0 1 8.98-2.789z" style="fill:#fff"/>
</svg>
