<svg xmlns="http://www.w3.org/2000/svg" viewBox="0 0 1024 1024">
  <g id="Icon grid">
    <g id="Other shape guides" fill="none" stroke="#d9dada" stroke-width="1px" opacity="0.75">
      <path d="M288 192h448v640H288z"/>
      <path d="M224 224h576v576H224z"/>
      <path d="M192 288h640v448H192z"/>
      <path d="M160 352h704v320H160z"/>
    </g>
    <g id="One to one shape guides" fill="none" stroke-width="1px">
      <g id="Ellipse">
        <circle id="Ellipse - solid" cx="512" cy="512" r="272" stroke="#9b00ff" stroke-miterlimit="4"/>
        <circle id="Ellipse - dashed" cx="512" cy="512" r="272" stroke="#fff" stroke-dasharray="12 12 12 12 12 12"/>
      </g>
      <g id="Square" stroke-miterlimit="4">
        <path id="Square - solid" stroke="#9b00ff" d="M272 272h480v480H272z"/>
        <path id="Square - dashed" stroke="#fff" stroke-dasharray="12 12 12 12 12 12" d="M272 272h480v480H272z"/>
      </g>
    </g>
    <g id="Out of bounds rings">
      <path id="Warning" fill="#086ce1" d="M512 0C229.2 0 0 229.2 0 512s229.2 512 512 512 512-229.2 512-512S794.8 0 512 0m326.3 838.3c-42.4 42.4-91.7 75.7-146.7 98.9-56.9 24-117.3 36.2-179.6 36.2s-122.7-12.2-179.6-36.2c-54.9-23.2-104.3-56.5-146.7-98.9S110 746.6 86.8 691.6c-24-56.9-36.2-117.3-36.2-179.6s12.2-122.7 36.2-179.6c23.2-54.9 56.5-104.3 98.9-146.7s91.7-75.7 146.7-98.9c56.9-24 117.3-36.2 179.6-36.2s122.7 12.2 179.6 36.2c54.9 23.2 104.3 56.5 146.7 98.9s75.7 91.7 98.9 146.7c24 56.9 36.2 117.3 36.2 179.6s-12.2 122.7-36.2 179.6c-23.3 54.9-56.5 104.3-98.9 146.7"/>
      <g id="The NO Zone">
        <path id="The NO Zone ring" fill="#00ffb6" fill-opacity=".75" d="M512 0C229.2 0 0 229.2 0 512s229.2 512 512 512 512-229.2 512-512S794.8 0 512 0M128 212.9c12.3-15.7 25.6-30.8 39.8-45 14.3-14.3 29.3-27.6 45-39.8h598.3c15.7 12.3 30.8 25.6 45 39.8 14.3 14.3 27.6 29.3 39.8 45v598.3c-12.3 15.7-25.6 30.8-39.8 45-14.3 14.3-29.3 27.6-45 39.8H212.9c-15.7-12.3-30.8-25.6-45-39.8-14.3-14.3-27.6-29.3-39.8-45"/>
        <g id="TNZ text - right">
          <path fill="#fff" d="M942.2 682.5v-5.8l-5.9 5.4-1-.8q-2.55-2.1-3.9-5.1c-1-2.4-1.5-5-1.4-7.5 0-4.8 1.4-8.6 4.2-11.3s6.5-4 11.3-4q7.2 0 11.4 3.9c2.9 2.8 4.4 6.6 4.2 10.6 0 4.4-1.4 7.9-4.1 10.5s-6.4 3.9-11 3.9zm0-18.3c-.8.1-1.5.5-2.1 1.1-.8 1-1.3 2.3-1.2 3.7 0 2.3 1 4.5 2.8 5.9l.4.4zm7.3 7.6c.7-.1 1.4-.4 2-.9.7-.7 1.1-1.8 1.1-2.8.1-1.1-.3-2.1-1.1-2.9-.5-.5-1.2-.9-2-1zm-18.9-21V640h17.8c1 .1 2-.2 2.9-.8.6-.6.9-1.4.8-2.2 0-.9-.2-1.7-.7-2.4-.4-.5-1-.8-1.7-.8h-19.1v-10.7h29.8v10.6h-1.9c.3.3.5.5.7.8 1.3 1.7 1.9 3.8 1.8 5.9.1 2.8-1.1 5.6-3.2 7.5-2 1.8-4.9 2.8-8.4 2.8h-18.8zm15-30.3c-4.7 0-8.5-1.3-11.3-4s-4.2-6.4-4.2-11 1.4-8.3 4.2-11 6.6-4 11.3-4 8.5 1.3 11.3 4 4.2 6.4 4.2 11-1.4 8.3-4.2 11-6.6 4-11.3 4m-2.2-19c-1.3-.1-2.6.3-3.6 1.1-1.493 1.672-1.493 4.228 0 5.9 1 .8 2.3 1.2 3.6 1.1h4.3c1.3.1 2.6-.3 3.6-1.1 1.5-1.7 1.5-4.2 0-5.9-1-.8-2.3-1.2-3.6-1.1zM930.6 589v-29.2h8.8l21.1 15.4v-14.9h9.4v28.1h-8.8L940 572.9v16zm19.7-61.2c-6.4 0-11.3-1.3-14.8-3.8-3.6-2.6-5.5-6.6-5.5-11.9s1.8-9.3 5.5-11.9 8.5-3.8 14.8-3.8 11.3 1.3 14.8 3.8 5.5 6.6 5.5 11.9-1.8 9.3-5.5 11.9-8.4 3.8-14.8 3.8m-3.2-20.2c-2.1-.1-4.3.2-6.2 1.1-.7.4-1.6 1.2-1.6 3.2-.2 1.3.5 2.6 1.6 3.2 2 .9 4.1 1.3 6.2 1.2h6.3c2.1.1 4.3-.3 6.2-1.2.7-.4 1.6-1.2 1.6-3.2s-.9-2.8-1.6-3.2c-1.9-.9-4.1-1.3-6.2-1.1zm-16.5-12.8v-12l18.3-6.2h-18.3v-9.7h39.3v11.9l-18.3 6.3h18.3v9.7zm11.6-61.8v-5.7l-5.9 5.4-1-.8q-2.55-2.1-3.9-5.1c-1-2.4-1.5-5-1.4-7.5 0-4.8 1.4-8.6 4.2-11.3s6.5-4 11.3-4q7.2 0 11.4 3.9c2.9 2.8 4.4 6.6 4.2 10.6 0 4.4-1.4 8-4.1 10.5s-6.4 3.9-11 3.9zm0-18.3c-.8.1-1.5.5-2.1 1.1-.8 1-1.3 2.3-1.2 3.6 0 2.3 1 4.5 2.8 5.9l.4.4zm7.3 7.6c.7-.1 1.4-.4 2-.9.7-.7 1.1-1.8 1.1-2.8.1-1.1-.3-2.1-1.1-2.9-.5-.5-1.2-.9-2-1zm-18.9-21.1v-10.7h17.8c1 .1 2-.2 2.9-.8.6-.6.9-1.4.8-2.2 0-.9-.2-1.7-.7-2.4-.4-.5-1-.8-1.7-.8h-19.1v-10.7h41.5v10.7h-13.6c.3.3.5.5.7.8 1.3 1.7 1.9 3.8 1.8 5.9.1 2.8-1.1 5.6-3.2 7.5-2 1.8-4.9 2.8-8.4 2.8zm29.9-29.3v-10.5h-29.9v-10.8h29.9v-10.5h9.4v31.7z"/>
          <path d="M968.4 341.6v28.7H962v-10.5h-29.9V352H962v-10.5zm2.2 33.4v7.7h-16.5v.3c1.6.6 3 1.6 4 2.9 1.1 1.4 1.6 3.2 1.5 5 .1 2.4-.9 4.7-2.7 6.3s-4.2 2.4-7.4 2.4h-17.4v-7.7h16.3c1.4.1 2.8-.3 3.9-1.1.9-.9 1.4-2.1 1.3-3.4 0-1.2-.3-2.4-1-3.3s-1.7-1.4-2.9-1.4H932V375zm-25.1 30.4c4.4 0 7.9 1.2 10.4 3.5s3.8 5.5 3.8 9.5-1.2 7.2-3.7 9.5-5.8 3.5-10 3.5h-2.3V413h-.5c-1.6-.1-3.1.6-4.2 1.7-1.1 1.3-1.7 3-1.6 4.7 0 2.7 1.2 5.4 3.3 7.1l-4.5 4.2c-1.5-1.2-2.7-2.8-3.4-4.6-.9-2.2-1.4-4.5-1.3-6.9 0-4.4 1.2-7.8 3.7-10.2s5.9-3.5 10.3-3.6m2.5 18.5h.4c1.5.1 3-.4 4.1-1.4s1.6-2.5 1.5-3.9c.1-1.5-.5-2.9-1.5-4-1.1-1-2.6-1.6-4.1-1.5h-.4zm20.4 44.5v9.4l-24.1 8.3v.6h24.1v6.7h-36.3V484l24.1-8.3v-.6h-24.1v-6.7zm-18.1 29.5c6.1 0 10.7 1.2 13.9 3.5s4.8 5.9 4.8 10.7-1.6 8.4-4.8 10.7-7.9 3.5-13.9 3.5-10.7-1.2-13.9-3.5-4.8-5.9-4.8-10.7 1.6-8.4 4.8-10.7c3.2-2.5 7.8-3.6 13.9-3.5m-3.1 19.9h6.3c3.1 0 5.4-.5 7-1.3 2.5-1.8 3.1-5.2 1.3-7.7-.4-.5-.8-.9-1.3-1.3-1.6-.9-3.9-1.4-7-1.4h-6.3c-3.1 0-5.4.5-7 1.4-2.5 1.8-3.1 5.2-1.3 7.7.4.5.8.9 1.3 1.3 1.5 1 3.8 1.3 7 1.3m-8.3 43.5 23.1 16.9v-16.4h6.4v25.1h-6.8L938.5 570v17.4h-6.4v-26.2zm6.6 30.8c4.3 0 7.8 1.2 10.3 3.6s3.8 5.7 3.8 9.9-1.3 7.5-3.8 9.9-5.9 3.6-10.3 3.6c-4.3 0-7.8-1.2-10.3-3.6s-3.8-5.7-3.8-9.9 1.3-7.5 3.8-9.9c2.6-2.4 6-3.6 10.3-3.6m-2.1 19h4.3c1.7.1 3.3-.4 4.6-1.5 2.1-2.3 2.1-5.8 0-8.1-1.3-1-2.9-1.6-4.6-1.5h-4.3c-1.7-.1-3.3.4-4.6 1.5-2.1 2.3-2.1 5.8 0 8.1 1.3 1.1 2.9 1.6 4.6 1.5m15.5 13.4v7.7H954v.3c1.6.6 3 1.6 4 2.9 1.1 1.4 1.6 3.2 1.5 5 .1 2.4-.9 4.7-2.7 6.3s-4.2 2.4-7.4 2.4h-17.3v-7.7h16.3c1.4.1 2.8-.3 3.9-1.1.9-.9 1.4-2.1 1.3-3.4 0-1.2-.3-2.4-1-3.3s-1.7-1.4-2.9-1.4H932v-7.7zM945.5 655c4.4 0 7.9 1.2 10.4 3.5s3.8 5.5 3.8 9.5-1.2 7.2-3.7 9.5-5.8 3.5-10 3.5h-2.3v-18.4h-.5c-1.6-.1-3.1.5-4.2 1.7-1.1 1.3-1.7 3-1.6 4.7 0 2.7 1.2 5.4 3.3 7.1l-4.5 4.2c-1.5-1.2-2.7-2.8-3.4-4.6-.9-2.2-1.4-4.5-1.3-6.9 0-4.4 1.2-7.8 3.7-10.2 2.4-2.5 5.8-3.7 10.3-3.6m2.5 18.4h.4c1.5.1 3-.4 4.1-1.4s1.6-2.5 1.5-3.9c.1-1.5-.5-2.9-1.5-4-1.1-1-2.6-1.6-4.1-1.5h-.4zm23.4-334.8H959v10.5h-29.9v13.8H959v9.1h-29.9v13.7h20.6c.3 0 .3.1.5.2.3.4.5 1 .5 1.5 0 .4-.1.8-.3 1.1-.6.3-1.2.5-1.9.4h-19.3v13.7h13c-3.4.4-6.5 1.8-9 4.1-3.1 2.9-4.6 7.1-4.6 12.4-.1 2.8.5 5.6 1.6 8.2 1 2.2 2.4 4.1 4.3 5.7l2 1.6 1.9-1.8 2.4-2.2v3.8h5.3c5 0 9-1.5 12-4.3s4.6-6.8 4.6-11.6-1.6-8.8-4.7-11.7c-2.5-2.3-5.6-3.7-9-4.1h.7c3.9 0 7.1-1.1 9.4-3.2 2.4-2.2 3.8-5.3 3.6-8.6 0-1.8-.4-3.6-1.1-5.2h12.2V372h-2.2zm-30.7 82.5c-.2-.6-.2-1.2-.2-1.8s.1-1.2.2-1.7zm10.3-1.8v-1.7c.1.3.1.6.1.8 0 .3 0 .6-.1.9m20.5 46h-42.3V478h10.7l-8.8 3-2 .7v14.5h10.8q-2.85.9-5.4 2.7c-4 2.9-6.1 7.3-6.1 13.1s2 10.2 6.1 13.1c3.7 2.7 9 4.1 15.7 4.1s12-1.4 15.7-4.1c4-2.9 6.1-7.3 6.1-13.1s-2-10.2-6.1-13.1c-1.6-1.2-3.5-2.1-5.4-2.7h10.8v-12.6h-10.8l8.8-3 2-.7zm-24.3 49.5c-3.2 0-4.7-.5-5.5-1-.3-.2-.8-.5-.8-1.9s.5-1.7.8-1.9c.8-.4 2.3-1 5.5-1h6.3c3.2 0 4.7.5 5.5 1 .3.2.8.5.8 1.9s-.5 1.8-.8 1.9c-.8.4-2.3 1-5.5 1zm-7.3 43.4h-10.8v32.2h8.9c-1.8.7-3.4 1.8-4.8 3.1-3.1 3-4.7 7-4.7 12s1.6 9.1 4.7 12c2.1 2 4.7 3.3 7.6 3.9h-11.7v13.7h20.6c.3 0 .3.1.5.2.3.4.5 1 .5 1.5 0 .4-.1.8-.3 1.1-.6.3-1.2.5-1.9.4h-19.3V652h13c-3.4.4-6.5 1.8-9 4.1-3.1 2.9-4.6 7.1-4.6 12.4-.1 2.8.5 5.6 1.6 8.2 1 2.2 2.4 4.1 4.3 5.7l2 1.6 1.9-1.8 2.4-2.2v3.8h5.3c5 0 9-1.5 12-4.3s4.6-6.8 4.6-11.6-1.6-8.8-4.7-11.7c-2.5-2.3-5.6-3.7-9-4.1h.7c3.9 0 7.1-1.1 9.4-3.2 2.4-2.2 3.7-5.3 3.6-8.6 0-1.8-.4-3.6-1.1-5.2h.5v-13.7h-11.6c2.8-.6 5.5-1.9 7.6-3.9 3.1-3 4.7-7 4.7-12s-1.6-9.1-4.7-12-7.2-4.4-12.3-4.4c-1.3 0-2.7.1-4 .3v-13.5l18.3 13.4.8.6h10.8v-31.1h-12.4v13.5L941 558.9zm3.5 49.9c-.9.1-1.8-.2-2.6-.7-.8-1.1-.8-2.6 0-3.7.7-.5 1.7-.8 2.6-.7h4.3c.9-.1 1.8.2 2.6.7.5.5.7 1.2.6 1.8q.15 1.05-.6 1.8c-.7.5-1.7.8-2.6.7zm-2.7 62.6c-.2-.6-.2-1.2-.2-1.8s.1-1.2.2-1.7zm10.3-1.8v-1.7c.1.3.1.6.1.8 0 .3 0 .6-.1.9"/>
        </g>
        <g id="TNZ text - left">
          <path fill="#fff" d="M53.9 683.8v-31.7h9.4v10.5h29.9v10.8H63.3v10.5zm-2.2-33.3v-10.7h13.5c-.3-.3-.5-.5-.7-.8-1.3-1.7-1.9-3.8-1.8-5.9-.1-2.8 1.1-5.6 3.2-7.5 2-1.8 4.9-2.8 8.4-2.8h18.9v10.7H75.3c-1-.1-2.1.2-2.9.8-.6.6-.9 1.4-.8 2.2 0 .9.2 1.7.8 2.4.4.5 1 .8 1.7.8h19.1v10.7c0 .1-41.5.1-41.5.1M78.4 620q-7.2 0-11.4-3.9c-2.9-2.8-4.5-6.6-4.3-10.6 0-4.4 1.4-8 4.1-10.5s6.4-3.9 11-3.9h3.8v5.7l5.9-5.4 1 .8q2.55 2.1 3.9 5.1c1 2.4 1.5 5 1.4 7.5 0 4.8-1.4 8.6-4.2 11.3s-6.5 3.9-11.2 3.9m3.3-10.7c.8-.1 1.5-.5 2.1-1.1.8-1 1.3-2.3 1.2-3.7 0-2.3-1-4.5-2.8-5.9l-.4-.4zm-7.4-7.5c-.7.1-1.4.4-2 .9-.7.7-1.1 1.8-1.1 2.8-.1 1.1.3 2.1 1.1 2.9.5.5 1.2.9 2 1zm-20.4-44.6v-11.9l18.3-6.3H53.9v-9.7h39.3v11.9l-18.3 6.3h18.3v9.7zm19.7-29.4c-6.4 0-11.3-1.3-14.8-3.8s-5.5-6.6-5.5-11.9 1.8-9.3 5.5-11.9 8.5-3.8 14.8-3.8 11.3 1.3 14.8 3.8 5.5 6.6 5.5 11.9-1.8 9.3-5.5 11.9-8.5 3.8-14.8 3.8m-3.2-20.2c-2.1-.2-4.3.2-6.3 1.1-.7.4-1.6 1.2-1.6 3.2 0 2.1.9 2.8 1.6 3.2 1.9.9 4.1 1.3 6.2 1.2h6.3c2.1.1 4.3-.3 6.2-1.1.7-.4 1.6-1.2 1.6-3.2.2-1.3-.5-2.6-1.6-3.2-2-.9-4.1-1.3-6.2-1.1zm14-43.4-21.1-15.5v14.9h-9.4v-28.1h8.8l21.1 15.4v-16h9.4v29.2zm-6.1-30.8c-4.7 0-8.5-1.4-11.3-4s-4.2-6.4-4.2-11 1.4-8.3 4.2-11 6.6-4 11.3-4 8.5 1.4 11.3 4 4.2 6.4 4.2 11-1.4 8.3-4.2 11-6.6 4-11.3 4m-2.2-19c-1.3-.1-2.6.3-3.6 1.1-1.493 1.672-1.493 4.228 0 5.9 1 .8 2.3 1.2 3.6 1.1h4.3c1.3.1 2.5-.3 3.5-1 1.5-1.7 1.5-4.2 0-5.9-1-.8-2.3-1.2-3.6-1.1zM63.3 401v-10.7h1.9c-.3-.3-.5-.5-.7-.8-1.3-1.7-1.9-3.8-1.8-5.9-.1-2.8 1.1-5.6 3.2-7.5 2-1.8 4.9-2.8 8.4-2.8h18.9V384H75.3c-1-.1-2 .2-2.9.8-.6.6-.9 1.4-.8 2.2 0 .9.2 1.7.8 2.4.4.5 1 .8 1.7.8h19.1v10.7zm15-30.4q-7.2 0-11.4-3.9c-2.9-2.8-4.4-6.7-4.2-10.6 0-4.4 1.4-7.9 4.1-10.5s6.4-3.9 11-3.9h3.8v5.7l5.9-5.4 1 .8q2.55 2.1 3.9 5.1c1 2.4 1.5 5 1.4 7.5 0 4.8-1.4 8.6-4.2 11.3s-6.5 3.9-11.3 3.9m3.3-10.8c.8-.1 1.5-.5 2.1-1.1.9-1 1.3-2.3 1.2-3.6 0-2.3-1-4.5-2.8-5.9l-.4-.4zm-7.3-7.6c-.7.1-1.4.4-2 .9-.7.7-1.1 1.8-1.1 2.8-.1 1.1.3 2.1 1.1 2.9.5.5 1.2.9 2 1z"/>
          <path d="M80.1 343v18.4h.5c1.6.1 3.1-.5 4.2-1.7 1.1-1.3 1.7-3 1.6-4.7 0-2.7-1.2-5.4-3.3-7.1l4.5-4.2c1.5 1.2 2.7 2.8 3.4 4.6.9 2.2 1.4 4.5 1.3 6.9 0 4.4-1.2 7.8-3.7 10.2s-5.9 3.5-10.2 3.5c-4.4 0-7.9-1.2-10.4-3.5s-3.8-5.5-3.8-9.5 1.2-7.2 3.7-9.5c2.4-2.3 5.8-3.5 10-3.5zm-4.7 18.3h.4v-10.8h-.4c-1.5-.1-3 .4-4.1 1.4s-1.6 2.5-1.5 3.9c-.1 1.5.5 2.9 1.5 4 1.1 1.1 2.6 1.6 4.1 1.5m16.3 13.5v7.7H75.3c-1.4-.1-2.8.3-3.9 1.1-.9.9-1.4 2.1-1.3 3.4 0 1.2.3 2.4 1 3.3s1.7 1.4 2.9 1.4h17.7v7.7H64.8v-7.6h4.9v-.3c-1.6-.6-3-1.6-4-2.9-1.1-1.4-1.6-3.2-1.5-5-.1-2.4.9-4.7 2.7-6.3 1.7-1.6 4.2-2.4 7.4-2.4h17.4M78.2 405c4.3 0 7.8 1.2 10.3 3.6s3.8 5.7 3.8 9.9-1.3 7.5-3.8 9.9-5.9 3.6-10.3 3.6-7.8-1.2-10.3-3.6-3.8-5.7-3.8-9.9 1.3-7.5 3.8-9.9c2.6-2.4 6-3.6 10.3-3.6m-2.1 19h4.3c1.6.1 3.3-.4 4.5-1.5 2.1-2.3 2.1-5.8 0-8.1-1.3-1-2.9-1.6-4.6-1.5h-4.2c-1.7-.1-3.3.4-4.6 1.5-2.1 2.3-2.1 5.8 0 8.1 1.3 1.1 3 1.6 4.6 1.5m15.6 12.6v26.2h-6.8l-23.1-16.9v16.4h-6.4V437h6.8l23.1 16.9v-17.4zm-18.2 61.2c6.1 0 10.7 1.2 13.9 3.5s4.8 5.9 4.8 10.7-1.6 8.4-4.8 10.7-7.9 3.5-13.9 3.5c-6.1 0-10.7-1.2-13.9-3.5s-4.8-5.9-4.8-10.7 1.6-8.4 4.8-10.7 7.8-3.5 13.9-3.5m-3.2 20h6.3c3.1 0 5.4-.5 7-1.3 2.5-1.8 3.1-5.2 1.3-7.7-.4-.5-.8-.9-1.3-1.3-1.6-.9-3.9-1.4-7-1.4h-6.3c-3.1 0-5.4.5-7 1.4-2.5 1.8-3.1 5.2-1.3 7.7.4.5.8.9 1.3 1.3 1.6 1 3.9 1.3 7 1.3m21.4 13v9.4l-24.1 8.3v.6h24.1v6.7H55.4v-9.4l24.1-8.3v-.6H55.4v-6.7zm-11.6 61.7v18.3h.5c1.6.1 3.1-.5 4.2-1.7 1.1-1.3 1.7-3 1.6-4.7 0-2.7-1.2-5.4-3.3-7.1l4.5-4.2c1.5 1.2 2.7 2.8 3.4 4.6.9 2.2 1.4 4.5 1.3 6.9 0 4.4-1.2 7.8-3.7 10.2s-5.9 3.5-10.2 3.5c-4.4 0-7.9-1.2-10.4-3.5s-3.8-5.5-3.8-9.5 1.2-7.2 3.7-9.5 5.8-3.5 10-3.5zM75.4 611h.4v-10.8h-.4c-1.5-.1-3 .4-4.1 1.4s-1.6 2.5-1.5 3.9c-.1 1.5.5 2.9 1.5 4 1.1 1.1 2.6 1.6 4.1 1.5m16.3 13.4v7.7H75.3c-1.4-.1-2.8.3-3.9 1.1-.9.9-1.4 2.1-1.3 3.4 0 1.2.3 2.4 1 3.3s1.7 1.4 2.9 1.4h17.7v7.7H53.2v-7.7h16.5v-.3c-1.6-.6-3-1.6-4-2.9-1.1-1.4-1.6-3.2-1.5-5-.1-2.4.9-4.7 2.7-6.4 1.8-1.6 4.2-2.4 7.4-2.4zm-29.9 29.3v10.5h29.9v7.8H61.8v10.5h-6.4v-28.7zm25.6-313.8-1.9 1.8-2.4 2.2v-3.8h-5.3c-5 0-9 1.5-12 4.3s-4.6 6.8-4.6 11.6 1.6 8.8 4.7 11.8c2.5 2.3 5.7 3.7 9 4.1h-.7c-3.9 0-7.1 1.1-9.4 3.2-2.4 2.2-3.7 5.3-3.6 8.6 0 1.8.4 3.6 1.2 5.3h-.5v13.7h11.7c-2.8.6-5.5 1.9-7.6 3.9-3.1 3-4.7 7-4.7 12s1.6 9.1 4.7 12c3.1 3 7.2 4.4 12.3 4.4 1.3 0 2.7-.1 4-.3v13.5l-18.4-13.5-.8-.6H52.4v31.1h12.4v-13.4l18.3 13.4.8.6h10.8v-32.2h-8.9c1.8-.7 3.4-1.8 4.8-3.1 3.1-3 4.7-7 4.7-12s-1.6-9.1-4.7-12c-2.1-2-4.7-3.3-7.6-3.9h11.7v-13.8H74c-.3 0-.3-.1-.4-.2-.3-.4-.5-1-.4-1.5 0-.4.1-.8.3-1.1.6-.3 1.2-.5 1.9-.4h19.3v-13.8h-13c3.4-.4 6.5-1.8 9-4.1 3.1-2.9 4.6-7.1 4.6-12.4.1-2.8-.5-5.6-1.6-8.2-1-2.2-2.4-4.1-4.3-5.7zm-4.3 16.9v-3.5c.2.6.2 1.2.2 1.8.1.5 0 1-.2 1.7m-10.3 0c-.1-.3-.1-.6-.1-.8 0-.3 0-.6.1-.8zm3.3 64.2c-.9.1-1.8-.2-2.6-.7-.8-1.1-.8-2.6 0-3.7.7-.5 1.7-.8 2.6-.7h4.3c.9-.1 1.8.2 2.6.7.8 1.1.8 2.6 0 3.7-.7.5-1.7.8-2.6.7zm-2.6 73.9c-6.7 0-12 1.4-15.7 4.1-4 2.9-6.1 7.3-6.1 13.1s2 10.2 6.1 13.1c1.6 1.2 3.5 2 5.4 2.6H52.4v12.7h10.8l-8.8 3-2 .7v14.5h42.3V546H83.9l8.8-3 2-.7v-14.6H83.8q2.85-.9 5.4-2.7c4-2.9 6.1-7.3 6.1-13.1s-2-10.2-6.1-13.1c-3.7-2.7-9-4-15.7-3.9m-3.2 19.9c-3.2 0-4.7-.5-5.5-1-.3-.2-.8-.5-.8-1.9s.5-1.7.8-1.9c.8-.4 2.3-1 5.5-1h6.3c3.2 0 4.7.5 5.5 1 .3.2.8.5.8 1.9s-.5 1.7-.8 1.9c-.8.4-2.3 1-5.5 1zm17.1 74.6-1.9 1.8-2.4 2.2v-3.8h-5.3c-5 0-9 1.5-12 4.3s-4.6 6.8-4.6 11.6 1.6 8.8 4.7 11.7c2.5 2.3 5.6 3.7 9 4.1h-.7c-3.9 0-7.1 1.1-9.4 3.2-2.4 2.2-3.8 5.3-3.6 8.6 0 1.8.4 3.6 1.1 5.2H50.2V652h2.2v33.3h12.4v-10.5h29.9V661H64.8v-9.1h29.9v-13.7H74c-.3 0-.3-.1-.4-.2-.3-.4-.5-1-.4-1.5 0-.4.1-.8.3-1.1.6-.3 1.2-.5 1.9-.4h19.3v-13.7h-13c3.4-.4 6.5-1.8 9-4.1 3.1-2.9 4.6-7.1 4.6-12.4.1-2.8-.5-5.6-1.6-8.1-1-2.2-2.4-4.1-4.3-5.7zm-4.3 16.9v-3.5c.2.6.2 1.2.2 1.8.1.6 0 1.1-.2 1.7m-10.3 0c-.1-.3-.1-.6-.1-.8 0-.3 0-.6.1-.8z"/>
        </g>
        <g id="TNZ text - bottom">
          <path fill="#fff" d="M639.7 972.2v-13.6c-.3.3-.5.5-.8.7-1.7 1.3-3.8 1.9-5.9 1.8-2.8.1-5.6-1.1-7.5-3.2-1.8-2-2.8-4.9-2.8-8.4v-18.8h10.7v17.8c-.1 1 .2 2 .8 2.9.6.6 1.4.9 2.2.8.9 0 1.7-.2 2.4-.7.5-.4.8-1 .8-1.7v-19.1h10.7v41.5zm-127.8-1.5c-5.3 0-9.3-1.8-11.9-5.5s-3.8-8.5-3.8-14.8 1.3-11.3 3.8-14.8c2.6-3.6 6.6-5.5 11.9-5.5s9.3 1.8 11.9 5.5 3.8 8.5 3.8 14.8-1.3 11.3-3.8 14.8-6.6 5.5-11.9 5.5m0-31.2c-1.3-.2-2.6.5-3.2 1.6-.9 2-1.3 4.1-1.1 6.2v6.3c-.1 2.1.3 4.3 1.1 6.2.4.7 1.2 1.6 3.2 1.6s2.8-.9 3.2-1.6c.9-1.9 1.3-4.1 1.2-6.2v-6.3c.1-2.1-.3-4.3-1.2-6.2-.4-.8-1.1-1.6-3.2-1.6M652.1 970v-9.4h10.5v-29.9h10.8v29.9h10.5v9.4zm-107 0-6.2-18.3V970h-9.7v-39.3h11.9l6.3 18.3v-18.3h9.7V970zm-109.7 0v-8.8l15.5-21.1h-16v-9.4h29.2v8.8l-15.4 21.1h14.9v9.4zm170-8.9c-4.4 0-8-1.4-10.5-4.1s-3.9-6.4-3.9-11v-3.8h5.7l-5.4-5.9.8-1q2.1-2.55 5.1-3.9c2.4-1 5-1.5 7.5-1.4 4.8 0 8.6 1.4 11.3 4.2s4 6.5 4 11.3q0 7.2-3.9 11.4c-2.8 2.9-6.7 4.4-10.7 4.2m-3.8-11.6c.1.7.4 1.4.9 2 .7.7 1.8 1.1 2.8 1.1 1.1.1 2.1-.3 2.9-1.1.5-.5.9-1.2 1-2zm7.6-7.3c-.1-.8-.5-1.5-1.1-2.1-1-.8-2.3-1.3-3.7-1.2-2.3 0-4.5 1-5.9 2.8l-.4.4zm-191 19c-4.6 0-8.3-1.4-11-4.2s-4-6.6-4-11.3 1.4-8.5 4-11.3 6.4-4.2 11-4.2 8.3 1.4 11 4.2 4 6.6 4 11.3-1.4 8.5-4 11.3-6.3 4.2-11 4.2m0-22.3c-1.1-.1-2.2.3-2.9 1.1-.8 1-1.2 2.3-1.1 3.6v4.2c-.1 1.3.3 2.6 1.1 3.6 1.7 1.5 4.2 1.5 5.9 0 .8-1 1.2-2.3 1.1-3.6v-4.3c.1-1.3-.3-2.6-1.1-3.6-.8-.7-1.8-1.1-3-1m-34.8 22.3c-2.8.1-5.6-1.1-7.5-3.2-1.8-2-2.8-4.9-2.8-8.4v-18.8h10.8v17.8c-.1 1 .2 2 .8 2.9.6.6 1.4.9 2.2.8.9 0 1.7-.2 2.4-.7.5-.4.8-1 .8-1.7v-19.1h10.8v29.8h-10.7v-1.9c-.3.3-.5.5-.8.7-1.8 1.2-3.9 1.8-6 1.8m-27.6 0c-4.4 0-7.9-1.4-10.5-4.1s-3.9-6.4-3.9-11v-3.8h5.7l-5.4-5.9.8-1q2.1-2.55 5.1-3.9c2.4-1 5-1.5 7.5-1.4 4.8 0 8.6 1.4 11.3 4.2s4 6.5 4 11.3q0 7.2-3.9 11.4c-2.8 2.9-6.6 4.4-10.6 4.2zm-3.8-11.6c.1.7.4 1.4.9 2 .7.7 1.8 1.1 2.8 1.1 1.1.1 2.1-.3 2.9-1.1.5-.5.9-1.2 1-2zm7.6-7.3c-.1-.8-.5-1.5-1.1-2.1-1-.8-2.3-1.3-3.6-1.2-2.3 0-4.5 1-5.9 2.8l-.4.4z"/>
          <path d="M604.8 931.7c4.4 0 7.8 1.2 10.2 3.7s3.5 5.9 3.5 10.2c0 4.4-1.2 7.9-3.5 10.4s-5.5 3.8-9.5 3.8-7.2-1.2-9.5-3.7-3.5-5.8-3.5-10v-2.3h18.4v-.5c.1-1.6-.5-3.1-1.7-4.2-1.3-1.1-3-1.7-4.7-1.6-2.7 0-5.4 1.2-7.1 3.3l-4.2-4.5c1.2-1.5 2.8-2.7 4.6-3.4 2.3-1 4.7-1.4 7-1.2m.7 22.4c1.5.1 2.9-.5 4-1.5 1-1.1 1.6-2.6 1.5-4.1v-.4h-10.9v.4c-.1 1.5.4 3 1.4 4.1 1 1 2.4 1.6 4 1.5m-93.6-22.4c4.8 0 8.4 1.6 10.7 4.8s3.5 7.9 3.5 13.9c0 6.1-1.2 10.7-3.5 13.9s-5.9 4.8-10.7 4.8-8.4-1.6-10.7-4.8-3.5-7.9-3.5-13.9c0-6.1 1.2-10.7 3.5-13.9s5.9-4.8 10.7-4.8m0 31.2c1.8.1 3.6-.8 4.5-2.3.9-1.6 1.3-3.9 1.3-7v-6.3c0-3.1-.5-5.4-1.3-7-1.8-2.5-5.2-3.1-7.7-1.3-.5.4-.9.8-1.3 1.3-.9 1.6-1.4 3.9-1.4 7v6.3c0 3.1.5 5.4 1.4 7 1 1.5 2.7 2.4 4.5 2.3m-93.6-31.3c4.2 0 7.5 1.3 9.9 3.8s3.6 5.9 3.6 10.3c0 4.3-1.2 7.8-3.6 10.3s-5.7 3.8-9.9 3.8-7.5-1.3-9.9-3.8-3.6-5.9-3.6-10.3c0-4.3 1.2-7.8 3.6-10.3 2.5-2.5 5.7-3.8 9.9-3.8m0 22.4c1.5.1 3-.5 4.1-1.6 1-1.3 1.6-2.9 1.5-4.6v-4.3c.1-1.7-.4-3.3-1.5-4.6-2.3-2.1-5.8-2.1-8.1 0-1 1.3-1.6 2.9-1.5 4.6v4.3c-.1 1.7.4 3.3 1.5 4.6 1 1.1 2.5 1.7 4 1.6m-63.1-22.4c4.4 0 7.8 1.2 10.2 3.7s3.5 5.9 3.5 10.3-1.2 7.9-3.5 10.4-5.5 3.8-9.5 3.8-7.2-1.2-9.5-3.7c-2.3-2.4-3.5-5.8-3.5-10v-2.3h18.4v-.5c.1-1.6-.5-3.1-1.7-4.2-1.3-1.1-3-1.7-4.7-1.6-2.7 0-5.4 1.2-7.1 3.3l-4.2-4.5c1.2-1.5 2.8-2.7 4.6-3.4 2.3-1 4.7-1.4 7-1.3m.7 22.5c1.5.1 2.9-.5 4-1.5 1-1.1 1.6-2.6 1.5-4.1v-.4h-10.9v.4c-.1 1.5.4 3 1.5 4.2.9 1.1 2.4 1.5 3.9 1.4m315.9-21.9v29.9h10.5v6.4h-28.7v-6.4H664v-29.9zm-22.9 0v38.5h-7.7v-16.6h-.3c-.6 1.6-1.6 3-2.9 4-1.4 1.1-3.2 1.6-5 1.5-2.4.1-4.7-.9-6.3-2.7s-2.4-4.2-2.4-7.4v-17.4h7.7v16.3c-.1 1.4.3 2.8 1.1 3.9.9.9 2.1 1.4 3.4 1.3 1.2 0 2.4-.3 3.3-1s1.4-1.7 1.4-2.9V932h7.7m-93.4.2v36.3h-9.4l-8.2-24.1h-.6v24.1h-6.7v-36.3h9.4l8.3 24.1h.6v-24.1zm-92.9 0v6.8l-16.9 23.1h16.4v6.4H437v-6.8l16.9-23.1h-17.5v-6.4zm-63.3 0V959h-7.7v-4.9h-.3c-.6 1.6-1.6 3-2.9 4-1.4 1.1-3.2 1.6-5 1.5-2.4.1-4.7-.9-6.3-2.7s-2.4-4.2-2.4-7.4v-17.4h7.7v16.3c-.1 1.4.3 2.8 1.1 3.9.9.9 2.1 1.4 3.4 1.3 1.2 0 2.4-.3 3.3-1s1.4-1.7 1.4-2.9V932h7.7m205.5-3.4c-2.8-.1-5.6.5-8.2 1.6-2.2 1-4.1 2.4-5.7 4.3l-1.6 2 1.8 1.9 2.2 2.4h-3.8v5.3c0 5 1.5 9 4.3 12s6.8 4.6 11.6 4.6 8.8-1.6 11.7-4.7c2.3-2.5 3.7-5.6 4.1-9v.7c0 3.9 1.1 7.1 3.2 9.4 2.2 2.4 5.3 3.8 8.6 3.6 1.8 0 3.6-.4 5.2-1.1v12.1h13.7v-2.2h33.3v-12.4h-10.4v-29.9H661v29.9h-9.1v-29.9h-13.7v20.6c0 .3-.1.3-.2.5-.4.3-1 .5-1.5.5-.4 0-.8-.1-1.1-.3-.3-.6-.5-1.2-.4-1.9v-19.4h-13.7v13c-.4-3.4-1.8-6.5-4.1-9-3-3.1-7.2-4.6-12.4-4.6m-2.1 12.1c.6-.2 1.2-.2 1.8-.2s1.2.1 1.7.2zm1.8 10.3h1.7c-.3.1-.6.1-.8.1-.3 0-.6 0-.9-.1m-92.6-22.3c-5.8 0-10.2 2-13.1 6.1-2.7 3.7-4.1 9-4.1 15.7s1.4 12 4.1 15.7c2.9 4 7.3 6.1 13.1 6.1s10.2-2 13.1-6.1c1.2-1.6 2.1-3.5 2.7-5.4v10.8h12.7v-10.8l3 8.8.7 2h14.5v-42.3h-12.7V940l-3-8.8-.7-2h-14.5V940q-.9-2.85-2.7-5.4c-2.9-4-7.3-6-13.1-5.9m0 31.2c-1.4 0-1.8-.5-1.9-.8-.4-.8-1-2.3-1-5.5v-6.3c0-3.2.5-4.7 1-5.5.2-.3.5-.8 1.9-.8s1.7.5 1.9.8c.4.8 1 2.3 1 5.5v6.3c0 3.2-.5 4.7-1 5.5-.1.3-.4.8-1.9.8m-93.6-31.2c-5 0-9.1 1.6-12 4.7-2 2.1-3.3 4.7-3.9 7.6v-11.7h-13.7v20.6c0 .3-.1.3-.2.5-.4.3-1 .5-1.5.4-.4 0-.8-.1-1.1-.3-.3-.6-.5-1.2-.4-1.9v-19.3h-13.7v13c-.4-3.4-1.8-6.5-4.1-9-2.9-3.1-7.1-4.6-12.4-4.6-2.8-.1-5.6.5-8.2 1.6-2.2 1-4.1 2.4-5.7 4.3l-1.6 2 1.8 1.9 2.2 2.4h-3.9v5.3c0 5 1.5 9 4.3 12s6.8 4.6 11.6 4.6 8.8-1.6 11.7-4.7c2.3-2.5 3.7-5.6 4.1-9v.7c0 3.9 1.1 7.1 3.2 9.4 2.2 2.4 5.3 3.7 8.6 3.6 1.8 0 3.6-.4 5.2-1.1v.5h13.7v-11.6c.6 2.8 1.9 5.5 3.9 7.6 3 3.1 7 4.7 12 4.7s9.1-1.6 12-4.7 4.4-7.2 4.4-12.3c0-1.3-.1-2.7-.3-4h13.5l-13.4 18.3-.6.8v10.8h31.1v-12.4h-13.5l13.4-18.3.6-.8v-10.8h-32.2v8.9c-.7-1.8-1.8-3.4-3.1-4.8-2.7-3.3-6.7-4.9-11.8-4.9m0 22.3q-1.05.15-1.8-.6c-.5-.7-.8-1.7-.7-2.6v-4.3c-.1-.9.2-1.8.7-2.6 1.1-.8 2.6-.8 3.7 0 .5.7.8 1.7.7 2.6v4.2c.1.9-.2 1.8-.7 2.6-.5.6-1.2.8-1.9.7m-65.2-10.2c.6-.2 1.2-.2 1.8-.2s1.2.1 1.7.2zM355 951h1.7c-.3.1-.6.1-.8.1-.4 0-.7 0-.9-.1"/>
        </g>
        <g id="TNZ text - top">
          <path fill="#fff" d="M668.6 93.8c-4.8 0-8.6-1.4-11.3-4.2s-4-6.5-4-11.3q0-7.2 3.9-11.4c2.8-2.9 6.6-4.5 10.6-4.3 4.4 0 8 1.4 10.5 4.1s3.9 6.4 3.9 11v4h-5.7l5.4 5.9-.8 1q-2.1 2.55-5.1 3.9c-2.3 1-4.8 1.5-7.4 1.3m-4.5-12c.1.8.5 1.5 1.1 2.1 1 .8 2.3 1.2 3.7 1.1 2.3 0 4.5-1 5.9-2.8l.4-.4zm7.7-7.4c-.1-.7-.4-1.4-.9-2-.7-.7-1.8-1.1-2.8-1.1-1.1-.1-2.1.3-2.9 1.1-.5.5-.9 1.2-1 2zm-66.3 19.4c-4.6 0-8.3-1.4-11-4.2s-4-6.6-4-11.3 1.3-8.5 4-11.3 6.4-4.3 11-4.3 8.3 1.4 11 4.2 4 6.6 4 11.3-1.3 8.5-4 11.3-6.4 4.4-11 4.3m0-22.2c-1.1-.1-2.2.3-2.9 1.1-.8 1-1.2 2.3-1.1 3.6v4.3c-.1 1.3.3 2.6 1.1 3.6 1.7 1.5 4.2 1.5 5.9 0 .8-1 1.2-2.3 1.1-3.6v-4.3c.1-1.3-.3-2.6-1.1-3.6-.8-.9-1.9-1.2-3-1.1m-93.6 22.2c-5.3 0-9.3-1.8-11.9-5.5s-3.8-8.5-3.8-14.8 1.3-11.3 3.8-14.8 6.6-5.5 11.9-5.5 9.3 1.8 11.9 5.5 3.8 8.5 3.8 14.8-1.3 11.3-3.8 14.8-6.6 5.5-11.9 5.5m0-31.1c-2.1 0-2.8.9-3.2 1.6-.9 1.9-1.3 4.1-1.1 6.2v6.3c-.1 2.1.3 4.3 1.1 6.2.4.7 1.2 1.6 3.2 1.6 1.3.2 2.6-.5 3.2-1.6.9-1.9 1.3-4.1 1.2-6.2v-6.3c.1-2.1-.3-4.3-1.2-6.2-.4-.7-1.1-1.6-3.2-1.6M419 93.8c-4.8 0-8.6-1.4-11.3-4.2s-4-6.5-4-11.3q0-7.2 3.9-11.4c2.8-2.9 6.7-4.5 10.7-4.3 4.4 0 8 1.4 10.5 4.1s3.9 6.4 3.9 11v4H427l5.4 5.9-.8 1q-2.1 2.55-5.1 3.9c-2.3 1-4.9 1.5-7.5 1.3m-4.5-12c.1.8.5 1.5 1.1 2.1 1 .8 2.3 1.3 3.6 1.2 2.3 0 4.5-1 5.9-2.8l.4-.4c0-.1-11-.2-11-.1m7.7-7.4c-.1-.7-.4-1.4-.9-2-.7-.7-1.8-1.1-2.8-1.1-1.1-.1-2.1.3-2.9 1.1-.5.5-.9 1.2-1 2zm217.7 18.8V75.4c.1-1-.2-2.1-.8-2.9-.6-.6-1.4-.9-2.2-.8-.9 0-1.7.2-2.4.8-.5.4-.8 1-.8 1.7v19.1H623V63.5h10.7v1.9c.3-.3.5-.5.8-.7 1.7-1.3 3.8-1.9 5.9-1.9 2.8-.1 5.6 1.1 7.5 3.1 1.8 2 2.8 4.9 2.8 8.4v18.9zm-80.2 0v-8.8l15.4-21.1h-14.9v-9.4h28.1v8.8l-15.4 21.1h16v9.4zm-77 0-6.3-18.3v18.3h-9.7V54h11.9l6.3 18.3V54h9.7v39.3h-11.9zm-92.4 0V75.4c.1-1-.2-2.1-.8-2.9-.6-.6-1.4-.9-2.2-.8-.9 0-1.7.2-2.4.8-.5.4-.8 1-.8 1.7v19.1h-10.7V51.8h10.7v13.6c.3-.3.5-.5.8-.7 1.7-1.3 3.8-1.9 5.9-1.9 2.8-.1 5.6 1.1 7.5 3.1 1.8 2 2.8 4.9 2.8 8.4v18.9zm-39.8 0V63.3h-10.4v-9.4h31.7v9.4h-10.5v29.9z"/>
          <path d="M382.6 53.2v16.5h.3c.6-1.6 1.6-3 2.9-4 1.4-1.1 3.2-1.6 5-1.5 2.4-.1 4.7.9 6.3 2.7s2.4 4.2 2.4 7.4v17.4h-7.6V75.4c.1-1.4-.3-2.8-1.1-3.9-.9-.9-2.1-1.4-3.4-1.3-1.2 0-2.4.3-3.3 1s-1.4 1.7-1.4 2.9v17.6h-7.8V53.2zm129.3 1.6c4.8 0 8.4 1.6 10.7 4.8s3.5 7.9 3.5 13.9-1.2 10.7-3.5 13.9-5.9 4.8-10.7 4.8-8.4-1.6-10.7-4.8-3.5-7.9-3.5-13.9c0-6.1 1.2-10.7 3.5-13.9s5.9-4.8 10.7-4.8m0 31.2c1.8.2 3.6-.8 4.5-2.3.9-1.6 1.3-3.9 1.3-7v-6.3c0-3.1-.5-5.4-1.3-7-1.8-2.5-5.2-3.1-7.7-1.3-.5.4-.9.8-1.3 1.3-.9 1.6-1.4 3.9-1.4 7v6.3c0 3.1.5 5.4 1.4 7s2.7 2.5 4.5 2.3m74.9-30.5v6.8l-16.9 23.1h17.4v6.4h-26.1V85l16.9-23.1h-16.4v-6.4zm-93.7-.1v36.3h-9.4l-8.3-24.1h-.5v24.1h-6.7V55.5h9.4l8.3 24.1h.6V55.5zm-122.8.1v6.4h-10.5v29.9H352v-30h-10.5v-6.4zm297.6 8.8c4 0 7.2 1.2 9.5 3.7 2.3 2.4 3.5 5.8 3.5 10v2.3h-18.3v.4c-.1 1.6.5 3.1 1.7 4.2 1.3 1.1 3 1.6 4.7 1.5 2.7 0 5.4-1.2 7.1-3.3l4.2 4.5c-1.2 1.5-2.8 2.7-4.6 3.4-2.2.9-4.5 1.4-6.9 1.3-4.4 0-7.8-1.2-10.2-3.7s-3.5-5.9-3.5-10.2c0-4.4 1.2-7.9 3.5-10.4s5.3-3.8 9.3-3.7M662.5 76h10.8v-.4c.1-1.5-.4-3-1.4-4.1s-2.5-1.6-3.9-1.5c-1.5-.1-2.9.5-4 1.5-1 1.1-1.6 2.6-1.5 4.1zm-22.2-11.7c2.4-.1 4.7.9 6.3 2.7s2.4 4.2 2.4 7.4v17.4h-7.7V75.4c.1-1.4-.3-2.8-1.1-3.9-.9-.9-2.1-1.4-3.3-1.3-1.2 0-2.4.3-3.3 1s-1.4 1.7-1.4 2.9v17.6h-7.7V64.9h7.7v4.9h.3c.6-1.6 1.6-3 2.9-4 1.4-1 3.1-1.6 4.9-1.5m-34.8-.1c4.2 0 7.5 1.3 9.9 3.8s3.6 6 3.6 10.4-1.2 7.8-3.6 10.3-5.7 3.8-9.9 3.8-7.5-1.3-9.9-3.8-3.6-5.9-3.6-10.3 1.2-7.8 3.6-10.3 5.7-3.9 9.9-3.9m0 22.5c1.5.1 3-.5 4.1-1.6 1-1.3 1.6-2.9 1.5-4.6v-4.3c.1-1.7-.4-3.3-1.5-4.6-2.3-2.1-5.8-2.1-8.1 0-1 1.3-1.6 2.9-1.5 4.6v4.3c-.1 1.7.4 3.3 1.5 4.6 1 1.1 2.5 1.7 4 1.6M418.4 64.3c4 0 7.2 1.2 9.5 3.7 2.3 2.4 3.5 5.8 3.5 10v2.3h-18.5v.4c-.1 1.6.5 3.1 1.7 4.2 1.3 1.1 3 1.7 4.7 1.6 2.7 0 5.4-1.2 7.1-3.3l4.2 4.5c-1.2 1.5-2.8 2.6-4.6 3.4-2.2.9-4.5 1.4-6.9 1.3-4.4 0-7.8-1.2-10.2-3.7s-3.5-5.9-3.5-10.2c0-4.4 1.2-7.9 3.5-10.4 2.2-2.5 5.4-3.9 9.5-3.8m-5.5 11.6h10.8v-.4c.1-1.5-.4-3-1.4-4.1s-2.5-1.6-3.9-1.5c-1.5-.1-2.9.5-4 1.5-1 1.1-1.5 2.6-1.5 4.1zm-27.3-25.7h-13.7v2.2h-33.4v12.4H349v29.9h13.8V64.8h9.1v29.9h13.7V74.2c0-.3.1-.3.2-.4.4-.3 1-.5 1.5-.4.4 0 .8.1 1.1.3.3.6.5 1.2.4 1.9v19.2h13.7v-13c.4 3.4 1.8 6.5 4.1 9 2.9 3.1 7.1 4.6 12.4 4.6 2.8.1 5.6-.5 8.2-1.6 2.2-1 4.2-2.4 5.7-4.3l1.6-2-1.8-1.9-2.2-2.4h3.8v-5.3c0-5-1.5-9-4.3-12s-6.8-4.6-11.6-4.6-8.8 1.6-11.7 4.7c-2.3 2.5-3.7 5.6-4.1 9v-.7c0-3.9-1.1-7.1-3.2-9.4-2.2-2.4-5.3-3.8-8.6-3.6-1.8 0-3.6.4-5.2 1.1zm32 22.7c.3-.1.6-.1.8-.1.3 0 .6 0 .8.1zm0 10.3h3.5c-.6.2-1.2.2-1.8.2s-1.2-.1-1.7-.2m94.3-31.4c-5.8 0-10.2 2-13.1 6.1-1.2 1.6-2.1 3.5-2.7 5.4V52.5h-12.7v10.8l-3-8.8-.7-2h-14.5v42.3h12.7V83.9l3 8.8.7 2h14.5V83.9q.9 2.85 2.7 5.4c2.9 4 7.3 6.1 13.1 6.1s10.2-2 13.1-6.1c2.7-3.7 4.1-9 4.1-15.7s-1.4-12-4.1-15.7c-3-3.9-7.4-6-13.1-6.1m0 31.3c-1.4 0-1.7-.5-1.9-.8-.4-.8-1-2.3-1-5.5v-6.3c0-3.2.5-4.7 1-5.5.2-.3.5-.8 1.9-.8s1.7.5 1.9.8c.4.8 1 2.3 1 5.5v6.3c0 3.2-.5 4.7-1 5.5-.2.3-.5.9-1.9.8m77.9-30.6h-31.1v12.4h13.5l-13.4 18.3-.6.8v10.8h32.2v-8.9c.7 1.8 1.8 3.4 3.1 4.8 3 3.1 7 4.7 12 4.7s9.1-1.6 12-4.7c2-2.1 3.3-4.7 3.9-7.6v11.7h13.7V74.2c0-.3.1-.3.2-.4.4-.3 1-.5 1.5-.4.4 0 .8.1 1.1.3.3.6.5 1.2.4 1.9v19.2H652v-13c.4 3.4 1.8 6.5 4.1 9 2.9 3.1 7.1 4.6 12.4 4.6 2.8.1 5.6-.5 8.2-1.6 2.2-1 4.1-2.4 5.7-4.3l1.6-2-1.8-1.9-2.2-2.4h3.8v-5.3c0-5-1.5-9-4.3-12s-6.8-4.6-11.6-4.6-8.8 1.6-11.7 4.7c-2.3 2.5-3.7 5.6-4.1 9v-.7c0-3.9-1.1-7.1-3.2-9.4-2.2-2.4-5.3-3.7-8.6-3.6-1.8 0-3.6.4-5.2 1.1v-.5h-13.7v11.6c-.6-2.8-1.9-5.5-3.9-7.6-3-3.1-7-4.7-12-4.7s-9.1 1.6-12 4.7c-3 3.1-4.4 7.2-4.4 12.3 0 1.3.1 2.7.3 4h-13.5l13.4-18.3.6-.8zM667.2 73c.3-.1.6-.1.8-.1.3 0 .6 0 .8.1zm-61.7 10.7q-1.05.15-1.8-.6c-.5-.7-.8-1.7-.7-2.6v-4.3c-.1-.9.2-1.8.7-2.6 1.1-.8 2.6-.8 3.7 0 .5.7.8 1.7.7 2.6v4.3c.1.9-.2 1.8-.7 2.6-.6.5-1.2.7-1.9.6m61.6-.5h3.5c-.6.2-1.2.2-1.8.2-.5 0-1.1-.1-1.7-.2"/>
        </g>
      </g>
    </g>
  </g>
</svg>
