<svg xmlns="http://www.w3.org/2000/svg" viewBox="0 0 1024 1024">
   <circle cx="512" cy="512" r="512" style="fill:#6900d1"/>
   <path d="M308.77 287a43.55 43.55 0 0 0-43.547 43.549v362.9a43.55 43.55 0 0 0 43.547 43.549h406.45a43.55 43.55 0 0 0 43.547-43.549v-362.9A43.55 43.55 0 0 0 715.22 287zm36.291 72.58h72.58a21.774 21.774 0 0 1 21.775 21.775v116.13a21.774 21.774 0 0 1-21.775 21.773h-94.354v-29.031h79.838a7.26 7.26 0 0 0 7.258-7.26v-87.096a7.26 7.26 0 0 0-7.258-7.258h-43.549a7.26 7.26 0 0 0-7.258 7.258v43.55a7.26 7.26 0 0 0 7.258 7.257h36.291v29.031H345.06a21.774 21.774 0 0 1-21.773-21.773v-72.58a21.774 21.774 0 0 1 21.773-21.775zm130.64 0h72.582a21.774 21.774 0 0 1 21.773 21.775v72.58a21.774 21.774 0 0 1-21.773 21.773h-72.582a21.774 21.774 0 0 1-21.773-21.773v-72.58a21.774 21.774 0 0 1 21.773-21.775m130.65 0h72.58a21.774 21.774 0 0 1 21.773 21.775v116.13a21.774 21.774 0 0 1-21.773 21.773h-94.355v-29.031h79.84a7.26 7.26 0 0 0 7.258-7.26v-87.096a7.26 7.26 0 0 0-7.258-7.258h-43.549a7.26 7.26 0 0 0-7.258 7.258v43.55a7.26 7.26 0 0 0 7.258 7.257h36.291v29.031h-50.807a21.774 21.774 0 0 1-21.775-21.773v-72.58a21.774 21.774 0 0 1 21.775-21.775zm-116.13 29.033a7.26 7.26 0 0 0-7.26 7.258v43.549a7.26 7.26 0 0 0 7.26 7.258h43.547a7.26 7.26 0 0 0 7.26-7.258v-43.55a7.26 7.26 0 0 0-7.26-7.257zm-145.16 159.68h79.838v29.031h-65.322a7.26 7.26 0 0 0-7.258 7.258v43.549a7.26 7.26 0 0 0 7.258 7.258h65.322v29.033h-79.838a21.774 21.774 0 0 1-21.773-21.775v-72.58a21.774 21.774 0 0 1 21.773-21.773zm116.13 0h72.58a21.774 21.774 0 0 1 21.775 21.773v72.58a21.774 21.774 0 0 1-21.775 21.775h-72.58a21.774 21.774 0 0 1-21.773-21.775v-72.58a21.774 21.774 0 0 1 21.773-21.773m130.64 0h108.87v116.13H671.67v-87.098h-21.775v87.098h-29.031v-87.098h-14.516a7.26 7.26 0 0 0-7.258 7.258v79.84h-29.033v-94.355a21.774 21.774 0 0 1 21.773-21.773zm-116.13 29.031a7.26 7.26 0 0 0-7.258 7.258v43.549a7.26 7.26 0 0 0 7.258 7.258h43.549a7.26 7.26 0 0 0 7.258-7.258v-43.55a7.26 7.26 0 0 0-7.258-7.257z" style="fill:#fff"/>
</svg>
