<svg xmlns="http://www.w3.org/2000/svg" viewBox="0 0 1024 1024">
   <circle cx="512" cy="512" r="512" style="fill:#3d87f5"/>
   <path d="M515.082 511.976V392.598h-63.17a135.168 135.168 0 0 1 78.141-24.678c74.506 0 135.127 60.18 135.127 134.124v8.499h127.181v-8.5c0-35.123-6.963-69.212-20.654-101.355a259.072 259.072 0 0 0-56.197-82.74 261.12 261.12 0 0 0-83.354-55.746 262.144 262.144 0 0 0-102.093-20.52 262.758 262.758 0 0 0-178.114 69.222v-70.216h-120.3v148.89l154.604 122.429h128.84zm-5.673.02v119.676h62.27a134.144 134.144 0 0 1-78.213 24.883c-74.363 0-134.882-60.314-134.882-134.441v-8.52H231.63v8.52c0 35.195 6.932 69.366 20.603 101.591a260.096 260.096 0 0 0 56.074 82.923 261.12 261.12 0 0 0 83.21 55.91 262.86 262.86 0 0 0 280.76-49.786v70.554H792.34V634.682L638.024 512.007z" style="fill:#fff"/>
</svg>
